<svg width="486" height="176" fill="none" xmlns="http://www.w3.org/2000/svg"><g clip-path="url(#a)"><path fill="url(#b)" d="M0 0h486v176H0z"/><circle opacity=".2" cx="470.5" cy="158.5" r="31.5" fill="#fff"/><path opacity=".2" d="M387.5 102.5a7 7 0 1 1-14 0 7 7 0 0 1 14 0Z" fill="#fff"/><circle opacity=".2" cx="269.5" cy="132.5" r="5.5" fill="#fff"/><circle opacity=".2" cx="289.5" cy="58.5" r="5.5" fill="#fff"/><path opacity=".2" d="M169 106a7 7 0 1 1-14 0 7 7 0 0 1 14 0ZM85 36c0 7.18-5.82 13-13 13s-13-5.82-13-13 5.82-13 13-13 13 5.82 13 13ZM38.5 165.171c0 17.397-14.103 31.5-31.5 31.5s-31.5-14.103-31.5-31.5 14.103-31.5 31.5-31.5 31.5 14.103 31.5 31.5Z" fill="#fff"/></g><defs><linearGradient id="b" x1="486" y1="176" x2="-137.164" y2="42.844" gradientUnits="userSpaceOnUse"><stop stop-color="#92A3FD"/><stop offset="1" stop-color="#9DCEFF"/></linearGradient><clipPath id="a"><path fill="#fff" d="M0 0h486v176H0z"/></clipPath></defs></svg>