<svg width="218" height="104" fill="none" xmlns="http://www.w3.org/2000/svg"><g clip-path="url(#a)"><path fill="#fff" d="M0 0h218v104H0z"/><path fill="url(#b)" d="M0 0h218v104H0z"/><path fill-rule="evenodd" clip-rule="evenodd" d="M210.5 99c46.116 0 83.5-37.384 83.5-83.5S256.616-68 210.5-68 127-30.616 127 15.5 164.384 99 210.5 99Zm.532-21.274c34.073 0 61.694-27.621 61.694-61.694 0-34.073-27.621-61.694-61.694-61.694-34.073 0-61.694 27.621-61.694 61.694 0 34.073 27.621 61.694 61.694 61.694Z" fill="#fff" fill-opacity=".06"/><path fill-rule="evenodd" clip-rule="evenodd" d="M211.032 54.325c21.148 0 38.293-17.145 38.293-38.293 0-21.149-17.145-38.293-38.293-38.293-21.149 0-38.293 17.144-38.293 38.293s17.144 38.293 38.293 38.293ZM210.5 33.05c9.693 0 17.551-7.858 17.551-17.551 0-9.693-7.858-17.551-17.551-17.551-9.693 0-17.551 7.858-17.551 17.551 0 9.693 7.858 17.55 17.551 17.55Z" fill="#fff" fill-opacity=".06"/><circle cx="28.5" cy="51.5" r="62.5" fill="#fff" fill-opacity=".11"/></g><defs><linearGradient id="b" x1="0" y1="52" x2="218" y2="52" gradientUnits="userSpaceOnUse"><stop stop-color="#27D9E7"/><stop offset="1" stop-color="#558AE9"/></linearGradient><clipPath id="a"><path fill="#fff" d="M0 0h218v104H0z"/></clipPath></defs></svg>