<svg id="b9c65286-02d0-49e0-b419-6173dac181f5" data-name="Layer 2" xmlns="http://www.w3.org/2000/svg" viewBox="0 0 327.89 654.26"><defs><style>.b180970a-5459-4299-acf0-2db44612f896{fill:#003444}.f0c99117-5934-4c0a-bab0-30e04fa708a7{fill:#e5b08c}.e348e653-8c7a-4e41-b7e1-21938196a6fa{fill:#c4403f}.b3040e69-5a8c-4402-9abf-8e03d3e16653{fill:#0ab595}.ab3d2c96-50c2-4519-8fa9-61530ea52f2a{fill:#98a6aa}.bfd814ab-5fd6-4a1e-aa8a-1ca9ea859a37{fill:#004660}.e0265b12-8740-4f73-953c-964868c5e509{fill:#f5f4ef}.a33b414b-be5b-4d0a-8a2f-848c887cd8a9{fill:#f6c19d}.f1a7c2c4-00b6-4d54-acb6-61813a8e218c{fill:#0e3441}</style></defs><path class="b180970a-5459-4299-acf0-2db44612f896" d="M264.8 419.42h-37.28a12.59 12.59 0 0 1 0-25.17h37.28a3.49 3.49 0 0 0 3.39-2.76l19.48-93.41a12.59 12.59 0 0 1 24.78 4.46c0 .23-.09.45-.14.68l-19.48 93.41a28.74 28.74 0 0 1-28.03 22.79Z" transform="translate(-.01)"/><rect class="f0c99117-5934-4c0a-bab0-30e04fa708a7" x="270.25" y="323.03" width="49.61" height="45.97" rx="11.06" transform="rotate(-81.67 295.049 346.024)"/><path class="f0c99117-5934-4c0a-bab0-30e04fa708a7" d="M275.12 374.17c-49 0-90.2-16.31-116.41-30.22-34.31-18.2-58.23-40.07-69.17-54.46a22 22 0 1 1 35.07-26.66c16.49 21.69 78.13 68.71 154 67.25a22 22 0 1 1 .86 44c-1.47.07-2.92.09-4.35.09Z" transform="translate(-.01)"/><path class="e348e653-8c7a-4e41-b7e1-21938196a6fa" d="M160.78 342.77a25.85 25.85 0 0 1-14.38-4.37c-30.94-20.64-49-42.16-55.27-50.46a26 26 0 0 1 39.62-33.68 26.64 26.64 0 0 1 1.71 2.25c3.68 4.85 17.66 22 42.75 38.69a26 26 0 0 1-14.43 47.57Z" transform="translate(-.01)"/><path class="b3040e69-5a8c-4402-9abf-8e03d3e16653" d="M327.9 389.28a11.39 11.39 0 0 1-11.38 11.4h-91.41V364a16 16 0 0 1 16-16h16.43l56.2 17.83h3.15a11 11 0 0 1 11 11" transform="translate(-.01)"/><path class="ab3d2c96-50c2-4519-8fa9-61530ea52f2a" d="M212.57 573v-22.09a9.1 9.1 0 0 0 7.1-2.9c13.52-13.87 12.17-67.59 11-115-.4-15.75-.81-32-.81-48h22c0 15.72.41 31.87.8 47.48 1.49 59.24 2.78 110.4-17.22 130.92a31.26 31.26 0 0 1-22.87 9.59Z" transform="translate(-.01)"/><path class="f0c99117-5934-4c0a-bab0-30e04fa708a7" d="M169.7 563.35a22 22 0 0 1-21.27-27.82L166 470.91l-97-36.2a22 22 0 0 1 15.4-41.28l115.88 43.2a22 22 0 0 1 13.55 26.43l-22.89 84.05a22 22 0 0 1-21.24 16.24Z" transform="translate(-.01)"/><path class="b180970a-5459-4299-acf0-2db44612f896" d="M192.58 484a26.62 26.62 0 0 1-9.34-1.7L67.36 439.13A26.75 26.75 0 0 1 86 389l115.88 43.2a26.76 26.76 0 0 1-9.34 51.8Z" transform="translate(-.01)"/><path class="ab3d2c96-50c2-4519-8fa9-61530ea52f2a" d="M38.25 453.94h23.6v47.5h-23.6z"/><path class="b3040e69-5a8c-4402-9abf-8e03d3e16653" d="M1.61 530v69.8a32.81 32.81 0 0 0 32.81 32.81h161.12a32.81 32.81 0 0 0 32.8-32.8v-42.9a47.77 47.77 0 0 0-38.16-46.8L59 483.18A47.79 47.79 0 0 0 1.61 530Z" transform="translate(-.01)"/><path class="bfd814ab-5fd6-4a1e-aa8a-1ca9ea859a37" d="M197.94 654.26H172.4a10.85 10.85 0 0 1-10.83-10.84 10.83 10.83 0 0 1 10.83-10.83h25.54a10.83 10.83 0 0 1 10.84 10.82 10.84 10.84 0 0 1-10.84 10.84ZM51 654.26H25.49a10.85 10.85 0 0 1-10.83-10.84 10.83 10.83 0 0 1 10.83-10.83H51a10.83 10.83 0 0 1 10.84 10.82A10.84 10.84 0 0 1 51 654.26Z" transform="translate(-.01)"/><circle class="e0265b12-8740-4f73-953c-964868c5e509" cx="148.01" cy="569.1" r="32.3"/><path class="b3040e69-5a8c-4402-9abf-8e03d3e16653" d="M81.78 453.91H25.49a10.83 10.83 0 0 1-10.83-10.83v-9.49a10.83 10.83 0 0 1 10.84-10.83 10.72 10.72 0 0 1 1.79.15l56.29 9.49a10.82 10.82 0 0 1 9 10.68 10.83 10.83 0 0 1-10.8 10.83Z" transform="translate(-.01)"/><path d="M149.59 298.07v74.55a64.26 64.26 0 0 1-64.25 64.29h-21A64.26 64.26 0 0 1 0 372.7v-74.63a64.26 64.26 0 0 1 64.25-64.25h21A64.26 64.26 0 0 1 149.59 298Z" transform="translate(-.01)" style="fill:#e44e4e"/><path d="M100.83 279a26.75 26.75 0 0 1-16.94-47.46l44-36a26.75 26.75 0 0 1 34.62 40.79c-.25.21-.5.42-.76.62l-44 36a26.69 26.69 0 0 1-16.92 6.05Z" transform="translate(-.01)" style="fill:#ddaa87"/><rect class="a33b414b-be5b-4d0a-8a2f-848c887cd8a9" x="39.66" y="31.76" width="163.63" height="232.86" rx="81.81"/><path class="f1a7c2c4-00b6-4d54-acb6-61813a8e218c" d="M186 144.35a12.53 12.53 0 0 0-12.52 12.56v8.88a12.54 12.54 0 0 0 25.08 0v-8.88a12.53 12.53 0 0 0-12.5-12.56ZM111.47 144.35a12.53 12.53 0 0 0-12.54 12.52v8.92a12.54 12.54 0 0 0 25.08 0v-8.88a12.53 12.53 0 0 0-12.5-12.56ZM89.76 141.64a4.72 4.72 0 0 1-2.61-8.64c18.86-12.48 38.73-6.69 47.49.24a4.72 4.72 0 1 1-5.77 7.47l-.09-.07c-4.26-3.37-20.1-10.57-36.42.23a4.71 4.71 0 0 1-2.6.77ZM206 141.42a4.8 4.8 0 0 1-1.9-.4c-14.3-6.3-28.18-2.11-31.91-.14a4.72 4.72 0 0 1-4.4-8.35c7.4-3.9 24.19-7.16 40.12-.15a4.72 4.72 0 0 1-1.91 9Z" transform="translate(-.01)"/><path class="f1a7c2c4-00b6-4d54-acb6-61813a8e218c" d="M231 56a31.41 31.41 0 0 0-3.29-14.18 31.7 31.7 0 0 1-17 11.2A37.18 37.18 0 0 0 184.81 0a37.37 37.37 0 0 1-.06 18.76 32.6 32.6 0 0 0-25.59-6.39 32.75 32.75 0 0 1 3.81 7H54a18.19 18.19 0 0 0-18.11 18.26V40h-1.36a19.92 19.92 0 0 0-19.85 20l.54 137.79a9.45 9.45 0 0 0 9.49 9.41l18.47-.07-.18-45.8h10.43v17.94a7.08 7.08 0 0 0 7.08 7.08h8.26a7.08 7.08 0 0 0 7.08-7.08v-68.36a39.52 39.52 0 0 0 24.71-16.81 37.43 37.43 0 0 1-5.85 13.15 37.13 37.13 0 0 0 31.71-9.74 37.24 37.24 0 0 1-3.37 13.6 37.11 37.11 0 0 0 28.38-13.9 37 37 0 0 0 28.3 13.64 37.26 37.26 0 0 1-3.14-20.94A37.06 37.06 0 0 0 212 107.12V103l-.09-18.09A31.59 31.59 0 0 0 231 56Z" transform="translate(-.01)"/><path class="a33b414b-be5b-4d0a-8a2f-848c887cd8a9" d="M53.43 131.83a27.54 27.54 0 1 0-11 54 28 28 0 0 0 5.55.56 27.45 27.45 0 0 0 5.5-.56Z" transform="translate(-.01)"/><path d="M167.1 209.76v19a8.68 8.68 0 0 1-8.67 8.68h-3.89a8.68 8.68 0 0 1-8.67-8.68v-19a8.67 8.67 0 0 1 8.66-8.68h3.9a8.67 8.67 0 0 1 8.67 8.67Z" transform="translate(-.01)" style="fill:#aa2561"/><path d="M167.1 209.76v1.78h-21.23v-1.78a8.67 8.67 0 0 1 8.66-8.68h3.9a8.67 8.67 0 0 1 8.67 8.67Z" transform="translate(-.01)" style="fill:#fff"/><path d="M167.1 226.59v2.21a8.68 8.68 0 0 1-8.67 8.68h-3.89a8.68 8.68 0 0 1-8.67-8.68v-7.54a17.77 17.77 0 0 1 21.23 5.33Z" transform="translate(-.01)" style="fill:#cc6297"/><path class="bfd814ab-5fd6-4a1e-aa8a-1ca9ea859a37" d="M149.59 371.31v1.31a64.26 64.26 0 0 1-64.25 64.29h-21A64.26 64.26 0 0 1 0 372.7v-1.39Z" transform="translate(-.01)"/><path class="a33b414b-be5b-4d0a-8a2f-848c887cd8a9" d="M238.83 413.07c-101 0-177.76-65.13-207.55-104.3a23.6 23.6 0 0 1 37.57-28.57c23.21 30.52 89.61 87.69 174.57 85.62h.58a23.6 23.6 0 0 1 .57 47.19c-1.92.04-3.84.06-5.74.06Z" transform="translate(-.01)"/><path class="e348e653-8c7a-4e41-b7e1-21938196a6fa" d="M108.87 373.91a25.83 25.83 0 0 1-14.38-4.37C58 345.24 36.81 319.91 29.4 310.2a26 26 0 0 1 41.33-31.43c4.54 6 21.77 27.08 52.57 47.62a26 26 0 0 1-14.43 47.52Z" transform="translate(-.01)"/><path class="a33b414b-be5b-4d0a-8a2f-848c887cd8a9" d="M134.64 597.61a22 22 0 0 1-22-22V488.4c-11.75-13.23-39.39-44.06-52.94-56.83a22 22 0 0 1 30.23-32c18.88 17.81 59.56 64 61.28 66a22 22 0 0 1 5.48 14.54v95.54a22 22 0 0 1-22 22Z" transform="translate(-.01)"/><path class="bfd814ab-5fd6-4a1e-aa8a-1ca9ea859a37" d="M134.65 506.8a26.64 26.64 0 0 1-20.09-9.09s-4.74-5.39-11.65-13.11c-21.35-23.86-37.85-41.47-46.46-49.6a26.75 26.75 0 0 1 36.69-38.93c12.41 11.7 33.84 35.2 49.64 52.85 7.11 8 12 13.46 12 13.46a26.75 26.75 0 0 1-20.08 44.42ZM201.51 596.11v9.15a5.59 5.59 0 0 1-5.58 5.6h-83.71v-40.12h63.93a25.37 25.37 0 0 1 25.36 25.37Z" transform="translate(-.01)"/><path class="e0265b12-8740-4f73-953c-964868c5e509" d="M201.51 603.78v1.48a5.6 5.6 0 0 1-5.6 5.6h-83.69v-11.6h23.09a22.93 22.93 0 0 1 10 2.26 22.93 22.93 0 0 0 10 2.26Z" transform="translate(-.01)"/><path class="bfd814ab-5fd6-4a1e-aa8a-1ca9ea859a37" d="M256.35 440.8h-38.84a12.59 12.59 0 1 1-.71-25.17h39.55a4.17 4.17 0 0 0 4.06-3.3l20.3-97.33a12.59 12.59 0 0 1 24.78 4.46c0 .23-.09.45-.14.68L285 417.47a29.44 29.44 0 0 1-28.65 23.33Z" transform="translate(-.01)"/><rect class="bfd814ab-5fd6-4a1e-aa8a-1ca9ea859a37" x="151.16" y="610.85" width="37.15" height="14.73" rx="4.9"/><path class="e0265b12-8740-4f73-953c-964868c5e509" d="M169.74 614.91a3.32 3.32 0 1 0 3.32 3.32 3.32 3.32 0 0 0-3.32-3.32Z" transform="translate(-.01)"/><path class="a33b414b-be5b-4d0a-8a2f-848c887cd8a9" d="M240.85 365.41v47.67H298a12 12 0 0 0 12-12V369a12 12 0 0 0-12-12h-48.7a8.45 8.45 0 0 0-8.45 8.41Z" transform="translate(-.01)"/></svg>