<svg id="e5d9ea05-0f25-415a-a4f6-3dd7cc6e0325" data-name="Layer 2" xmlns="http://www.w3.org/2000/svg" viewBox="0 0 1697.04 1301.02"><defs><style>.a080b457-bfdb-4f85-82d0-7d3a66567f49{fill:#16253f}.b82eedae-ccec-47df-9275-5ef83480d5d3{fill:#f08265}.afec67ca-7819-4534-9456-1151cff92c70{fill:#7b6a58}.bfe660e9-618b-41a5-8aab-d504c231b652{fill:#f8ba8e}</style></defs><path class="a080b457-bfdb-4f85-82d0-7d3a66567f49" d="M47.52 1045.63s12.74 7.61 12.54 12 2 63.61-2.16 73.57-185.41 15.8-185.41 15.8-90.46-11.5-99-24-3.84-20.94 1.71-22 221.24-64.59 221.24-64.59Z" transform="translate(673.86 154.04)"/><path class="b82eedae-ccec-47df-9275-5ef83480d5d3" d="M187 484.17 53.08 555.86S-1.53 965.91 5.82 1016.7l-6.94 40.16c4.75 9.32 28.81 16.37 34.56 8.67 1-1.3 21-58.08 21-58.08l-.71-.19c39.58-121.33 127.76-380 128.3-395.19Z" transform="translate(673.86 154.04)"/><path class="a080b457-bfdb-4f85-82d0-7d3a66567f49" d="M744.4 1045.63s-12.73 7.61-12.51 12-2 63.61 2.16 73.57 185.39 15.8 185.39 15.8 90.47-11.5 99-24 3.83-20.94-1.73-22-221.23-64.59-221.23-64.59Z" transform="translate(673.86 154.04)"/><path class="afec67ca-7819-4534-9456-1151cff92c70" d="M254.07-23.31C157.35 87.6 62.86 408.25 42.85 595.49c0 0 111.42 22.53 139.36-17s282.35-532.7 282.35-532.7S396.85-187 254.07-23.31Z" transform="translate(673.86 154.04)"/><path class="b82eedae-ccec-47df-9275-5ef83480d5d3" d="M-214.16 112.7c15.46 35.21 11 26 137.86 283.67 29.81 60.57 40.31 59.27 64.49 27.86C27.58 373.05-87.11 86-141.27 46.26s-72.89 66.44-72.89 66.44Z" transform="translate(673.86 154.04)"/><path class="b82eedae-ccec-47df-9275-5ef83480d5d3" d="M-9.8 345.45S72.42 537.32 7.64 725.37c0 0-27.88 36.15-42.63-8.7s26.08-72.18-36.52-283.76c-25.25-85.4 61.71-87.46 61.71-87.46Z" transform="translate(673.86 154.04)"/><path class="b82eedae-ccec-47df-9275-5ef83480d5d3" d="M-32.24 670.07s-26.45 54.44-25.41 66c4 44.77-6.21 91.26-6.94 101.07-.24 3.22 6.48 7 6.48 7s-3 18.57 6.52 18.66 10.18-6.15 10.18-6.15 11.56 1.19 16-7.34c0 0 8.19-1 14.19-15.63s22.57-52.25 25.85-72.3-.07-74.38-.07-74.38Z" transform="translate(673.86 154.04)"/><path class="b82eedae-ccec-47df-9275-5ef83480d5d3" d="M-33.33 684.54s-50.19 55.71-51 58.48-15.55 49-12.39 54.1 12.79-2 16.36-10 7.28-17.72 7.28-17.72l24-11.28 19-38Z" transform="translate(673.86 154.04)"/><path class="bfe660e9-618b-41a5-8aab-d504c231b652" d="M780.75 1011.11c3.77-24.57-52.86-464.82-52.86-464.82l-129-71.72s-.62 127.13 0 143.5c.56 15.16 92.95 260.12 133.19 379.62l-.58.15s20 56.82 21 58.09c5.73 7.72 29.81.65 34.56-8.67Z" transform="translate(673.86 154.04)"/><path class="afec67ca-7819-4534-9456-1151cff92c70" d="M566.26-25.46c40.34 60.68 134 428.34 170.38 614.79 0 0-119 53.73-147 14.22S246-117.32 246-117.32s200-89.02 320.26 91.86Z" transform="translate(673.86 154.04)"/><path d="M376.08-139.21S244.46-174 31.57-137.06C-215.1-94.29-265.85 12.68-265.85 12.68l-13.89 32.49s-7 9.21-23.5 62.08c-4.76 15.29 28.26-75.49 28-56.1 0 0 15.48 16.28 44 93.24 0 0 48.45 57.17 96.67 95 20.45 16 40.87 28.63 57.54 31.88C-42.16 278.1 27.81 197 49.5 183.37c82.49-51.74 193.32 144.16 218 144.16 99.43 0 202.32-234.38 108.58-466.74Z" transform="translate(673.86 154.04)" style="fill:#ffefd4"/><path class="bfe660e9-618b-41a5-8aab-d504c231b652" d="M-191.39 54.5V36.63S-114.24-20 2.68 4.53c75.17 15.77 18.77 107.73-31.1 171.39-24.71 31.54-73.3 28.64-93.85-5.75Z" transform="translate(673.86 154.04)"/><path class="b82eedae-ccec-47df-9275-5ef83480d5d3" d="M-141.43 221c-.85-12.26 0 26.43 0 26.43l-89.83-103-37.54-123.99s23.62-51.63 63.68-4.59C-83.79 158.31-141.43 221-141.43 221Z" transform="translate(673.86 154.04)"/><path class="a080b457-bfdb-4f85-82d0-7d3a66567f49" d="M-503.84 12.48s-62.47-28.38-121.43 3.94c-77.48 42.48-46.2 157.17-16.07 205.07s62.8 67.87 27.34 161.56c-43.85 115.84 71.71 165.72 71.71 165.72s-45.47-75.44 8.83-116.58S-470.59 361-475.76 315s-50.09-261.78-28.08-302.52Z" transform="translate(673.86 154.04)"/><path class="b82eedae-ccec-47df-9275-5ef83480d5d3" d="M-361.93 106.7c63.46-40.85 93.13-86.26 93.13-86.26l57 59.76-3.65 65.25s-53.3-12-93.31 38.91C-319 197.38-361.67 144-361.67 144s-8.11-32.25-.26-37.3Z" transform="translate(673.86 154.04)"/><path class="bfe660e9-618b-41a5-8aab-d504c231b652" d="M-433.24 282s127-26.85 152-44.44c12.37-8.69-56.95-112.37-62.51-114.95-30.86-14.36-74.61-19.61-99.33-11.61-11.85 3.86-68 23.28-93.39 61-27.56 40.88-21.68 54.8-21.57 81.19.04 10.12 81.15 33.91 124.8 28.81Z" transform="translate(673.86 154.04)"/><path class="a080b457-bfdb-4f85-82d0-7d3a66567f49" d="M-548.91 261.34s-19.9-93.34 119.79-121.51l59.68-27.53 16.91-14.18s-76.36-130.9-201.31-91.87c-43.45 13.58-89.74 76.92-59.57 179.82 18.32 62.48 64.5 75.27 64.5 75.27Z" transform="translate(673.86 154.04)"/><path class="bfe660e9-618b-41a5-8aab-d504c231b652" d="M-429.12 139.83s-37.21-25-16.56-56.74c11.72-18 66.74 1.33 78.58 17.38s6.22 32 6.22 32ZM-359.39 263.11a228.52 228.52 0 0 1 4.16 24.23c.84 8.6-5.1 18.39-9.71 14.55-32.66-27.14-68.3-19.94-68.3-19.94Z" transform="translate(673.86 154.04)"/><path class="a080b457-bfdb-4f85-82d0-7d3a66567f49" d="m-458.12 282.28-4.31-.38s-19.51-6.72-6.48-64.53l2.77-4.62s-7.86 34.85 8.02 69.53Z" transform="translate(673.86 154.04)"/><path class="a080b457-bfdb-4f85-82d0-7d3a66567f49" d="m314.71 418.19-2.76-11.77 5.77 10.97-3.01.8z"/><path d="M-342.58 259.62s-3.62-21-7.62-38l11.45 36.93Z" transform="translate(673.86 154.04)" style="fill:#fff"/><path d="M-530.21 1.13s-19.79-16.78-36.23-12.7-38.08 59.9-38.08 59.9Z" transform="translate(673.86 154.04)" style="fill:#b7e2fa"/><path class="bfe660e9-618b-41a5-8aab-d504c231b652" d="M-215.1 119.08c7.5 37.74 46.27 90.65 92.46 370 11 66.59 40.16 81.47 66.18 51.59s-15.39-446.47-67-489.55c-91.64-76.58-91.64 67.96-91.64 67.96Z" transform="translate(673.86 154.04)"/><path class="bfe660e9-618b-41a5-8aab-d504c231b652" d="M-51 406.12s47.4 242.32-49.28 416.16c0 0-33.76 30.71-40.43-16S-129 785.58-128.65 565C-128.48 448.43-51 406.12-51 406.12Z" transform="translate(673.86 154.04)"/><path class="bfe660e9-618b-41a5-8aab-d504c231b652" d="M-136.47 766.44s-26.46 54.43-25.41 66c4 44.76-6.21 91.25-6.94 101.07-.24 3.22 6.48 7 6.48 7s-3 18.57 6.52 18.65 10.17-6.14 10.17-6.14 11.57 1.19 16-7.34c0 0 8.19-1 14.2-15.63s22.57-52.25 25.85-72.3-.11-74.44-.11-74.44Z" transform="translate(673.86 154.04)"/><path class="bfe660e9-618b-41a5-8aab-d504c231b652" d="M-137.56 780.91s-50.19 55.71-51 58.48-15.55 49-12.39 54.1 12.79-2 16.36-10 7.28-17.73 7.28-17.73l24-11.27 19-38Z" transform="translate(673.86 154.04)"/></svg>