<svg id="ac448324-9796-4fb3-81c7-d35e2dac4caf" data-name="Layer 2" xmlns="http://www.w3.org/2000/svg" viewBox="0 0 913.33 1378.95"><defs><style>.aa473988-ff6e-4f09-bbec-886e3f8c1a3c{fill:#b8d5de}.e1d35abb-063d-4702-b0f1-c72d8d851070{fill:#8fbecc}.b8fb3a1b-ecef-4791-8a14-2e619f4a7f58{fill:#e0a38b}.a71e9c49-f0ea-4832-8b5e-3a95b6130d7d{fill:#293f4d}.f69d7be1-0f1f-4ac6-9ebd-6d82fcdf6eb6{fill:#21323d}.b06392cd-d079-4ceb-a077-417335e297af{fill:#f0bca8}.a5f11775-7b58-4795-9a59-740da2b49042{fill:#71a1b0}</style></defs><ellipse class="aa473988-ff6e-4f09-bbec-886e3f8c1a3c" cx="778.7" cy="1148.34" rx="200.06" ry="115.51" transform="matrix(.5 -.87 .87 .5 -1193.66 581.5)"/><path class="e1d35abb-063d-4702-b0f1-c72d8d851070" d="M588.52 1201.89c0-90.22 63.34-199.92 141.46-245 38-21.94 72.46-24.42 97.87-10.92l.07-.12 1.37.79 1.37.79 47.45 27.33c-25.55-14.4-60.64-12.17-99.39 10.21-78.13 45.1-141.47 154.8-141.47 245 0 45 15.78 76.66 41.29 91.48l-46.63-27.12c-1.3-.7-2.57-1.44-3.83-2.22l-2.48-1.45.12-.19c-23.04-15.72-37.2-46.11-37.2-88.58Z" transform="translate(-588.52 -667.04)"/><path class="b8fb3a1b-ecef-4791-8a14-2e619f4a7f58" d="M976.27 1034.6c1.35.45 6.73 14.8-4 62.79S957 1180.81 957 1180.81h-27.82s-8.52-59.65-14.8-100.91-13-72.65-8.52-100.46Z" transform="translate(-588.52 -667.04)"/><path class="a71e9c49-f0ea-4832-8b5e-3a95b6130d7d" d="M1273.17 1560.46s38.35 15.47 70.64 69.29 80.73 259.68 80.73 259.68-24.89 22.2-63.24 4c0 0 15.48-34.31-30.27-107.63s-140.39-171.89-148-198.46Z" transform="translate(-588.52 -667.04)"/><path class="f69d7be1-0f1f-4ac6-9ebd-6d82fcdf6eb6" d="M1035 1389.81s63.68 42.61 72.2 114.81 35 193.3 35 193.3-27.36 20.63-61 9.42c0 0-27.36-80.73-46.19-122s-103.16-168.18-103.16-168.18Z" transform="translate(-588.52 -667.04)"/><path class="f69d7be1-0f1f-4ac6-9ebd-6d82fcdf6eb6" d="M1246.71 1167.36c-.89 2.69-129.16 153.38-211.68 222.45 0 0-39.47 28.25-103.16 27.36 0 0-16.59-32.3 7.63-77.59s87-191.51 142.62-259.68l152 25.12 17.94 22Z" transform="translate(-588.52 -667.04)"/><path class="a71e9c49-f0ea-4832-8b5e-3a95b6130d7d" d="M1226.43 926.09s39.35-1.37 87.11 22.18 122.44 30.27 104.27 173.56-144.64 438.63-144.64 438.63-45.07 37.67-90.14 26.91c0 0-20.86-48.44-12.11-137.91s72.65-324.26 72.65-324.26l-32.29-13.79Z" transform="translate(-588.52 -667.04)"/><path d="M929.26 804.09s53.74 2.68 106.66 25.11 121.88 74 152.83 86.11 55.5 10.42 78.71 27.58 79 28.25 53.82 98.89-76 77-110 69.63-91-19-131-19.85-72.2-16.59-122-48-71.76-90.14-71.76-90.14Z" transform="translate(-588.52 -667.04)" style="fill:#ff8330"/><path class="b8fb3a1b-ecef-4791-8a14-2e619f4a7f58" d="M913.93 862.83s23.77 54.27-5.83 87.46c0 0-11.21 12.55-26 9.86s-25.21-7.95-40.41-3.52l40.64-88.86Z" transform="translate(-588.52 -667.04)"/><path class="b06392cd-d079-4ceb-a077-417335e297af" d="M893.75 827.18s-11.43 45.74-25.56 92.16-74 64.59-103.6 63.91-28.26-37.34-38-49.78c0 0-6.39 1.34-15.48-1.68s13.8-30.95 7.74-56.51l171.21-57.86Z" transform="translate(-588.52 -667.04)"/><path d="M791.16 848.37s41.71 10.43 49.11 28.25 11.1 25.57 26.91 15.81 26.57.07 26.57.07S919 873.26 925.37 841s3-57.18 3-57.18Z" transform="translate(-588.52 -667.04)" style="fill:#5c4b51"/><path class="f69d7be1-0f1f-4ac6-9ebd-6d82fcdf6eb6" d="M847.9 842.6s-61.11 24.94-82 29-72.32 22.53-98.89 7.06-56.85-33-67.27-41 26.5-17.89 76.65-44.77Z" transform="translate(-588.52 -667.04)"/><path class="b06392cd-d079-4ceb-a077-417335e297af" d="M1168.78 1298.09s22.77-20.93 36.67-40.4 37.23-93 91.94-110.07l82.53-23.77s.89 50.23-49.79 100.47S1213 1337.11 1213 1337.11Z" transform="translate(-588.52 -667.04)"/><path d="M1297.39 1147.62s-59.74-18.79-86.11-36.21-68.61-56.18-97.32-61.11-85.21-34.67-74-89.77c0 0 12.56-71.24 122.44-18.32 0 0 213.29 107.45 217.52 181.64Zm66.34 724.97s14.17 3.16 29 18.63 31-5.29 29.75-10.52l-8.26-33.31s15.73 3.69 20.89 20.29 10.09 62.56 7.4 76-16.82 20.19-31.62 43.51-62.34 63.68-115.26 58.3-63.24-37.67-39.47-59.65 67.28-55.16 78-78.93 23.07-40.39 28.8-42.62c.04.01.7 6.26.77 8.3ZM1136 1668.44s-1.6 8.6-4.09 22.53-35 13.9-48.21-4.48-17.39-21.59-17.39-21.59-15.13-5.55-31 29.88-70.9 45-90 59.76c-21.87 16.82-11.11 59.41 21.19 62.23 34.64 3 172.22-38.57 191.05-48.66s20.63-36.78 11.66-58.53-35.47-52.51-35.47-52.51Z" transform="translate(-588.52 -667.04)" style="fill:#ffbe26"/><path class="b06392cd-d079-4ceb-a077-417335e297af" d="M864.6 864.18s11.66-17.49 31.84-10.77S891.51 900.06 883 905s-26.46 5.83-27.81 0 3.58-31 9.41-40.82Z" transform="translate(-588.52 -667.04)"/><path class="a71e9c49-f0ea-4832-8b5e-3a95b6130d7d" d="M928.69 786.6S906.2 842 812.35 848.37s-135.89-44.74-136.23-49.78 6.06-118.07 112.69-130.18 142.57 58.66 139.88 118.19Zm-185.08 381.99c0 22.38 15.71 31.45 35.09 20.26s35.09-38.39 35.08-60.77-15.7-31.44-35.08-20.26-35.09 38.4-35.09 60.77Z" transform="translate(-588.52 -667.04)"/><path class="f69d7be1-0f1f-4ac6-9ebd-6d82fcdf6eb6" d="M757.06 1160.83c0 13.8 9.69 19.4 21.64 12.5s21.64-23.69 21.64-37.49-9.69-19.4-21.64-12.49-21.64 23.65-21.64 37.48Z" transform="translate(-588.52 -667.04)"/><path class="a5f11775-7b58-4795-9a59-740da2b49042" d="M778.7 1132.1c3.94-2.27 7.5-2.44 10-.89L1370.32 1467l-19.86 34.39-581.57-335.79c-2.62-1.44-4.25-4.6-4.25-9.15 0-8.96 6.3-19.86 14.06-24.35Z" transform="translate(-588.52 -667.04)"/><path class="aa473988-ff6e-4f09-bbec-886e3f8c1a3c" d="M1218.93 1565.84c0 90.21 63.33 126.78 141.46 81.68s141.47-154.81 141.47-245-63.34-126.78-141.47-81.67-141.47 154.77-141.46 244.99Z" transform="translate(-588.52 -667.04)"/><path class="e1d35abb-063d-4702-b0f1-c72d8d851070" d="M1170.21 1537.72c0-90.22 63.34-199.92 141.47-245 38-21.94 72.45-24.42 97.87-10.92l.06-.12 1.37.79c.46.26.92.52 1.37.79l47.45 27.33c-25.55-14.4-60.64-12.16-99.39 10.21-78.13 45.11-141.47 154.8-141.46 245 0 45 15.78 76.66 41.29 91.48l-46.63-27.12c-1.3-.7-2.57-1.44-3.83-2.22l-2.48-1.45.12-.19c-23.05-15.72-37.21-46.11-37.21-88.58Z" transform="translate(-588.52 -667.04)"/><path class="a71e9c49-f0ea-4832-8b5e-3a95b6130d7d" d="M1325.31 1504.42c0 22.38 15.71 31.45 35.08 20.26s35.09-38.39 35.09-60.77-15.71-31.44-35.09-20.26-35.08 38.4-35.08 60.77Z" transform="translate(-588.52 -667.04)"/><path class="e1d35abb-063d-4702-b0f1-c72d8d851070" d="M1425.43 1546.7c0 13.81 9.69 19.4 21.64 12.5s21.64-23.68 21.64-37.48-9.69-19.4-21.64-12.5-21.64 23.68-21.64 37.48Z" transform="translate(-588.52 -667.04)"/><path class="a5f11775-7b58-4795-9a59-740da2b49042" d="M1360.39 1459.18c6.1-3.53 11.59-3.76 15.52-1.34l86.33 49.85c-3.91-2.19-9.26-1.86-15.18 1.56-12 6.9-21.64 23.68-21.64 37.48 0 6.75 2.34 11.49 6.1 13.82l-86.29-49.8c-4-2.23-6.48-7.09-6.48-14.07 0-13.82 9.69-30.6 21.64-37.5Z" transform="translate(-588.52 -667.04)"/><path class="b06392cd-d079-4ceb-a077-417335e297af" d="M1168.78 1298.09s-50.33-4.37-65.13-3.36-16.15 26.57-16.49 34.64-1 10.77-6.39 24.56 13.67 40 44 54.49 39.76-10.43 53.89-27.24 34.3-44.07 34.3-44.07-6.3-32.96-44.18-39.02Z" transform="translate(-588.52 -667.04)"/><path class="b8fb3a1b-ecef-4791-8a14-2e619f4a7f58" d="M964.43 1243.59s-27.35 15.75 1.6 35.83c7 4.85-12.66 8.69-42.29-12.09-14-9.86-14.47-12.21-12.5-24.4l2.37-14.74h37.16l20.85 18.61Z" transform="translate(-588.52 -667.04)"/><path class="b8fb3a1b-ecef-4791-8a14-2e619f4a7f58" d="M950.93 1173.64s16.82 8.74 19.18 25.56 11.29 38.14 13.89 49.34-12.21 6.83-18.6-3.59-30.95-15.14-41.37-13.79-12.79 11.77-12.79 11.77 5.38-32.29 6.39-44.07 10.29-26.86 10.29-26.86 7.21-1.39 23.01 1.64Z" transform="translate(-588.52 -667.04)"/></svg>