<svg width="29" height="56" viewBox="0 0 29 56" fill="none" xmlns="http://www.w3.org/2000/svg">
<path d="M27.5808 55.6971C27.1545 55.7413 26.7242 55.7775 26.2858 55.7976L1.53203 55.8177H1.45562H1.32692L0.892576 55.7775C0.79338 55.7775 0.698246 55.7381 0.628103 55.668C0.55796 55.5978 0.518555 55.5027 0.518555 55.4035C0.518555 55.3043 0.55796 55.2092 0.628103 55.139C0.698246 55.0689 0.79338 55.0295 0.892576 55.0295L1.33095 54.9893H1.45562H1.53605L26.2858 55.0094C26.7202 55.0295 27.1505 55.0617 27.5808 55.1099C27.6424 55.1306 27.6958 55.17 27.7337 55.2227C27.7716 55.2754 27.792 55.3386 27.792 55.4035C27.792 55.4684 27.7716 55.5316 27.7337 55.5843C27.6958 55.637 27.6424 55.6764 27.5808 55.6971Z" fill="#C6C6C6"/>
<path d="M23.0846 5.24426C23.0846 5.24426 23.0846 5.40513 23.0604 5.67861C22.984 6.84893 22.7226 10.1427 22.1234 12.0169C21.9545 12.5397 21.4276 13.7744 20.8083 15.1739C19.8993 17.2733 18.7893 19.6863 18.3671 20.7521C18.2303 21.098 16.9031 20.4424 16.5492 20.3781C15.6564 20.2051 15.5478 18.6125 15.8374 17.2733C15.9311 16.8045 16.1024 16.3546 16.3441 15.9421L16.4205 15.8255L16.4728 15.749C16.9635 15.0332 17.7638 14.1082 18.4837 13.2676C19.0164 12.6865 19.4893 12.0532 19.8953 11.3774C20.2975 10.5208 21.5885 5.39306 21.5885 5.39306C22.1958 4.7335 23.0846 5.24426 23.0846 5.24426Z" fill="#FFEDE5"/>
<path d="M23.2531 4.68947C23.2089 4.88251 23.1727 5.06751 23.1445 5.21632C23.0922 5.4898 23.0681 5.67077 23.0681 5.67077C22.6177 6.14132 21.7409 5.67077 21.7409 5.67077C21.6812 5.59034 21.6275 5.50566 21.5801 5.41741C21.3384 5.00211 21.2422 4.51811 21.3066 4.04197C21.3709 3.67599 21.4353 2.83545 21.4353 2.83545H21.5962C21.7651 2.83545 21.8173 3.35828 21.8294 3.6036C21.8325 3.63704 21.8325 3.6707 21.8294 3.70414C21.8387 3.66086 21.8564 3.61985 21.8817 3.58349C21.9352 3.51865 22.0041 3.46816 22.082 3.43657C22.16 3.40497 22.2445 3.39327 22.3281 3.40251C22.5332 3.40251 22.7303 3.40251 22.9394 3.40251C23.0336 3.4005 23.1271 3.41975 23.2129 3.45882C23.2435 3.47144 23.271 3.49067 23.2933 3.51512C23.5628 3.7886 23.3255 4.40393 23.2531 4.68947Z" fill="#FFEDE5"/>
<path d="M23.2531 4.68952C23.2088 4.88256 23.1727 5.06756 23.1445 5.21637C23.1129 5.16836 23.078 5.12266 23.0399 5.07963C22.8625 4.9074 22.6536 4.77086 22.4246 4.67746C22.1672 4.54072 21.4594 4.13854 21.6766 3.73235C21.7134 3.67694 21.7669 3.63468 21.8294 3.61169L21.8897 3.59159C22.2226 3.54143 22.5585 3.51455 22.8952 3.51115C23.0037 3.51115 23.1123 3.47496 23.2209 3.46289C23.251 3.47649 23.2783 3.49559 23.3013 3.5192C23.5628 3.78865 23.3255 4.40398 23.2531 4.68952Z" fill="#E0855C"/>
<path d="M17.1118 12.2665C17.2438 11.5103 17.4293 10.7644 17.6668 10.0345C17.6963 9.95586 17.705 9.87101 17.6923 9.78803C17.6796 9.70506 17.6458 9.62673 17.5941 9.56056C17.5425 9.49438 17.4747 9.44256 17.3973 9.41006C17.3199 9.37756 17.2355 9.36546 17.1521 9.37491C16.9801 9.40501 16.8126 9.45634 16.6534 9.52774C16.6534 9.52774 17.0555 8.36948 16.4885 7.98741C15.9214 7.60535 15.0809 8.3373 14.7551 8.88426C14.8182 8.76731 14.8358 8.63119 14.8046 8.50203C14.7734 8.37287 14.6956 8.25978 14.5862 8.18448C14.184 7.92709 12.3863 9.9098 12.7402 11.5386C13.0941 13.1674 13.2429 12.7089 13.2429 12.7089C13.2429 12.7089 16.9992 12.4757 17.1118 12.2665Z" fill="#3B2645"/>
<path d="M13.1426 12.0047C13.1026 11.9498 13.0503 11.9052 12.9898 11.8744C12.9294 11.8437 12.8625 11.8276 12.7947 11.8276C12.7268 11.8276 12.66 11.8437 12.5995 11.8744C12.5391 11.9052 12.4867 11.9498 12.4468 12.0047C12.0969 12.4068 12.6921 13.2112 13.1426 13.2594C13.169 12.8416 13.169 12.4225 13.1426 12.0047Z" fill="#E0855C"/>
<path d="M19.6298 16.8712C19.096 18.1322 18.6735 19.4376 18.367 20.7723C18.3429 20.9009 18.3187 21.0216 18.2986 21.1382C18.1659 21.9426 17.7637 25.908 17.6994 26.5314C17.6994 26.5837 17.6994 26.6118 17.6994 26.6118C14.5504 27.4805 11.2646 26.6118 11.2646 26.6118C11.2646 26.6118 11.2646 26.5515 11.2646 26.4349C11.1922 25.6627 10.8825 22.4574 10.6975 19.6864C10.601 18.2707 10.5407 16.9717 10.5568 16.1633C10.5568 15.8657 11.2485 15.8979 11.7231 15.8295C12.2927 15.7564 12.8661 15.7161 13.4404 15.7089H13.6173L13.6575 15.2464L13.6897 14.9367L13.7661 14.1082C13.8184 14.1082 13.8707 14.1283 13.923 14.1324C14.0239 14.1509 14.1261 14.1616 14.2286 14.1645C14.3531 14.1747 14.4782 14.1747 14.6027 14.1645L14.7796 14.1444C14.858 14.1366 14.9358 14.1245 15.0129 14.1082C15.1416 14.0801 15.2662 14.0439 15.3829 14.0077L15.4874 13.9715H15.5156L15.596 13.9393C15.7461 13.8796 15.8913 13.8083 16.0304 13.7262C16.1068 13.6819 16.1711 13.6377 16.2234 13.6015L16.2596 13.5774L16.328 13.5251C16.3471 13.5157 16.3636 13.5019 16.3762 13.4849C16.3762 13.5452 16.3762 13.5693 16.3762 13.5975C16.34 13.8589 16.3039 14.1967 16.2878 14.5345C16.2878 14.7638 16.2636 14.993 16.2556 15.1941C16.2556 15.5359 16.2556 15.7853 16.2556 15.7853C16.3306 15.7813 16.4058 15.7813 16.4808 15.7853C16.4845 15.7832 16.4886 15.7821 16.4929 15.7821C16.4971 15.7821 16.5013 15.7832 16.5049 15.7853C16.8329 15.8006 17.1594 15.8383 17.4822 15.8979C18.2236 16.0311 18.9364 16.291 19.5896 16.6661C19.619 16.6903 19.639 16.724 19.6464 16.7614C19.6537 16.7988 19.6479 16.8376 19.6298 16.8712Z" fill="#FFEDE5"/>
<path d="M16.3682 13.4487C16.3146 13.7369 16.1976 14.0096 16.0255 14.2469C15.8535 14.4842 15.6308 14.6803 15.3736 14.8208C15.1163 14.9614 14.8311 15.0429 14.5384 15.0595C14.2458 15.076 13.9531 15.0273 13.6816 14.9167L13.7581 14.0882C14.2135 14.176 14.6826 14.1644 15.1331 14.054C15.5836 13.9436 16.0049 13.7372 16.3682 13.4487Z" fill="#E0855C"/>
<path d="M13.2432 10.7983C13.01 11.0356 12.9939 11.5785 12.9738 12.1737C12.9135 13.9795 13.4564 14.5466 14.3774 14.6431C15.2984 14.7396 16.2676 14.3897 16.4647 12.7127C16.5652 11.8761 16.6698 11.104 16.3681 10.738C15.8936 10.1991 13.931 10.0583 13.2432 10.7983Z" fill="#FFEDE5"/>
<path d="M16.3159 12.4715C16.3159 12.4715 16.6014 11.7235 17.0438 12.1216C17.4862 12.5198 16.8628 13.6539 16.1952 13.5654C16.1952 13.5654 16.0987 12.7289 16.3159 12.4715Z" fill="#FFEDE5"/>
<path d="M16.8387 12.4474C16.7346 12.4835 16.6408 12.5442 16.5652 12.6244C16.4832 12.6947 16.4162 12.7809 16.3682 12.8777C16.3682 12.9099 16.3963 12.926 16.4204 12.9099C16.4446 12.8938 16.521 12.7893 16.5773 12.733C16.6115 12.7773 16.6556 12.8131 16.706 12.8375C16.7152 12.839 16.7247 12.838 16.7335 12.8346C16.7422 12.8311 16.7498 12.8254 16.7556 12.818C16.7613 12.8106 16.765 12.8018 16.7662 12.7925C16.7674 12.7832 16.766 12.7737 16.7623 12.7651C16.7343 12.7237 16.6971 12.6893 16.6537 12.6646C16.7289 12.6151 16.8001 12.56 16.8669 12.4997C16.8709 12.4948 16.8733 12.4888 16.8739 12.4824C16.8745 12.4761 16.8732 12.4698 16.8702 12.4642C16.8672 12.4586 16.8626 12.454 16.857 12.451C16.8514 12.4481 16.845 12.4468 16.8387 12.4474Z" fill="#E0855C"/>
<path d="M13.7461 12.1297C13.7461 12.1297 13.5892 12.19 13.6134 11.9125C13.6375 11.635 13.7461 11.6993 13.7461 11.6993C13.7461 11.6993 13.8547 11.6993 13.8386 11.9165C13.8225 12.1337 13.7461 12.1297 13.7461 12.1297Z" fill="#3B2645"/>
<path d="M15.3306 12.1297C15.3306 12.1297 15.1737 12.19 15.1978 11.9125C15.222 11.635 15.3306 11.6993 15.3306 11.6993C15.3306 11.6993 15.4391 11.6993 15.4231 11.9165C15.407 12.1337 15.3306 12.1297 15.3306 12.1297Z" fill="#3B2645"/>
<path d="M14.4499 12.8694C14.3735 12.8694 14.1925 12.9016 14.1523 12.8171C14.1679 12.6253 14.207 12.4362 14.2689 12.2541C14.3432 12.0083 14.4037 11.7586 14.4499 11.506C14.4499 11.506 14.4499 11.4859 14.4217 11.506C14.2627 11.9435 14.1377 12.3926 14.0477 12.8493C14.0466 12.8549 14.0466 12.8606 14.0478 12.8662C14.0491 12.8718 14.0515 12.877 14.0549 12.8816C14.0583 12.8861 14.0627 12.8899 14.0677 12.8927C14.0727 12.8954 14.0782 12.8971 14.0839 12.8975C14.2005 12.8975 14.3131 12.9217 14.4298 12.9217C14.4861 12.9377 14.4981 12.8734 14.4499 12.8694Z" fill="#E0855C"/>
<path d="M13.9187 11.2928C13.8061 11.2325 13.597 11.2205 13.5165 11.3371C13.5137 11.342 13.5122 11.3476 13.5122 11.3532C13.5122 11.3589 13.5137 11.3645 13.5166 11.3694C13.5194 11.3743 13.5236 11.3783 13.5285 11.3811C13.5334 11.3839 13.539 11.3854 13.5447 11.3853C13.601 11.3853 13.6492 11.3572 13.7055 11.3532C13.7645 11.3504 13.8234 11.3599 13.8785 11.3813C13.9308 11.3974 13.967 11.317 13.9187 11.2928Z" fill="#3B2645"/>
<path d="M15.5637 11.4299C15.4993 11.269 15.2218 11.2529 15.1052 11.3534C15.0984 11.3567 15.0927 11.3619 15.0887 11.3683C15.0846 11.3747 15.0825 11.3821 15.0825 11.3896C15.0825 11.3972 15.0846 11.4046 15.0887 11.411C15.0927 11.4174 15.0984 11.4225 15.1052 11.4258C15.1736 11.45 15.246 11.4258 15.3184 11.4258C15.3768 11.4352 15.4337 11.4528 15.4873 11.4781C15.5396 11.4942 15.5758 11.458 15.5637 11.4299Z" fill="#3B2645"/>
<path d="M14.0474 13.4284C14.3927 13.4738 14.7437 13.412 15.0528 13.2515C15.0065 13.3584 14.9387 13.4546 14.8536 13.5342C14.7685 13.6138 14.6679 13.675 14.5581 13.714C14.2082 13.8185 14.0474 13.4284 14.0474 13.4284Z" fill="white"/>
<path d="M13.4001 20.3784C13.0542 20.4427 11.4656 20.6197 11.1841 20.3784C10.982 20.1768 10.8149 19.943 10.6894 19.6866C10.0452 18.3298 9.48253 16.9358 9.00431 15.5121C8.4654 13.9918 8.00692 12.5762 7.83399 12.0373C7.21062 10.143 6.96931 6.84521 6.8929 5.67489C6.87279 5.40141 6.86475 5.24456 6.86475 5.24456C6.86475 5.24456 7.74551 4.74587 8.3729 5.40141C8.3729 5.40141 9.68399 10.5331 10.0701 11.3898C10.3943 11.948 10.7757 12.471 11.2082 12.9502C11.9522 13.843 12.8692 14.8887 13.4322 15.689L13.5368 15.8378L13.6132 15.9545C13.9678 16.5974 14.179 17.3095 14.2326 18.0417C14.3371 19.1517 14.132 20.2376 13.4001 20.3784Z" fill="#FFEDE5"/>
<path d="M8.37275 5.40118C8.32536 5.48943 8.2716 5.57411 8.21188 5.65455C8.21188 5.65455 7.33916 6.13715 6.89275 5.67465C6.89275 5.67465 6.87264 5.54998 6.83645 5.35694C6.80025 5.16389 6.76003 4.95476 6.69971 4.68933C6.65145 4.49629 6.33775 3.72813 6.49862 3.59139C6.5371 3.56535 6.5812 3.54881 6.62732 3.54313L7.16623 3.44661C7.4759 3.39031 7.99471 3.30585 8.11938 3.69596C8.11938 3.47074 8.11938 2.93987 8.35264 2.82324H8.52155C8.52155 2.82324 8.58188 3.6477 8.64623 4.02976C8.70969 4.50458 8.61348 4.98702 8.37275 5.40118Z" fill="#FFEDE5"/>
<path d="M10.6492 27.3277C10.6492 27.3277 8.9842 31.82 8.91583 40.3179C8.91583 40.9936 7.60072 45.6709 8.11148 52.2062L10.0701 52.5762C10.0701 52.5762 11.9683 45.6749 12.0528 40.9654C12.0528 40.9654 14.4658 32.6083 14.6307 28.7635C14.7956 24.9187 12.2378 23.672 10.6492 27.3277Z" fill="#FFEDE5"/>
<path d="M10.3435 54.5467C10.3454 54.5668 10.3454 54.587 10.3435 54.6071C10.2791 55.512 9.53913 55.3712 8.44522 55.3873C7.5725 55.3873 7.10598 54.9007 7.15826 54.3738C7.17679 54.2146 7.23486 54.0625 7.32718 53.9314C7.61815 53.4693 7.81876 52.9562 7.91837 52.4192C8.9962 51.1242 10.0941 52.568 10.0941 52.568C10.2576 53.215 10.3413 53.8795 10.3435 54.5467Z" fill="#3B2645"/>
<path d="M18.2382 27.3277C18.2382 27.3277 19.9032 31.82 19.9676 40.3179C19.9676 40.9936 21.2867 45.6709 20.7719 52.2062L18.8134 52.5762C18.8134 52.5762 16.9191 45.6749 16.8306 40.9654C16.8306 40.9654 14.4176 32.6083 14.2527 28.7635C14.0878 24.9187 16.6497 23.672 18.2382 27.3277Z" fill="#FFEDE5"/>
<path d="M20.4502 55.3873C19.3282 55.3873 18.5641 55.516 18.5439 54.5467V54.4623C18.5449 53.8225 18.6301 53.1856 18.7973 52.568C18.7973 52.568 19.8993 51.1242 20.9731 52.4192C21.073 52.9567 21.275 53.47 21.5683 53.9314C21.6209 54.0071 21.6628 54.0897 21.693 54.1767C21.8981 54.772 21.4316 55.4034 20.4502 55.3873Z" fill="#3B2645"/>
<path d="M20.808 15.1742C19.8991 17.2736 18.7931 19.6866 18.3668 20.7524C18.3426 20.8811 18.3185 21.0017 18.2984 21.1183C18.1657 21.9227 17.7635 25.8881 17.6992 26.5115C16.6093 26.8453 14.3933 27.2394 11.2644 26.415C11.192 25.6428 10.8823 22.4375 10.6973 19.6665C10.0531 18.3097 9.49042 16.9157 9.01221 15.4919C9.76427 15.0174 10.818 14.1688 11.2161 12.9502C11.9601 13.843 12.8771 14.8887 13.4401 15.689H13.5206C13.5206 15.7332 13.5206 15.7855 13.5447 15.8378C13.6451 16.6077 13.8806 17.3538 14.2405 18.0417C14.2925 18.1377 14.3661 18.2203 14.4554 18.283C14.5447 18.3458 14.6473 18.3871 14.7552 18.4037C15.1574 18.4037 15.5395 17.8969 15.8451 17.2856C16.0743 16.8178 16.2692 16.3339 16.4283 15.8378L16.4564 15.7614C16.4601 15.7593 16.4643 15.7582 16.4685 15.7582C16.4727 15.7582 16.4769 15.7593 16.4806 15.7614C16.9712 15.0455 17.7716 14.1205 18.4914 13.28C18.8735 13.8269 19.7905 14.9208 20.808 15.1742Z" fill="#E8CEE5"/>
<path d="M20.056 36.4854C18.9996 37.0356 17.8077 37.2715 16.6214 37.1651C16.2035 37.1295 15.7951 37.0206 15.4149 36.8433L14.4497 31.4542L13.5126 36.8433C11.4776 37.5793 8.68652 36.236 8.68652 36.236C9.57533 27.5209 11.2323 26.2139 11.2323 26.2139C13.963 27.1027 17.7234 26.242 17.7234 26.242C19.6498 28.828 20.056 36.4854 20.056 36.4854Z" fill="#3B2645"/>
<path d="M6.87256 5.3368H6.83637C6.80419 5.16387 6.75995 4.93463 6.69963 4.6692C6.65137 4.47615 6.34169 3.71202 6.49854 3.57126C6.53734 3.54586 6.5813 3.52938 6.62724 3.523L7.16615 3.42648C7.39442 3.36826 7.63364 3.36826 7.86191 3.42648C7.97037 3.47688 8.06127 3.55858 8.1229 3.66107C8.18454 3.76356 8.2141 3.88216 8.20778 4.00159C8.20778 4.7255 7.06158 5.23626 6.87256 5.3368Z" fill="#E0855C"/>
<path d="M28.4493 3.79247H0.232824C0.168564 3.78452 0.109429 3.75335 0.0665483 3.70483C0.0236678 3.65632 0 3.5938 0 3.52905C0 3.4643 0.0236678 3.40178 0.0665483 3.35327C0.109429 3.30475 0.168564 3.27358 0.232824 3.26562H28.4493C28.5136 3.27358 28.5727 3.30475 28.6156 3.35327C28.6585 3.40178 28.6822 3.4643 28.6822 3.52905C28.6822 3.5938 28.6585 3.65632 28.6156 3.70483C28.5727 3.75335 28.5136 3.78452 28.4493 3.79247Z" fill="#3B2645"/>
<path d="M1.12963 4.87839C1.01086 4.87839 0.8969 4.83149 0.812542 4.74789C0.728184 4.66428 0.68026 4.55074 0.679199 4.43198V2.62622C0.679199 2.50675 0.726656 2.39218 0.811128 2.30771C0.895601 2.22324 1.01017 2.17578 1.12963 2.17578C1.2491 2.17578 1.36367 2.22324 1.44814 2.30771C1.53261 2.39218 1.58007 2.50675 1.58007 2.62622V4.43198C1.58007 4.49094 1.56839 4.54932 1.54571 4.60375C1.52302 4.65817 1.48978 4.70756 1.4479 4.74907C1.40602 4.79057 1.35633 4.82337 1.3017 4.84557C1.24708 4.86777 1.1886 4.87892 1.12963 4.87839Z" fill="#3B2645"/>
<path d="M2.02247 6.45466C1.90514 6.45466 1.79262 6.40805 1.70965 6.32508C1.62669 6.24212 1.58008 6.12959 1.58008 6.01227V1.04944C1.58008 0.931044 1.62711 0.817497 1.71083 0.733779C1.79455 0.65006 1.9081 0.603027 2.02649 0.603027C2.14489 0.603027 2.25843 0.65006 2.34215 0.733779C2.42587 0.817497 2.4729 0.931044 2.4729 1.04944V6.01227C2.47238 6.07089 2.46031 6.12884 2.43739 6.1828C2.41447 6.23676 2.38114 6.28567 2.33931 6.32675C2.29749 6.36784 2.24798 6.40027 2.19361 6.42222C2.13925 6.44416 2.08109 6.45519 2.02247 6.45466Z" fill="#291B30"/>
<path d="M2.91516 7.21902C2.79677 7.21902 2.68322 7.17199 2.5995 7.08827C2.51578 7.00455 2.46875 6.891 2.46875 6.77261V0.446413C2.46875 0.328017 2.51578 0.21447 2.5995 0.130751C2.68322 0.0470327 2.79677 0 2.91516 0C3.03356 0 3.14711 0.0470327 3.23082 0.130751C3.31454 0.21447 3.36158 0.328017 3.36158 0.446413V6.76054C3.36319 6.82017 3.35283 6.87952 3.33112 6.93508C3.30941 6.99065 3.27678 7.04129 3.23517 7.08403C3.19355 7.12677 3.14379 7.16074 3.08883 7.18392C3.03387 7.20711 2.97482 7.21904 2.91516 7.21902Z" fill="#3B2645"/>
<path d="M27.1622 4.87827C27.2806 4.87827 27.3942 4.83124 27.4779 4.74752C27.5616 4.6638 27.6086 4.55026 27.6086 4.43186V2.6261C27.6086 2.56748 27.5971 2.50943 27.5747 2.45527C27.5522 2.4011 27.5193 2.35189 27.4779 2.31044C27.4364 2.26899 27.3872 2.2361 27.3331 2.21367C27.2789 2.19123 27.2209 2.17969 27.1622 2.17969C27.1036 2.17969 27.0456 2.19123 26.9914 2.21367C26.9372 2.2361 26.888 2.26899 26.8466 2.31044C26.8051 2.35189 26.7722 2.4011 26.7498 2.45527C26.7274 2.50943 26.7158 2.56748 26.7158 2.6261V4.43186C26.7158 4.55026 26.7629 4.6638 26.8466 4.74752C26.9303 4.83124 27.0438 4.87827 27.1622 4.87827Z" fill="#3B2645"/>
<path d="M26.2697 6.45466C26.3874 6.45466 26.5003 6.40818 26.5839 6.32533C26.6675 6.24248 26.715 6.12996 26.7161 6.01227V1.04944C26.7161 0.931044 26.669 0.817497 26.5853 0.733779C26.5016 0.65006 26.3881 0.603027 26.2697 0.603027C26.1513 0.603027 26.0377 0.65006 25.954 0.733779C25.8703 0.817497 25.8232 0.931044 25.8232 1.04944V6.01227C25.8243 6.12996 25.8718 6.24248 25.9554 6.32533C26.039 6.40818 26.152 6.45466 26.2697 6.45466Z" fill="#291B30"/>
<path d="M25.3768 7.21902C25.4951 7.21902 25.6087 7.17199 25.6924 7.08827C25.7761 7.00455 25.8232 6.891 25.8232 6.77261V0.446413C25.8232 0.328017 25.7761 0.21447 25.6924 0.130751C25.6087 0.0470327 25.4951 0 25.3768 0C25.2584 0 25.1448 0.0470327 25.0611 0.130751C24.9774 0.21447 24.9303 0.328017 24.9303 0.446413V6.76054C24.9287 6.82017 24.9391 6.87952 24.9608 6.93508C24.9825 6.99065 25.0151 7.04129 25.0567 7.08403C25.0984 7.12677 25.1481 7.16074 25.2031 7.18392C25.258 7.20711 25.3171 7.21904 25.3768 7.21902Z" fill="#3B2645"/>
<path d="M6.88094 4.09829C6.89691 4.13814 6.92165 4.17388 6.95333 4.20285C7.00125 4.2345 7.05684 4.25257 7.1142 4.25514C7.29292 4.27198 7.47314 4.2625 7.64909 4.22698C7.81239 4.20524 7.96235 4.12526 8.07138 4.00177C8.12822 3.92053 8.16293 3.82589 8.1721 3.72717C8.18126 3.62845 8.16457 3.52904 8.12366 3.43872C8.06315 3.29655 7.96953 3.1709 7.8506 3.07226C7.73166 2.97362 7.59087 2.90484 7.43996 2.87166C7.19062 2.81535 6.5592 2.83948 6.45866 3.14916C6.40638 3.30198 6.55518 3.45481 6.62757 3.57546C6.69996 3.69611 6.80855 3.92938 6.88094 4.09829Z" fill="#FFEDE5"/>
<path d="M22.8954 4.09829C22.8794 4.13917 22.8531 4.17521 22.819 4.20285C22.7713 4.23507 22.7156 4.25319 22.6581 4.25514C22.4807 4.27188 22.3018 4.26239 22.1272 4.22698C21.9587 4.2072 21.8031 4.12722 21.6889 4.00177C21.6319 3.9205 21.5974 3.82562 21.589 3.72674C21.5805 3.62786 21.5983 3.5285 21.6406 3.43872C21.7007 3.29702 21.7937 3.17168 21.9119 3.07307C22.0301 2.97446 22.1701 2.90542 22.3203 2.87166C22.5736 2.81535 23.2051 2.83948 23.3056 3.14916C23.3579 3.30198 23.2091 3.45481 23.1367 3.57546C23.0643 3.69611 22.9839 3.92938 22.8954 4.09829Z" fill="#FFEDE5"/>
<path d="M16.6214 37.165C16.2035 37.1294 15.7951 37.0205 15.4149 36.8432L14.4497 31.4541C14.4497 31.4541 15.6562 33.1794 16.6214 37.165Z" fill="#291B30"/>
<path d="M10.3357 54.6073C10.2713 55.5122 9.53132 55.3714 8.43741 55.3875C7.56469 55.3875 7.09817 54.9009 7.15045 54.374C7.35702 54.5714 7.61245 54.7102 7.89045 54.7762C8.21998 54.8419 8.55729 54.8595 8.89186 54.8285C9.37818 54.7926 9.86093 54.7187 10.3357 54.6073Z" fill="#291B30"/>
<path d="M20.4502 55.3873C19.3282 55.3873 18.5641 55.516 18.5439 54.5468V54.4623C18.8502 54.686 19.208 54.8287 19.5841 54.8772C19.9603 54.9257 20.3426 54.8785 20.6956 54.7398C21.0483 54.5905 21.3829 54.4016 21.693 54.1768C21.8981 54.772 21.4316 55.4034 20.4502 55.3873Z" fill="#291B30"/>
<path d="M9.75643 53.0667C9.45078 52.6926 8.7148 52.7168 8.32871 52.9259C8.30608 52.9418 8.28958 52.965 8.28198 52.9915C8.27439 53.0181 8.27616 53.0465 8.28699 53.072C8.29783 53.0974 8.31707 53.1183 8.34151 53.1313C8.36594 53.1442 8.39408 53.1484 8.42121 53.1431C8.62281 53.081 8.83411 53.0564 9.04458 53.0707C9.24752 53.1218 9.44646 53.1877 9.6398 53.2678C9.66531 53.2744 9.69229 53.2725 9.71661 53.2623C9.74094 53.2522 9.76126 53.2343 9.77449 53.2115C9.78771 53.1887 9.79311 53.1622 9.78985 53.1361C9.78658 53.1099 9.77485 53.0855 9.75643 53.0667Z" fill="#E8CEE5"/>
<path d="M9.57917 53.4971C9.34191 53.4248 9.09523 53.3882 8.84721 53.3885C8.627 53.3619 8.40367 53.3938 8.19971 53.481C8.18679 53.4866 8.1758 53.4959 8.16808 53.5077C8.16036 53.5195 8.15625 53.5333 8.15625 53.5473C8.15625 53.5614 8.16036 53.5752 8.16808 53.587C8.1758 53.5988 8.18679 53.6081 8.19971 53.6137C8.40795 53.6512 8.61981 53.6647 8.83112 53.6539C9.06841 53.6539 9.29362 53.7223 9.53091 53.7384C9.69177 53.7545 9.69982 53.5413 9.57917 53.4971Z" fill="#E8CEE5"/>
<path d="M20.6594 52.95C20.5065 52.4875 19.6057 52.7288 19.2879 52.8294C19.1593 52.8656 19.1753 53.0787 19.3201 53.0707C19.5413 53.0707 19.7585 52.9943 19.9797 52.9782C20.096 52.9685 20.2131 52.9794 20.3256 53.0104C20.3975 53.0496 20.4771 53.073 20.5588 53.0787C20.5745 53.0786 20.5899 53.0749 20.604 53.0679C20.6181 53.0609 20.6304 53.0509 20.64 53.0386C20.6497 53.0262 20.6564 53.0118 20.6598 52.9965C20.6631 52.9812 20.663 52.9653 20.6594 52.95Z" fill="#E8CEE5"/>
<path d="M20.5549 53.3362C20.3256 53.1271 19.827 53.1954 19.5495 53.2517C19.4127 53.2799 19.0829 53.4166 19.2639 53.6016C19.2737 53.6091 19.2857 53.6132 19.2981 53.6132C19.3105 53.6132 19.3225 53.6091 19.3323 53.6016C19.4449 53.493 19.7345 53.5132 19.8833 53.5091C20.0898 53.5415 20.3001 53.5415 20.5066 53.5091C20.5228 53.5027 20.5373 53.4927 20.5489 53.4798C20.5606 53.4669 20.5691 53.4514 20.5737 53.4347C20.5784 53.4179 20.5791 53.4003 20.5759 53.3832C20.5726 53.3661 20.5654 53.35 20.5549 53.3362Z" fill="#E8CEE5"/>
<path d="M13.1306 22.2925C13.1283 22.3139 13.1283 22.3354 13.1306 22.3568C13.1306 22.3568 13.1668 22.3568 13.1588 22.3568L13.1306 22.2925Z" fill="#D6BED3"/>
<path d="M17.3171 18.13C17.1323 17.5174 17.0071 16.8885 16.943 16.2518C16.943 16.2348 16.9362 16.2184 16.9242 16.2063C16.9121 16.1943 16.8957 16.1875 16.8787 16.1875C16.8616 16.1875 16.8452 16.1943 16.8332 16.2063C16.8211 16.2184 16.8143 16.2348 16.8143 16.2518C16.6736 17.4141 17.1642 18.8338 17.7755 19.8111C17.7861 19.8259 17.8014 19.8367 17.8189 19.8418C17.8365 19.8468 17.8552 19.8457 17.872 19.8387C17.8888 19.8317 17.9028 19.8191 17.9115 19.8032C17.9203 19.7872 17.9234 19.7687 17.9203 19.7508C17.7675 19.1958 17.498 18.677 17.3171 18.13Z" fill="#D6BED3"/>
<path d="M12.8894 16.0346C12.5596 16.5534 12.2781 17.1043 11.9483 17.6433C11.6185 18.1822 11.2324 18.6406 10.9429 19.1796C10.9375 19.1865 10.9352 19.1953 10.9363 19.2039C10.9374 19.2126 10.942 19.2205 10.9489 19.2258C10.9558 19.2311 10.9646 19.2335 10.9733 19.2324C10.982 19.2312 10.9898 19.2267 10.9952 19.2198C11.8658 18.3155 12.5492 17.248 13.006 16.0788C13.0261 16.0144 12.9256 15.9742 12.8894 16.0346Z" fill="#D6BED3"/>
</svg>
