<svg width="273" height="400" viewBox="0 0 273 400" fill="none" xmlns="http://www.w3.org/2000/svg">
<path d="M132.226 387.537C126.068 387.548 119.927 386.898 113.908 385.598C103.388 383.441 93.4788 378.983 84.8934 372.544C76.308 366.105 69.2605 357.847 64.2587 348.363C60.2896 339.492 57.3411 330.201 55.4697 320.668L55.038 318.852C48.8704 292.634 41.0991 264.908 26.7593 239.859C24.4464 235.828 21.9177 231.796 19.4815 227.919C13.5875 219.139 8.59719 209.788 4.58656 200.008C-1.58109 183.237 -0.440076 166.558 7.97878 155.572C9.08777 153.866 10.5307 152.4 12.2211 151.263C13.9115 150.126 15.8146 149.342 17.8162 148.956C19.0359 148.809 20.2728 148.914 21.4505 149.263C22.6281 149.612 23.7213 150.199 24.6623 150.987C25.3964 151.571 25.9984 152.304 26.4289 153.136C26.8593 153.969 27.1086 154.883 27.1602 155.819H25.1557C25.1075 155.166 24.9235 154.531 24.6155 153.953C24.3076 153.376 23.8824 152.869 23.3671 152.464C22.6349 151.858 21.7883 151.403 20.8773 151.129C19.9663 150.854 19.0093 150.764 18.0629 150.864C14.5886 151.654 11.5521 153.748 9.58237 156.711C1.59525 167.205 0.33088 183.114 6.49854 199.239C10.4752 208.949 15.4351 218.229 21.3009 226.934C23.7371 230.842 26.2659 234.874 28.6096 238.936C42.9802 264.169 50.844 292.049 57.0117 318.421L57.4434 320.237C59.2756 329.613 62.1725 338.75 66.0781 347.471C70.9388 356.687 77.7895 364.711 86.1356 370.964C94.4817 377.217 104.115 381.542 114.34 383.629C135.016 387.717 156.468 384.816 175.307 375.382C182.851 372.027 189.661 367.228 195.352 361.257C201.142 354.264 205.604 346.276 208.52 337.685C213.67 324.207 217.772 309.99 221.472 296.296C227.177 275.863 233.067 254.722 243.059 235.581C246.143 229.981 249.227 224.472 252.496 219.149C258.616 209.594 263.781 199.462 267.915 188.899C271.461 178.867 271.615 170.436 268.408 164.281C267.282 162.229 265.718 160.448 263.826 159.066C261.934 157.683 259.761 156.732 257.461 156.28C255.854 155.901 254.182 155.901 252.576 156.281C250.97 156.66 249.475 157.408 248.209 158.465L246.883 156.957C248.371 155.687 250.135 154.781 252.036 154.311C253.936 153.84 255.921 153.819 257.831 154.249C260.441 154.787 262.9 155.893 265.033 157.489C267.165 159.085 268.918 161.131 270.166 163.481C273.651 170.251 273.496 179.052 269.765 189.638C265.588 200.334 260.34 210.582 254.099 220.226C251.015 225.549 247.623 231.027 244.848 236.566C234.979 255.522 229.12 276.57 223.446 296.88C219.591 310.667 215.613 324.914 210.401 338.454C207.42 347.283 202.842 355.491 196.894 362.672C191.016 368.834 183.986 373.789 176.202 377.259C162.496 383.916 147.47 387.428 132.226 387.537Z" fill="#AB8DA8"/>
<path d="M154.861 29.2202C156.456 26.6946 157.369 23.8008 157.513 20.8192C157.688 19.4802 157.565 18.1194 157.155 16.8327C156.745 15.546 156.056 14.3647 155.139 13.3723C154.368 12.6337 153.412 12.049 152.703 11.2489C151.993 10.4488 151.654 9.61798 151.068 8.84867C150.433 8.02333 149.616 7.35522 148.68 6.89624C147.744 6.43726 146.714 6.19977 145.672 6.20222C143.544 6.20222 141.293 7.18694 139.504 6.20222C138.394 5.64831 137.654 4.5405 136.42 3.92504C135.259 3.33542 133.927 3.17203 132.658 3.46345C131.549 3.84942 130.378 4.0268 129.204 3.98659C127.539 3.74041 126.398 2.26332 124.917 1.43246C124.157 1.04425 123.32 0.82684 122.466 0.795463C121.612 0.764087 120.761 0.919506 119.974 1.25082C119.186 1.58214 118.481 2.08133 117.907 2.7134C117.334 3.34547 116.905 4.09511 116.653 4.90977C116.452 5.68686 116.452 6.50217 116.653 7.27926C116.992 9.15639 118.287 10.6643 118.38 12.5414C118.472 14.4185 117.331 16.0495 118.38 17.7112C119.428 19.3729 120.97 19.4345 121.71 21.0039C122.697 23.1272 121.71 25.8967 122.605 28.1739C123.067 29.6202 123.314 31.682 124.671 32.6052C126.552 33.8976 130.653 32.8206 132.905 32.6052L141.632 31.8974C145.487 31.5281 150.236 31.8974 153.72 29.9895C154.141 29.7985 154.527 29.5385 154.861 29.2202Z" fill="#3B2645"/>
<path d="M125.257 27.8663C124.951 27.4467 124.55 27.1052 124.086 26.8698C123.622 26.6344 123.11 26.5117 122.589 26.5117C122.069 26.5117 121.557 26.6344 121.093 26.8698C120.629 27.1052 120.228 27.4467 119.922 27.8663C117.239 30.9435 121.772 37.0981 125.257 37.4673C125.46 34.2702 125.46 31.0634 125.257 27.8663Z" fill="#FFEDE5"/>
<path d="M168.585 79.4103C167.772 84.5938 166.681 89.73 165.316 94.7966C165.1 95.7506 164.915 96.6738 164.792 97.5662C164.668 98.4586 164.545 99.1356 164.391 100.274C164.391 100.49 164.391 100.736 164.391 100.951C164.391 101.69 164.175 102.459 164.083 103.29L160.197 139.448C136.051 146.064 110.856 139.448 110.856 139.448C110.856 139.448 110.856 138.986 110.856 138.094C110.455 134.001 109.221 120.984 107.988 106.306C107.988 106.306 107.988 106.09 107.988 105.998C108 105.772 108 105.546 107.988 105.321C107.463 99.1664 106.97 92.6426 106.569 86.4265C105.829 75.6253 105.366 65.6549 105.459 59.4696C105.459 57.1925 110.794 57.4386 114.433 56.9463C117.116 56.577 119.86 56.3308 122.235 56.2077C124.61 56.0846 126.398 56.0231 127.601 56.0231H128.958C128.958 56.0231 129.266 52.4842 129.266 52.4535L130.099 43.7756C130.504 43.8797 130.916 43.9518 131.332 43.991C132.096 44.1337 132.869 44.216 133.645 44.2372C134.663 44.2372 135.619 44.2372 136.513 44.2372L137.839 44.0833H138.61C139.474 43.9294 140.306 43.7448 141.077 43.5294C141.848 43.314 142.095 43.2217 142.588 43.0678C144.841 42.3474 146.98 41.3113 148.941 39.9905L149.219 39.8059L149.743 39.4059L150.113 39.1289C150.113 39.5597 150.113 39.7444 150.113 39.929C149.866 41.96 149.589 44.5449 149.465 47.099C149.465 48.8838 149.28 50.6379 149.219 52.1457C149.157 53.6536 148.663 55.8385 149.743 56.6078C150.128 56.8237 150.544 56.9794 150.976 57.0694C152.669 57.3361 154.382 57.4494 156.095 57.4079C156.62 57.4079 157.144 57.4079 157.668 57.4079C158.983 57.3314 160.301 57.3314 161.615 57.4079C162.534 57.4052 163.444 57.5863 164.292 57.9404C165.139 58.2945 165.907 58.8145 166.55 59.4696C167.349 60.6242 167.857 61.9544 168.03 63.347L168.4 65.8703C168.987 70.3613 169.049 74.9051 168.585 79.4103Z" fill="#FFEDE5"/>
<path d="M149.989 38.9131C149.572 41.1153 148.671 43.198 147.351 45.0114C146.031 46.8247 144.325 48.3238 142.356 49.4007C140.386 50.4776 138.201 51.1057 135.959 51.2397C133.718 51.3737 131.474 51.0104 129.389 50.1759L129.975 43.8059C133.467 44.4782 137.064 44.389 140.519 43.5445C143.973 42.6999 147.204 41.12 149.989 38.9131Z" fill="#E0855C" fill-opacity="0.1"/>
<path d="M125.874 18.6345C124.085 20.4809 123.931 24.6044 123.807 29.1588C123.345 43.0065 127.508 47.3146 134.57 48.084C141.632 48.8533 149.064 46.1145 150.575 33.3131C151.346 26.8816 152.148 21.004 149.804 18.2037C146.443 14.0802 131.301 12.9724 125.874 18.6345Z" fill="#FFEDE5"/>
<path d="M149.527 31.4357C149.527 31.4357 151.686 25.712 155.109 28.7585C158.532 31.8049 153.813 40.4521 148.571 39.8058C148.633 39.8058 147.923 33.4051 149.527 31.4357Z" fill="#FFEDE5"/>
<path d="M153.598 31.3741C152.788 31.6265 152.063 32.0947 151.501 32.7281C150.864 33.259 150.349 33.9201 149.99 34.6668C149.99 34.8822 150.206 35.0361 150.36 34.8822C150.794 34.4528 151.206 34.0008 151.593 33.5282C151.875 33.8378 152.223 34.0797 152.611 34.236C152.919 34.236 153.166 33.9591 153.043 33.7129C152.829 33.387 152.545 33.1135 152.21 32.9128C152.786 32.5449 153.332 32.1334 153.845 31.6819C153.854 31.6449 153.855 31.6061 153.847 31.5687C153.839 31.5313 153.822 31.4963 153.798 31.4664C153.774 31.4366 153.744 31.4127 153.709 31.3966C153.674 31.3806 153.636 31.3729 153.598 31.3741Z" fill="#E0855C" fill-opacity="0.1"/>
<path d="M129.882 28.8509C129.882 28.8509 128.68 29.2817 128.865 27.1584C129.05 25.0351 129.882 25.5275 129.882 25.5275C129.882 25.5275 130.715 25.5275 130.592 27.1892C130.468 28.8509 129.882 28.8509 129.882 28.8509Z" fill="#3B2645"/>
<path d="M142.002 28.8509C142.002 28.8509 140.83 29.2817 141.015 27.1584C141.2 25.0351 142.002 25.5275 142.002 25.5275C142.002 25.5275 142.835 25.5275 142.712 27.1892C142.588 28.8509 142.002 28.8509 142.002 28.8509Z" fill="#3B2645"/>
<path d="M131.178 22.4197C130.694 22.1459 130.135 22.0313 129.581 22.092C129.028 22.1528 128.508 22.3859 128.094 22.7582C128.073 22.8003 128.064 22.847 128.066 22.8939C128.068 22.9408 128.082 22.9864 128.107 23.0264C128.131 23.0665 128.166 23.0995 128.207 23.1226C128.248 23.1457 128.294 23.1579 128.341 23.1582C128.773 23.1582 129.143 22.9121 129.575 22.8813C130.027 22.8598 130.479 22.9332 130.901 23.0967C131.302 23.2198 131.579 22.6043 131.178 22.4197Z" fill="#3B2645"/>
<path d="M143.822 23.4655C143.328 22.2346 141.2 22.1423 140.275 22.8808C140.231 22.9153 140.194 22.9596 140.169 23.0103C140.144 23.061 140.131 23.1167 140.131 23.1732C140.131 23.2296 140.144 23.2853 140.169 23.336C140.194 23.3867 140.231 23.431 140.275 23.4655C140.829 23.5116 141.386 23.5116 141.941 23.4655C142.389 23.5376 142.825 23.6722 143.236 23.8655C143.289 23.9431 143.371 23.9964 143.463 24.0137C143.556 24.031 143.651 24.0109 143.729 23.9579C143.807 23.9048 143.86 23.8231 143.878 23.7308C143.895 23.6385 143.875 23.543 143.822 23.4655Z" fill="#3B2645"/>
<path d="M132.319 38.7593C134.92 39.0995 137.564 38.6491 139.905 37.4668C139.555 38.2879 139.037 39.0269 138.383 39.6364C137.73 40.2458 136.957 40.7122 136.112 41.0057C133.429 41.7442 132.319 38.7593 132.319 38.7593Z" fill="white"/>
<path d="M116.746 59.4389C123.839 64.3933 124.486 74.0251 121.032 81.7183C118.689 86.8573 114.34 90.4577 111.781 95.3198C109.114 100.035 106.017 104.496 102.529 108.644C94.8814 118.338 87.6036 127.108 84.7973 130.431C75.1449 141.94 54.8533 157.142 47.5446 162.435C45.8794 163.666 44.8925 164.343 44.8925 164.343C44.8925 164.343 37.8922 160.681 39.7425 153.911C39.7425 153.911 67.497 124.492 71.5985 118.492C76.1311 110.692 80.2485 102.659 83.9338 94.4274C88.6623 85.2981 93.5862 76.292 98.7054 67.409C101.049 63.3162 104.04 58.1772 109.19 57.254C111.269 57.0209 113.367 57.4634 115.173 58.5157C115.719 58.7856 116.244 59.0941 116.746 59.4389Z" fill="#FFEDE5"/>
<path d="M39.7425 153.942C40.5021 153.883 41.265 153.883 42.0245 153.942C42.0245 153.942 48.6856 157.634 47.5446 162.435C47.5446 162.435 46.8353 163.081 45.7251 164.066C44.615 165.051 43.4123 166.22 41.9629 167.697C40.5135 169.174 37.2138 173.852 35.7952 173.452C35.4646 173.33 35.1757 173.116 34.9626 172.836L32.0946 169.759C30.491 167.974 27.8081 164.958 29.8434 162.589C28.3632 163.481 24.9093 165.666 23.2132 164.62L22.5039 163.481C22.5039 163.481 27.5922 159.696 29.6892 157.819C32.5181 155.452 36.0538 154.089 39.7425 153.942Z" fill="#FFEDE5"/>
<path d="M125.164 106.583C125.154 106.747 125.154 106.911 125.164 107.075C125.164 107.075 125.442 107.075 125.38 107.075L125.164 106.583Z" fill="#D6BED3"/>
<path d="M235.874 399.077C232.605 399.415 229.305 399.692 225.944 399.846L36.134 400H35.5481H34.5613L31.2308 399.692C30.4701 399.692 29.7406 399.391 29.2028 398.854C28.665 398.317 28.3628 397.589 28.3628 396.83C28.3628 396.071 28.665 395.343 29.2028 394.807C29.7406 394.27 30.4701 393.968 31.2308 393.968L34.5921 393.661H35.5481H36.1649L225.944 393.815C229.274 393.815 232.574 394.215 235.874 394.584C236.345 394.742 236.755 395.044 237.046 395.447C237.337 395.85 237.493 396.334 237.493 396.83C237.493 397.327 237.337 397.811 237.046 398.214C236.755 398.617 236.345 398.919 235.874 399.077Z" fill="#C6C6C6"/>
<path d="M136.606 206.317C133.768 228.996 130.438 248.722 130.438 248.722C130.9 254.199 131.116 260.138 131.116 266.231C131.116 278.171 130.315 290.849 129.297 302.02C128.002 316.268 126.213 328.392 125.442 334.485V335.254C126.583 375.659 115.05 381.013 109.653 372.182C104.256 363.35 109.653 337.316 109.653 337.316C109.67 337.081 109.67 336.844 109.653 336.608C107.382 324.518 105.868 312.298 105.12 300.02C103.269 270.293 106.446 249.953 106.076 246.26C99.6304 181.637 108.635 146.003 108.635 146.003C110.041 140.825 112.579 136.022 116.067 131.94C122.636 124.862 130.53 126.647 135.495 135.294C136.017 136.18 136.491 137.095 136.914 138.033C138.937 142.999 140.085 148.278 140.306 153.634C140.8 167.02 138.918 187.669 136.606 206.317Z" fill="#F5A784"/>
<path d="M168.461 298.45C167.744 310.984 166.24 323.461 163.959 335.808L163.682 337.316C163.682 337.316 169.078 363.442 163.682 372.181C158.285 380.921 146.875 375.812 147.892 335.808C147.892 335.623 147.892 335.439 147.892 335.285C147.029 329.5 145.302 316.975 143.945 302.143C142.897 290.88 142.095 278.263 142.095 266.323C142.095 260.169 142.341 254.26 142.804 248.752C142.804 248.752 139.381 229.027 136.636 206.378C134.323 187.699 132.411 167.051 133.213 153.788C133.444 148.429 134.602 143.151 136.636 138.186C137.04 137.219 137.514 136.283 138.055 135.386C143.76 125.508 153.258 124.646 160.258 135.786C162.264 139.015 163.839 142.491 164.946 146.125C164.946 146.125 173.951 181.668 167.505 246.383C167.043 250.014 170.096 269.647 168.461 298.45Z" fill="#F5A784"/>
<path d="M39.0024 173.913C39.6168 174.622 40.38 175.189 41.2379 175.572C42.0959 175.954 43.0277 176.145 43.9674 176.128C44.3978 176.028 44.8035 175.842 45.1599 175.581C45.5163 175.321 45.8159 174.99 46.0408 174.611C46.2656 174.231 46.4109 173.81 46.468 173.372C46.5251 172.935 46.4927 172.491 46.3728 172.066C46.0142 171.13 45.4319 170.296 44.6767 169.635C40.0201 165.019 35.2401 160.404 30.3985 156.126C29.5894 155.216 28.5081 154.59 27.3147 154.341C26.2048 154.341 25.1307 154.733 24.2837 155.449C23.4366 156.165 22.8715 157.157 22.689 158.249C22.689 160.219 24.3851 160.957 25.7728 162.065C30.1518 165.943 34.5309 170.005 39.0024 173.913Z" fill="#3B2645"/>
<path d="M38.3233 168.466C38.5153 168.269 38.6717 168.04 38.7859 167.789C38.8641 167.471 38.8686 167.14 38.7991 166.82C38.7296 166.5 38.588 166.2 38.385 165.943C37.244 164.066 34.9003 161.05 32.5874 160.773C31.8238 160.734 31.0633 160.896 30.3816 161.241C29.6999 161.587 29.1208 162.104 28.7018 162.743C28.0097 163.736 27.5696 164.882 27.4192 166.083C27.2688 167.284 27.4126 168.503 27.8383 169.636C28.5151 171.674 29.9056 173.4 31.7548 174.498C32.6775 174.888 33.7156 174.907 34.6523 174.552C35.589 174.196 36.3518 173.493 36.7814 172.59C37.244 171.451 37.0898 170.067 37.8299 169.113C37.9703 168.88 38.1357 168.663 38.3233 168.466Z" fill="#FFEDE5"/>
<path d="M156.342 59.4389C149.218 64.3933 148.571 74.0251 152.055 81.7183C154.368 86.8573 158.716 90.4577 161.307 95.3198C163.996 100.022 167.091 104.48 170.558 108.644C178.206 118.338 185.515 127.108 188.29 130.431C197.974 142.002 218.265 157.142 225.574 162.435L228.257 164.343C228.257 164.343 235.226 160.681 233.376 153.911C233.376 153.911 205.621 124.492 201.52 118.492C196.975 110.699 192.857 102.666 189.185 94.4274C184.436 85.1956 179.532 76.3023 174.382 67.409C172.039 63.3163 169.078 58.1772 163.897 57.254C161.819 57.0232 159.722 57.4655 157.915 58.5157C157.368 58.7843 156.843 59.0928 156.342 59.4389Z" fill="#FFEDE5"/>
<path d="M233.345 153.941C232.575 153.884 231.802 153.884 231.032 153.941C231.032 153.941 224.371 157.634 225.512 162.435C225.512 162.435 226.252 163.081 227.332 164.065C228.411 165.05 229.675 166.22 231.094 167.697C232.513 169.174 235.874 173.851 237.262 173.451C237.588 173.321 237.875 173.109 238.094 172.836L240.931 169.758C242.566 167.974 245.218 164.958 243.214 162.588C244.663 163.481 248.117 165.666 249.844 164.619L250.43 163.481C250.43 163.481 245.341 159.696 243.214 157.819C240.439 155.482 236.972 154.119 233.345 153.941Z" fill="#FFEDE5"/>
<path d="M234.054 173.913C233.44 174.623 232.677 175.189 231.819 175.572C230.961 175.955 230.029 176.145 229.089 176.129C228.653 176.036 228.241 175.855 227.878 175.597C227.514 175.339 227.208 175.01 226.977 174.629C226.746 174.249 226.595 173.825 226.534 173.385C226.473 172.944 226.503 172.495 226.622 172.067C227.007 171.172 227.599 170.381 228.349 169.759C233.016 165.143 237.786 160.64 242.658 156.25C243.463 155.334 244.546 154.707 245.742 154.465C246.848 154.465 247.918 154.859 248.76 155.575C249.602 156.291 250.161 157.283 250.337 158.373C250.337 160.342 248.672 161.081 247.253 162.189C242.905 165.943 238.526 170.005 234.054 173.913Z" fill="#3B2645"/>
<path d="M234.764 168.466C234.553 168.278 234.385 168.047 234.27 167.789C234.205 167.469 234.21 167.138 234.284 166.819C234.359 166.501 234.501 166.202 234.702 165.943C235.812 164.066 238.156 161.05 240.469 160.773C241.232 160.734 241.993 160.896 242.674 161.241C243.356 161.587 243.935 162.104 244.354 162.743C245.039 163.741 245.467 164.891 245.601 166.093C245.736 167.295 245.572 168.512 245.125 169.636C244.469 171.685 243.073 173.418 241.209 174.498C240.286 174.888 239.248 174.907 238.311 174.552C237.375 174.196 236.612 173.493 236.182 172.59C235.75 171.451 235.905 170.067 235.134 169.113L234.764 168.466Z" fill="#FFEDE5"/>
<path d="M168.923 278.725V281.802C168.923 283.864 168.923 285.987 168.923 288.172V290.665C168.923 293.188 168.738 295.804 168.615 298.481C160.63 300.679 152.409 301.909 144.13 302.143C143.79 298.696 143.112 289.526 143.081 288.511C143.081 286.418 142.618 280.51 142.588 279.71C142.403 275.217 142.279 270.724 142.279 266.324C142.279 260.6 142.495 254.999 142.927 249.799C142.927 249.429 142.927 249.091 142.927 248.752C142.927 248.414 139.504 229.058 136.759 206.379C136.451 208.779 136.142 211.179 135.834 213.487C133.244 232.997 130.499 248.752 130.499 248.752C130.962 254.23 131.177 260.169 131.177 266.262C131.177 270.909 131.177 275.494 130.838 280.356C130.838 281.156 130.221 291.434 130.129 292.419C129.913 295.712 129.636 298.943 129.358 302.051C125.041 301.866 120.785 301.589 116.56 301.22C113.23 300.943 109.036 300.758 104.965 300.174C104.78 297.404 104.656 294.758 104.564 292.173C104.564 291.526 104.564 290.88 104.564 290.234C104.564 287.403 104.564 284.726 104.564 282.141V280.11C104.564 261.462 106.383 249.183 106.106 246.26C99.6607 181.637 108.665 146.003 108.665 146.003C110.071 140.825 112.61 136.022 116.098 131.939C118.741 132.348 121.335 133.029 123.838 133.97C127.651 134.965 131.586 135.41 135.526 135.294H138.363C141.786 135.294 145.209 134.894 148.601 134.801H150.883C154.135 134.753 157.382 135.063 160.566 135.724C162.469 138.989 163.941 142.485 164.945 146.126C167.437 157.741 168.902 169.551 169.324 181.422C170.369 203.09 169.761 224.807 167.505 246.383C167.135 249.122 168.769 260.846 168.923 278.725Z" fill="#3B2645"/>
<path d="M125.257 335.254C125.688 351.163 124.177 361.626 121.834 367.934C118.256 377.689 112.582 377.566 109.498 372.304C108.665 370.844 108.092 369.251 107.802 367.596C105.551 356.61 109.498 337.439 109.498 337.439C109.516 337.203 109.516 336.966 109.498 336.731C111.033 337.848 112.772 338.653 114.618 339.1C116.688 339.608 118.868 339.432 120.83 338.6C122.793 337.768 124.432 336.324 125.503 334.484L125.257 335.254Z" fill="#AB8DA8"/>
<path d="M165.532 366.735C165.269 368.69 164.641 370.579 163.682 372.304C160.351 377.72 154.615 377.69 151.069 367.196C148.91 361.042 147.522 350.794 147.985 335.777C150.294 337.848 153.269 339.027 156.373 339.101C159.142 338.846 161.772 337.775 163.928 336.024C163.985 336.504 163.985 336.989 163.928 337.47C163.928 337.47 167.444 355.626 165.532 366.735Z" fill="#AB8DA8"/>
<path d="M120.6 344.701C119.038 343.772 117.253 343.281 115.435 343.281C113.616 343.281 111.831 343.772 110.269 344.701C110.211 344.765 110.173 344.844 110.158 344.929C110.142 345.014 110.151 345.102 110.183 345.182C110.216 345.262 110.27 345.331 110.339 345.382C110.409 345.433 110.492 345.464 110.578 345.47C112.12 345.47 113.662 344.824 115.111 344.855C116.808 344.999 118.483 345.329 120.107 345.84C120.246 345.857 120.387 345.829 120.508 345.759C120.63 345.69 120.725 345.583 120.781 345.455C120.837 345.327 120.849 345.184 120.816 345.048C120.784 344.912 120.708 344.79 120.6 344.701Z" fill="#291B30"/>
<path d="M120.107 349.625C117.473 348.093 114.383 347.538 111.379 348.055C110.362 348.055 110.331 349.748 111.379 349.656C112.83 349.517 114.294 349.579 115.728 349.84C117.054 350.086 118.256 350.64 119.582 350.917C119.746 350.952 119.916 350.929 120.063 350.851C120.211 350.773 120.326 350.645 120.388 350.491C120.451 350.336 120.457 350.165 120.406 350.007C120.354 349.848 120.248 349.713 120.107 349.625Z" fill="#291B30"/>
<path d="M160.937 344.701C158.593 343.901 153.505 343.593 151.685 345.747C151.439 346.024 151.685 346.609 152.025 346.578C153.474 346.394 154.738 345.809 156.25 345.747C157.761 345.686 159.333 346.086 160.752 345.994C160.837 346.006 160.924 346.001 161.007 345.98C161.09 345.958 161.168 345.921 161.237 345.87C161.306 345.818 161.364 345.754 161.407 345.68C161.451 345.606 161.48 345.525 161.492 345.44C161.504 345.355 161.499 345.268 161.478 345.185C161.457 345.102 161.419 345.024 161.368 344.956C161.316 344.887 161.252 344.829 161.178 344.786C161.104 344.742 161.022 344.713 160.937 344.701Z" fill="#291B30"/>
<path d="M162.078 349.902C159.518 348.763 153.135 347.932 151.839 351.379C151.654 351.84 152.24 352.21 152.61 351.994C153.943 351.253 155.428 350.826 156.951 350.746C158.475 350.666 159.996 350.935 161.399 351.533C162.325 351.902 163.034 350.302 162.078 349.902Z" fill="#291B30"/>
<path d="M45.324 55.7767C45.324 55.592 44.9539 55.592 44.9231 55.7767C43.3812 66.2701 44.2755 77.3175 44.2755 88.0572C44.2755 99.4123 43.9054 110.86 44.5839 122.184C44.6131 122.305 44.6821 122.413 44.78 122.489C44.8779 122.566 44.9989 122.608 45.1236 122.608C45.2482 122.608 45.3692 122.566 45.4671 122.489C45.565 122.413 45.6341 122.305 45.6632 122.184C46.3108 110.86 45.9408 99.4123 45.9408 88.0572C45.9408 77.5637 46.8351 66.3625 45.324 55.7767Z" fill="#F7F8F8"/>
<path d="M58.8004 59.3465C58.7676 59.1954 58.6839 59.06 58.5632 58.963C58.4426 58.8659 58.2923 58.813 58.1374 58.813C57.9824 58.813 57.8321 58.8659 57.7115 58.963C57.5909 59.06 57.5072 59.1954 57.4743 59.3465C57.4743 69.4399 56.8267 79.718 57.4743 89.7806C57.4743 89.952 57.5426 90.1164 57.664 90.2376C57.7855 90.3588 57.9502 90.4268 58.122 90.4268C58.2937 90.4268 58.4584 90.3588 58.5799 90.2376C58.7013 90.1164 58.7696 89.952 58.7696 89.7806C59.4788 79.718 58.8621 69.4399 58.8004 59.3465Z" fill="#F7F8F8"/>
<path d="M196.679 165.02C196.654 164.929 196.599 164.849 196.524 164.791C196.449 164.734 196.357 164.703 196.262 164.703C196.168 164.703 196.076 164.734 196.001 164.791C195.925 164.849 195.871 164.929 195.846 165.02C194.977 178.234 194.802 191.484 195.322 204.717C195.322 217.949 195.322 231.15 195.815 244.382C195.841 244.481 195.899 244.568 195.98 244.63C196.061 244.692 196.16 244.726 196.262 244.726C196.364 244.726 196.464 244.692 196.544 244.63C196.625 244.568 196.683 244.481 196.71 244.382C197.141 231.15 197.141 217.949 197.203 204.717C197.707 191.484 197.532 178.234 196.679 165.02Z" fill="#F7F8F8"/>
<path d="M220.455 87.6267C220.359 78.8215 219.782 70.028 218.728 61.2853C218.728 60.7622 217.895 60.9161 217.865 61.2853C217.627 70.7406 217.905 80.2018 218.697 89.627C219.098 98.3972 219.006 107.383 220.177 116.061C220.177 116.861 221.534 116.615 221.565 115.876C221.997 106.49 221.01 96.9201 220.455 87.6267Z" fill="#F7F8F8"/>
<path d="M226.622 92.5198C226.601 92.451 226.558 92.3908 226.5 92.348C226.441 92.3053 226.371 92.2822 226.299 92.2822C226.226 92.2822 226.156 92.3053 226.098 92.348C226.039 92.3908 225.996 92.451 225.975 92.5198C225.158 105.163 225.096 117.843 225.79 130.493C225.771 130.57 225.769 130.651 225.786 130.728C225.803 130.806 225.837 130.879 225.886 130.942C225.935 131.004 225.997 131.055 226.069 131.09C226.141 131.124 226.219 131.142 226.299 131.142C226.378 131.142 226.457 131.124 226.528 131.09C226.6 131.055 226.663 131.004 226.712 130.942C226.761 130.879 226.795 130.806 226.811 130.728C226.828 130.651 226.827 130.57 226.808 130.493C227.501 117.843 227.44 105.163 226.622 92.5198Z" fill="#F7F8F8"/>
<path d="M135.68 213.456C135.727 211.06 136.037 208.676 136.605 206.348C136.297 208.748 135.989 211.148 135.68 213.456Z" fill="#291B30"/>
<path d="M169.233 181.421C165.069 156.465 130.685 155.295 130.685 155.295C128.557 145.017 142.434 141.94 142.434 141.94L150.545 134.955C153.797 134.906 157.044 135.216 160.228 135.878C162.237 139.076 163.823 142.521 164.946 146.125C167.386 157.746 168.82 169.555 169.233 181.421Z" fill="#291B30"/>
<path d="M165.44 148.802C137.685 161.819 107.525 149.879 107.525 149.879C109.715 143.725 108.08 112.337 107.926 106.367C107.926 106.367 107.926 106.152 107.926 106.059C107.939 105.834 107.939 105.608 107.926 105.382C113.755 91.9038 114.402 65.9317 114.433 57.0076C117.054 56.6075 119.799 56.3921 122.174 56.269C123.099 66.2394 126.398 91.8115 135.588 90.7036C144.778 89.5958 149.157 66.8241 150.761 56.8537C152.451 57.1367 154.166 57.2501 155.88 57.1922C156.404 57.1922 156.928 57.1922 157.453 57.1922C156.651 70.8245 164.237 99.4739 164.453 100.274C164.453 100.489 164.453 100.736 164.453 100.951C164.453 101.689 164.237 102.459 164.145 103.29C164.145 103.29 164.145 103.628 164.145 103.813C162.202 121.169 165.44 148.802 165.44 148.802Z" fill="#AB8DA8"/>
</svg>
