<svg width="269" height="324" fill="none" xmlns="http://www.w3.org/2000/svg"><path d="m102.567 90.12-17.2 5.498s-5.234 20.195-3.6 23.795c1.633 3.599 10.833 6.331 15.2 4.165 4.366-2.166 19.166-16.329 19.166-16.329l-13.566-17.13Z" fill="#FFEDE5"/><path d="M118.333 70.624s-11 12.463-15.767 19.495l12.267 19.162 12.833-11.53s-2.133-31.893-9.333-27.127Z" fill="#543753"/><path d="M100.6 90.752v19.196l5.533-14.263-3.566-5.566-1.967.633Z" fill="#E0855C"/><path d="M99.767 79.621c1.5.367 1.966-.666 3.2 1.3 1.233 1.966 3.833 9.665 3.133 10.831-.7 1.166-8.467 8.665-9.033 8.665-.567 0-2-2.1-1.7-2.833 0 0-1.834 1.1-3.034.9 0 0-2.666 1.4-3.733 1.133-1.067-.267-7.3-9.465-5.833-11.897 1.466-2.433 2.4-1.167 3.266-2.133.867-.967 2.334-2.566 4.1-2.4 1.767.167 2.567-2.566 5.134-2.166 2.566.4 1.166-2.233 4.5-1.4Z" fill="#FFEDE5"/><path d="M95.333 97.917a.35.35 0 0 1-.3-.166c-.1-.167-.033-.367.134-.434.033 0 3.033-1.6 3.833-2.766l.067-.066c.033 0 1.733-1.533 2.3-2.7l-2.9-6.565c-.067-.166 0-.366.166-.433.167-.067.367 0 .434.167l3 6.831-.067.134c-.5 1.266-2.233 2.832-2.5 3.066-.933 1.3-3.933 2.866-4.067 2.932 0-.033-.033 0-.1 0ZM92.3 98.817c-.134 0-.234-.066-.3-.2l-3.7-7.532c-.067-.166 0-.366.166-.433.167-.066.367 0 .434.167l3.7 7.532c.066.166 0 .366-.167.433-.033.033-.067.033-.133.033Z" fill="#472938"/><path d="M97.3 96.75c-.133 0-.233-.066-.3-.199l-3.467-7.465c-.067-.167 0-.367.167-.433.166-.067.366 0 .433.166l3.467 7.465c.067.167 0 .367-.167.434-.033.033-.1.033-.133.033Z" fill="#472938"/><path d="M97.033 100.75c-.533 0-1.133-.833-1.366-1.166-.167-.234-.534-.834-.667-1.433-.633.3-1.733.766-2.633.7-.534.266-2.8 1.366-3.867 1.1-.6-.134-1.7-1.6-2.3-2.467-.1-.166-.067-.366.067-.466a.358.358 0 0 1 .466.066c1.034 1.5 1.734 2.133 1.9 2.2.7.166 2.5-.6 3.5-1.1l.1-.033h.1c1.1.166 2.8-.867 2.834-.867l.866-.5-.366.933c-.034.1-.034.434.3 1.067.4.733.866 1.2 1.066 1.3.834-.467 6.267-5.6 8.2-7.665-1.8.433-3.533-.334-3.6-.367-.166-.067-.233-.267-.166-.433.066-.167.266-.234.433-.167.033 0 2.2.967 4.033 0 .234-.133.4-.067.467.034.1.066.167.233.1.4-.233.6-8.667 8.864-9.467 8.864Z" fill="#472938"/><path d="m156.033 50.595 16.7 10.497v21.762s-17.367 36.125-16.7 49.156l-39.767 7.431s-9.533-38.258 2.067-68.85l17.733-12.465 19.967-7.531Z" fill="#AB8DA8"/><path d="M112.6 108.715a.333.333 0 0 1-.333-.333c-.134-9.232.6-17.83 2.233-25.628.033-.167.2-.3.4-.267.167.034.3.2.267.4-1.6 7.732-2.367 16.297-2.2 25.461-.034.2-.167.367-.367.367Z" fill="#472938"/><path d="M172.733 82.887 159.7 80.921l7.3 14.763 5.733-12.797Z" fill="#543753"/><path d="m151.7 37.231 4.333 13.364a33.098 33.098 0 0 0-12.2 8.231c-5.7 6.065-7.9 11.798-11.333 11.798s3.6-12.464 3.6-12.464l-.9-11.664 16.5-9.265Z" fill="#FFEDE5"/><path d="M135.633 52.428s7.634-1.133 11.534-12.098l-12 6.166.466 5.932Z" fill="#E0855C"/><path d="M129.967 9.937s-7.367 35.925-3.534 38.392c3.834 2.466 18.967.333 24.6-9.665 5.634-9.998-1.433-28.727-21.066-28.727Z" fill="#FFEDE5"/><path d="M127.6 22.7s-6.933 8.966-6.233 9.832c.7.867 4.5 2.1 4.5 2.1L127.6 22.7Z" fill="#FFEDE5"/><path d="M148.4 33.232s-3.467-1.733-1.233-9.298c0 0-4.5-7.965-7.434-9.265-2.933-1.3-10.4-1.7-10.4-1.7s-1.5-10.497 1-11.597c2.5-1.1 25.634-.466 30 7.699 1.467 2.766.534 4.432.534 4.432s2.466 3.266 2.033 6.065c-.433 2.8-7.233 13.164-7.233 13.164l-7.267.5Z" fill="#3B2645"/><path d="M155.318 35.964c2.318-2.317 2.972-5.419 1.462-6.928-1.51-1.51-4.613-.856-6.93 1.46-2.317 2.317-2.971 5.42-1.461 6.929 1.51 1.51 4.612.855 6.929-1.461Z" fill="#FFEDE5"/><path d="M129.366 40.397c-1.566 0-2.966-.433-3.066-.467a.333.333 0 0 1-.2-.433.333.333 0 0 1 .433-.2c.033 0 4.567 1.467 6.133-.933.1-.167.3-.2.467-.1.167.1.2.3.1.467-.9 1.3-2.433 1.666-3.867 1.666ZM150.167 34.765c-.1 0-.234-.067-.267-.167-.1-.166-.067-.366.1-.466l2.7-1.7c.167-.1.367-.067.467.1.1.167.066.367-.1.467l-2.7 1.7c-.067.032-.134.066-.2.066Z" fill="#472938"/><path d="M132.2 22.734c.7.167 1.133.867.967 1.533l-.2.9c-.167.7-.867 1.133-1.534.966-.7-.166-1.133-.866-.966-1.532l.2-.9c.166-.7.833-1.133 1.533-.967ZM130.8 19.235s4.4-.3 5.533 3.3c0 0-.133-3.767-2.9-4.333-2.766-.567-3.666.866-2.633 1.033Z" fill="#3B2645"/><path d="M161.967 54.327c-14.967-2.533-5.034 29.027-5.034 29.027l22.4 6.765 8.3-25.494c-13.033-5.732-25.666-10.298-25.666-10.298Z" fill="#AB8DA8"/><path d="M182.833 128.91s-7.9 2.766-8.666 4c-.767 1.233-.034 5.598-.034 5.598a18.085 18.085 0 0 0-1.966 4.233c-.667 2.232 1 1.566 2.966 3.832 1.967 2.266 3.567 1.7 4.7 2.733 1.134 1.033 3.434.7 4.334 1.133.9.433 2.6 1.899 3.633 1.833 1.033-.067 3.467-3.599 5.467-8.032 2-4.432 1.633-8.031 2.533-13.363.9-5.333 21.933-39.625 19.467-48.923-1.234-4.632-14.634-11.564-27.667-17.33l-8.3 25.495 11.867 3.6-8.334 35.191Z" fill="#FFEDE5"/><path d="M194.733 94.985h-.1l-3.566-.967c-.167-.033-.3-.233-.234-.4.034-.166.234-.266.4-.233l3.567.966c.167.034.3.234.233.4 0 .134-.133.234-.3.234Z" fill="#472938"/><path d="m221.833 214.391 12.967-6.498s-.3-2.533 2.3-5.399c2.6-2.866.667-9.498-1.767-10.564-2.433-1.067-3.633-.334-5.733-3.766l-18.767 8.131 11 18.096Z" fill="#FFEDE5"/><path d="M235.3 191.93c2.433 1.066 4.333 7.698 1.767 10.564-2.567 2.866-2.3 5.399-2.3 5.399 11.1 1.499 21.533 17.762 23.5 19.595 1.966 1.833 9.933.534 10.166-.833.234-1.366-17.066-46.989-18.666-47.989-1.6-1-20.2 9.498-20.2 9.498 2.1 3.432 3.3 2.699 5.733 3.766Z" fill="#AB8DA8"/><path d="M268.433 226.655c.2-1.366-17.066-46.989-18.666-47.989-.4-.267-1.867.2-3.8 1.033 4.6 9.131 16.333 40.591 19.233 48.389 1.733-.333 3.133-.866 3.233-1.433Z" fill="#E5E5E5"/><path d="M121.867 166.202s29.733 77.983 42.266 79.016c12.534 1.033 63.4-33.126 63.4-33.126l-9.466-18.963-42.967 14.164-10.7-48.956-42.533 7.865Z" fill="#3B2645"/><path opacity=".5" d="m164.4 158.37-42.533 7.832s7.633 19.996 16.766 39.858l29.3-31.36-3.533-16.33Z" fill="#3B2645"/><path d="M43.733 278.677 38 291.974s1.867 1.766 1.733 5.599c-.133 3.832 5.6 7.698 8.167 6.931 2.567-.766 3-2.099 6.833-.799l9.134-18.33-20.134-6.698Z" fill="#FFEDE5"/><path d="M41.733 283.309s7.867 8.232 18.167 9.965l3.933-7.899-20.1-6.732-2 4.666Z" fill="#E0855C"/><path d="M156.033 132.043s17.4 20.162 8.334 36.159c-9.067 15.996-63.1 45.389-66.767 54.421-3.667 9.031-5.733 19.462-13.233 31.993-7.5 12.53-19.467 34.625-19.467 34.625s-18.1-.7-24-8.531c0 0 29.2-73.884 36.167-83.448 6.966-9.565 39.833-50.089 39.833-50.089l-.667-7.698 39.8-7.432Z" fill="#3B2645"/><path d="M56.667 286.608H56.6c-.067-.033-.133-.133-.067-.233.334-.7 32.5-69.218 38.934-77.216 2.366-2.966 9.333-9.931 17.366-17.996C126.6 177.366 143.7 160.203 146 154.938c3.6-8.198 1.2-19.729 1.167-19.862-.034-.1.033-.167.133-.2.1-.034.167.033.2.133s2.433 11.764-1.2 20.062c-2.333 5.299-19.467 22.495-33.233 36.325-8.034 8.065-14.967 14.997-17.334 17.963-6.4 7.965-38.566 76.45-38.866 77.149-.067.067-.134.1-.2.1Z" fill="#fff"/><path d="M52.1 285.575h-.067c-.066-.033-.133-.133-.066-.233.333-.7 33.7-71.284 37.566-77.216 1.967-3.033 13.7-15.43 25.034-27.394 11.2-11.831 22.8-24.094 25.033-27.36 4.467-6.532 3.533-17.13 3.533-17.23 0-.1.067-.167.167-.167s.167.067.167.167.966 10.831-3.6 17.463C137.6 156.904 126 169.168 114.8 181.032c-11.333 11.964-23.033 24.361-25 27.361-3.833 5.932-37.233 76.482-37.567 77.182 0-.033-.066 0-.133 0Z" fill="#fff"/><path d="M47.867 304.538c-2.534.733-8.3-3.1-8.167-6.932.133-3.833-1.733-5.599-1.733-5.599-9.467 5.999-27.9.267-30.6.133-2.7-.133-7.967 5.999-7.234 7.166.734 1.166 43.3 24.961 45.2 24.727 1.9-.233 9.334-20.262 9.334-20.262-3.8-1.333-4.234.034-6.8.767Z" fill="#AB8DA8"/><path d="M.167 299.305c.7 1.167 43.3 24.962 45.2 24.728.466-.066 1.3-1.333 2.233-3.232-9.4-4.033-38.667-20.562-45.867-24.661-1.133 1.333-1.866 2.666-1.566 3.165Z" fill="#E5E5E5"/><path opacity=".5" d="M116.9 147.173s19.767-2.466 19.567-2.4c-.2.067-19.834-.866-19.834-.866l.267 3.266Z" fill="#3B2645"/></svg>