<svg id="ad42a6d6-4cab-48d9-961e-4fdf97c163c8" data-name="Layer 2" xmlns="http://www.w3.org/2000/svg" viewBox="0 0 2000.51 1534.94"><defs><style>.b4396de3-5e3c-48b7-a3a3-4b91f5289fb3{fill:#c6c6c6}.bc97241d-73c7-4f2a-9bb3-1a45774f8200{fill:#3a4348}.abbe76e6-3e12-4688-8dff-f8cf6a65efba{fill:#454f56}.e16f8fc9-5c6c-4f32-ba6a-147a9c7d234e{fill:#3d120e}.fbda4e54-92c7-4186-8cfe-abf39d1035d5{fill:#f8bb98}.b0a82b03-b06a-4dc6-9eb2-59280a9d1eec,.b4680422-75b9-4052-b1ec-2350fc174cce,.f6e93a90-23c0-4fab-9106-145377179d2f,.fe36094b-0e53-4f27-90d1-d9b557f92e42,.ff0b45dd-72be-4e3d-bdfa-d170c6d1fb62{fill:none;stroke-linecap:round;stroke-miterlimit:10}.b0a82b03-b06a-4dc6-9eb2-59280a9d1eec,.fe36094b-0e53-4f27-90d1-d9b557f92e42{stroke:#e9a37c}.b0a82b03-b06a-4dc6-9eb2-59280a9d1eec,.b4680422-75b9-4052-b1ec-2350fc174cce{stroke-width:3.1px}.f81e17b0-8180-48a8-893a-e2c3946c0e29{fill:#f1ad8c}.b5d87d2e-73a3-4c1b-8d6f-53707807457a{fill:#8e4493}.f50d98a5-c028-4c18-ad2f-44fa5beb7e95{fill:#d467a4}.a890d162-de7e-4365-9409-6839612f2c79{fill:#392e39}.e6046d8a-5f8c-464c-9f0d-708990f3193a{fill:#f4a38e}.ff0b45dd-72be-4e3d-bdfa-d170c6d1fb62{stroke:#9c3e7d;stroke-width:3.61px}.f6e93a90-23c0-4fab-9106-145377179d2f{stroke:#742f82;stroke-width:4.81px}.b4680422-75b9-4052-b1ec-2350fc174cce{stroke:#c78d6b}.ff0ed7c3-0ea9-4683-801e-57770cc8d2a8{fill:#f0ae8c}.b21a7d08-fbcf-41db-9a50-eaae12845f61{fill:#662f0d}.fa6b1db9-3100-4f2e-9d7e-42a25de5f400{fill:#fff}.b217d235-0bbf-4893-adcb-0adeea27a6c9{fill:#80317c}.fb4e2d43-1e59-47a2-8047-26ff51c21a19{fill:#16233b}.bffa7f99-4d63-45d4-8ef5-47a8f9615f3c{fill:#037482}.fe36094b-0e53-4f27-90d1-d9b557f92e42{stroke-width:2.88px}</style></defs><path class="b4396de3-5e3c-48b7-a3a3-4b91f5289fb3" d="M1140.54 53.01h103.79v28.61h-103.79z"/><path class="bc97241d-73c7-4f2a-9bb3-1a45774f8200" d="M1317.88 37.32a15.35 15.35 0 0 1-15.35 15.35h-17.14A15.35 15.35 0 0 1 1270 37.32V-2.84a15.35 15.35 0 0 1 15.35-15.35h17.14a15.35 15.35 0 0 1 15.35 15.35ZM1430.34 37.32A15.36 15.36 0 0 1 1415 52.67h-17.14a15.35 15.35 0 0 1-15.35-15.35V-2.84a15.35 15.35 0 0 1 15.35-15.35H1415a15.36 15.36 0 0 1 15.35 15.35Z" transform="translate(-162.09 50.08)"/><path class="abbe76e6-3e12-4688-8dff-f8cf6a65efba" d="M1107.95 47.24h47.84v40.17h-47.84zM1220.41 47.24h47.84v40.17h-47.84z"/><path class="e16f8fc9-5c6c-4f32-ba6a-147a9c7d234e" d="M1127.46 85.52c0 43.28 13.26 164.9-6.88 178.33-29.07 19.37-60.06-8.83-64.87-50-5.11-43.69 3.62-45.39 4-73.86.81-59.64 8.8-140.87 8.8-140.87s58.95 43.14 58.95 86.4Z" transform="translate(-162.09 50.08)"/><path class="e16f8fc9-5c6c-4f32-ba6a-147a9c7d234e" d="M1130.59 89.93c0 43.28-15.15 160.49 5 173.92 29.07 19.37 60.06-8.83 64.87-50 5.11-43.69-3.63-45.39-4-73.86-.8-59.64-8.28-138.17-8.28-138.17s-57.59 44.85-57.59 88.11Z" transform="translate(-162.09 50.08)"/><path class="fbda4e54-92c7-4186-8cfe-abf39d1035d5" d="M1346.76 45.66c.14 7.66-4 142.47-4 142.47l-130.34-42.26 5.2 89.61s164.83 23.63 177.5-17.42c19-61.43-22.32-168.72-32.6-177.24s-15.89-2.82-15.76 4.84Z" transform="translate(-162.09 50.08)"/><path class="fbda4e54-92c7-4186-8cfe-abf39d1035d5" d="M1328.05-1.86c7.74-10.89 34.55-12.17 41.11-1s-2.6 49.39-2.6 49.39L1347 47s-26.7-38-18.95-48.86Z" transform="translate(-162.09 50.08)"/><path class="b0a82b03-b06a-4dc6-9eb2-59280a9d1eec" d="M1342.26 186.94c4.5 1.82 9.49 3.85 14.43 4.81" transform="translate(-162.09 50.08)"/><path class="f81e17b0-8180-48a8-893a-e2c3946c0e29" d="M995.18 1138.24c-5.06 6.64-46.5 3-57 1.54-11.23-1.58 13.5-78.12 13.5-78.12s34-10.82 33.53 0 15.02 69.94 9.97 76.58Z" transform="translate(-162.09 50.08)"/><path class="f81e17b0-8180-48a8-893a-e2c3946c0e29" d="M1058.72 365.65s-30.31 26.73-57.62 124.27c-35.36 126.27-49.39 571.74-49.39 571.74h33.53S1125.59 629 1135.41 499.13C1140.81 427.77 1143 359 1143 359s-31.8-22.21-84.28 6.65ZM1257 1138.24c5 6.64 46.5 3 57 1.54 11.23-1.58-13.5-78.12-13.5-78.12s-34-10.82-33.53 0-15.08 69.94-9.97 76.58Z" transform="translate(-162.09 50.08)"/><path class="f81e17b0-8180-48a8-893a-e2c3946c0e29" d="M1193.41 365.65s30.3 26.73 57.61 124.27c35.36 126.27 49.39 571.74 49.39 571.74h-33.53S1126.54 629 1116.71 499.13c-5.4-71.36-7.54-140.12-7.54-140.12s31.76-22.22 84.24 6.64Z" transform="translate(-162.09 50.08)"/><path class="b5d87d2e-73a3-4c1b-8d6f-53707807457a" d="M1115 611.85c10.77-46.15 18.37-85.9 20.4-112.72 5.41-71.36 7.6-140.13 7.6-140.13s-31.75-22.22-84.23 6.64c0 0-30.31 26.73-57.62 124.27-6.73 24.05-12.69 59.68-17.93 101.6C1032 634.31 1115 611.85 1115 611.85Z" transform="translate(-162.09 50.08)"/><path class="b5d87d2e-73a3-4c1b-8d6f-53707807457a" d="M1137.12 611.85s86.49 11.23 131.67-21.68c-5.2-41.33-11.11-76.46-17.77-100.25-27.31-97.54-57.61-124.27-57.61-124.27-52.48-28.86-84.24-6.64-84.24-6.64s2.14 68.76 7.54 140.12c2.03 26.87 9.63 66.57 20.41 112.72Z" transform="translate(-162.09 50.08)"/><path class="f50d98a5-c028-4c18-ad2f-44fa5beb7e95" d="M1225.87 229.16c0-37.54-9.42-80.38-16.83-89.59s-59.47-18.22-59.47-18.22h-42s-54.9 9.39-63 20.62-15.52 52.61-16.23 95.22c-1.15 68.33 30.37 128.46 30.37 128.46h135.89s31.26-78.77 31.27-136.49Z" transform="translate(-162.09 50.08)"/><path class="fbda4e54-92c7-4186-8cfe-abf39d1035d5" d="M1149.57 122.59s0 10.51-21.23 9.75c-20.43-.74-20.74-9.75-20.74-9.75l2-20.72h37.55Z" transform="translate(-162.09 50.08)"/><path class="fbda4e54-92c7-4186-8cfe-abf39d1035d5" d="M1169.52 19.64c-.13-24.61-12.16-52.25-12.16-52.25l-31.25-4.1-31.26 4.1s-12 27.64-12.16 52.25c-.06 10.34-3 24.25-1.15 37.57 2.51 18.54 12.62 51.31 44.57 51.31 33.67 0 41.36-32.76 44.22-51.31 2.14-13.91-.76-27.28-.81-37.57Z" transform="translate(-162.09 50.08)"/><path class="e16f8fc9-5c6c-4f32-ba6a-147a9c7d234e" d="M1188.17 1.86c0-21.65-23.22-48.42-57.58-51.72s-62.08 30.37-62.08 49c0 12.15 9.44 39.23 9.44 39.23l8.69.79s1.89-48.2 15.91-46.34c20.43 34 63.1 4.88 61.56 26.26-.59 8.36-.8 15 1 20.9 2.59 8.62 10.65 6 10.65 6s12.39-29.47 12.41-44.12Z" transform="translate(-162.09 50.08)"/><path class="fbda4e54-92c7-4186-8cfe-abf39d1035d5" d="M1162.72 41.6c-9.14 1.38 5.3 13.09 12.18 11.94 4.92-.82 10.27-7.46 10.27-16.74 0-10.21-6.52-14.36-11.44-13.54-8.56 1.44-4.73 17.38-11.01 18.34ZM1089.49 41.6c9.15 1.38-5.31 13.09-12.19 11.94-4.91-.82-10.26-7.46-10.26-16.74 0-10.21 6.52-14.36 11.43-13.54 8.53 1.44 4.77 17.38 11.02 18.34Z" transform="translate(-162.09 50.08)"/><path class="b0a82b03-b06a-4dc6-9eb2-59280a9d1eec" d="M1138.27 106.13c-11 5.53-24.33-.21-24.33-.21" transform="translate(-162.09 50.08)"/><path class="a890d162-de7e-4365-9409-6839612f2c79" d="M1147.16 33.72c0 3 1.08 5.46 2.41 5.46s2.41-2.45 2.41-5.46-1.08-5.46-2.41-5.46-2.41 2.44-2.41 5.46Z" transform="translate(-162.09 50.08)"/><path class="e16f8fc9-5c6c-4f32-ba6a-147a9c7d234e" d="M1159.27 22c-5.56-4.46-15.93-4.5-15.93-5.33s-.83-4-.07-4.58 13.16 3.16 16.76 7.73c.97 1.25.76 3.43-.76 2.18Z" transform="translate(-162.09 50.08)"/><path class="b0a82b03-b06a-4dc6-9eb2-59280a9d1eec" d="M1127.25 27.49s.94 15.23-1.23 21.44" transform="translate(-162.09 50.08)"/><path class="e6046d8a-5f8c-464c-9f0d-708990f3193a" d="M1137.25 50.64c-.53 2.84 3.48 6 8.94 7s10.35-.47 10.88-3.32-3.48-6-9-7-10.29.46-10.82 3.32Z" transform="translate(-162.09 50.08)"/><path class="a890d162-de7e-4365-9409-6839612f2c79" d="M1105 33.72c0 3-1.07 5.46-2.4 5.46s-2.42-2.45-2.42-5.46 1.08-5.46 2.42-5.46 2.4 2.44 2.4 5.46Z" transform="translate(-162.09 50.08)"/><path class="e16f8fc9-5c6c-4f32-ba6a-147a9c7d234e" d="M1092.85 22c5.57-4.46 15.93-4.5 15.93-5.33s.83-4 .08-4.58-13.16 3.16-16.77 7.73c-.96 1.25-.76 3.43.76 2.18Z" transform="translate(-162.09 50.08)"/><path class="e6046d8a-5f8c-464c-9f0d-708990f3193a" d="M1114.88 50.64c.53 2.84-3.48 6-9 7s-10.34-.47-10.87-3.32 3.48-6 9-7 10.34.46 10.87 3.32Z" transform="translate(-162.09 50.08)"/><path class="b0a82b03-b06a-4dc6-9eb2-59280a9d1eec" d="M1120.58 52.34c2.31-2.85 7.31-2.08 10 .14M1139.63 73.41c-6.31 5.42-19.55 5.88-27.05 0" transform="translate(-162.09 50.08)"/><path class="ff0b45dd-72be-4e3d-bdfa-d170c6d1fb62" d="M1081.9 242.7c19.15 8.35 37.86-3.55 56.55-2.44 18.39 1.1 33.66 9.88 50.48-4.78" transform="translate(-162.09 50.08)"/><path class="f50d98a5-c028-4c18-ad2f-44fa5beb7e95" d="M1222.74 245.68h52.17l18.65-75.14s-62.68-31.68-101.4-39.69c-31.58-6.54 30.58 114.83 30.58 114.83Z" transform="translate(-162.09 50.08)"/><path class="ff0b45dd-72be-4e3d-bdfa-d170c6d1fb62" d="M1226.34 236.1c.27-8.09-4.44-28.64-7.22-36.07" transform="translate(-162.09 50.08)"/><path class="b4396de3-5e3c-48b7-a3a3-4b91f5289fb3" d="M694.13 53.01h103.79v28.61H694.13z"/><path class="bc97241d-73c7-4f2a-9bb3-1a45774f8200" d="M944.75 37.32a15.36 15.36 0 0 0 15.35 15.35h17.14a15.35 15.35 0 0 0 15.35-15.35V-2.84a15.35 15.35 0 0 0-15.35-15.35H960.1a15.36 15.36 0 0 0-15.35 15.35ZM832.3 37.32a15.35 15.35 0 0 0 15.34 15.35h17.14a15.35 15.35 0 0 0 15.35-15.35V-2.84a15.35 15.35 0 0 0-15.35-15.35h-17.14A15.35 15.35 0 0 0 832.3-2.84Z" transform="translate(-162.09 50.08)"/><path class="abbe76e6-3e12-4688-8dff-f8cf6a65efba" d="M782.67 47.24h47.84v40.17h-47.84zM670.21 47.24h47.83v40.17h-47.83z"/><path class="fbda4e54-92c7-4186-8cfe-abf39d1035d5" d="M915.86 45.66c-.13 7.66 4 142.47 4 142.47l130.34-42.26-5.2 89.61s-164.83 23.63-177.5-17.42c-19-61.43 22.32-168.72 32.6-177.24S916 38 915.86 45.66Z" transform="translate(-162.09 50.08)"/><path class="fbda4e54-92c7-4186-8cfe-abf39d1035d5" d="M934.59-1.86C926.84-12.75 900-14 893.47-2.84s2.6 49.39 2.6 49.39l19.55.45s26.71-38 18.97-48.86Z" transform="translate(-162.09 50.08)"/><path class="b0a82b03-b06a-4dc6-9eb2-59280a9d1eec" d="M920.37 186.94c-4.51 1.82-9.5 3.85-14.43 4.81" transform="translate(-162.09 50.08)"/><path class="f50d98a5-c028-4c18-ad2f-44fa5beb7e95" d="M1039.9 245.68h-52.18l-18.64-75.14s62.67-31.68 101.39-39.69c31.58-6.54-30.57 114.83-30.57 114.83Z" transform="translate(-162.09 50.08)"/><path class="ff0b45dd-72be-4e3d-bdfa-d170c6d1fb62" d="M1036.29 236.1c-.27-8.09 4.44-28.64 7.22-36.07" transform="translate(-162.09 50.08)"/><path class="f6e93a90-23c0-4fab-9106-145377179d2f" d="M1099 555.17c24.53 8.29 34.47 6.11 57.72 0" transform="translate(-162.09 50.08)"/><path class="b4680422-75b9-4052-b1ec-2350fc174cce" d="M1005.2 742.06c11.34 5.57 26.27 6.88 38.48 2.41M1245.59 742.06c-11.35 5.57-26.28 6.88-38.48 2.41" transform="translate(-162.09 50.08)"/><path class="fbda4e54-92c7-4186-8cfe-abf39d1035d5" d="M301 476c-5.95-5.86-58.92.29-70.26.34s-26 .68-32.44 4.66c-3.58 2.21-.45 15.86 9.83 11.34S231.77 496.8 241 501c19.41 8.88 42.25 8.88 42.25 8.88s20.87-1.6 19.8-12.37c-.45-4.18 3.95-15.62-2.05-21.51Z" transform="translate(-162.09 50.08)"/><path class="ff0ed7c3-0ea9-4683-801e-57770cc8d2a8" d="M906.89 1381.56c-.44-7.66-92.46-170.41-92.44-317.87 0-51.76 93.59-21.76 84.49 48-15.69 120.26 17.45 234.69 27.41 268 3.82 12.74-19.01 9.53-19.46 1.87Z" transform="translate(-162.09 50.08)"/><path class="ff0ed7c3-0ea9-4683-801e-57770cc8d2a8" d="M983.43 1390.13c0 8.62-51.95 8.89-72 6.85-11.43-1.18-4.55-15.42-4.55-15.42l19.46-1.93s57.09-2.84 57.09 10.5Z" transform="translate(-162.09 50.08)"/><path class="fbda4e54-92c7-4186-8cfe-abf39d1035d5" d="M182.45 1316.94c-6 5.57-1.9 16.09-8.68 34.32-5.47 14.68-14.46 26.27-10.85 39.09 2.49 8.88 18.83 9.23 23.25 9.23 4.2 0 18.83 1.6 20-3.21s-16.43-12-16.43-12l33.67-48.5-15.7-19s-16.07-8.42-25.26.07Z" transform="translate(-162.09 50.08)"/><path class="b5d87d2e-73a3-4c1b-8d6f-53707807457a" d="M609.75 1029.54c50.46-32.36 90-123.31 90-123.31s-24.22-19.84-66.34-33.1c-45.31-14.25-100.63 15.82-144.8 64.26-109.12 119.68-266.12 318.53-280.84 379.49 3.69 6.86 6.65 16.59 15.7 19 85.98-40.65 386.28-306.34 386.28-306.34Z" transform="translate(-162.09 50.08)"/><path class="b5d87d2e-73a3-4c1b-8d6f-53707807457a" d="M512 945.3c22.59 55.53 173.76-51.4 173.76-51.4s-7.42-17.18-47-69.45C541.07 695.27 360.25 523.14 303 497.53c-7.42 2.36-17.54 4.59-21.51 13C305.71 602.55 512 945.3 512 945.3Z" transform="translate(-162.09 50.08)"/><path class="b21a7d08-fbcf-41db-9a50-eaae12845f61" d="M964.1 1135.1c-14-.33-39.29-8.23-46.59 1-10.07 12.8 2.74 21 22.38 34.93s103.85 62.22 89.21 21.75-38.19-57.07-65-57.68Z" transform="translate(-162.09 50.08)"/><path class="f50d98a5-c028-4c18-ad2f-44fa5beb7e95" d="M601.05 1037.21c5.13 16.34 49.22 45.2 90.16 73.27 13.27 9.09 24 26.87 31.9 32.65 20.08 14.64 90 40.71 102.42 37s33.29-17.58 33.29-17.58l31.78-44.95s25.06-75.86-92.44-142.06c-50.29-28.33-77.1-80.22-112.4-81.68-20.34-.8-91.51 121.72-84.71 143.35Z" transform="translate(-162.09 50.08)"/><path class="fbda4e54-92c7-4186-8cfe-abf39d1035d5" d="M867.71 1193.51c.57-11.3 8.82-20.82 8.82-20.82l-17.71-10.1s-67.42 7.25-53-12.84c14.86-20.69 84.79-32.11 84.79-32.11l33.24 22.86a129.31 129.31 0 0 0 37.59 16.12c22.27 5.44 18.8-3.56 38.12 12.29 24.31 19.95 1.26 83.54 1.26 83.54l-23.46 24s-28.48-8-48.8-22.22-62.39-30.52-60.85-60.72Z" transform="translate(-162.09 50.08)"/><path class="b21a7d08-fbcf-41db-9a50-eaae12845f61" d="M1016.22 1170.13c24.22 30 18.25 59.59 1.1 89.54s-48.67 33.5-63.88 22.74c-8.58-6.06-16.76-23-16.76-23s29.56 11.36 36.13-1.15c-15.95-36.3 11.42-55.82-1.06-73.23-4.81-6.73-8.06-10.81-12.6-14.14-7.25-5.32-6.48-18.54 1.46-16.22s43.76.8 55.61 15.46Z" transform="translate(-162.09 50.08)"/><path class="b21a7d08-fbcf-41db-9a50-eaae12845f61" d="M1069.94 1212.94c0 20-15.22 36.2-34 36.2s-34-16.22-34-36.2 15.22-36.21 34-36.21 34 16.21 34 36.21Z" transform="translate(-162.09 50.08)"/><path class="fbda4e54-92c7-4186-8cfe-abf39d1035d5" d="M959.15 1170.86c-6.39 6.68-7.64-11.89-2.72-16.84 3.52-3.53 12-4.07 19.6 1.28 8.33 5.89 8 13.62 4.45 17.16-6.12 6.16-16.94-6.15-21.33-1.6Z" transform="translate(-162.09 50.08)"/><path class="a890d162-de7e-4365-9409-6839612f2c79" d="M948.16 1205.63c-2.46-1.74-3.83-4-3.06-5.12s3.39-.56 5.85 1.17 3.84 4 3.07 5.13-3.4.56-5.86-1.18Z" transform="translate(-162.09 50.08)"/><path class="b21a7d08-fbcf-41db-9a50-eaae12845f61" d="M964.69 1202.48c.43 7.13-5.51 15.6-4.84 16.08s2.82 3 3.7 2.71 5-12.57 3.36-18.15c-.43-1.5-2.33-2.57-2.22-.64Z" transform="translate(-162.09 50.08)"/><path class="a890d162-de7e-4365-9409-6839612f2c79" d="M927.06 1235.48c-2.46-1.74-5.09-2.27-5.85-1.19s.6 3.39 3.06 5.12 5.09 2.28 5.86 1.19-.61-3.38-3.07-5.12Z" transform="translate(-162.09 50.08)"/><path class="b21a7d08-fbcf-41db-9a50-eaae12845f61" d="M931.34 1251c6.85-2 11.14-9.32 11.81-8.84s3.78 1.65 3.79 2.59-8.68 7.86-14.51 8.16c-1.55.09-2.96-1.35-1.09-1.91Z" transform="translate(-162.09 50.08)"/><path class="b0a82b03-b06a-4dc6-9eb2-59280a9d1eec" d="M937.22 1222.27c-11.91-10.19-18.38-2.37-22.29-5s-2.1-9.69-2.1-9.69M897.49 1155.57c-12.1 2.2-19.32 14.8-19.32 14.8" transform="translate(-162.09 50.08)"/><path class="e6046d8a-5f8c-464c-9f0d-708990f3193a" d="M907.15 1237.87c-1.92-1.58-1-5.85 2-9.54s7.05-5.4 9-3.82 1 5.87-2 9.55-7.08 5.38-9 3.81ZM928.63 1204c-2.64-1.21-2.9-6.29-.57-11.35s6.37-8.17 9-7 2.89 6.31.57 11.35-6.37 8.17-9 7ZM893.69 1214.33c-2.79-1.44-8.44-11.34-5.68-16.67s13.31-8.47 16.09-7 3.57 10 .81 15.32-8.44 9.8-11.22 8.35Z" transform="translate(-162.09 50.08)"/><path class="fa6b1db9-3100-4f2e-9d7e-42a25de5f400" d="M908.14 1191.26s-9.58-3.88-16.22 7.41 4 17.36 4 17.36Z" transform="translate(-162.09 50.08)"/><path class="ff0b45dd-72be-4e3d-bdfa-d170c6d1fb62" d="M712 1111.68c12.5-8.4 15.83-22.82 22.76-35 7.61-13.33 15.61-19.79 30.45-23.64" transform="translate(-162.09 50.08)"/><path class="f6e93a90-23c0-4fab-9106-145377179d2f" d="M600.59 994.41c-33.88-6.41-66.53-33.41-95.73-61.08" transform="translate(-162.09 50.08)"/><path class="fbda4e54-92c7-4186-8cfe-abf39d1035d5" d="M881.15 1386.43c-.45-7.65-92.45-170.4-92.45-317.86 0-51.76 93.29-55.94 84.19 13.81-15.7 120.26 17.76 268.86 27.71 302.13 3.83 12.8-19 9.59-19.45 1.92Z" transform="translate(-162.09 50.08)"/><path class="fbda4e54-92c7-4186-8cfe-abf39d1035d5" d="M957.69 1395c0 8.61-52 8.9-72 6.86-11.42-1.18-4.54-15.43-4.54-15.43l19.45-1.92s57.09-2.84 57.09 10.49Z" transform="translate(-162.09 50.08)"/><path d="M2115.9 1264.73a222.38 222.38 0 0 1-5.88 50.8c-.81 3.43-1.71 6.83-2.7 10.17a220.13 220.13 0 0 1-79.32 115 210 210 0 0 1-18.24 12.36 220.2 220.2 0 0 1-287.17-52.43c-2.27-2.91-4.46-5.83-6.56-8.88a218.21 218.21 0 0 1-39.47-107.08c-.3-3-.47-6.09-.6-9.13-.22-3.57-.3-7.17-.3-10.82a219.68 219.68 0 0 1 13.21-75.28c.9-2.54 1.85-5 2.87-7.42a220.19 220.19 0 0 1 54.32-78.68c2.57-2.41 5.23-4.73 7.94-7a220 220 0 0 1 199.57-44.06c5.53 1.46 10.86 3.18 16.17 5.11h.09a220.05 220.05 0 0 1 96.91 68.73q2.76 3.34 5.4 6.81a220.33 220.33 0 0 1 38.57 84.35c.65 2.79 1.2 5.53 1.72 8.36a224.66 224.66 0 0 1 3.47 39.09Z" transform="translate(-162.09 50.08)" style="fill:#c04191"/><path class="b217d235-0bbf-4893-adcb-0adeea27a6c9" d="m2092.65 1276.36-2.62 1.46c-2.87 1.5-6.86 4.07-12.35 6.61-2.79 1.2-5.88 2.49-9.23 3.94a101.53 101.53 0 0 1-11 4.29c-4 1.33-8.23 2.79-12.74 4.29s-9.31 2.62-14.33 4c-10 3-21 5-32.65 7.51-5.83 1.21-11.88 1.93-18.06 3s-12.44 2-18.92 2.61-13 1.42-19.65 2.19c-6.65.43-13.42.9-20.2 1.33l-10.25.65c-3.44.08-6.87.17-10.34.21l-20.73.39q-10.41-.2-20.76-.48c-3.43-.08-6.91-.08-10.34-.29s-6.82-.48-10.25-.69c-6.78-.52-13.56-1-20.21-1.42-6.64-.82-13.21-1.59-19.69-2.36-13-1.24-25.31-3.82-37.06-5.71-5.92-.89-11.58-2.27-17-3.51s-10.77-2.49-15.88-3.65-9.91-2.62-14.45-3.94-9-2.62-13-3.82c-8.29-2.24-15.06-4.94-20.77-7-1.25-.47-2.44-.9-3.56-1.33-.3-3-.47-6.09-.6-9.13l7.08 2.79c5.66 2.18 12.44 5 20.42 7.29 3.94 1.29 8.19 2.62 12.61 4s9.09 3 14.16 4.11c5 1.29 10.16 2.58 15.57 3.91s10.94 2.83 16.73 3.82c11.63 2.1 23.81 4.89 36.6 6.39 6.39.86 12.87 1.76 19.47 2.66l20 1.8 10.16.9c3.39.26 6.83.35 10.26.52 6.82.3 13.73.6 20.59.86h30.89c3.39 0 6.82-.3 10.21-.43 6.78-.34 13.47-.65 20.12-1l19.6-1.8c6.44-.47 12.75-1.37 18.88-2.23s12.22-1.55 18.06-2.66c11.63-2.23 22.69-4.08 32.69-6.82 5-1.33 9.87-2.27 14.33-3.73s8.75-2.79 12.78-4.08a97.43 97.43 0 0 0 11-4c3.39-1.38 6.47-2.62 9.26-3.78 5.54-2.4 9.57-4.93 12.49-6.35 1.09-.5 2.03-.98 2.68-1.32ZM2112.47 1225.65c-2.19.86-4.68 1.84-7.46 3-5.63 2.23-12.36 5.1-20.56 7.55-4.07 1.28-8.36 2.7-12.91 4.16s-9.31 3.13-14.37 4.29c-5.07 1.33-10.34 2.66-15.75 4.07s-11.06 2.92-16.94 4c-11.75 2.19-24 5.11-36.94 6.7-6.43.94-13 1.88-19.6 2.83-6.65.64-13.39 1.29-20.16 2-3.44.3-6.83.64-10.26 1s-6.86.34-10.3.56l-20.76 1c-6.9 0-13.86.12-20.72.17h-10.34l-10.25-.39c-6.83-.26-13.56-.56-20.25-.81l-19.69-1.67c-6.48-.39-12.78-1.29-19-2.11s-12.27-1.46-18.1-2.53c-11.71-2.14-22.82-3.94-32.86-6.6-5-1.29-9.91-2.19-14.42-3.65s-8.79-2.75-12.83-4a98.91 98.91 0 0 1-11.1-4c-3.4-1.33-6.53-2.58-9.32-3.69-5.57-2.4-9.65-4.89-12.57-6.31-2.52-1.28-4-2-4.28-2.23.3.18 1.8.9 4.33 2.15 3 1.37 7.08 3.77 12.65 6 2.84 1 6 2.23 9.4 3.51a100.88 100.88 0 0 0 11.11 3.74c4 1.2 8.36 2.4 12.87 3.73s9.44 2.18 14.46 3.34c10 2.49 21.15 4 32.86 6 5.84.94 11.92 1.41 18.1 2.19s12.49 1.41 18.92 1.71l19.65 1.29c6.65.13 13.38.26 20.16.43 3.39 0 6.78.13 10.21.17l10.26-.26c6.86-.17 13.73-.34 20.63-.55l20.55-1.42c3.43-.26 6.87-.43 10.25-.77l10.13-1.16q10.1-1.23 20-2.32c6.52-1.11 13-2.19 19.34-3.22 12.8-1.8 24.89-4.93 36.43-7.33 5.79-1.16 11.33-2.75 16.65-4.25s10.51-2.91 15.49-4.33c5-1.25 9.56-3 14-4.47s8.62-3 12.52-4.33c7.9-2.48 14.63-5.53 20.21-7.85 3.43-1.45 6.4-2.7 8.88-3.77.61 2.86 1.21 5.6 1.68 8.43ZM2087.63 1174.9l-2.62 1.46c-2.88 1.46-6.86 4.07-12.35 6.61-2.79 1.2-5.88 2.48-9.23 3.94a101.53 101.53 0 0 1-11 4.29c-4 1.33-8.24 2.79-12.74 4.3s-9.31 2.61-14.33 4c-10 3-21 5-32.65 7.5-5.83 1.21-11.88 1.93-18.06 3s-12.44 2.07-18.92 2.67-13 1.41-19.64 2.14c-6.65.47-13.43.9-20.21 1.37l-10.26.65c-3.43.08-6.86.17-10.33.21l-20.72.39c-6.95-.18-13.86-.3-20.77-.47-3.47-.13-6.9-.13-10.34-.31s-6.81-.47-10.25-.73l-20.21-1.42c-6.61-.77-13.21-1.55-19.65-2.32-12.95-1.24-25.31-3.81-37.06-5.75-5.92-.85-11.59-2.23-17-3.51l-15.86-3.61c-5.12-1.07-9.92-2.61-14.51-3.94l-13-3.82c-2.44-.65-4.8-1.38-7-2.1.9-2.54 1.85-5 2.87-7.42 2.11.77 4.38 1.45 6.7 2.14 4 1.24 8.19 2.57 12.61 4s9.1 3 14.16 4.12 10.17 2.57 15.57 3.9 10.94 2.83 16.73 3.82c11.63 2.1 23.77 4.89 36.6 6.35q9.59 1.35 19.47 2.7l20 1.8 10.16.9c3.39.26 6.83.35 10.22.51 6.86.31 13.77.57 20.63.87h30.89c3.39 0 6.82-.3 10.21-.43 6.78-.35 13.47-.64 20.12-1 6.65-.6 13.17-1.2 19.6-1.76s12.75-1.37 18.88-2.27 12.23-1.55 18.06-2.62c11.63-2.23 22.69-4.07 32.65-6.82 5-1.33 9.9-2.27 14.37-3.73s8.75-2.79 12.78-4.08a105.84 105.84 0 0 0 11-4c3.39-1.37 6.48-2.66 9.26-3.78 5.54-2.4 9.57-4.93 12.49-6.34a56.35 56.35 0 0 1 2.68-1.41ZM2072.18 1132.94c-.64.22-1.32.44-2 .69q-3.54 1.15-7.72 2.58c-2.88.89-6 1.71-9.31 2.65-6.69 1.81-14.16 4.25-22.44 6-8.28 1.93-17.16 4.21-26.73 5.88l-14.67 2.79q-7.59 1.15-15.44 2.31c-10.43 1.76-21.32 2.62-32.35 4-11.07.77-22.31 2-33.59 2.28-5.62.17-11.24.51-16.86.6s-11.2 0-16.73.08-11-.21-16.48-.3-10.81-.21-16-.64-10.47-.6-15.53-1-10-.94-14.8-1.37c-9.65-.77-18.7-2.32-27.07-3.3-8.32-1.42-16-2.62-22.65-4s-12.57-2.58-17.33-3.78l-14.42-3.77 14.5 3.43c4.76 1.07 10.64 2.06 17.38 3.35s14.37 2.18 22.69 3.43c8.41.77 17.42 2.1 27.07 2.66q7.21.45 14.8 1c5 .17 10.22.39 15.45.56s10.59.21 16 .25 10.9.18 16.39-.08l16.64-.52c5.58-.21 11.2-.69 16.78-1 11.19-.56 22.3-2 33.24-3 10.94-1.59 21.71-2.66 32-4.68l15.23-2.66c4.93-1.07 9.73-2.1 14.41-3.13 9.44-1.84 18.19-4.33 26.3-6.39s15.36-4.5 21.84-6.44c3.21-1 6.26-1.88 9.05-2.83 2.53-.9 4.89-1.76 7-2.48q2.71 3.36 5.35 6.83ZM1969.78 1057.4c-2.87.34-6.13.68-9.69 1.11s-7.38.82-11.46 1.29-8.45.64-13 .94l-28.13 1.51c-4.81.21-9.62 0-14.29.08s-9.35 0-13.86 0-8.79 0-12.91-.09l-11.54-.69-23.81-1.36h35.39c4.08-.09 8.41-.39 12.87-.6l13.73-.78c4.68-.3 9.44-.38 14.16-.85 9.44-1 18.87-2.06 27.71-3 4.42-.51 8.67-.86 12.7-1.63 2-.35 4-.69 5.88-1 5.61 1.42 10.94 3.14 16.25 5.07ZM2011 1095.84c-1.55.34-5.24 1.2-10.73 2.49-3.64.81-8.11 1.84-13.21 3s-10.94 2-17.29 3.13c-6.35 1-13.17 2.45-20.51 3.26s-15.1 1.72-23.08 2.61c-2 .27-4 .48-6.05.69l-6.17.39c-4.12.26-8.33.52-12.58.77-8.4.52-17 1.16-25.6 1l-25.7.26c-8.45-.39-16.78-.73-24.84-1.07-4-.17-8-.39-11.89-.56-3.9-.35-7.67-.73-11.36-1.12-7.43-.72-14.42-1.41-20.85-2s-12.23-1.76-17.42-2.49l-13.38-2.15c-1.55-.26-3-.47-4.25-.68 2.57-2.41 5.23-4.73 7.94-7 3.21.64 6.9 1.33 11.06 2.14 5.11.91 10.9 2.37 17.2 3 6.35.86 13.18 1.76 20.43 2.7l11.15 1.46c3.86.26 7.77.56 11.75.86 8 .6 16.26 1.24 24.63 1.84 8.41.17 17 .39 25.48.56 8.58.39 17.12 0 25.52-.21l12.53-.39c2.06 0 4.08-.13 6.14-.17l6-.51 23-1.89c7.33-.56 14.2-1.81 20.59-2.58 6.34-1 12.23-1.5 17.33-2.61s9.57-1.89 13.25-2.62c5.6-1.09 9.33-1.85 10.91-2.11ZM2028 1440.71a210 210 0 0 1-18.24 12.36c-.76.17-1.58.3-2.39.43q-8 1.47-17.13 3.08c-6 1.21-12.48 1.89-19.13 2.79s-13.51 1.93-20.5 2.49-14.12 1.2-21.24 1.85-14.24.68-21.28 1c-3.47.17-7 .3-10.42.47h-29.43c-6.14-.26-11.93-.47-17.25-.68s-10.21-.39-14.54-.82l-11.2-.9c-4.67-.35-7.85-.6-9.14-.73 1.29 0 4.47.17 9.14.38 3.13.13 6.91.31 11.24.48s9.23.26 14.54.26h17.21c6.09-.22 12.52-.48 19.17-.69 3.35-.17 6.74-.3 10.13-.43 3.43-.3 6.86-.56 10.38-.86 6.95-.64 14-.94 21.07-1.84s14.06-1.76 21-2.62 13.65-2.19 20.21-3.22 12.92-2.06 18.79-3.47l16.69-3.65c5.19-1 9.91-2.36 14.07-3.52 3.06-.74 5.8-1.47 8.25-2.16ZM2110 1315.57c-.81 3.43-1.71 6.83-2.7 10.17-1.54.6-3.22 1.29-5 2-5.49 2.14-12.06 5.06-20.08 7.51s-16.81 5.83-26.64 8.61c-4.93 1.34-10.08 2.71-15.4 4.12s-10.76 3.1-16.52 4.21-11.58 2.49-17.59 3.73c-3 .64-6 1.37-9.09 1.93s-6.22 1-9.39 1.5c-6.27 1-12.66 2.06-19.14 3.13-6.52.91-13.12 1.55-19.78 2.32-13.25 1.81-26.85 2.32-40.37 3.35-6.77.38-13.59.38-20.33.6s-13.51.34-20.2.08-13.3-.3-19.82-.42c-6.57-.43-13-.91-19.35-1.29s-12.57-1.07-18.66-1.81-12.06-1.24-17.8-2.18c-11.51-2-22.4-3.56-32.27-6.13-4.93-1.21-9.78-2-14.2-3.48s-8.62-2.58-12.57-3.78a93.39 93.39 0 0 1-10.89-3.9q-5-1.93-9.14-3.61c-5.45-2.36-9.44-4.76-12.31-6.13-2.45-1.29-4-2.06-4.25-2.23.3.17 1.8.9 4.29 2.15 2.87 1.33 7 3.64 12.39 5.87 2.79 1 5.84 2.19 9.19 3.43a98.48 98.48 0 0 0 10.93 3.65c4 1.12 8.2 2.32 12.66 3.56s9.23 2 14.2 3.18c9.87 2.32 20.77 3.68 32.22 5.44 5.75.82 11.71 1.21 17.8 1.85s12.23 1.2 18.58 1.37 12.74.6 19.26.94h19.74c6.64.14 13.34-.12 20.07-.47s13.47-.47 20.21-1c13.43-1.29 26.9-2.06 40-4.08 6.57-.94 13.13-1.71 19.57-2.7q9.58-1.8 18.92-3.48c3.09-.55 6.17-1.16 9.22-1.71s6-1.37 9-2.06c5.92-1.38 11.71-2.75 17.33-4.08 5.66-1.15 11-3 16.26-4.41s10.25-3 15.1-4.43c9.65-2.91 18.19-6.3 25.91-8.92s14.33-5.58 19.78-7.85c4.44-1.84 8.14-3.39 10.86-4.55ZM2074.16 1375.33c1.07-.55 2-1 2.66-1.37-.69.39-1.55.9-2.62 1.46-2.87 1.5-6.86 4.07-12.36 6.6-2.78 1.21-5.87 2.54-9.22 4a101.53 101.53 0 0 1-11 4.29c-4 1.33-8.24 2.79-12.74 4.29s-9.31 2.62-14.33 4c-10 3-21 5-32.65 7.51-5.83 1.2-11.88 2-18.06 3s-12.44 2-18.92 2.61-13 1.42-19.64 2.19c-6.66.43-13.43.9-20.21 1.33l-10.25.64-10.3.26-20.77.39-20.75-.53c-3.43-.08-6.9-.08-10.34-.3s-6.82-.47-10.25-.68c-6.78-.52-13.56-1-20.21-1.42q-10-1.21-19.69-2.36c-13-1.24-25.31-3.82-37.06-5.7-5.92-.91-11.59-2.28-17-3.52-2-.47-3.91-.91-5.84-1.38-2.27-2.91-4.46-5.83-6.56-8.88 4.46 1.16 9.13 2.28 13.94 3.48 5.36 1.37 10.94 2.83 16.77 3.82 11.59 2.1 23.77 4.88 36.55 6.39 6.39.86 12.92 1.76 19.48 2.66l20 1.8 10.17.9c3.38.26 6.82.34 10.25.51l20.59.91h30.89c3.39 0 6.82-.3 10.21-.43 6.78-.34 13.51-.64 20.12-.94 6.65-.6 13.17-1.2 19.6-1.8s12.75-1.37 18.92-2.23 12.18-1.55 18-2.66c11.62-2.23 22.69-4.08 32.69-6.82 5-1.33 9.86-2.23 14.33-3.74s8.75-2.78 12.78-4a103.43 103.43 0 0 0 11-4.07 921.2 921.2 0 0 0 9.26-3.78c5.61-2.48 9.69-5.01 12.56-6.43Z" transform="translate(-162.09 50.08)"/><path class="fb4e2d43-1e59-47a2-8047-26ff51c21a19" d="M2126.46 874.85c10.93 24.19 9.7 48.48 9.67 75.15 0 23.4 6.62 46.06 20.65 64.92 27.75 37.31-51.7 107.46-72.2 70-6.61-12.1-3.41-34.88-2.77-48.56.87-18.67 7.57-40 12.11-58 6.62-26.22 14.6-54.93 10.26-81.89-.62-3.82-2-8-3-11.87Z" transform="translate(-162.09 50.08)"/><path class="fbda4e54-92c7-4186-8cfe-abf39d1035d5" d="m2002.33 812.24-120.13 17.68s58.84 34.54 78.52 60.17c12.56 16.35-64.65 22.81-83.92 17.12s-99.11-66-87.23-96.13c24-60.91 221.34-14.84 221.34-14.84Z" transform="translate(-162.09 50.08)"/><path class="fbda4e54-92c7-4186-8cfe-abf39d1035d5" d="M2065.88 808.49c5.24 11.22-8.06 29.13-20.1 29.29s-43.45-25.54-43.45-25.54l8.58-16s49.74 1.01 54.97 12.25ZM1626.65 1024.46s-193.61 7.67-220.3 46.87-3.9 346.34-3.9 346.34l30.84 4.16s33.48-155.41 40.63-208.5.62-96.4.62-96.4 189.52 63.22 261 35.2c53.48-21 64.55-44.59 51.59-106-11.31-53.83-84.76-19.35-160.48-21.67Z" transform="translate(-162.09 50.08)"/><path class="bffa7f99-4d63-45d4-8ef5-47a8f9615f3c" d="M1739.54 1009.65s-143.34 16-181.75 19.91l24 116.25c59.09 13.8 115 21.49 153.75 6.32 53.48-21 64.55-44.59 51.59-106-11.31-53.83-47.59-36.48-47.59-36.48Z" transform="translate(-162.09 50.08)"/><path class="fb4e2d43-1e59-47a2-8047-26ff51c21a19" d="M2076.74 915.18c-13 .48-37.52 2.19-43.25-.38-13.77-6.2 2.27-19.55 20.32-32.7s95.56-59.09 82.5-21.34-34.71 53.5-59.57 54.42Z" transform="translate(-162.09 50.08)"/><path class="fbda4e54-92c7-4186-8cfe-abf39d1035d5" d="M1520.06 1481.63c-5.28 5.67-54.64 2-65.15 2.45s-24.16.38-30.26-3c-3.42-1.91-1.05-14.68 8.66-10.9s21.64-5.25 30.11-9.32 28.61-9.46 28.61-9.46 32.4-6.83 31 3.11 2.33 21.49-2.97 27.12Z" transform="translate(-162.09 50.08)"/><path class="fbda4e54-92c7-4186-8cfe-abf39d1035d5" d="M1653 1052.25s-193.25 14.22-218.58 54.29 57.58 344.82 57.58 344.82l31 3.11s-.6-196.25-3.36-234.82c-2.5-35-15.56-69.84-15.56-69.84s191.55 56.78 262.08 26.36c52.74-22.74 55-53.17 48-107.71s-110.04-37.99-161.16-16.21ZM1429.44 1448.87c-5.47 5.48-54.68.2-65.21.25s-24.15-.44-30.14-4.07c-3.34-2-.54-14.71 9-10.61s21.81-4.5 30.4-8.28 28.93-8.49 28.93-8.49 32.6-5.74 30.84 4.16 1.66 21.56-3.82 27.04Z" transform="translate(-162.09 50.08)"/><path class="bffa7f99-4d63-45d4-8ef5-47a8f9615f3c" d="M1678.06 1043.32s-55.88 7.53-96.22 14l22.28 116.22c57.71 10.87 133.47 23.92 175.93 4.51 22-10.07 46-27.76 51.08-39.52 8.55-19.62-12.61-36-17-70.08-6.99-54.53-84.92-46.91-136.07-25.13Z" transform="translate(-162.09 50.08)"/><path d="M1729.13 1010.53c4.55-15.23 57.06-42.39 94.69-69 12.2-8.62 21.89-25.25 29.17-30.72 18.45-13.86 83-39 94.58-35.71s31.11 15.9 31.11 15.9l30.07 41.3s14.57 25.37 5.38 46.39c-26.72 61.1-54.5 68-82.66 88.54-43.31 31.53-76.89 48.5-100.34 71.29-13.55 13.18-108.03-107.83-102-127.99Z" transform="translate(-162.09 50.08)" style="fill:#ededed"/><path class="fbda4e54-92c7-4186-8cfe-abf39d1035d5" d="M1986.53 862.21c.68 10.48 8.45 19.21 8.45 19.21l-16.3 9.6s-62.66-5.84-49 12.61c14 19 79.09 28.69 79.09 28.69l30.55-21.64a120.3 120.3 0 0 1 34.68-15.45c20.59-5.34 17.49 3 35.21-11.89 22.3-18.84.09-77.54.09-77.54l-22.09-22s-26.32 7.77-45 21.24-57.5 29.17-55.68 57.17Z" transform="translate(-162.09 50.08)"/><path class="fb4e2d43-1e59-47a2-8047-26ff51c21a19" d="M2124.64 882c22.1-28.17 16.16-55.53-.14-83.11s-45.59-30.45-59.57-20.27c-7.89 5.75-15.25 21.59-15.25 21.59s27.28-10.92 33.54.61c-14.33 33.88 11.32 51.64 0 68-4.37 6.29-7.33 10.13-11.5 13.27-6.66 5-5.77 17.29 1.56 15s40.57-1.34 51.36-15.09Z" transform="translate(-162.09 50.08)"/><path class="fbda4e54-92c7-4186-8cfe-abf39d1035d5" d="M2071.68 882c-6-6.11-6.93 11.14-2.3 15.66 3.31 3.24 11.21 3.63 18.17-1.44 7.65-5.57 7.2-12.73 3.91-16-5.76-5.58-15.65 5.99-19.78 1.78Z" transform="translate(-162.09 50.08)"/><path class="a890d162-de7e-4365-9409-6839612f2c79" d="M2061 849.92c-2.26 1.65-3.51 3.8-2.78 4.8s3.16.48 5.42-1.18 3.5-3.79 2.77-4.79-3.12-.47-5.41 1.17Z" transform="translate(-162.09 50.08)"/><path class="fb4e2d43-1e59-47a2-8047-26ff51c21a19" d="M2076.41 852.63c.31-6.62-5.32-14.41-4.7-14.86s2.58-2.83 3.4-2.56 4.82 11.59 3.35 16.8c-.38 1.39-2.13 2.43-2.05.62Z" transform="translate(-162.09 50.08)"/><path class="a890d162-de7e-4365-9409-6839612f2c79" d="M2041.06 822.5c-2.26 1.65-4.69 2.17-5.42 1.17s.52-3.14 2.78-4.79 4.69-2.17 5.42-1.18-.52 3.15-2.78 4.8Z" transform="translate(-162.09 50.08)"/><path class="fb4e2d43-1e59-47a2-8047-26ff51c21a19" d="M2044.83 808c6.38 1.75 10.46 8.5 11.07 8.05s3.49-1.59 3.48-2.45-8.16-7.18-13.56-7.38c-1.44-.04-2.73 1.33-.99 1.78Z" transform="translate(-162.09 50.08)"/><path class="fe36094b-0e53-4f27-90d1-d9b557f92e42" d="M2050.66 834.63c-10.92 9.61-17 2.43-20.62 4.9s-1.83 9-1.83 9M2014.66 897c-11.26-1.87-18.12-13.48-18.12-13.48" transform="translate(-162.09 50.08)"/><path d="M1718.25 1017s-21.27 21.92-33.42 24.39c-38.53 7.85-82.08 15.95-82.08 15.95" transform="translate(-162.09 50.08)" style="stroke-width:3.35px;stroke:#006070;fill:none;stroke-linecap:round;stroke-miterlimit:10"/><path class="e6046d8a-5f8c-464c-9f0d-708990f3193a" d="M2022.55 820.54c-1.77 1.49-.88 5.44 2 8.83s6.61 4.91 8.38 3.42.88-5.44-2-8.83-6.61-4.96-8.38-3.42ZM2042.92 851.73c-2.43 1.16-2.6 5.88-.37 10.55s6 7.5 8.43 6.34 2.61-5.89.38-10.55-6-7.5-8.44-6.34ZM2010.36 842.55c-2.56 1.38-7.69 10.64-5 15.55s12.46 7.69 15 6.31 3.19-9.31.55-14.23-7.99-9.01-10.55-7.63Z" transform="translate(-162.09 50.08)"/><path class="fa6b1db9-3100-4f2e-9d7e-42a25de5f400" d="M2024.08 863.78s-8.85 3.72-15.15-6.67 3.44-16.16 3.44-16.16Z" transform="translate(-162.09 50.08)"/><path d="M1843.06 940.17c11.71 7.65 15 21 21.57 32.16 7.23 12.26 14.75 18.16 28.57 21.54" transform="translate(-162.09 50.08)" style="stroke:#b2b2b2;stroke-width:3.35px;fill:none;stroke-linecap:round;stroke-miterlimit:10"/><path class="fbda4e54-92c7-4186-8cfe-abf39d1035d5" d="m2099.14 922.05-44.82 112.85s-18.46-60-38.88-85.05c-17.87 10.57-38.7 52.48-37.58 72.54s41.46 111.63 73.51 107c64.8-9.38 65.3-212 65.3-212Z" transform="translate(-162.09 50.08)"/><path class="fbda4e54-92c7-4186-8cfe-abf39d1035d5" d="M2117.4 861.06c-9.72-7.68-30.21 1.15-33.14 12.83s14.88 48.16 14.88 48.16l17.53-4.68s10.45-48.64.73-56.31Z" transform="translate(-162.09 50.08)"/><path class="fe36094b-0e53-4f27-90d1-d9b557f92e42" d="M2042.73 1059.13c2.83-7.25 5-14.81 9.49-21M1501.84 1147.49c-.87-4.11-4.35-7.34-7.1-10.57" transform="translate(-162.09 50.08)"/><path class="fe36094b-0e53-4f27-90d1-d9b557f92e42" d="M1454.41 1297.21s-31.24-155-20-190.67c12.24-38.9 115.06-41.54 115.06-41.54M2016.55 820.86c11.21-2.76 21.39-13 31.25-19M1880.2 828.49c-6.8-4.49-15-10.76-23.06-11.91" transform="translate(-162.09 50.08)"/></svg>