<svg id="f5d74632-6a2a-4ee2-b5df-2227b9bee093" data-name="Layer 2" xmlns="http://www.w3.org/2000/svg" viewBox="0 0 213.82 97.68"><defs><style>.bbb77704-42b0-4c62-b057-3bf87a7562ae{fill:#b7cf49;}.fdddfac7-c188-4af4-8090-4ef3d2d6bc84{fill:#dd788c;}.b4737bca-c410-4a25-a27e-013a54fc30a8{fill:#ead9d8;}.bf3a7975-2022-497a-a56f-7a19a7eb835c{fill:#f8f0f1;}.f56a4a98-cb12-4a75-8545-f0138d9cf597{fill:#c0aeab;}.f618dce6-9a40-432f-88e4-0215853cdf61{fill:#404b75;}.baf02b35-998d-45f9-93eb-c84944af60fa{fill:#b0c2d5;}.ad31a104-511c-46d8-8c37-6d77b2f34343{fill:#7f96a2;}.bef19fdf-b0e1-4ec1-a829-1b49aa2f6f6a{fill:#deebf5;}</style></defs><title>weightImage</title><path class="bbb77704-42b0-4c62-b057-3bf87a7562ae" d="M664.28,465.72a1.61,1.61,0,0,1-1.61-1.61v-4.62a1.61,1.61,0,0,1,3.22,0v4.62A1.61,1.61,0,0,1,664.28,465.72Z" transform="translate(-587.4 -449)"/><path class="bbb77704-42b0-4c62-b057-3bf87a7562ae" d="M664.28,476.88a1.61,1.61,0,0,1-1.61-1.62v-4.61a1.61,1.61,0,1,1,3.22,0v4.61A1.61,1.61,0,0,1,664.28,476.88Z" transform="translate(-587.4 -449)"/><path class="bbb77704-42b0-4c62-b057-3bf87a7562ae" d="M672.17,469h-4.62a1.62,1.62,0,0,1,0-3.23h4.62a1.62,1.62,0,0,1,0,3.23Z" transform="translate(-587.4 -449)"/><path class="bbb77704-42b0-4c62-b057-3bf87a7562ae" d="M661,469h-4.62a1.62,1.62,0,0,1,0-3.23H661a1.62,1.62,0,0,1,0,3.23Z" transform="translate(-587.4 -449)"/><path class="fdddfac7-c188-4af4-8090-4ef3d2d6bc84" d="M718.73,463.41a7.21,7.21,0,1,1,7.21-7.2A7.21,7.21,0,0,1,718.73,463.41Zm0-11.18a4,4,0,1,0,4,4A4,4,0,0,0,718.73,452.23Z" transform="translate(-587.4 -449)"/><rect class="b4737bca-c410-4a25-a27e-013a54fc30a8" x="57.07" y="39.77" width="99.69" height="23.12"/><rect class="bf3a7975-2022-497a-a56f-7a19a7eb835c" x="57.07" y="39.77" width="99.69" height="6.43"/><rect class="f56a4a98-cb12-4a75-8545-f0138d9cf597" x="57.07" y="53.43" width="99.69" height="9.46"/><path class="f618dce6-9a40-432f-88e4-0215853cdf61" d="M745.77,513.51H642.86V487.16H745.77Zm-99.68-3.23h96.46V490.39H646.09Z" transform="translate(-587.4 -449)"/><polygon class="baf02b35-998d-45f9-93eb-c84944af60fa" points="195.12 31.29 195.12 71.37 212.21 69.28 212.21 33.38 195.12 31.29"/><path class="f618dce6-9a40-432f-88e4-0215853cdf61" d="M782.53,522a1.61,1.61,0,0,1-1.62-1.61V480.29a1.58,1.58,0,0,1,.55-1.2,1.61,1.61,0,0,1,1.26-.4l17.09,2.09a1.62,1.62,0,0,1,1.42,1.6v35.9a1.62,1.62,0,0,1-1.42,1.61L782.72,522Zm1.61-39.86v36.43L798,516.86V483.81Z" transform="translate(-587.4 -449)"/><rect class="baf02b35-998d-45f9-93eb-c84944af60fa" x="156.76" y="23.37" width="46.91" height="55.92"/><polygon class="ad31a104-511c-46d8-8c37-6d77b2f34343" points="156.76 96.07 197.61 96.07 203.67 79.29 156.76 79.29 156.76 96.07"/><polygon class="bef19fdf-b0e1-4ec1-a829-1b49aa2f6f6a" points="156.76 6.59 156.76 23.37 203.67 23.37 197.61 6.59 156.76 6.59"/><path class="f618dce6-9a40-432f-88e4-0215853cdf61" d="M744.16,529.91a1.62,1.62,0,0,1-1.61-1.62V472.37a1.61,1.61,0,0,1,3.22,0v55.92A1.62,1.62,0,0,1,744.16,529.91Z" transform="translate(-587.4 -449)"/><path class="f618dce6-9a40-432f-88e4-0215853cdf61" d="M757.05,529.91h-3.57a1.62,1.62,0,0,1,0-3.23h3.57a1.62,1.62,0,1,1,0,3.23Z" transform="translate(-587.4 -449)"/><path class="f618dce6-9a40-432f-88e4-0215853cdf61" d="M791.07,529.91a1.62,1.62,0,0,1-1.61-1.62V472.37a1.61,1.61,0,1,1,3.22,0v55.92A1.62,1.62,0,0,1,791.07,529.91Z" transform="translate(-587.4 -449)"/><path class="f618dce6-9a40-432f-88e4-0215853cdf61" d="M791.07,474h-9.16a1.62,1.62,0,1,1,0-3.23h6.86l-4.89-13.55H745.77v13.55H772a1.62,1.62,0,1,1,0,3.23h-27.8a1.62,1.62,0,0,1-1.61-1.62V455.6a1.61,1.61,0,0,1,1.61-1.62H785a1.62,1.62,0,0,1,1.52,1.07l6.06,16.77a1.62,1.62,0,0,1-1.52,2.17Z" transform="translate(-587.4 -449)"/><path class="f618dce6-9a40-432f-88e4-0215853cdf61" d="M785,546.68H744.16a1.61,1.61,0,0,1-1.61-1.61V528.29a1.61,1.61,0,1,1,3.22,0v15.17h38.11l4.89-13.55H765.44a1.62,1.62,0,0,1,0-3.23h25.63a1.62,1.62,0,0,1,1.52,2.16l-6.06,16.78A1.61,1.61,0,0,1,785,546.68Z" transform="translate(-587.4 -449)"/><polygon class="baf02b35-998d-45f9-93eb-c84944af60fa" points="18.7 31.29 18.7 71.37 1.61 69.28 1.61 33.38 18.7 31.29"/><path class="f618dce6-9a40-432f-88e4-0215853cdf61" d="M606.1,522h-.19l-17.09-2.08a1.62,1.62,0,0,1-1.42-1.61v-35.9a1.62,1.62,0,0,1,1.42-1.6l17.09-2.09a1.61,1.61,0,0,1,1.26.4,1.58,1.58,0,0,1,.55,1.2v40.08a1.62,1.62,0,0,1-.55,1.21A1.59,1.59,0,0,1,606.1,522Zm-15.47-5.12,13.86,1.69V482.12l-13.86,1.69Z" transform="translate(-587.4 -449)"/><rect class="baf02b35-998d-45f9-93eb-c84944af60fa" x="10.16" y="23.37" width="46.91" height="55.92"/><polygon class="ad31a104-511c-46d8-8c37-6d77b2f34343" points="57.07 96.07 16.21 96.07 10.16 79.29 57.07 79.29 57.07 96.07"/><polygon class="bef19fdf-b0e1-4ec1-a829-1b49aa2f6f6a" points="57.07 6.59 57.07 23.37 10.16 23.37 16.21 6.59 57.07 6.59"/><path class="f618dce6-9a40-432f-88e4-0215853cdf61" d="M644.47,529.91a1.62,1.62,0,0,1-1.61-1.62V472.37a1.62,1.62,0,0,1,3.23,0v55.92A1.63,1.63,0,0,1,644.47,529.91Z" transform="translate(-587.4 -449)"/><path class="f618dce6-9a40-432f-88e4-0215853cdf61" d="M635.15,529.91h-3.57a1.62,1.62,0,0,1,0-3.23h3.57a1.62,1.62,0,0,1,0,3.23Z" transform="translate(-587.4 -449)"/><path class="f618dce6-9a40-432f-88e4-0215853cdf61" d="M597.56,529.91a1.62,1.62,0,0,1-1.61-1.62V472.37a1.61,1.61,0,1,1,3.22,0v55.92A1.62,1.62,0,0,1,597.56,529.91Z" transform="translate(-587.4 -449)"/><path class="f618dce6-9a40-432f-88e4-0215853cdf61" d="M644.47,474h-27.8a1.62,1.62,0,1,1,0-3.23h26.19V457.21H604.75l-4.89,13.55h6.87a1.62,1.62,0,0,1,0,3.23h-9.17a1.62,1.62,0,0,1-1.52-2.17l6.06-16.77a1.62,1.62,0,0,1,1.52-1.07h40.85a1.62,1.62,0,0,1,1.62,1.62v16.77A1.63,1.63,0,0,1,644.47,474Z" transform="translate(-587.4 -449)"/><path class="f618dce6-9a40-432f-88e4-0215853cdf61" d="M644.47,546.68H603.62a1.61,1.61,0,0,1-1.52-1.06L596,528.84a1.62,1.62,0,0,1,1.52-2.16h25.63a1.62,1.62,0,0,1,0,3.23H599.86l4.89,13.55h38.11V528.29a1.62,1.62,0,0,1,3.23,0v16.78A1.62,1.62,0,0,1,644.47,546.68Z" transform="translate(-587.4 -449)"/></svg>