<svg xmlns="http://www.w3.org/2000/svg" viewBox="0 0 1723.78 1510.21"><defs><linearGradient id="linear-gradient" x1="1306" y1="691.69" x2="790.63" y2="691.69" gradientUnits="userSpaceOnUse"><stop offset="0"/><stop offset=".07" stop-color="#131313"/><stop offset=".54" stop-color="#919191"/><stop offset=".85" stop-color="#e0e0e0"/><stop offset="1" stop-color="#fff"/></linearGradient><linearGradient id="linear-gradient-2" x1="1073.11" y1="502.9" x2="557.74" y2="502.9" gradientUnits="userSpaceOnUse"><stop offset="0" stop-color="#dfdddb"/><stop offset=".47" stop-color="#e7a56e"/><stop offset=".83" stop-color="#ed7c1f"/><stop offset="1" stop-color="#ef6c00"/></linearGradient><filter id="luminosity-noclip" x="692.28" y="-9192" width="618.33" height="32766" filterUnits="userSpaceOnUse" color-interpolation-filters="sRGB"><feFlood flood-color="#fff" result="bg"/><feBlend in="SourceGraphic" in2="bg"/></filter><filter id="luminosity-noclip-2" x="692.28" y="381.91" width="618.33" height="619.56" filterUnits="userSpaceOnUse" color-interpolation-filters="sRGB"><feFlood flood-color="#fff" result="bg"/><feBlend in="SourceGraphic" in2="bg"/></filter><mask id="mask" x="692.28" y="-9192" width="618.33" height="32766" maskUnits="userSpaceOnUse"/><mask id="mask-2" x="459.39" y="193.12" width="618.33" height="619.56" maskUnits="userSpaceOnUse"><g style="filter:url(#luminosity-noclip-2)"><g style="mask:url(#mask)" transform="translate(-232.89 -188.79)"><path style="fill:url(#linear-gradient);mix-blend-mode:multiply" d="m692.28 717.77.55 45.29 617.35 238.41.43-619.56-618.33 335.86z"/></g></g></mask><style>.cls-4{fill:#ffb129}.cls-5{fill:#c36247}.cls-6{fill:#ab3d2f}.cls-7{fill:#2e141f}.cls-9{fill:#fff}.cls-10{fill:#471f30}.cls-12{fill:#47180c}.cls-14{fill:#ff63ae}.cls-15{fill:#4a4f72}.cls-16{fill:#343a63}</style></defs><g style="isolation:isolate"><g id="Layer_2" data-name="Layer 2"><path id="plus" class="cls-4" d="m1532.87 714.19-19.07-3.8v-19.06l-8.11-1.61v19.06l-19.06-3.8v8.12l19.06 3.79v19.07l8.11 1.61v-19.06l19.07 3.79v-8.11z"/><path class="cls-5" d="M672.5 1598.88a17.78 17.78 0 0 1-1.79 7.93c-4.62 9.51-18.09 15.19-38.47 12.8-25.57-3-54.37-14.73-77.28-13.39s-38.21-9.37-34.09-25.42l.12-.49c4.12-15.71 10.16-23.26 10.16-23.26l3.82-10.86 5.59-15.89c20.57-14.39 42 8.35 42 8.35-2.44 7.74-.11 13.95 4.58 18.93 10.57 11.17 33.06 16.13 40.38 18.21 10.6 3.01 44.98 9.03 44.98 23.09Z" transform="translate(-232.89 -188.79)"/><path class="cls-6" d="M587.16 1557.58a68.59 68.59 0 0 1-30.46 2 32.6 32.6 0 0 1-21.73-13.4l5.59-15.89c20.57-14.39 42 8.35 42 8.35-2.42 7.75-.09 13.96 4.6 18.94Zm83.55 49.24c-4.62 9.51-18.09 15.19-38.47 12.8-25.57-3-54.37-14.73-77.28-13.39s-38.21-9.37-34.09-25.42l.12-.49c1.17 5.74 4.67 12.83 14.44 16.38 18 6.55 22.37-4.91 60 7.09 29.44 9.38 60.87 13.44 75.28 3.03Z" transform="translate(-232.89 -188.79)"/><path class="cls-7" d="M709.22 1315.69C672.39 1379.53 592.58 1549 592.58 1549s-43.46 7.8-55-22.26a37.89 37.89 0 0 1-1.48-4.76s43-121.53 51.56-157.14 35.61-66.29 35.61-66.29l-178-55.24-105.58-132.6s23.33-83.48 82.26-54 76.1 61.29 76.1 61.29 19.05 6.88 46.62 18.23c52.23 21.49 135 59 176.82 96 0-.01 24.51 19.63-12.27 83.46Z" transform="translate(-232.89 -188.79)"/><path d="M651.1 1296.87s-36.83 15.56-54 82.66c-13.79 53.87-46 122-59.5 147.17a37.89 37.89 0 0 1-1.48-4.76s43-121.53 51.56-157.14 35.61-66.29 35.61-66.29l-178-55.24-105.58-132.6s23.33-83.48 82.26-54 76.08 61.33 76.08 61.33 19.05 6.88 46.62 18.23c-22.64 2.28-59.34 10.66-36 37 31.93 36 89.22 78.58 93.3 102.31Z" transform="translate(-232.89 -188.79)" style="fill:#241017"/><path class="cls-5" d="M925.87 898.05c-4.16 41.08-21.45 61.62-21.45 61.62-8.67 45.72-37.65 101.23-60.16 136.27-47.79-2.44-154.73-112-170.65-135.05-3.62 28.14-5.84 58.42-17.19 84.72-17.54 25.7-51.37 27.38-84.71 36.83-21.78 4.24-61.82 26.58-73.66 35.6-112.94 4.61-106.52-95.88-174.31-88.4 1-.63 27.75-17.52 68.73-35.59 10.27-4.54 19.66-11.16 28.5-19.2 68.08-70.61 73.72-126.09 181.16-159.37.41 2 78.08 51.62 101.84 68.41 25.39 20 36.29 40 55.57 68.41 23.33 34.38 56.48 63.84 56.48 63.84 28.36-16.25 46.73-60.85 50.34-81l-9.83-38.05c4.83-16.61 6.82-47.11 32.48-39 5.44 2.38 15 4.51 18.63 9.61 5.63 7.75 20.49 19.3 18.23 30.35Z" transform="translate(-232.89 -188.79)"/><path class="cls-6" d="M871.57 1048.15a574.57 574.57 0 0 1-13.45 24.9c-8.07 14.13-13.86 22.89-13.86 22.89-29.26-5.55-63.26-29.31-93.19-55.41q-1.79-1.54-3.54-3.12c18.34-87.56-35.46-124.31-43.53-153.52 25.4 20 36.3 40 55.58 68.41 23.33 34.38 56.48 63.84 56.48 63.84a87.19 87.19 0 0 0 19.11-16.45Z" transform="translate(-232.89 -188.79)"/><path class="cls-9" d="M673.61 960.89v.41c-.07.65-.21 2.05-.43 4 0 .21 0 .43-.07.66 0 .44-.1.92-.16 1.42l-.06.49c0 .39-.08.8-.13 1.23l-.06.5v.2c0 .26 0 .52-.08.78l-.09.69c0 .34-.07.67-.12 1q-.15 1.28-.33 2.67c0 .23 0 .45-.08.68-.17 1.39-.36 2.86-.57 4.39a6.18 6.18 0 0 1-.07.62c-.09.62-.17 1.26-.26 1.9 0 .24-.07.48-.09.71-.08.53-.15 1.06-.22 1.61-.14.94-.27 1.91-.42 2.89s-.32 2.22-.48 3.34c-.09.57-.17 1.14-.26 1.71q-.46 3-1 6.11l-.3 1.76c0 .19-.06.39-.1.58-.49 2.93-1 5.88-1.57 8.8-.19 1-.39 2.08-.6 3.11s-.46 2.25-.69 3.36-.46 2.13-.69 3.17c-.11.53-.24 1-.35 1.57l-.36 1.56c-.12.5-.24 1-.37 1.52-.25 1-.49 2-.74 3s-.48 1.81-.72 2.68c-1 3.63-2.07 7-3.19 9.94-.14.39-.29.76-.44 1.13v.11c-.17.4-.33.8-.5 1.18 0 .11-.09.21-.13.32-.12.27-.24.54-.37.81l-.53 1.13c-.16.33-.33.64-.49.95-2.92 5.5-7.71 10.06-13.84 14-17.12 10.87-44.66 16.53-70.86 22.86-17.36 4.19-35.33 12.76-49.16 20.44a117.14 117.14 0 0 1-34.59-15l-2.06-1.35c-13.45-9-27.67-22.19-40.24-41.7-17.09-26.53-23.19-51-24.7-69.94 12.58-11.45 24-25.78 35.44-41.08 4.78 19.63 19.64 43.54 63.46 44.68h1.92c3.57 0 7-.07 10.38-.31a103.93 103.93 0 0 0 25.94-5.13 88.67 88.67 0 0 0 9.71-3.94c41.47-19.67 54.71-65.92 41.55-95.38-10.78-24.11-30.55-37.28-43.8-43.76 7.71-3.69 14.7-6.64 20.33-8.86 11.82 6.4 28.3 21.48 35.74 56.71 12.28 58.11-6.55 99 20.46 109.68 24.74 9.74 37.8-87.62 29.13-125.44l7 4.4a219.48 219.48 0 0 1-4.69 94.43Z" transform="translate(-232.89 -188.79)"/><path class="cls-5" d="M577.61 1673c0 17.18-18 29-49.26 25.37s-66.5-18-94.54-16.37c-26.86 1.57-45.13-10.38-42.21-28.66.13-.8.3-1.62.51-2.45 5-19.64 12.58-29 12.58-29l4-11.27 7.55-21.47c25.17-17.6 51.41 10.23 51.41 10.23-2.5 7.87-.94 14.45 3 19.94 11.32 15.94 42.41 22.75 52 25.49 11.84 3.36 48 9.82 54.12 24a10.53 10.53 0 0 1 .84 4.19Z" transform="translate(-232.89 -188.79)"/><path class="cls-6" d="M858.13 1073.05c-8.08 14.12-13.87 22.89-13.87 22.89-71.21-13.5-170.65-135.05-170.65-135.05 12.69 2.87 37.24-11 37.24-11-4.91 17.18-16.37 21.28-16.37 21.28C702.67 988.32 814 1075.89 833.62 1080c8.05 1.66 16.77-2 24.51-6.95Zm-387.55 546.18a74.2 74.2 0 0 1-30.64 3.66c-16.53-1.27-25.95-6.81-31.29-12.36l7.55-21.47c25.17-17.6 51.41 10.23 51.41 10.23-2.5 7.87-.94 14.45 2.97 19.94ZM577.61 1673c0 17.18-18 29-49.26 25.37s-66.5-18-94.54-16.37c-26.86 1.57-45.13-10.38-42.21-28.66 3 7.61 12.36 17.33 40.7 16 45.84-2.19 97.12 25.1 122.23 20.19 15.42-3 20.54-13.25 22.2-20.69a10.53 10.53 0 0 1 .88 4.16Z" transform="translate(-232.89 -188.79)"/><path class="cls-10" d="m595.92 1316.09-117.51 283.2c-41.41 19.44-61.88 5.72-70.61-4.72a34.54 34.54 0 0 1-5.51-8.78s20.88-52.79 45.43-153.46 40.51-115.41 40.51-115.41-82.25-16-159.59-54c-62-30.51-95.61-67.32-95.75-111.72a103.59 103.59 0 0 1 6.12-34.38c20.88-60.15 84.71-87.17 84.71-87.17 29.94-5.25 59.88 19.39 84.34 49.3a1505 1505 0 0 0 133.5 143.41c28.38 26.69 44.85 52.42 53 67.48a30.55 30.55 0 0 1 1.36 26.25Z" transform="translate(-232.89 -188.79)"/><path class="cls-7" d="M524.23 1307.51c-.54 0-22.54.79-58.09 126.86-25.32 89.74-46.18 137.83-58.34 160.2a34.54 34.54 0 0 1-5.51-8.78s20.88-52.79 45.43-153.46 40.51-115.41 40.51-115.41-82.25-16-159.59-54c-62-30.51-95.61-67.32-95.75-111.72 12.13 29 42 72.33 115.39 100.67 117.59 45.4 174.92 55.46 175.95 55.64Z" transform="translate(-232.89 -188.79)"/><path class="cls-6" d="M522.65 934.28c-2-7.81-1.91-16.5.78-26.17.9-3.26.48 5.8-.78 26.17Zm228.42 106.25c-4.81-4.18-9.49-8.42-14.05-12.66 4.34 2.47 8.07 4.67 10.66 6.28a7.1 7.1 0 0 1 3.39 6.38Z" transform="translate(-232.89 -188.79)"/><path d="M642.58 1059.58c-17.12 10.87-44.66 16.53-70.86 22.86-17.36 4.19-35.33 12.76-49.16 20.44C508 1111 498.05 1118 498.05 1118a147.06 147.06 0 0 1-47.34-6.12l-.92-.28c-1.35-.41-2.69-.85-4.06-1.32 13-7.18 27.18-14.1 40.18-23.83 13.19-9.86 25.19-22.6 33.7-41.43 11.47-25.39 13.94-48.24 12.56-66.88-2.3-31-15.29-50.43-15.29-50.43l.54-1.64 50.4 43 68.55 58.49Z" transform="translate(-232.89 -188.79)" style="opacity:.5;fill:#ab3d2f;mix-blend-mode:multiply"/><path class="cls-6" d="M887.36 890.64c0 24.39-8.51 43.57-22.45 50.51 1-3.79 1.45-6 1.45-6l-9.83-38.05 6.78-25.75a19.39 19.39 0 0 1 5.43-9.17c7.74 3.54 18.62 11.58 18.62 28.46Z" transform="translate(-232.89 -188.79)"/><path class="cls-5" d="M880.34 902.57A55.48 55.48 0 0 1 868.05 932l-17.66 21.49s-53.5 107-114.53 161.62c-11.18 10-22.61 18.25-34 23.76 0 0-54-20.87-100.67-77.34S517.7 933.89 517.7 933.89s-5.87-16.95 3.29-33.75c3.41-6.25 8.91-12.48 17.57-17.81 31.92-19.64 55.25 2.45 66.3 18.41 0 0 45.42 100.67 77.34 141.18 0 0 46.66-12.28 87.17-60.15s44.19-66.3 44.19-66.3l-1.45-3.27a64.29 64.29 0 0 1-4.23-39l2.44-11.86a25.07 25.07 0 0 1 19-19.42 25.13 25.13 0 0 1 20.51 4.32l8.45 6.29a55.34 55.34 0 0 1 22.06 50.04Z" transform="translate(-232.89 -188.79)"/><path class="cls-6" d="M735.86 1115.15c-11.18 10-22.61 18.25-34 23.76 0 0-54-20.87-100.67-77.34S517.7 933.89 517.7 933.89s-5.87-16.95 3.29-33.75c10 84.3 149 215.86 175.13 223.22 13.47 3.79 28.23-1.73 39.74-8.21Z" transform="translate(-232.89 -188.79)"/><path class="cls-5" d="M671.88 832.29A127 127 0 0 0 666 878.1s-55.59-12-63-54.46a54.5 54.5 0 0 1-.8-8.15s18.35-28.24 20.8-61.39c0 0 65.07 11 66.3 45.42 0 0-10.46 11.48-17.42 32.77Z" transform="translate(-232.89 -188.79)"/><path class="cls-6" d="M689.3 799.52s-11 12.78-18 34.11c-10-4.6-36.7-23.94-69.16-18.15-.46-2.59.07 2.84 0 0 0 0 18.42-28.24 20.87-61.39-.01.01 65.06 11.06 66.29 45.43Z" transform="translate(-232.89 -188.79)"/><path class="cls-12" d="M595.45 637.47s-1.09-10.91-21.28-25.65-37.65 19.65-42 54.57-42 31.65-42 31.65c8.31 8.27 20.3 13.24 32 12.41a27.15 27.15 0 0 0-4.83 29c1.9-7.35 8.18-12.67 14.5-16.88s13.23-8 17.68-14.13c4.76-6.59 6.06-15 7.12-23.06s2.14-16.45 6.59-23.26 13.38-11.45 20.87-8.29c1.46.61 2.92 1.51 4.49 1.33a6.47 6.47 0 0 0 2.88-1.35c3.08-2.15 6-4.68 7.8-8s-1.89-5.12-3.82-8.34Z" transform="translate(-232.89 -188.79)"/><path d="m614.54 641.84-19.09-4.37s-6-3.82-9.28 17.46l13.1 12.55Z" transform="translate(-232.89 -188.79)" style="fill:#ff7043"/><path class="cls-5" d="M756.08 691c-.18 7.29-.55 15-.9 23.26v.22c0 .52 0 1-.07 1.55-.05 1-.09 2-.14 3.08v.97c-.24 5.93-1 13.43-2 20-.27 1.91-.6 3.76-.9 5.43-2.19 12-4.57 23.15-7.44 33.14-8.69 30.26-21.87 50.11-47.85 53.68a65.88 65.88 0 0 1-11.69.55c-.92 0-1.81-.13-2.73-.24-1.6-.21-3.18-.5-4.82-.72a70.3 70.3 0 0 1-7.89-1.45 67.55 67.55 0 0 1-11.91-4.11 62.64 62.64 0 0 1-6.47-3.38 11.26 11.26 0 0 1-1-.63q-2.07-1.28-4-2.65c-20.6-14.63-28.38-36.68-28.38-36.68-19.32 19.12-40.49-37-34.61-50.11 5.78-12.92 17.44-2.95 18-2.5C587 704 587.32 630.18 669.51 626.67c44.25-1.88 82.21 19 86.54 58.56a43.6 43.6 0 0 1 .03 5.77Z" transform="translate(-232.89 -188.79)"/><path class="cls-6" d="m709.49 751.69-1.21 27s20.13-4.07 1.21-27Z" transform="translate(-232.89 -188.79)"/><path class="cls-12" d="M695.58 743.74c-.77 8.73-3.79 15.59-6.73 15.33s-4.69-7.55-3.92-16.28 3.79-15.58 6.73-15.32 4.7 7.53 3.92 16.27Z" transform="translate(-232.89 -188.79)"/><ellipse class="cls-12" cx="735.13" cy="740.14" rx="14.4" ry="4.85" transform="rotate(-84.91 515.554 773.022)"/><path class="cls-12" d="M709.57 807.83a27.48 27.48 0 0 1-22.6-1.57c-6.18-3.76-8.17-9.9-8.78-14.09a3.77 3.77 0 0 1 3.81-4.34h.6l34.4 1.35h.7A3.7 3.7 0 0 1 721 794c-1.24 4.37-4.29 10.79-11.43 13.83Z" transform="translate(-232.89 -188.79)"/><path class="cls-9" d="m708.21 795.58-16.78-.1a9.06 9.06 0 0 1-8.83-7.63l34.4 1.33a9.25 9.25 0 0 1-8.79 6.4Z" transform="translate(-232.89 -188.79)"/><path class="cls-14" d="M709.57 807.83a27.48 27.48 0 0 1-22.6-1.57 14.33 14.33 0 0 1 11.35-4.47 13.93 13.93 0 0 1 11.25 6.04Z" transform="translate(-232.89 -188.79)"/><path class="cls-12" d="M677.2 728.25a15.6 15.6 0 0 1 16-1.94 1.57 1.57 0 0 0 2-.91 1.58 1.58 0 0 0-.91-2 18.72 18.72 0 0 0-19.07 2.47c-1.57 1.25.44 3.64 2 2.39Zm49.12-1.41a11.21 11.21 0 0 1 13.6-2 1.62 1.62 0 0 0 2.18-.37 1.58 1.58 0 0 0-.37-2.18 14.41 14.41 0 0 0-18 2.72 1.57 1.57 0 0 0 .37 2.17 1.6 1.6 0 0 0 2.18-.37Z" transform="translate(-232.89 -188.79)"/><path class="cls-6" d="M756.08 691c-.18 7.29-.55 15-.9 23.26v.22c0 .52 0 1-.07 1.55-.05 1-.09 2-.14 3.08v.42c-9.57.18-30.14-.06-44.36-4.53-19.1-6-21.83-29.47-26.73-34.38s-16.38-13.63-31.66.55-9.81 29.47-9.81 29.47-18-4.91-16.38 18.55 6.54 98.61 70.74 103.1a65.88 65.88 0 0 1-11.69.55c-.92 0-1.81-.13-2.73-.24-1.6-.21-3.18-.5-4.82-.72a70.3 70.3 0 0 1-7.89-1.45 67.55 67.55 0 0 1-11.91-4.11 62.64 62.64 0 0 1-6.47-3.38 11.26 11.26 0 0 1-1-.63q-2.07-1.28-4-2.65c-20.6-14.63-28.38-36.68-28.38-36.68-19.32 19.12-40.49-37-34.61-50.11 5.78-12.92 17.44-2.95 18-2.5C587 704 587.32 630.18 669.51 626.67c44.25-1.88 82.21 19 86.54 58.56a43.6 43.6 0 0 1 .03 5.77Z" transform="translate(-232.89 -188.79)"/><path class="cls-12" d="m601.19 730.29 12.81 30 7.09-13.1s-9.82-42 14.19-40.92c-1.9-12.9 7.5-24.49 18.18-32 4.6-3.22 9.72-5.94 15.28-6.72s11.65.64 15.54 4.69c4.07 4.24 5.12 10.43 7.36 15.86 4 9.69 12.22 17.27 21.6 22s19.9 6.74 30.36 7.55c7.07.54 14.3.54 21.1-1.47s13.19-6.24 16.55-12.48a31.28 31.28 0 0 1-17.07.9c5.33-.63 10.78-1.56 15.4-4.29s8.3-7.65 8.15-13a31.15 31.15 0 0 1-21.32 1.52A20.39 20.39 0 0 0 782 669.61a14.17 14.17 0 0 1-17.9-1.67c-2.25-2.36-3.58-5.44-5.08-8.35-11.42-22.24-34.78-37-59.39-41.4s-50.22.6-73.2 10.46c-5.83 2.51-11.61 5.37-16.35 9.59s-8.4 10-9 16.29a36.46 36.46 0 0 0-22.74 32.06c-.24 7.52 1.91 14.9 4 22.12l5.46 18.62c4.51-1.71 9.78-.23 13.39 2.96Z" transform="translate(-232.89 -188.79)"/><path class="cls-15" d="M598.31 724.77s-15.14-42.56 17.19-85.12c29-38.23 88.15-33.53 118.85-13.78A27.91 27.91 0 0 1 746 641.56s-39.69-40.37-99-10.5c-51.92 26.14-26.6 112.13-26.6 112.13S604 733 598.31 724.77Z" transform="translate(-232.89 -188.79)"/><path class="cls-15" d="m430.01 534.19-12.98 1.61-37.69 4.68 6.95 14.73 31.05 9.6 11.98 3.7.69-34.32z"/><ellipse class="cls-16" cx="610.73" cy="754.68" rx="16.34" ry="36.51" transform="rotate(-13.63 -295.813 1634.405)"/><path class="cls-16" transform="rotate(-13.63 -304.013 1636.268)" d="M592.63 720.15h19.83v72.77h-19.83z"/><ellipse class="cls-15" cx="592.94" cy="758.99" rx="16.34" ry="36.51" transform="rotate(-13.63 -313.6 1638.73)"/><ellipse cx="590.48" cy="758.99" rx="12.13" ry="27.09" transform="rotate(-13.63 -316.062 1638.733)" style="fill:#a2a7d6"/><path style="fill:#383d5e" d="m430.01 534.19-.69 34.32-11.98-3.7-.31-29.01 12.98-1.61z"/><path class="cls-16" d="M689.51 709.89s-19-.48-29.57 3.77a8.45 8.45 0 0 0-5.15 7.89v36.08a8.43 8.43 0 0 0 4.8 7.72c5.33 2.44 15.08 5.68 29.16 5.59Z" transform="translate(-232.89 -188.79)"/><path class="cls-15" d="m770.06 764.41-81.31 6.53a11.71 11.71 0 0 1-12.83-12.13l.71-37.27a11.69 11.69 0 0 1 12.88-11.65l81.07 9.92A11.83 11.83 0 0 1 780.75 732l-.47 20.83a11.78 11.78 0 0 1-10.22 11.58Z" transform="translate(-232.89 -188.79)"/><path d="m767.11 759.42-64.39 5.16a9.27 9.27 0 0 1-10.16-9.6l.56-29.51a9.26 9.26 0 0 1 10.2-9.23l64.2 7.86a9.37 9.37 0 0 1 8.06 9.67l-.38 16.49a9.34 9.34 0 0 1-8.09 9.16Z" transform="translate(-232.89 -188.79)" style="fill:#e4ccb0"/><path class="cls-4" d="M1902.86 708.33v-6.17c26.27 5.36 47.64-11.65 47.64-37.92v-12.68c0-26.27-21.37-52-47.64-57.36l-304.34-62.06V526l304.34 62c29.67 6.05 53.81 35.11 53.81 64.77v12.73c0 29.66-24.14 48.88-53.81 42.83Z" transform="translate(-232.89 -188.79)" id="frameTwoo"/><path class="cls-4" d="m1243.46 1024-122-24.89c-56.77-11.58-103-67.17-103-123.94V272.88c0-56.77 46.18-93.53 103-82l228.25 46.55c56.71 11.57 102.89 67.21 102.89 123.97v71.33l-6.16-1.26v-71.33c0-53.36-43.42-105.63-96.78-116.51l-228.25-46.54c-53.37-10.88-96.78 23.68-96.78 77v602.38c0 53.37 43.41 105.63 96.78 116.52l122 24.88Z" transform="translate(-232.89 -188.79)" id="frameOne"/><path class="cls-4" d="M1701 465.74V1171a46.85 46.85 0 0 1-56.21 45.91l-424.09-86.48a46.86 46.86 0 0 1-37.5-45.91V380.27a46.85 46.85 0 0 1 56.11-45.93l424.1 85.46a46.87 46.87 0 0 1 37.59 45.94Z" transform="translate(-232.89 -188.79)"/><path d="M1516.27 661.44v431.88a26 26 0 0 1-31.23 25.51l-229.39-46.78a26 26 0 0 1-20.82-25.5V615.67a26 26 0 0 1 31.17-25.53l229.39 45.77a26 26 0 0 1 20.88 25.53Zm152 30.9v432a26 26 0 0 1-31.23 25.5l-70.53-14.38a26 26 0 0 1-20.83-25.51V678a26 26 0 0 1 31.23-25.51l70.53 14.39a26 26 0 0 1 20.83 25.46Zm-31.71-219.8v87.36a26 26 0 0 1-31.22 25.5l-349.69-71.31a26 26 0 0 1-20.82-25.5v-86.28a26 26 0 0 1 31.17-25.52L1615.66 447a26 26 0 0 1 20.9 25.54Z" transform="translate(-232.89 -188.79)" style="fill:#ffca70"/><ellipse class="cls-9" cx="1224.97" cy="483.53" rx="105.95" ry="129.86" transform="rotate(-42.09 863.163 691.777)"/><g id="man"><path class="cls-5" d="M1357.52 802.27a81.3 81.3 0 0 1-8.31 24.59c-1 1.84-2 3.69-3.14 5.57-8.16 13.33-17.72 18.19-31.68 25.22-30 15-66.69 33.08-103.12 29.9a16.26 16.26 0 0 1-6.42-1.55 18.37 18.37 0 0 1-6.49-6.5q-5.5-8.57-10.27-17.46c-21.2-39.54-31.42-83.28-34.37-127.68-.69-10.44.82-28.64 7.36-35.27s26.72.38 34.51 8.72c-.48 2.23-1 4.5-1.43 6.89a116.62 116.62 0 0 0-2.08 14.92c-1 14.23 1.24 30.27 13.67 47 7.84 10.55 19 25 17 36.28 3-13.4 8.6-17.15 15.55-28.27s17.66-19.93 31.28-21.61c9.4-27.28 42.9-39.54 72.81-26.68l13.52 21c6.34 15 4.25 30.57 1.61 44.93Z" transform="translate(-232.89 -188.79)"/><path class="cls-5" d="M1155.87 682.51a15.71 15.71 0 0 1 1.1-5.46c1.1-2.3 3.27-3.72 5.41-5a140.86 140.86 0 0 1 32.51-14.19 4.65 4.65 0 0 1 2.29-.25 6.89 6.89 0 0 1 3.25 2.39l16.72 18.31c1.64 1.8 3.38 3.77 3.8 6a8.59 8.59 0 0 1-.54 4.35 36.68 36.68 0 0 1-16.23 20.34c-5.37 3.13-11.84 5.12-15.21 10.36-2.57 4-3.15 9.69-7 12.37a13.77 13.77 0 0 1-6.61 1.93c-8.82.82-19.3-2.79-21-13.16-1.97-12.27.57-26.27 1.51-37.99Z" transform="translate(-232.89 -188.79)"/><path class="cls-6" d="M1349.21 826.86c-1 1.84-2 3.69-3.14 5.57-8.16 13.33-17.72 18.19-31.68 25.22-30 15-66.69 33.08-103.12 29.9a16.26 16.26 0 0 1-6.42-1.55 18.37 18.37 0 0 1-6.49-6.5q-5.5-8.57-10.27-17.46c14 10.66 32.37 12.09 57.84 7.65 26.64-4.62 70.65-25.69 103.28-42.83ZM1194.16 714.7a116.62 116.62 0 0 0-2.08 14.92 25.7 25.7 0 0 0-8.37-6.12c-11.51-5.09-18.77-17.29-19.22-18 .55.69 7.68 9.46 16.39 11.23a20.13 20.13 0 0 0 13.28-2.03Z" transform="translate(-232.89 -188.79)"/><path d="m1470.11 1181.3-115.8-23.62c-1.21-2.46-2.38-4.87-3.53-7.23-.32-.68-.67-1.36-1-2-.08-.19-.17-.36-.26-.54-.23-.49-.47-1-.7-1.46l-1.21-2.48c-.15-.32-.31-.64-.47-1-1.71-3.51-3.31-6.84-4.8-9.93-.23-.45-.45-.91-.67-1.35-5.09-10.51-8.69-18-9.59-19.83a1.54 1.54 0 0 1-.1-.24 1.14 1.14 0 0 1-.1-.19l-2.65 41.14-74.86-15.27c4.32-45.91 11.4-102.87 15.29-119.57.68-3 1.27-4.67 1.72-4.8 3.86-1.15 97 29.6 136.35 42.7 10.59 3.51 17.3 5.77 17.3 5.77s4.8-2.67 9.7 18.73c2.5 10.87 19.39 57.79 35.38 101.17Z" transform="translate(-232.89 -188.79)" style="fill:#787278"/><path d="m1347.38 1114.59 21.5 46.06-14.57-3c-1.21-2.46-2.38-4.87-3.53-7.23-.32-.68-.67-1.36-1-2-.08-.19-.17-.36-.26-.54-.23-.49-.47-1-.7-1.46l-1.21-2.48c-.15-.32-.31-.64-.47-1-1.71-3.51-3.31-6.84-4.8-9.93-.23-.45-.45-.91-.67-1.35-5.09-10.51-8.69-18-9.59-19.83a1.54 1.54 0 0 1-.1-.24 1.14 1.14 0 0 1-.1-.19l-2.65 41.14-9.52-1.94c.26-5.36.51-10.56.73-15.41 1.58-35.31-19.87-53.81-21.16-54.9 34.28 22.47 73.42 26.36 73.42 26.36Zm46.4-59.26s14.84 67.66 55.66 86.6l-24.52-77.58Z" transform="translate(-232.89 -188.79)" style="fill:#564e56"/><path class="cls-10" d="M1269 1017.19c62.9 53.18 116 52.75 140.88 48.31a75 75 0 0 0 15.14-4.1s-2.19-6.28-2.19-47.84 19-79.25 25.53-90.3c5.22-8.81 19.26-57.07 24.74-89.57a135.72 135.72 0 0 0 2.23-20.85c0-26.24-40.1-41-40.1-41s-28.44-21.84-29.16-24.18-1.46-26.54-1.46-26.54c-16-18.58-46.66-10.25-46.66-10.25l.73 24.94-20.42-.51-6.77 1.16c-19.62 3.35-35.42 15.12-43.79 32.62a67.28 67.28 0 0 0-6.33 25.39Z" transform="translate(-232.89 -188.79)"/><path d="M1409.89 1065.5a75 75 0 0 0 15.14-4.1s-2.19-6.28-2.19-47.84 19-79.25 25.53-90.3c5.22-8.81 19.26-57.07 24.74-89.57l-17.62-32.13s-48.75 2.71-42.19 63.1-2.9 83.89-13.69 106.53c-5.88 12.36 3.54 64.69 10.28 94.31Z" transform="translate(-232.89 -188.79)" style="fill:#e57c00"/><path class="cls-5" d="M1590.64 956.11c.37 11.14-12.6 27.53-16.21 35.66s-20.23 34.56-64 25.72-72.9-3-85.2 1.17-20.82-37.1-19.53-47.61c0 0 3.11-14.41 9-10.36l36.52 13.75a36.27 36.27 0 0 0 5.17-.27 49.83 49.83 0 0 0 10.19-2.33 40.31 40.31 0 0 0 15.29-9.26c11.8-11.56 41.63-8.94 46.54-8.41-4.88-.81-34.13-6.93-44-40.36a105.28 105.28 0 0 1-46.25-34.19 132.12 132.12 0 0 1-8.5-21.8c-1-3.54-2-7.38-2.78-11.39-3.8-19.89-2.58-43.93 18.85-57.85 3.43-2.23 8.27-1.49 12.52 1.84 7.49 5.83 19.85 14.58 27.85 15.58 12.14 1.52 62.43 37.09 84.72 101.25l8.73 26.44s10.72 11.31 11.09 22.42Zm-237.1-211.31c.67 8.49 4.3 20.22 19 22a43.54 43.54 0 0 0 37-13.07l-.68-9.73-1.67-24c-15.46-24.25-52.49-19.14-52.49-19.14 6.09 17.65-.93 35-.93 35a40.09 40.09 0 0 0-.23 8.94Z" transform="translate(-232.89 -188.79)"/><path class="cls-6" d="M1353.54 744.8c26.72 13.7 46.08 5.68 55.34-.76l-1.67-24c-15.46-24.25-52.49-19.14-52.49-19.14 6.09 17.65-.93 35-.93 35a40.09 40.09 0 0 0-.25 8.9Z" transform="translate(-232.89 -188.79)"/><path class="cls-5" d="M1316.36 641.59c0 1.06.06 2.14.1 3.23.13 3.87.31 7.94.5 12.2v1.15c0 .69.07 1.36.1 2v.64c.16 3.94.68 9 1.32 13.4.17 1.28.39 2.54.6 3.69 1.43 8.21 3 15.83 4.89 22.79 5.32 19.65 13.23 33.87 28.13 40.42a45.26 45.26 0 0 0 10.32 3.1c.25.05.46.1.7.13.61.1 1.19.16 1.8.21 1 .08 2.09.09 3.17.17a43.29 43.29 0 0 0 5.19.11 38 38 0 0 0 7.82-1.12 32.76 32.76 0 0 0 4.27-1.35 6.06 6.06 0 0 0 .65-.28c.91-.37 1.78-.77 2.64-1.2 13.54-6.86 18.65-20.33 18.65-20.33 12.71 15.18 26.63-18.91 22.77-28.32-3.8-9.26-11.48-4.27-11.82-4 9.33-15.37 5.45-65.19-44.93-77.31-30.25-7.28-49.57-1.5-55.61 20.61a53.43 53.43 0 0 0-1.3 6.3 23.24 23.24 0 0 0 .04 3.76Z" transform="translate(-232.89 -188.79)"/><path class="cls-6" d="m1349.82 689.41.79 17.93s-13.23-5.34-.79-17.93Z" transform="translate(-232.89 -188.79)"/><ellipse class="cls-12" cx="1363.53" cy="686.61" rx="3.45" ry="10.65" transform="rotate(-6.37 -448.564 2685.123)"/><path class="cls-12" d="M1328.56 678.23c.47 5.3 2.26 9.77 4 10s2.8-3.93 2.34-9.24-2.26-9.76-4-10-2.8 3.94-2.34 9.24Zm22.87 46.77a17.74 17.74 0 0 0 7 2.46 13.66 13.66 0 0 0 7.09-.57c3.85-1.55 5.08-5.13 5.46-7.65a3 3 0 0 0-2.37-3.19l-.37-.06-21.39-3.54-.44-.07a1.87 1.87 0 0 0-2.08 2.53 17 17 0 0 0 7.1 10.09Z" transform="translate(-232.89 -188.79)"/><path class="cls-9" d="m1352.28 717.54 10.44 2.06a4.43 4.43 0 0 0 5.49-3.62l-21.39-3.54a7.54 7.54 0 0 0 5.46 5.1Z" transform="translate(-232.89 -188.79)"/><path class="cls-14" d="M1351.43 725a17.74 17.74 0 0 0 7 2.46 13.66 13.66 0 0 0 7.09-.57 11.22 11.22 0 0 0-7.06-4.22c-3.09-.5-5.69.46-7.03 2.33Z" transform="translate(-232.89 -188.79)"/><path class="cls-12" d="M1371.06 678.33c-3-3-7.09-4.26-10.51-3.41a1.3 1.3 0 0 1-1.32-.87.88.88 0 0 1 .6-1.2c4.08-1 9.06.69 12.54 4.18 1 1-.28 2.34-1.31 1.3Zm-32.31-7.51c-2.17-2.86-6.18-4.23-8.94-3.12a1.2 1.2 0 0 1-1.44-.54c-.3-.48-.23-1.19.25-1.38 3.8-1.52 8.85.3 11.81 4.19a.94.94 0 0 1-.25 1.38 1.19 1.19 0 0 1-1.43-.53Z" transform="translate(-232.89 -188.79)"/><path class="cls-6" d="M1564 965.47c-1.24-.79-20.59-12.7-51.24-2.9-28.3 9.06-39.74 18.53-56.37 11.6a49.83 49.83 0 0 0 10.19-2.33 40.31 40.31 0 0 0 15.29-9.26c11.8-11.56 41.63-8.94 46.54-8.41-4.88-.81-34.13-6.93-44-40.36a105.28 105.28 0 0 1-46.25-34.19 132.12 132.12 0 0 1-8.5-21.8c-1-3.54-2-7.38-2.78-11.39 6.6 17.05 22.65 46.83 56.45 55.84 0 0 9.05 36.56 54.3 48.79.02 0 16.55 3.37 26.37 14.41Z" transform="translate(-232.89 -188.79)"/><path class="cls-12" d="m1418.23 688.25-8.81 18.3-7.17-10.55s9-13.24 1.89-20.35-9.43-5.32-9.43-5.32c.25-3.13-1.13-7.52-2.85-10.55s-5.1-5.5-8.16-5.24a12.84 12.84 0 0 0-4.4 1.68c-5.33 2.55-12.24 2.35-18.48-.53 2.26-.71 4.74-2.35 4-4.94a5.75 5.75 0 0 0-4-3.57c-5-1.45-9.3 3.49-7.46 8.49-7.37-1.4-14.1-9.62-13.86-16.94a19.52 19.52 0 0 1-17.33 11c3.22-2.36 4.29-7.23 2.56-11.64-3 3.39-7.93 4.51-12.88 4.07S1302 640 1297.09 638a45.51 45.51 0 0 0 15.13-9c-4.38-2.64-9.57-3.26-13.6-1.63a12.52 12.52 0 0 1 7-8.59c3.41-1.72 7.38-2.41 11.3-3.08a30.54 30.54 0 0 0-13.75-3.68c6.35-4.76 14.78-6.86 23.52-5.86-2.7-2.92-3.9-7.1-3-10.38 4.51 3.51 10.19 5.11 15 4.22-2.54-3-3.21-7.34-1.55-10.15 3.37 4 8.28 6.15 13 7.2s9.34 1.13 14 1.85c8.65 1.32 17.27 4.79 25.57 9 6.43 3.22 12.88 7 17.89 12.48s8.39 13 7.19 19.31c4.7-1.62 10.73 2 14.53 6.58 4.59 5.5 7.18 12.73 6.17 18.92a30.89 30.89 0 0 1-2.07 6.51c-2 4.92-6 16-6.94 15.89-2.82-.39-6.6-.69-8.25.66Z" transform="translate(-232.89 -188.79)"/></g><g id="heart"><path d="M1306.05 482.28c0-25-20.26-49.4-45.26-54.5-13.21-2.69-25.1.55-33.38 7.89l-.56-.68-.08.06c-8.26-10.43-20-18.27-32.93-20.92-25-5.09-45.26 11-45.26 36a55.88 55.88 0 0 0 13.81 36.14l64.46 77.6 63.44-50.51c9.65-6.3 15.76-17.36 15.76-31.08Z" transform="translate(-232.89 -188.79)" style="fill:#f14b4b"/><path class="cls-9" d="M1210.66 508.45 1197 459.89c-.46-1.64-2.58-2.23-3.27-.92l-8.66 16.42a1.41 1.41 0 0 1-1.6.68c-.41-.09-37-7.9-45.41-9.67a2.28 2.28 0 0 1-1.74-2v-.11a1.4 1.4 0 0 1 1.77-1.49c7.51 1.59 34.85 7.42 43 9.16a1.42 1.42 0 0 0 1.6-.68l11.79-22.37c.69-1.31 2.81-.72 3.27.92l12.88 45.95c.5 1.77 2.86 2.26 3.37.7l9.64-29.49c.46-1.4 2.49-1.19 3.23.34l6.84 14.08c.75 1.54 2.81 1.74 3.24.31l9.55-31.36c.51-1.69 3.09-1 3.42.87l7.84 45.45c.33 1.89 2.88 2.56 3.42.9l2.92-9.12a1.39 1.39 0 0 1 1.68-.9l47.52 9.69a2.26 2.26 0 0 1 1.76 2v.1a1.39 1.39 0 0 1-1.75 1.5l-44.73-9.12a1.4 1.4 0 0 0-1.69.91l-6.58 20.54c-.53 1.66-3.09 1-3.42-.89l-7.76-45c-.33-1.9-2.91-2.56-3.42-.87l-7.64 25.11c-.44 1.42-2.49 1.23-3.24-.31l-6.95-14.31c-.74-1.52-2.77-1.73-3.23-.33L1214 509.15c-.49 1.56-2.85 1.07-3.34-.7Z" transform="translate(-232.89 -188.79)"/></g><g id="chart"><path class="cls-9" d="m1712.6 857.37-174.31-35.55c-15.18-3.09-27.48-17.9-27.48-33.08V561.9c0-15.18 12.3-25 27.48-21.87l174.31 35.54c15.17 3.09 27.47 17.9 27.47 33.08v226.84c0 15.18-12.3 24.97-27.47 21.88Z" transform="translate(-232.89 -188.79)"/><path d="m1353.15 574.71-35.82-7.31V453.97l35.82 7.3v113.44zm56.12 11.44-35.82-7.3V428.39l35.82 7.31v150.45zm53.73 10.96-35.82-7.31V402.33l35.82 7.31v187.47zm1.19 37.26-146.86-29.95v-25.08l146.86 29.95v25.08z" style="fill:#ef613d"/></g><path class="cls-9" d="m1506.18 309.75-226.14-46.11v-33.82l226.14 46.11v33.82zm0 33.81-226.14-46.11v-16.91l226.14 46.12v16.9z"/><g id="balls"><ellipse class="cls-4" cx="1792.96" cy="682.33" rx="7.16" ry="8.77" transform="rotate(-42.3 1427.657 894.076)"/><path class="cls-4" d="M1873.8 698.81a10.22 10.22 0 0 0-7.92-9.54c-4.38-.89-7.93 1.93-7.93 6.31a10.21 10.21 0 0 0 7.93 9.54c4.37.88 7.92-1.93 7.92-6.31Zm-36.46-7.43a10.2 10.2 0 0 0-7.92-9.54c-4.38-.9-7.93 1.93-7.93 6.31a10.22 10.22 0 0 0 7.93 9.54c4.38.89 7.92-1.93 7.92-6.31Z" transform="translate(-232.89 -188.79)"/></g><g style="opacity:.55;mix-blend-mode:multiply"><g style="mask:url(#mask-2)" id="xray"><path style="fill:url(#linear-gradient-2)" d="m459.39 528.98.55 45.28 617.35 238.42.43-619.56-618.33 335.86z"/></g></g></g></g></svg>