<svg width="73" height="90" fill="none" xmlns="http://www.w3.org/2000/svg"><g clip-path="url(#a)"><g opacity=".3" fill="#000"><path opacity=".3" d="M18.303 55.055h-.044l-1.703-.495a.235.235 0 0 1-.137-.114.243.243 0 0 1 .09-.32.23.23 0 0 1 .174-.025l1.691.49c.054.017.1.054.128.104a.242.242 0 0 1-.055.308.23.23 0 0 1-.156.052h.012ZM16.556 56.395a.234.234 0 0 1-.131-.056.242.242 0 0 1-.076-.122.242.242 0 0 1 .085-.261.232.232 0 0 1 .086-.04l1.703-.441a.23.23 0 0 1 .173.03.243.243 0 0 1 .08.32.234.234 0 0 1-.137.111l-1.706.44a.227.227 0 0 1-.077.019ZM17.425 58a.241.241 0 0 1-.148-.407l1.26-1.253a.234.234 0 0 1 .169-.078.23.23 0 0 1 .171.072.238.238 0 0 1 .066.177.24.24 0 0 1-.081.17l-1.254 1.259a.238.238 0 0 1-.183.06ZM18.954 58.951h-.045a.233.233 0 0 1-.142-.116.242.242 0 0 1-.017-.186l.467-1.726a.237.237 0 0 1 .111-.14.229.229 0 0 1 .176-.02.235.235 0 0 1 .139.111c.03.054.039.118.023.179l-.479 1.726a.239.239 0 0 1-.087.127.23.23 0 0 1-.146.045Z"/></g><path d="m65.139 32.154-4.236 2.49-9.278 1.37s-6.773-10.388-7.81-12.02c-1.038-1.633-2.253-2.68-5.065-2.677l.532 8.287c.089.268 5.697 7.32 9.396 11.165 1.306 1.355 2.108 1.702 4.139 1.123 5.212-1.476 11.53-5.849 12.038-6.941.683-1.428.234-2.767.284-2.797Z" fill="#FFEDE5"/><path d="M63.398 26.9c.556-1.853 2.826-3.362 4.934-2.758.334.094.654.233.952.413 2.07 1.207 3.716 4.15 3.716 6.57a4 4 0 0 1-.165 1.207c-.553 1.85-2.818 3.37-4.934 2.764a3.99 3.99 0 0 1-.952-.413c-2.052-1.207-3.717-4.153-3.717-6.573-.006-.41.05-.818.166-1.21Z" fill="#455A64"/><path d="M66.952 34.665c-2.052-1.207-3.717-4.153-3.717-6.573 0-2.42 1.665-3.398 3.717-2.19 2.051 1.206 3.707 4.149 3.707 6.569s-1.656 3.4-3.707 2.194Z" fill="#37474F"/><path d="M66.951 28.584c-.789-.465-1.43-.088-1.43.842.026.506.17 1 .419 1.439.248.44.595.813 1.011 1.09.79.464 1.428.087 1.428-.842-.026-.507-.169-1-.417-1.44a3.196 3.196 0 0 0-1.01-1.09Z" fill="#455A64"/><path d="M66.46 29.981a1.123 1.123 0 0 0 .492.866.348.348 0 0 0 .328.045l.035-.02a.365.365 0 0 0 .124-.302 1.128 1.128 0 0 0-.143-.493 1.101 1.101 0 0 0-.345-.374.348.348 0 0 0-.328-.045l-.035.021a.362.362 0 0 0-.127.302Z" fill="#37474F"/><path d="M58.611 34.607c.01.174.058.342.143.493.085.15.203.278.345.373a.4.4 0 0 0 .213.067.32.32 0 0 0 .163-.049l7.804-4.599.036-.02a.364.364 0 0 0 .124-.302 1.128 1.128 0 0 0-.143-.493 1.1 1.1 0 0 0-.345-.374.347.347 0 0 0-.328-.045l-.035.021-7.805 4.6a.348.348 0 0 0-.172.328Z" fill="#FAFAFA"/><path d="M50.951 34.236c.553-1.85 2.818-3.38 4.934-2.773.335.096.656.235.956.413 2.051 1.207 3.716 4.153 3.716 6.573.005.409-.051.816-.166 1.207-.556 1.85-2.817 3.37-4.934 2.767a4.037 4.037 0 0 1-.952-.413c-2.052-1.207-3.716-4.152-3.716-6.57a4.033 4.033 0 0 1 .162-1.204Z" fill="#455A64"/><path d="M54.502 41.998c-2.052-1.207-3.716-4.153-3.716-6.57 0-2.417 1.664-3.4 3.716-2.194 2.052 1.207 3.716 4.152 3.716 6.573 0 2.42-1.661 3.4-3.716 2.19Z" fill="#37474F"/><path d="M54.502 35.91c-.79-.467-1.428-.09-1.428.843.026.506.17.998.418 1.437.248.439.594.812 1.01 1.089.79.464 1.43.087 1.43-.842a3.275 3.275 0 0 0-.42-1.438 3.2 3.2 0 0 0-1.01-1.088Z" fill="#455A64"/><path d="M54.014 37.314c.01.174.058.342.143.493.085.15.203.278.345.373a.348.348 0 0 0 .328.046.105.105 0 0 0 .035-.021.365.365 0 0 0 .127-.302 1.128 1.128 0 0 0-.144-.493 1.101 1.101 0 0 0-.346-.373.346.346 0 0 0-.326-.042l-.035.02a.355.355 0 0 0-.127.3Z" fill="#37474F"/><path d="M52.831 38.023c.009.174.057.342.142.493.085.15.204.279.346.373a.402.402 0 0 0 .213.067.326.326 0 0 0 .163-.049l1.135-.67a.103.103 0 0 0 .035-.02.365.365 0 0 0 .128-.303 1.127 1.127 0 0 0-.145-.492 1.1 1.1 0 0 0-.346-.374.347.347 0 0 0-.325-.042l-.036.021-1.138.667a.347.347 0 0 0-.172.33Z" fill="#FAFAFA"/><path d="M52.831 38.023c.01.174.058.343.143.494.084.151.203.28.345.375a.354.354 0 0 0 .328.043l.036-.021a.358.358 0 0 0 .127-.302 1.135 1.135 0 0 0-.49-.87.354.354 0 0 0-.329-.041l-.035.02a.364.364 0 0 0-.125.302Z" fill="#E0E0E0"/><path d="M62.43 37.075c1.795-1.397 3.516-1.388 3.205-4.804-.263-1.509-.63-1.617-2.07-2.19-.632-.251-1.477-.441-1.983.15a1.746 1.746 0 0 1-.183.208c-.15.097-.32.154-.497.163a1.416 1.416 0 0 0-.905.39c-.168.196-.233.464-.399.66-.159.154-.33.294-.511.42a1.251 1.251 0 0 0-.423.923 1.397 1.397 0 0 0 .544 1.023l.905-.53c.37-.26 1.132.666.804 1.155-.523.779 1.514 2.432 1.514 2.432ZM41.529 43.944c.573-2.366.739-8.278.739-8.278l-16.787.513.914 3.733c.15.841.23 1.694.24 2.55 0 0 1.628 3.081 6.46 3.621a12.877 12.877 0 0 0 8.434-2.14Z" fill="#FFEDE5"/><path d="M42.277 35.666c.02.187-.098 1.977-.098 1.977-2.146 1.844-9.031 2.776-16.26.323l-1.531-6.036s5.197-2.33 1.685-10.145l3.775-.302 6.702-.172h2.2a25.14 25.14 0 0 1 4.532 6.126c.878 1.672 1.996 4.122-1.005 8.23Z" fill="#455A64"/><path d="M32.778 35.72c-3.025-.787-3.781-2.715-3.997-4.134 0 0-.57 4.135 3.752 5.097 4.558 1.014 6.433-2.67 6.433-2.67s-2.54 2.658-6.188 1.708Z" fill="#37474F"/><path d="M7.033 81.726c-.887.66-2.93.82-4.73-.043-1.8-.863-2.551-3.32-2.214-5.217.408-2.315 1.528-3.58 1.812-4.973.284-1.395 0-3.32.432-4.563.178-.478.455-.911.812-1.27a3.464 3.464 0 0 1 1.257-.806 2.07 2.07 0 0 1 1.85.166l.533.32.248 16.386Z" fill="#263238"/><path d="M9.147 72.898 7.746 77.19s.887 3.06.387 3.874c-.736 1.208-2.034 1.419-4.219.737-2.498-.776-3.086-3.084-2.956-4.877.177-2.556 2.492-4.478 2.226-6.94-.13-1.208.032-2.557.68-3.595.724-1.158 1.913-1.376 3.146-.999 1.058.326 1.986 1.005 2.882 1.642.257.167.49.37.692.604.16.218.28.465.355.727.162.527.21 1.084.142 1.633-.066.513-.388.811-.686 1.207l-1.248 1.695Z" fill="url(#b)"/><path d="M15.187 70.868c-.086-.033-4.367-2.828-4.828-3.039-.461-.211-1.596-.51-2.693 2.082-.784 1.844.343 2.526.343 2.526l5.026 3.048 2.152-4.617Z" fill="#FFEDE5"/><path d="M7.746 77.19a6.104 6.104 0 0 0-2.921-.667.452.452 0 0 1-.4-.17.475.475 0 0 1-.085-.434.468.468 0 0 1 .154-.222.453.453 0 0 1 .248-.097c.677-.055 2.321-.076 3.412.842.29.597-.408.748-.408.748Z" fill="url(#c)"/><path d="M8.26 75.228c-.88-.509-1.87-.79-2.882-.818a.453.453 0 0 1-.395-.191.476.476 0 0 1 .103-.657.455.455 0 0 1 .253-.087c.68-.018 2.324.051 3.367 1.023.258.618-.446.73-.446.73Z" fill="url(#d)"/><path opacity=".3" d="M7.746 77.19a6.104 6.104 0 0 0-2.921-.667.452.452 0 0 1-.4-.17.475.475 0 0 1-.085-.434.468.468 0 0 1 .154-.222.453.453 0 0 1 .248-.097c.677-.055 2.321-.076 3.412.842.29.597-.408.748-.408.748ZM8.26 75.228c-.88-.509-1.87-.79-2.882-.818a.453.453 0 0 1-.395-.191.476.476 0 0 1 .103-.657.455.455 0 0 1 .253-.087c.68-.018 2.324.051 3.367 1.023.258.618-.446.73-.446.73Z" fill="#000"/><path d="m51.888 82.19 5.561-2.251c-.094-1.464-.449-3.413-.08-7.243l-6.309-1.225v6.446l.828 4.273Z" fill="#FFEDE5"/><path d="M67.755 87.176c.148.457.12.954-.076 1.39-.19.408-2.274 1.606-5.086 1.413a11.56 11.56 0 0 1-5.815-2.073c-1.07-.724-2.188-.86-3.577-.942-1.39-.081-3.223-.79-3.527-1.454-.305-.664.047-1.81.047-1.81l18.034 3.476Z" fill="#263238"/><path d="m56.411 78.219.222-.048a.853.853 0 0 1 .37-.019.732.732 0 0 1 .348.239c.276.358.515.743.716 1.15.591.98 1.827 1.795 3.178 2.535.92.504 1.818.905 2.767 1.33.95.426 2.25.715 3.007 1.238 1.103.757 1.247 2.664 0 3.416-1.082.651-3.935 1.355-6.927.489-1.632-.471-3.441-2.249-5.579-2.415-1.36-.108-3.935-.498-4.81-1.55-.322-.469.11-1.953.464-3.233.388-1.397.53-3.86.985-3.736 0 0-.124.347.053.535.177.187.801.56.985.718.306.319.553.692.73 1.101.073.185.21.336.384.426.23.087.402-.06.591-.154a1.16 1.16 0 0 1 .813-.058 5.126 5.126 0 0 0-.145-.82.512.512 0 0 1-.02-.266.449.449 0 0 1 .174-.2 4.335 4.335 0 0 1 1.694-.678Z" fill="url(#e)"/><path d="M59.974 81.321s-.195-.534-1.002-.685c-.621-.118-1.715.347-2.395.905a.522.522 0 0 0-.184.449.53.53 0 0 0 .258.408.498.498 0 0 0 .591-.066 3.844 3.844 0 0 1 2.732-1.01Z" fill="url(#f)"/><path d="M61.893 82.417a1.461 1.461 0 0 0-.517-.46 1.427 1.427 0 0 0-.666-.165s-1.617.048-2.62.999a.506.506 0 0 0-.175.432.513.513 0 0 0 .246.395.471.471 0 0 0 .556-.067 3.89 3.89 0 0 1 1.462-.934 3.827 3.827 0 0 1 1.714-.2Z" fill="url(#g)"/><path d="M64.013 83.406a1.602 1.602 0 0 0-1.236-.564s-1.508.057-2.507 1.008a.503.503 0 0 0-.179.431.511.511 0 0 0 .247.396.477.477 0 0 0 .559-.067c.391-.434.877-.77 1.418-.978a3.645 3.645 0 0 1 1.698-.226Z" fill="url(#h)"/><path opacity=".3" d="M59.974 81.321s-.195-.534-1.002-.685c-.621-.118-1.715.347-2.395.905a.522.522 0 0 0-.184.449.53.53 0 0 0 .258.408.498.498 0 0 0 .591-.066 3.844 3.844 0 0 1 2.732-1.01ZM61.893 82.417a1.461 1.461 0 0 0-.517-.46 1.427 1.427 0 0 0-.666-.165s-1.617.048-2.62.999a.506.506 0 0 0-.175.432.513.513 0 0 0 .246.395.471.471 0 0 0 .556-.067 3.89 3.89 0 0 1 1.462-.934 3.827 3.827 0 0 1 1.714-.2ZM64.013 83.406a1.602 1.602 0 0 0-1.236-.564s-1.508.057-2.507 1.008a.503.503 0 0 0-.179.431.511.511 0 0 0 .247.396.477.477 0 0 0 .559-.067c.391-.434.877-.77 1.418-.978a3.645 3.645 0 0 1 1.698-.226Z" fill="#000"/><path d="M55.69 49.82c-4.227-.97-14.324-3.124-14.324-3.124l.163-2.752c-3.651 1.93-11.347 1.385-14.895-1.482l-.558 2.918a29.412 29.412 0 0 0-3.474 5.335c-.81 1.639-2.164 4.195-.816 10.149.792 3.497 1.848 12.704 1.848 12.704l-10.348-3.892s-.887.153-1.638 2.133c-.443 1.17-.591 2.297-.142 2.879 3.785 3.05 9.916 8.033 16.113 10.828 4.139 1.617 6.339-1.935 6.54-3.25.777-5.04 1.673-21.233 1.673-21.233l13.836-.45c-.458 2.674 1.404 13.121 1.404 13.121s3.406 1.509 6.226-.036c0 0 1.887-12.023 2.07-16.033.186-4.472.41-6.877-3.678-7.816Z" fill="url(#i)"/><path opacity=".15" d="M49.668 60.583c0-.72.47-3.24 2.07-4.584 0 0-2.194.402-3.2 4.62l1.13-.036ZM23.634 73.569s.296 3.974 1.04 5.911c0 0-1.865-3.44-2.069-6.304l1.029.393ZM41.363 46.696l.163-2.749c-3.651 1.928-11.344 1.382-14.889-1.482l-.558 2.915c.03.028 2.306 2.43 8.224 2.74 5.92.311 7.06-1.424 7.06-1.424ZM35.844 61.033a11.21 11.21 0 0 0-1.017-4.314 11.009 11.009 0 0 0-2.602-3.556s3.181 1.509 4.245 6.286c0 0 2.366-1.126 3.601-4.5 0 0-.378 3.374-2.282 5.294l5.739.54-7.684.25Z" fill="#000"/><path d="M33.999 0a9.079 9.079 0 0 0-3.54.713 9.23 9.23 0 0 0-3.004 2.044 9.45 9.45 0 0 0-2.007 3.06 9.604 9.604 0 0 0 0 7.227 9.449 9.449 0 0 0 2.006 3.062 9.23 9.23 0 0 0 3.003 2.044 9.079 9.079 0 0 0 3.542.714 9.145 9.145 0 0 0 6.524-2.769 9.53 9.53 0 0 0 2.7-6.665 9.53 9.53 0 0 0-2.701-6.663A9.145 9.145 0 0 0 33.999 0Z" fill="#263238"/><path d="M24.346 5.734a4.82 4.82 0 0 1 1 .057.451.451 0 0 1 .295.139.438.438 0 0 1 .074.23 3.385 3.385 0 0 1-.14 1.56c-.13.35-.534.528-.791.781-1 .99-1.08 2.628-.686 3.99.393 1.36 1.182 2.574 1.694 3.89.511 1.315.783 2.9.059 4.224-.281.507-.792.905-.73 1.509.07.74.703 1.445.975 2.112.299.79.4 1.644.296 2.484a5.297 5.297 0 0 1-1.091 2.864 4.222 4.222 0 0 1-1.82 1.265 4.143 4.143 0 0 1-2.195.159 2.02 2.02 0 0 1-.854-.371c-.435-.356-.61-.939-.846-1.455-.76-1.669-2.365-2.882-2.853-4.653-.529-1.886.352-3.848 1.434-5.45.506-.748 1.07-1.482 1.319-2.357.334-1.18.041-2.435-.036-3.663-.073-1.2.062-2.403.4-3.555.242-.833.617-1.793 1.253-2.39a5.128 5.128 0 0 1 3.243-1.37Z" fill="#263238"/><path d="M39.776 4.315c1.01.62 2.255 3.23 2.11 8.691-.124 4.63-1.599 5.767-2.338 6.096-.74.33-2.164.118-3.548-.123v2.779s1.904 2.275 1.774 3.552c-.13 1.276-2.767 1.563-4.553.301-1.786-1.261-3.284-3.684-3.284-3.684l.059-6.392s-.825.815-2.206-.422c-1.132-1.023-1.51-2.74-.618-3.646.893-.905 2.534-.66 3.16.655 0 0 2.206.09 5.154-1.545a8.336 8.336 0 0 0 2.878-2.607 8.552 8.552 0 0 0 1.412-3.655Z" fill="#FFEDE5"/><path d="M36.825 11.823a.591.591 0 0 1-.093.323.56.56 0 0 1-.872.1.586.586 0 0 1-.139-.627c.04-.107.11-.2.202-.266a.564.564 0 0 1 .311-.109c.153 0 .3.06.41.168a.61.61 0 0 1 .181.411Z" fill="#263238"/><path d="m36.955 15.75 1.322.434a.704.704 0 0 1-.331.429.673.673 0 0 1-.532.054.729.729 0 0 1-.412-.364.753.753 0 0 1-.047-.554Z" fill="#F28F8F" style="mix-blend-mode:multiply" opacity=".5"/><path d="m41.511 10.055-1.15-.82a.68.68 0 0 1 .437-.312.658.658 0 0 1 .521.112.774.774 0 0 1 .192 1.02ZM41.24 11.42a.59.59 0 0 1-.093.322.56.56 0 0 1-.873.104.585.585 0 0 1-.139-.628c.04-.107.11-.2.201-.267a.562.562 0 0 1 .312-.108c.152 0 .299.06.409.167a.61.61 0 0 1 .182.41Z" fill="#263238"/><path d="m38.549 11.075.077 3.507 1.809-.565-1.886-2.942ZM36.004 18.978c-1.461-.199-4.459-1.092-4.92-2.305a3.143 3.143 0 0 0 1.047 1.548c.892.79 3.867 1.696 3.867 1.696l.006-.939Z" fill="#F28F8F" style="mix-blend-mode:multiply" opacity=".5"/><path d="M26.073 21.788c-2.862.208-4.042.579-5.635 4.188-1.434 3.244-4.863 11.64-5.72 13.51-.858 1.871-1.02 2.623-.296 4.581.59 1.597 5.422 10.767 5.95 12.104.53 1.337.764 2.69 1.665 4.246.902 1.557 2.327 3.078 3.453 3.437 1.67.534 3.844-.208 3.906-1.237.062-1.029-2.451-2.746-3.134-5.03.454.304.933.57 1.43.793.678.284 1.435.22 1.66-.172.224-.392-.453-.63-1.056-1.243-.36-.365-1-1.186-1.815-1.91-.553-.49-1.458-.634-1.866-1.171-.218-.287-1.212-2.77-1.96-4.982a2623.19 2623.19 0 0 1-2.137-6.395l4.972-10.562s3.9-3.971.583-10.157Z" fill="#FFEDE5"/><path d="M20.364 56.172s1.144-2.363 4.242-2.288l-.819-1.859s-3.024.218-4.298 2.309l.875 1.838Z" fill="#37474F"/><path d="m20.03 54.165.665.962a.629.629 0 0 0 .414.264.613.613 0 0 0 .473-.122l1.183-.905a.706.706 0 0 0 .15-.938l-.617-.93a.628.628 0 0 0-.41-.274.608.608 0 0 0-.478.114l-1.253.905a.671.671 0 0 0-.127.923Z" fill="#263238"/><path d="m19.808 54.14.671.963a.631.631 0 0 0 .414.262.615.615 0 0 0 .473-.12l1.183-.905a.71.71 0 0 0 .154-.938l-.619-.93a.631.631 0 0 0-.41-.273.61.61 0 0 0-.476.113l-1.254.92a.669.669 0 0 0-.136.908Z" fill="#455A64"/><path d="M22.581 53.824a.458.458 0 0 1-.168.302l-1.183.905a.363.363 0 0 1-.296.075.38.38 0 0 1-.254-.16l-.674-.965a.402.402 0 0 1-.07-.278.41.41 0 0 1 .165-.302l1.253-.905a.376.376 0 0 1 .438-.012.39.39 0 0 1 .11.109l.617.929a.457.457 0 0 1 .071.302h-.009Z" fill="url(#j)"/></g><defs><linearGradient id="b" x1="11.111" y1="82.186" x2="-2.495" y2="81.555" gradientUnits="userSpaceOnUse"><stop stop-color="#92A3FD"/><stop offset="1" stop-color="#9DCEFF"/></linearGradient><linearGradient id="c" x1="8.224" y1="77.19" x2="3.168" y2="76.242" gradientUnits="userSpaceOnUse"><stop stop-color="#92A3FD"/><stop offset="1" stop-color="#9DCEFF"/></linearGradient><linearGradient id="d" x1="8.763" y1="75.228" x2="3.722" y2="74.368" gradientUnits="userSpaceOnUse"><stop stop-color="#92A3FD"/><stop offset="1" stop-color="#9DCEFF"/></linearGradient><linearGradient id="e" x1="67.901" y1="88.951" x2="43.727" y2="85.931" gradientUnits="userSpaceOnUse"><stop stop-color="#92A3FD"/><stop offset="1" stop-color="#9DCEFF"/></linearGradient><linearGradient id="f" x1="59.974" y1="82.466" x2="55.276" y2="81.762" gradientUnits="userSpaceOnUse"><stop stop-color="#92A3FD"/><stop offset="1" stop-color="#9DCEFF"/></linearGradient><linearGradient id="g" x1="61.893" y1="83.679" x2="56.696" y2="82.832" gradientUnits="userSpaceOnUse"><stop stop-color="#92A3FD"/><stop offset="1" stop-color="#9DCEFF"/></linearGradient><linearGradient id="h" x1="64.013" y1="84.738" x2="58.884" y2="83.917" gradientUnits="userSpaceOnUse"><stop stop-color="#92A3FD"/><stop offset="1" stop-color="#9DCEFF"/></linearGradient><linearGradient id="i" x1="59.45" y1="85.93" x2="-4.724" y2="80.421" gradientUnits="userSpaceOnUse"><stop stop-color="#92A3FD"/><stop offset="1" stop-color="#9DCEFF"/></linearGradient><linearGradient id="j" x1="22.593" y1="55.113" x2="19.047" y2="54.842" gradientUnits="userSpaceOnUse"><stop stop-color="#92A3FD"/><stop offset="1" stop-color="#9DCEFF"/></linearGradient><clipPath id="a"><path fill="#fff" d="M0 0h73v90H0z"/></clipPath></defs></svg>