<svg xmlns="http://www.w3.org/2000/svg" viewBox="0 0 693.21 1090.67"><defs><style>.b7b495eb-156e-472c-baf1-52bf678830e3{isolation:isolate;}.a44f90b1-59e6-45ea-822b-bd4732ffd202{fill:#b09275;}.e39b7b4e-8e05-4db0-a0af-1dbad54aeaed{fill:#c36247;}.a8582cc6-fca2-4f81-8c2e-001d18eccdc1,.f0fa285f-baeb-4322-978c-86fd436af007{fill:#ab3d2f;}.b134f678-ec65-43f8-987a-d7d158988ee6{fill:#2e141f;}.e628c10a-cc1f-4164-b531-b0321e3fe417{fill:#241017;}.b7dcaff8-7a61-4446-9805-5372a0866b1a{fill:#fff;}.a7f2e58f-a230-4ff3-8aaa-db086672e438{fill:#471f30;}.a8582cc6-fca2-4f81-8c2e-001d18eccdc1{opacity:0.5;mix-blend-mode:multiply;}.a2f4eca0-1d5b-4094-b876-7d5770b8fa15{fill:#47180c;}.e47d1942-c48d-44c4-a1ad-dcc4ccf5dd27{fill:#ff7043;}.b3b0b5fe-1a9b-40e3-9cfd-6d984409d2f2{fill:#ff63ae;}.bb6b62dc-401a-4be2-b501-db8e180cd4b7{fill:#4a4f72;}.fabfe949-1769-4648-8765-b4d1600212d1{fill:#343a63;}.b2cead06-3f55-49e2-9406-f57f8e916425{fill:#a2a7d6;}</style></defs><title>womanDoingExercise</title><g class="b7b495eb-156e-472c-baf1-52bf678830e3"><g id="aa558884-f7c3-4906-94b1-a8e5dddc2b6c" data-name="Layer 3"><rect class="a44f90b1-59e6-45ea-822b-bd4732ffd202" x="108.62" y="506" width="70.12" height="88.72"/><path class="e39b7b4e-8e05-4db0-a0af-1dbad54aeaed" d="M988.05,1631.92a17.69,17.69,0,0,1-1.8,7.94h0c-4.61,9.51-18.08,15.19-38.46,12.79-25.57-3-54.37-14.72-77.29-13.38s-38.2-9.37-34.08-25.42c0-.16.08-.33.12-.49h0c4.12-15.72,10.16-23.26,10.16-23.26l3.82-10.86,5.58-15.89c20.57-14.39,42,8.35,42,8.35-2.45,7.74-.12,14,4.58,18.93,10.56,11.17,33.06,16.12,40.37,18.21C953.66,1611.84,988.05,1617.87,988.05,1631.92Z" transform="translate(-548.44 -641.37)"/><path class="f0fa285f-baeb-4322-978c-86fd436af007" d="M902.71,1590.63a68.89,68.89,0,0,1-30.46,2,32.6,32.6,0,0,1-21.73-13.4l5.58-15.89c20.57-14.39,42,8.35,42,8.35C895.68,1579.44,898,1585.65,902.71,1590.63Z" transform="translate(-548.44 -641.37)"/><path class="f0fa285f-baeb-4322-978c-86fd436af007" d="M986.25,1639.87c-4.61,9.51-18.08,15.19-38.46,12.79-25.57-3-54.37-14.72-77.29-13.38s-38.2-9.37-34.08-25.42c0-.16.08-.33.12-.49,1.16,5.74,4.67,12.83,14.44,16.38,18,6.55,22.37-4.91,60,7.09C940.42,1646.22,971.84,1650.28,986.25,1639.87Z" transform="translate(-548.44 -641.37)"/><path class="b134f678-ec65-43f8-987a-d7d158988ee6" d="M1024.76,1348.74C987.93,1412.58,908.13,1582,908.13,1582s-43.46,7.81-55-22.25a36.31,36.31,0,0,1-1.48-4.76s43-121.53,51.56-157.14,35.6-66.3,35.6-66.3l-178-55.24L655.23,1143.72s23.33-83.48,82.25-54,76.11,61.38,76.11,61.38,19,6.89,46.63,18.24c52.23,21.49,135,59,176.81,96C1037,1265.27,1061.59,1284.91,1024.76,1348.74Z" transform="translate(-548.44 -641.37)"/><path class="e628c10a-cc1f-4164-b531-b0321e3fe417" d="M966.65,1329.92s-36.83,15.55-54,82.66c-13.79,53.87-46,122-59.49,147.17a36.31,36.31,0,0,1-1.48-4.76s43-121.53,51.56-157.14,35.6-66.3,35.6-66.3l-178-55.24L655.23,1143.72s23.33-83.48,82.25-54,76.11,61.38,76.11,61.38,19,6.89,46.63,18.24c-22.64,2.27-59.34,10.66-36,37,31.92,36,89.21,78.58,93.3,102.31Z" transform="translate(-548.44 -641.37)"/><path class="e39b7b4e-8e05-4db0-a0af-1dbad54aeaed" d="M1241.42,931.1c-4.16,41.08-21.45,61.62-21.45,61.62-8.67,45.72-37.65,101.23-60.16,136.27-47.8-2.45-154.73-112-170.65-135-3.62,28.14-5.84,58.41-17.19,84.72-17.55,25.7-51.37,27.38-84.71,36.83-21.78,4.24-61.82,26.58-73.66,35.6-112.94,4.61-106.52-95.88-174.31-88.4,1-.63,27.75-17.52,68.73-35.59,10.27-4.54,19.66-11.16,28.5-19.2,68.08-70.62,73.71-126.09,181.16-159.37.41,2,78.07,51.61,101.83,68.41,25.4,20,36.3,40,55.58,68.41,23.33,34.38,56.48,63.84,56.48,63.84,28.36-16.25,46.73-60.85,50.34-81l-9.83-38c4.83-16.62,6.82-47.11,32.48-39,5.43,2.37,15,4.51,18.63,9.61C1228.81,908.5,1243.68,920.05,1241.42,931.1Z" transform="translate(-548.44 -641.37)"/><path class="f0fa285f-baeb-4322-978c-86fd436af007" d="M1187.12,1081.2c-4.76,9.36-9.39,17.81-13.45,24.9-8.07,14.13-13.86,22.89-13.86,22.89-29.26-5.55-63.26-29.31-93.19-55.41q-1.78-1.55-3.54-3.12c18.33-87.57-35.46-124.31-43.57-153.52,25.4,20,36.3,40,55.58,68.41,23.33,34.38,56.48,63.84,56.48,63.84a87.19,87.19,0,0,0,19.11-16.45Z" transform="translate(-548.44 -641.37)"/><path class="b7dcaff8-7a61-4446-9805-5372a0866b1a" d="M989.16,993.94l0,.29s0,.07,0,.12c-.07.65-.21,2-.43,4,0,.21-.05.43-.07.66,0,.44-.1.92-.16,1.41l-.06.5c0,.39-.08.8-.13,1.23l-.06.5,0,.2c0,.26-.06.51-.08.78s-.06.45-.09.69l-.12,1q-.15,1.27-.33,2.67c0,.22-.06.44-.08.67-.18,1.4-.36,2.87-.57,4.4,0,.21,0,.42-.07.62-.09.62-.18,1.26-.26,1.9,0,.24-.07.47-.1.71-.07.53-.14,1.06-.22,1.61-.13.94-.26,1.91-.41,2.89s-.32,2.22-.48,3.34c-.09.57-.18,1.14-.26,1.71-.31,2-.63,4-1,6.1-.09.59-.19,1.18-.29,1.77,0,.19-.06.39-.1.58-.5,2.92-1,5.87-1.57,8.8-.2,1-.4,2.08-.61,3.11s-.45,2.24-.68,3.36-.46,2.13-.69,3.17c-.12.53-.24,1-.35,1.57s-.24,1-.37,1.55-.24,1-.36,1.53c-.25,1-.5,2-.74,3s-.48,1.8-.72,2.67c-1,3.64-2.07,7-3.19,10-.14.38-.3.76-.44,1.13a.46.46,0,0,1,0,.1c-.16.41-.32.81-.49,1.19,0,.1-.09.21-.14.31-.11.28-.24.55-.36.82l-.53,1.13-.49,1c-2.92,5.5-7.72,10.06-13.85,14-17.11,10.86-44.66,16.53-70.86,22.86-17.36,4.19-35.32,12.76-49.15,20.44a117.4,117.4,0,0,1-34.59-15c-.69-.44-1.37-.89-2.06-1.36-13.46-9-27.67-22.19-40.24-41.69-17.09-26.53-23.19-51-24.7-69.94,12.57-11.45,24.05-25.78,35.43-41.09,4.79,19.64,19.64,43.55,63.46,44.69l1.92,0c3.57,0,7-.07,10.39-.32a103.67,103.67,0,0,0,25.94-5.12,91.56,91.56,0,0,0,9.71-3.94c41.47-19.67,54.71-65.92,41.54-95.38-10.77-24.11-30.54-37.29-43.8-43.76,7.72-3.7,14.71-6.65,20.34-8.86,11.81,6.4,28.29,21.47,35.73,56.71,12.28,58.11-6.54,99,20.47,109.67,24.74,9.74,37.8-87.61,29.13-125.44l7,4.41A219.64,219.64,0,0,1,989.16,993.94Z" transform="translate(-548.44 -641.37)"/><path class="e39b7b4e-8e05-4db0-a0af-1dbad54aeaed" d="M893.15,1706c0,17.19-18,29.06-49.25,25.37s-66.5-18-94.54-16.36c-26.86,1.56-45.14-10.38-42.21-28.66.13-.8.3-1.62.51-2.45,5-19.64,12.58-29.05,12.58-29.05l4-11.28,7.54-21.46c25.17-17.6,51.41,10.23,51.41,10.23a21.51,21.51,0,0,0,3,19.94c11.33,15.94,42.42,22.75,52,25.49,11.84,3.36,48,9.81,54.13,24A10.5,10.5,0,0,1,893.15,1706Z" transform="translate(-548.44 -641.37)"/><path class="f0fa285f-baeb-4322-978c-86fd436af007" d="M1173.67,1106.1c-8.07,14.12-13.86,22.89-13.86,22.89-71.21-13.5-170.65-135-170.65-135,12.69,2.87,37.24-11.05,37.24-11.05-4.91,17.19-16.37,21.29-16.37,21.29,8.18,17.18,119.49,104.76,139.13,108.85C1157.21,1114.7,1165.94,1111,1173.67,1106.1Z" transform="translate(-548.44 -641.37)"/><path class="f0fa285f-baeb-4322-978c-86fd436af007" d="M786.12,1652.28a74.3,74.3,0,0,1-30.63,3.66c-16.54-1.27-26-6.81-31.29-12.37l7.54-21.46c25.17-17.6,51.41,10.23,51.41,10.23A21.51,21.51,0,0,0,786.12,1652.28Z" transform="translate(-548.44 -641.37)"/><path class="f0fa285f-baeb-4322-978c-86fd436af007" d="M893.15,1706c0,17.19-18,29.06-49.25,25.37s-66.5-18-94.54-16.36c-26.86,1.56-45.14-10.38-42.21-28.66,3,7.61,12.36,17.32,40.7,16,45.84-2.19,97.12,25.1,122.22,20.18,15.43-3,20.54-13.24,22.21-20.68A10.5,10.5,0,0,1,893.15,1706Z" transform="translate(-548.44 -641.37)"/><path class="a7f2e58f-a230-4ff3-8aaa-db086672e438" d="M911.47,1349.14,794,1632.34c-41.4,19.44-61.87,5.71-70.6-4.72a34.48,34.48,0,0,1-5.51-8.79s20.87-52.78,45.42-153.45S803.78,1350,803.78,1350s-82.25-16-159.6-54c-62-30.51-95.6-67.32-95.74-111.72a103.34,103.34,0,0,1,6.12-34.38c20.87-60.16,84.7-87.17,84.7-87.17,30-5.25,59.88,19.39,84.34,49.3a1506.21,1506.21,0,0,0,133.51,143.4c28.37,26.7,44.84,52.42,53,67.49A30.58,30.58,0,0,1,911.47,1349.14Z" transform="translate(-548.44 -641.37)"/><path class="b134f678-ec65-43f8-987a-d7d158988ee6" d="M839.78,1340.56c-.55,0-22.54.79-58.1,126.86-25.31,89.74-46.17,137.83-58.33,160.2a34.48,34.48,0,0,1-5.51-8.79s20.87-52.78,45.42-153.45S803.78,1350,803.78,1350s-82.25-16-159.6-54c-62-30.51-95.6-67.32-95.74-111.72,12.12,29,42,72.33,115.38,100.67C781.42,1330.32,838.75,1340.38,839.78,1340.56Z" transform="translate(-548.44 -641.37)"/><path class="f0fa285f-baeb-4322-978c-86fd436af007" d="M838.2,967.33c-2-7.81-1.91-16.5.77-26.17C839.88,937.9,839.46,947,838.2,967.33Z" transform="translate(-548.44 -641.37)"/><path class="f0fa285f-baeb-4322-978c-86fd436af007" d="M1066.61,1073.58c-4.8-4.19-9.49-8.43-14-12.66,4.33,2.47,8.07,4.66,10.65,6.28A7,7,0,0,1,1066.61,1073.58Z" transform="translate(-548.44 -641.37)"/><path class="a8582cc6-fca2-4f81-8c2e-001d18eccdc1" d="M958.12,1092.63c-17.11,10.86-44.66,16.53-70.86,22.86-17.36,4.19-35.32,12.76-49.15,20.44-14.53,8.07-24.52,15.15-24.52,15.15a146.82,146.82,0,0,1-47.33-6.11l-.92-.28c-1.35-.41-2.7-.85-4.06-1.32,13-7.18,27.17-14.11,40.18-23.84,13.18-9.85,25.19-22.59,33.7-41.42,11.46-25.39,13.94-48.25,12.56-66.89-2.3-31-15.3-50.42-15.3-50.42l.55-1.64,50.4,43,68.55,58.49Z" transform="translate(-548.44 -641.37)"/><path class="f0fa285f-baeb-4322-978c-86fd436af007" d="M1202.91,923.69c0,24.39-8.52,43.56-22.46,50.5,1-3.79,1.45-6,1.45-6l-9.82-38,6.78-25.75a19.24,19.24,0,0,1,5.43-9.17C1192,898.77,1202.91,906.81,1202.91,923.69Z" transform="translate(-548.44 -641.37)"/><path class="e39b7b4e-8e05-4db0-a0af-1dbad54aeaed" d="M1195.88,935.62a55.28,55.28,0,0,1-12.29,29.47l-17.65,21.49s-53.5,107-114.54,161.62c-11.18,10-22.61,18.25-34,23.76,0,0-54-20.88-100.67-77.35s-83.47-127.67-83.47-127.67-5.88-17,3.29-33.76c3.41-6.24,8.91-12.48,17.57-17.81,31.92-19.64,55.25,2.46,66.3,18.41,0,0,45.42,100.68,77.34,141.19,0,0,46.65-12.28,87.17-60.16s44.19-66.29,44.19-66.29l-1.45-3.27a64.29,64.29,0,0,1-4.23-39l2.43-11.86a25.08,25.08,0,0,1,39.53-15.1l8.45,6.28A55.33,55.33,0,0,1,1195.88,935.62Z" transform="translate(-548.44 -641.37)"/><path class="f0fa285f-baeb-4322-978c-86fd436af007" d="M1051.4,1148.2c-11.18,10-22.61,18.25-34,23.76,0,0-54-20.88-100.67-77.35s-83.47-127.67-83.47-127.67-5.88-17,3.29-33.76c10,84.31,149,215.87,175.12,223.23C1025.14,1160.19,1039.9,1154.67,1051.4,1148.2Z" transform="translate(-548.44 -641.37)"/><path class="e39b7b4e-8e05-4db0-a0af-1dbad54aeaed" d="M987.43,865.34a127,127,0,0,0-5.91,45.8s-55.6-12-63-54.45a55.83,55.83,0,0,1-.81-8.16s18.42-28.23,20.88-61.38c0,0,65.06,11,66.29,45.42C1004.84,832.57,994.39,844,987.43,865.34Z" transform="translate(-548.44 -641.37)"/><path class="f0fa285f-baeb-4322-978c-86fd436af007" d="M1004.84,832.57s-11,12.78-18,34.1c-10-4.59-36.71-23.93-69.16-18.14-.46-2.6.07,2.84,0,0,0,0,18.42-28.23,20.88-61.38C938.55,787.15,1003.61,798.19,1004.84,832.57Z" transform="translate(-548.44 -641.37)"/><path class="a2f4eca0-1d5b-4094-b876-7d5770b8fa15" d="M911,670.52s-1.09-10.92-21.28-25.65-37.64,19.65-42,54.57-42,31.64-42,31.64c8.31,8.27,20.3,13.25,32,12.42a27.17,27.17,0,0,0-4.82,29c1.89-7.35,8.18-12.68,14.5-16.88s13.22-8,17.67-14.14c4.77-6.59,6.06-15,7.13-23s2.14-16.45,6.58-23.26,13.38-11.45,20.88-8.3c1.46.62,2.92,1.51,4.49,1.34a6.69,6.69,0,0,0,2.88-1.35c3.08-2.15,6-4.68,7.79-8S912.92,673.74,911,670.52Z" transform="translate(-548.44 -641.37)"/><path class="e47d1942-c48d-44c4-a1ad-dcc4ccf5dd27" d="M930.09,674.88,911,670.52s-6-3.82-9.27,17.46l13.09,12.55Z" transform="translate(-548.44 -641.37)"/><path class="e39b7b4e-8e05-4db0-a0af-1dbad54aeaed" d="M1071.63,724c-.18,7.29-.56,15-.9,23.26,0,.07,0,.14,0,.22,0,.52,0,1-.08,1.55,0,1-.08,2-.13,3.08,0,.14,0,.28,0,.41s0,.37,0,.56c-.24,5.93-1,13.43-2,19.95-.27,1.91-.61,3.77-.9,5.44-2.2,12-4.58,23.15-7.44,33.14-8.69,30.26-21.88,50.11-47.86,53.68a65.76,65.76,0,0,1-11.68.55c-.92,0-1.81-.13-2.74-.24-1.59-.21-3.18-.5-4.81-.72a70.9,70.9,0,0,1-7.9-1.45,66.65,66.65,0,0,1-11.9-4.12,61.88,61.88,0,0,1-6.48-3.38c-.33-.2-.68-.4-1-.63-1.38-.85-2.72-1.72-4-2.64,0,0,0,0,0,0-20.61-14.63-28.39-36.69-28.39-36.69-19.31,19.13-40.48-37-34.6-50.11,5.78-12.92,17.43-3,18-2.49-14.19-26.25-13.88-100.12,68.32-103.62,44.25-1.88,82.2,19,86.54,58.56A43.57,43.57,0,0,1,1071.63,724Z" transform="translate(-548.44 -641.37)"/><path class="f0fa285f-baeb-4322-978c-86fd436af007" d="M1025,784.73l-1.21,27S1044,807.67,1025,784.73Z" transform="translate(-548.44 -641.37)"/><path class="a2f4eca0-1d5b-4094-b876-7d5770b8fa15" d="M1011.13,776.79c-.77,8.73-3.79,15.59-6.73,15.33s-4.7-7.55-3.92-16.28,3.79-15.59,6.73-15.33S1011.91,768.06,1011.13,776.79Z" transform="translate(-548.44 -641.37)"/><ellipse class="a2f4eca0-1d5b-4094-b876-7d5770b8fa15" cx="1050.67" cy="773.18" rx="14.4" ry="4.85" transform="translate(-361.05 1109.81) rotate(-84.91)"/><path class="a2f4eca0-1d5b-4094-b876-7d5770b8fa15" d="M1025.12,840.88a27.58,27.58,0,0,1-22.6-1.57c-6.18-3.76-8.17-9.91-8.78-14.09a3.76,3.76,0,0,1,3.81-4.34l.6,0,34.37,1.32.71,0a3.7,3.7,0,0,1,3.35,4.76C1035.3,831.42,1032.26,837.83,1025.12,840.88Z" transform="translate(-548.44 -641.37)"/><path class="b7dcaff8-7a61-4446-9805-5372a0866b1a" d="M1023.76,828.62l-16.78-.09a9.07,9.07,0,0,1-8.83-7.63l34.37,1.32A9.22,9.22,0,0,1,1023.76,828.62Z" transform="translate(-548.44 -641.37)"/><path class="b3b0b5fe-1a9b-40e3-9cfd-6d984409d2f2" d="M1025.12,840.88a27.58,27.58,0,0,1-22.6-1.57,14.28,14.28,0,0,1,11.35-4.47A13.9,13.9,0,0,1,1025.12,840.88Z" transform="translate(-548.44 -641.37)"/><path class="a2f4eca0-1d5b-4094-b876-7d5770b8fa15" d="M992.74,761.3a15.56,15.56,0,0,1,16-1.94,1.57,1.57,0,0,0,2-.91,1.59,1.59,0,0,0-.91-2,18.72,18.72,0,0,0-19.07,2.46c-1.57,1.26.43,3.65,2,2.4Z" transform="translate(-548.44 -641.37)"/><path class="a2f4eca0-1d5b-4094-b876-7d5770b8fa15" d="M1041.86,759.89a11.24,11.24,0,0,1,13.61-2,1.59,1.59,0,0,0,2.17-.36,1.57,1.57,0,0,0-.36-2.18,14.42,14.42,0,0,0-18,2.71,1.56,1.56,0,1,0,2.54,1.81Z" transform="translate(-548.44 -641.37)"/><path class="f0fa285f-baeb-4322-978c-86fd436af007" d="M1071.63,724c-.18,7.29-.56,15-.9,23.26,0,.07,0,.14,0,.22,0,.52,0,1-.08,1.55,0,1-.08,2-.13,3.08,0,.14,0,.28,0,.41-9.58.18-30.14,0-44.36-4.52-19.1-6-21.83-29.47-26.74-34.38S983,700,967.74,714.17s-9.82,29.46-9.82,29.46-18-4.91-16.37,18.56,6.54,98.6,70.73,103.1a65.76,65.76,0,0,1-11.68.55c-.92,0-1.81-.13-2.74-.24-1.59-.21-3.18-.5-4.81-.72a70.9,70.9,0,0,1-7.9-1.45,66.65,66.65,0,0,1-11.9-4.12,61.88,61.88,0,0,1-6.48-3.38c-.33-.2-.68-.4-1-.63-1.38-.85-2.72-1.72-4-2.64,0,0,0,0,0,0-20.61-14.63-28.39-36.69-28.39-36.69-19.31,19.13-40.48-37-34.6-50.11,5.78-12.92,17.43-3,18-2.49-14.19-26.25-13.88-100.12,68.32-103.62,44.25-1.88,82.2,19,86.54,58.56A43.57,43.57,0,0,1,1071.63,724Z" transform="translate(-548.44 -641.37)"/><path class="a2f4eca0-1d5b-4094-b876-7d5770b8fa15" d="M916.74,763.34l12.81,29.95,7.09-13.1s-9.82-42,14.19-40.92c-1.9-12.9,7.49-24.5,18.17-32,4.61-3.22,9.72-5.95,15.29-6.73s11.64.65,15.54,4.7c4.06,4.23,5.11,10.43,7.36,15.85,4,9.7,12.22,17.28,21.6,22s19.89,6.75,30.36,7.56c7.07.54,14.3.53,21.1-1.48s13.18-6.23,16.55-12.47a31.37,31.37,0,0,1-17.07.9c5.33-.63,10.78-1.56,15.4-4.29s8.29-7.65,8.14-13a31.18,31.18,0,0,1-21.31,1.52,20.39,20.39,0,0,0,15.54-19.16,14.17,14.17,0,0,1-17.9-1.67c-2.26-2.37-3.59-5.44-5.08-8.35-11.43-22.24-34.78-37-59.39-41.4s-50.23.59-73.2,10.46c-5.83,2.51-11.61,5.37-16.36,9.59s-8.39,10-9,16.28a36.47,36.47,0,0,0-22.74,32.07c-.24,7.52,1.9,14.9,4,22.12q2.75,9.3,5.47,18.61C907.86,758.67,913.13,760.14,916.74,763.34Z" transform="translate(-548.44 -641.37)"/><path class="bb6b62dc-401a-4be2-b501-db8e180cd4b7" d="M913.86,757.82s-15.14-42.56,17.19-85.12c29-38.24,88.14-33.53,118.84-13.78a27.88,27.88,0,0,1,11.7,15.69h0s-39.69-40.38-99-10.5C910.63,690.25,936,776.23,936,776.23S919.59,766,913.86,757.82Z" transform="translate(-548.44 -641.37)"/><ellipse class="fabfe949-1769-4648-8765-b4d1600212d1" cx="926.28" cy="787.73" rx="16.34" ry="36.51" transform="translate(-707.94 -401) rotate(-13.63)"/><rect class="fabfe949-1769-4648-8765-b4d1600212d1" x="908.18" y="753.2" width="19.83" height="72.77" transform="translate(-708.6 -402.87) rotate(-13.63)"/><ellipse class="bb6b62dc-401a-4be2-b501-db8e180cd4b7" cx="908.49" cy="792.04" rx="16.34" ry="36.51" transform="translate(-709.45 -405.07) rotate(-13.63)"/><ellipse class="b2cead06-3f55-49e2-9406-f57f8e916425" cx="906.03" cy="792.04" rx="12.13" ry="27.09" transform="translate(-709.52 -405.65) rotate(-13.63)"/></g></g></svg>