<svg viewBox="0 0 30 30" fill="none" xmlns="http://www.w3.org/2000/svg"><g clip-path="url(#a)"><path d="m24.324 26.959-1.725-3.121-2.253 1.05 1.56 4.217a1.549 1.549 0 1 0 2.808-1.31l-.39-.836ZM7.577 23.92 5.675 26.96l-.39.837a1.549 1.549 0 1 0 2.808 1.31l1.417-4.284-1.933-.902Z" fill="#BFBFBF"/><path d="M5.675 26.959a12.346 12.346 0 0 0 2.41 2.16l.008-.014 1.894-4.061-2.808-1.31-1.504 3.225ZM24.324 26.959l-1.503-3.225-2.808 1.31 1.894 4.061.007.014a12.339 12.339 0 0 0 2.41-2.16ZM6.307 7.53l-.524-.328-1.011 1.011.326.527 2.823 2.823 1.21-1.21L6.307 7.53Z" fill="#ACACAC"/><path d="m2.977 6.62 1.21-1.21 2.12 2.12-1.21 1.21-2.12-2.12Z" fill="#9C9C9C"/><path d="M2.003 4.555a3.197 3.197 0 0 0 .059 4.46l.522.522a.367.367 0 0 0 .518 0l3.883-3.882a.367.367 0 0 0 0-.519l-.522-.522a3.197 3.197 0 0 0-4.46-.059Z" fill="#EB5569"/><path d="m25.362 8.003-.983-.983-.773.596-2.738 2.738 1.21 1.21 2.738-2.738.546-.823ZM16.207 4.112V1.517h-2.415v2.595h-.076v6.142h2.566V4.112h-.075Z" fill="#ACACAC"/><path d="M13.716 1.86h2.566v2.252h-2.566V1.86Z" fill="#9C9C9C"/><path d="M18.647 1.543C18.647.69 17.957 0 17.104 0h-4.38a1.543 1.543 0 0 0 0 3.085h4.38c.852 0 1.543-.69 1.543-1.542Z" fill="#EB5569"/><path d="m23.603 7.618 2.205-2.205 1.21 1.209-2.206 2.205-1.209-1.21Z" fill="#9C9C9C"/><path d="M17.276 0h-1.711a1.543 1.543 0 0 1 0 3.085h1.71a1.543 1.543 0 1 0 0-3.085Z" fill="#E53950"/><path d="M27.876 4.435a3.197 3.197 0 0 0-4.46.06l-.522.521a.367.367 0 0 0 0 .519l3.882 3.882a.367.367 0 0 0 .519 0l.522-.522a3.197 3.197 0 0 0 .059-4.46Z" fill="#EB5569"/><path d="M27.938 4.494a3.196 3.196 0 0 0-.688-.522 3.198 3.198 0 0 1-.522 3.834l-.522.522a.367.367 0 0 1-.518 0l1.21 1.21a.367.367 0 0 0 .518 0l.522-.522a3.197 3.197 0 0 0 0-4.522ZM6.584 4.493a3.197 3.197 0 0 0-5.044.688 3.198 3.198 0 0 1 3.834.522l.522.522a.367.367 0 0 1 0 .518L3.102 9.537l4.004-4.003a.367.367 0 0 0 0-.519l-.522-.522Z" fill="#E53950"/><path d="M15 29.54c6.78 0 12.275-5.496 12.275-12.275 0-6.78-5.496-12.275-12.275-12.275-6.78 0-12.275 5.495-12.275 12.275S8.22 29.54 15 29.54Z" fill="#EB5569"/><path d="M15 4.99c-.284 0-.565.01-.843.03 6.386.432 11.432 5.749 11.432 12.245 0 6.496-5.046 11.813-11.432 12.246.278.019.56.03.843.03 6.779 0 12.275-5.497 12.275-12.276 0-6.78-5.496-12.275-12.275-12.275Z" fill="#E53950"/><path d="M15 27.402c5.598 0 10.136-4.538 10.136-10.137 0-5.598-4.538-10.137-10.136-10.137-5.599 0-10.137 4.539-10.137 10.137C4.863 22.864 9.4 27.402 15 27.402Z" fill="#E8EDF2"/><path d="M15 7.128c-.318 0-.631.016-.941.045 5.15.476 9.195 4.82 9.195 10.092s-4.046 9.616-9.195 10.093c.31.029.623.044.94.044 5.59 0 10.137-4.547 10.137-10.137 0-5.59-4.547-10.137-10.136-10.137Z" fill="#D9E7EC"/><path d="M15.046 16.984a.453.453 0 0 1-.453-.453v-4.75a.453.453 0 1 1 .905 0v4.75c0 .25-.202.453-.452.453Z" fill="#838383"/><path d="M18.641 17.717h-3.253a.453.453 0 1 1 0-.905h3.253a.453.453 0 0 1 0 .905Z" fill="#9C9C9C"/><path d="M15.045 18.884a1.619 1.619 0 1 0 0-3.238 1.619 1.619 0 0 0 0 3.238Z" fill="#FBC56D"/><path d="M4.873 17.717h2.341a.453.453 0 0 0 0-.905h-2.34a10.274 10.274 0 0 0 0 .905ZM15 24.598a.453.453 0 0 0-.453.452v2.341a10.148 10.148 0 0 0 .905 0v-2.34a.453.453 0 0 0-.452-.453ZM15 7.128c-.152 0-.303.004-.453.011V9.48a.453.453 0 0 0 .905 0V7.14a10.27 10.27 0 0 0-.452-.01Z" fill="#ACACAC"/><path d="M15.045 15.646c-.276 0-.539.073-.77.201.502.28.85.816.85 1.418 0 .6-.348 1.138-.85 1.416.231.129.494.203.77.203a1.64 1.64 0 0 0 1.62-1.62 1.64 1.64 0 0 0-1.62-1.618Z" fill="#E9B665"/><path d="M25.126 16.812h-2.341a.453.453 0 0 0 0 .905h2.34a10.298 10.298 0 0 0 0-.905Z" fill="#ACACAC"/><path d="M25.134 17.035a11.747 11.747 0 0 0-.008-.223h-1.882a10.15 10.15 0 0 1 0 .905h1.882a11.786 11.786 0 0 0 .01-.451v-.001c0-.077 0-.154-.002-.23Z" fill="#9C9C9C"/><path d="M15 27.854c-5.84 0-10.59-4.75-10.59-10.59C4.41 11.427 9.16 6.676 15 6.676c5.839 0 10.59 4.75 10.59 10.59 0 5.839-4.751 10.59-10.59 10.59Zm0-20.273c-5.34 0-9.684 4.344-9.684 9.684 0 5.34 4.344 9.684 9.684 9.684 5.34 0 9.684-4.345 9.684-9.684 0-5.34-4.345-9.684-9.684-9.684Z" fill="#F58A97"/></g><defs><clipPath id="a"><path fill="#fff" d="M0 0h30v30H0z"/></clipPath></defs></svg>