<svg data-name="Layer 2" xmlns="http://www.w3.org/2000/svg" viewBox="0 0 1865.59 1865.59"><path d="M1792.27 569.7a935.88 935.88 0 0 0-496.38-496.39c-115-48.65-237.19-73.32-363.1-73.32s-248.07 24.67-363.1 73.32A935.88 935.88 0 0 0 73.32 569.69C24.66 684.69-.01 806.88-.01 932.79s24.67 248.07 73.33 363.1a935.91 935.91 0 0 0 496.38 496.42c115 48.65 237.19 73.32 363.1 73.32s248.09-24.71 363.09-73.32a935.91 935.91 0 0 0 496.37-496.37c48.66-115 73.33-237.2 73.33-363.1s-24.7-248.11-73.32-363.14Zm-142 416.24h110.12a44.83 44.83 0 0 0 13.73-2.14 842 842 0 0 1-797 790.65 45.08 45.08 0 0 0 1.25-10.52V1653.8a45 45 0 0 0-90 0v110.13a44.94 44.94 0 0 0 1.26 10.58 842 842 0 0 1-798-788.82 46.81 46.81 0 0 0 4.76.25h110.13a45 45 0 0 0 0-90H96.38a44.86 44.86 0 0 0-5.59.36 841.94 841.94 0 0 1 802.8-805.4 44.86 44.86 0 0 0-5.22 21.06v110.12a45 45 0 0 0 90 0V111.96a44.77 44.77 0 0 0-5.21-21 842 842 0 0 1 801.73 807.4 44.86 44.86 0 0 0-14.55-2.42h-110.11a45 45 0 0 0 0 90ZM974.4 916.6V544.11a45 45 0 0 0-90 0v391.13a45.8 45.8 0 0 0 .82 8.58c.13.67.28 1.33.43 2a.75.75 0 0 1 0 .16c.15.62.32 1.23.5 1.84 0 .1 0 .2.08.3.17.56.35 1.12.54 1.67l.15.45c.18.5.37 1 .56 1.49.09.2.16.41.25.61.18.44.37.86.56 1.29.11.26.23.51.35.77s.36.74.54 1.11.3.6.46.89l.54 1 .56 1 .54.87c.21.33.42.67.64 1l.59.84c.22.32.44.64.68 1s.46.6.69.89l.66.84c.31.37.63.74.95 1.1.16.19.32.39.49.57q.76.84 1.56 1.65l356 356a45 45 0 1 0 63.64-63.63Z"/></svg>