<svg width="20" height="24" fill="none" xmlns="http://www.w3.org/2000/svg"><path d="m1.37 14.783.173.783c.322 1.454.58 2.62.872 3.588.342 1.129.698 1.864 1.16 2.378C4.459 22.516 6.017 23 10 23c3.984 0 5.541-.484 6.425-1.468.462-.514.819-1.25 1.16-2.378.293-.967.55-2.134.872-3.588l.173-.783c.778-3.498.265-5.24-.902-6.216-.631-.529-1.556-.93-2.862-1.193C13.563 7.112 11.948 7 10 7c-1.948 0-3.563.112-4.866.374-1.306.263-2.23.664-2.862 1.193-1.166.976-1.68 2.718-.902 6.216ZM10 12v6m-4-6v6m8-6v6" stroke="#212135" stroke-width="2" stroke-linecap="round" stroke-linejoin="round"/><path fill-rule="evenodd" clip-rule="evenodd" d="M12 2.07c3.654.265 6.108 1.226 7.516 2.073a1 1 0 0 1-1.031 1.714C17.18 5.072 14.454 4 10 4 5.53 4 2.73 5.079 1.54 5.842A1 1 0 0 1 .46 4.158C1.808 3.293 4.333 2.334 8 2.07V1a1 1 0 0 1 1-1h2a1 1 0 0 1 1 1v1.07Z" fill="#212135"/></svg>