<svg data-name="Layer 2" xmlns="http://www.w3.org/2000/svg" viewBox="0 0 432.28 431.98"><path d="m2064 2954.94-9.35-8.94 10-11.24a29 29 0 0 0-2.5-3.71c-5.77-6.19-11.61-12.31-18.27-19.33-4.62 4.94-8.75 8.68-12 13-6.38 8.43-13 16.84-18.25 25.95-6.5 11.17-9.63 23.41-7.59 36.64 1.37 8.86-.95 16.91-7.36 23.38q-22.76 23-45.68 45.75a18 18 0 0 1-3.24 1.92l-8.71-8.21c2.68-3 4.85-5.62 7.25-8 12.46-12.52 24.86-25.11 37.54-37.41 4.64-4.5 7.33-9.29 6.53-15.89-2.77-22.88 5.79-42.31 19-60.07 6.51-8.76 13.82-16.93 21.16-25.85-2.25-5.44-7.48-8.59-12.15-13.57l-37.77 37.34-40.13-40.07c6.13-9.08 16.74-15.92 24.46-26.13l-29.45-30 80.73-80.14 30.15 29.38 25.61-25.29 40.12 40.19c-10.73 12.9-24.58 24.36-36.11 37.36l44.76 44.68c4.2-3.87 8.83-8.58 13.93-12.73 11.25-9.18 27.71-8.86 37.6 1.55 4.65 4.89 7.34 11.66 11.86 19.13 6.94.6 16.14 1.23 23.29 8s9.75 15.28 9.52 25.33c10 1.81 18.74 5.35 24.2 13.92 5.19 8.17 5.91 17.16 3 27.17 12.38 3.53 21 10.76 23.54 23.42 2.43 12.26-2.74 22-11.29 30l29.49 27.5 36-35.83 40.24 41.15-25.08 25.22 30.75 31.28-80.49 80.53-31.22-30.76-25.5 25.2-40.54-40.57 36.88-37.35-28.56-28.59c-11 10.65-22.43 21.11-33.13 32.26-9.39 9.79-20 15.14-33.84 14.33-7-.41-14.13 1.09-21.16.76-8.19-.39-14 2.88-19.49 8.62-10.46 11-21.39 21.58-32.14 32.31-1.48 1.48-3.07 2.84-5.5 5.07-3-2.91-5.87-5.65-9.08-8.72 2.18-2.54 3.65-4.47 5.34-6.17 11.46-11.53 23.06-22.92 34.42-34.54a31.87 31.87 0 0 1 23.61-10.17c7.77 0 15.58-.87 23.31-.39 10 .62 17.57-3.31 24.45-10.19 21.48-21.49 43.24-42.71 64.85-64.07q13.18-13 26.22-26.24a46.1 46.1 0 0 0 6.29-7.13 15.15 15.15 0 0 0-20.44-21.09c-3.26 2-5.86 5.05-8.89 7.47-4.07 3.27-7.51 3.31-10.26.28-3-3.32-2-6.59.6-9.44 4.1-4.39 8.56-8.44 12.59-12.88a26.13 26.13 0 0 0 5.29-7.77c2.34-6.07-.13-13.23-5.21-17.09a14.71 14.71 0 0 0-18.61.33c-4.38 3.54-8.2 7.77-12.25 11.72-3.05 3-6.37 4.71-10.27 1.62-3.32-2.62-3.1-6.73.83-11 4.29-4.7 9.16-8.86 13.28-13.69 9.24-10.82 1.7-23.7-8.52-25.52-5.33-1-9.78.89-13.6 4.35-3.66 3.32-7.09 6.9-10.64 10.34a37.71 37.71 0 0 1-4.64 4.32c-3 2-6.09 1.93-8.68-.65s-2.62-5.82-.39-8.62 4.93-5.05 7.26-7.7 4.89-5.2 6.54-8.24c3.13-5.76 1.56-13-3.23-17.48-4.32-4.09-11.49-5.53-16.68-2.68a37.87 37.87 0 0 0-8.16 6.6q-34.23 34-68.32 68.11c-2.23 2.17-4.55 4.3-8.12 7.67Zm280.68 87.48-18.29-18.17-115.71 115.2c2.84 2.44 6.37 5.34 9.75 8.41 3.57 3.24 7 6.65 10.07 9.6Zm-270.35-269.31c-38.08 38.12-76 75.77-113 113.18l20.83 22 114.07-114.13Zm35.53 114.27-42.81-42.38-34.93 34.21 42.9 43ZM1978 2850.07c20-20.07 40.49-39.7 59.33-59.69l-20.18-21.68-61 61.43Zm291.18 292.83 20.16 20.36c20.72-21.4 41.46-40.76 61.14-61.92l-20.08-19.74Zm-31.12-55.9 35.37-35.23-25.53-26.77-35.61 35.67Z" transform="translate(-1937.53 -2750.34)" /></svg>