<svg width="23" height="24" fill="none" xmlns="http://www.w3.org/2000/svg"><path d="M1 12c0 2.34.061 4.002.257 5.235.193 1.22.504 1.921.933 2.414.437.503 1.091.9 2.202 1.325.827.315 1.82.617 3.062.994.45.136.932.283 1.45.443 1.847.571 3.158.691 4.09.512.873-.167 1.475-.605 1.934-1.361.489-.804.825-1.989 1.028-3.627.201-1.626.261-3.603.261-5.935 0-2.332-.06-4.31-.261-5.935-.203-1.638-.54-2.823-1.028-3.627-.46-.756-1.06-1.194-1.934-1.362-.933-.178-2.243-.058-4.09.513-.518.16-1 .307-1.45.443-1.242.377-2.235.679-3.062.994-1.11.425-1.765.822-2.202 1.325-.429.493-.74 1.194-.933 2.414C1.06 7.998 1 9.66 1 12Z" stroke="#212135" stroke-width="2" stroke-linecap="round" stroke-linejoin="round"/><ellipse rx=".957" ry=".96" transform="matrix(-1 0 0 1 12.435 12.162)" fill="#212135"/><path d="M16.26 20.64c4.784 0 4.784-1.167 4.784-8.485 0-7.317 0-8.795-4.783-8.795" stroke="#212135" stroke-width="2" stroke-linecap="round" stroke-linejoin="round"/></svg>