<svg id="bef6385d-74ab-4d42-82d8-724616eb2dc8" data-name="Layer 2" xmlns="http://www.w3.org/2000/svg" xmlns:xlink="http://www.w3.org/1999/xlink" viewBox="0 0 570 574.27"><defs><style>.ffbc4968-8631-432b-81bd-b2d9a15e89be{fill:none;}.b49009c1-e36c-46a4-8d09-8d1b6e261d73{fill:#b8d392;}.a591742b-8996-4b74-9307-65d98b2045ab{clip-path:url(#af59e870-b25a-4d57-a48d-30fbcf9a55ed);}.aae27559-dd05-49d1-85ce-b61ef8af274c{fill:#693b2f;}.a6bfbcde-fe5b-4bca-a895-7e35ad6f1880{fill:#231010;}.a6bfbcde-fe5b-4bca-a895-7e35ad6f1880,.aa0e8b73-1c7b-4590-a00c-22bef206b6ed{opacity:0.8;}.eb8644e5-e732-4605-8f7b-5c38df296817{fill:#fff;}.a4b61f68-fd55-4eed-9b4b-d91674e9beff{fill:#ef7443;}.a4e4a128-9ec5-4367-8348-7c457788edec{fill:#d6d3bf;}.f4ed2440-54ec-46f3-8085-53821a0a8fcd{fill:#e9eadf;}.b672711a-ee88-46d6-8fc2-99d5e9c83393{fill:#bab9a8;}.aa53ac38-4537-4ab8-a295-1b6a6f8d190f{fill:#f4b694;}.a88b0e85-e9d6-49fb-b173-8f36ec6c9857,.aa0e8b73-1c7b-4590-a00c-22bef206b6ed,.bb1d56ba-a20f-4499-8d3d-c8ee6ef9c719{fill:#c97b5c;}.a88b0e85-e9d6-49fb-b173-8f36ec6c9857{opacity:0.7;}.ff741881-175c-462e-aefa-98bf70f1da32{fill:#613125;}.adcee076-e150-4ed5-99a7-caddcd227bb7{fill:#40211f;}.b5c88817-6866-47e8-9e8a-33c8828a04c7{fill:#2c1515;}</style><clipPath id="af59e870-b25a-4d57-a48d-30fbcf9a55ed" transform="translate(-925.5 -515)"><circle class="ffbc4968-8631-432b-81bd-b2d9a15e89be" cx="1211.5" cy="800" r="285"/></clipPath></defs><title>femaleAvatarIcon</title><circle class="b49009c1-e36c-46a4-8d09-8d1b6e261d73" cx="285" cy="285" r="285"/><g class="a591742b-8996-4b74-9307-65d98b2045ab"><path class="aae27559-dd05-49d1-85ce-b61ef8af274c" d="M1079.74,917a53.07,53.07,0,0,1-8.62-19.41c-3.31-15.57,2-27.87,16-61.67,2.69-6.46,8.44-20.31,16.27-39.33a71,71,0,0,1-9.62-17c-8-20.3-3.24-36.39,10.69-88.38,13.19-49.25,15.5-59.56,27.33-72.67,5.56-6.15,15.85-17.26,33.34-21.88,18.71-4.93,34.58.49,40.71,3,8.27-3.23,22.19-7.15,37.95-3.75,26.22,5.65,40.25,27.83,51.33,45.33,8.35,13.19,14.39,42.05,26.48,99.77,3.36,16.1,7.23,35.89-3.81,47.56a26.55,26.55,0,0,1-10.41,6.62,252.59,252.59,0,0,0,15.74,43.38c9.75,20.67,18.5,31.74,19.81,50.79a72.64,72.64,0,0,1-2.74,25Z" transform="translate(-925.5 -515)"/><path class="a6bfbcde-fe5b-4bca-a895-7e35ad6f1880" d="M1136.5,763.93l-12.13,18.53c-1.6,2.43-3.5,5.32-2.54,8,.4,1.12,1.45,2.57,7.5,4.83a63.74,63.74,0,0,0,12.85,3.33Q1139.34,781.27,1136.5,763.93Z" transform="translate(-925.5 -515)"/><path class="a6bfbcde-fe5b-4bca-a895-7e35ad6f1880" d="M1276.37,763.93c4.41,6.72,8.21,12.55,12.14,18.53,1.6,2.43,3.5,5.32,2.53,8-.3.83-1.24,2.71-7.5,4.83a46.86,46.86,0,0,1-15,2.42Q1272.43,780.82,1276.37,763.93Z" transform="translate(-925.5 -515)"/><path class="eb8644e5-e732-4605-8f7b-5c38df296817" d="M1147.83,913.94a462.12,462.12,0,0,0,39.5,175.33h39.07a345.36,345.36,0,0,0,36.24-125.5,336.85,336.85,0,0,0,.76-48.5Z" transform="translate(-925.5 -515)"/><path class="a4b61f68-fd55-4eed-9b4b-d91674e9beff" d="M1263.4,894.1l-113,3.17.75,18a91.06,91.06,0,0,0,112.24,0Z" transform="translate(-925.5 -515)"/><path class="a4e4a128-9ec5-4367-8348-7c457788edec" d="M1114.62,904.21c-24.24,8.27-43.27,16-56.79,21.89-7.51,3.27-19.25,8.57-21,18-.66,3.6.55,5.45,1.5,12,1.08,7.47.59,12.8-.4,23.47-1.83,19.67-6.43,39.94-8.1,47a230.09,230.09,0,0,0,91.33,48.67l26-27.33,7.34-56.25Z" transform="translate(-925.5 -515)"/><path class="f4ed2440-54ec-46f3-8085-53821a0a8fcd" d="M1150.33,894.1a603,603,0,0,0,37,195.17,229.53,229.53,0,0,1-66.17-14l-20-46.67,43.09-22-47.09-8.66,17.46-93.73Z" transform="translate(-925.5 -515)"/><path class="b672711a-ee88-46d6-8fc2-99d5e9c83393" d="M1073.5,1056.77c4.11-51.39,5.51-62.36,6-62.33s.24,9-.17,27c-.35,15.59-.78,28.51-1.12,37.57Z" transform="translate(-925.5 -515)"/><path class="b672711a-ee88-46d6-8fc2-99d5e9c83393" d="M1037.9,940.82q28.45,36,28.93,35.62t-27.6-37.9C1038.78,939.3,1038.34,940.06,1037.9,940.82Z" transform="translate(-925.5 -515)"/><path class="a4e4a128-9ec5-4367-8348-7c457788edec" d="M1299.11,904.21c24.24,8.27,43.26,16,56.79,21.89,7.5,3.27,19.25,8.57,21,18,.66,3.6-.56,5.45-1.5,12-1.08,7.47-.59,12.8.4,23.47,1.82,19.67,6.42,39.94,8.1,47a230,230,0,0,1-91.34,48.67l-26-27.33-7.33-56.25Z" transform="translate(-925.5 -515)"/><path class="f4ed2440-54ec-46f3-8085-53821a0a8fcd" d="M1263.4,894.1a603,603,0,0,1-37,195.17,229.56,229.56,0,0,0,66.16-14q10-23.32,20-46.67l-43.08-22,47.08-8.66q-8.73-46.86-17.45-93.73Z" transform="translate(-925.5 -515)"/><path class="b672711a-ee88-46d6-8fc2-99d5e9c83393" d="M1340.23,1056.77c-4.12-51.39-5.51-62.36-6-62.33s-.24,9,.17,27c.35,15.59.78,28.51,1.12,37.57Z" transform="translate(-925.5 -515)"/><path class="b672711a-ee88-46d6-8fc2-99d5e9c83393" d="M1375.83,940.82q-28.45,36-28.93,35.62t27.6-37.9Z" transform="translate(-925.5 -515)"/><path class="aa53ac38-4537-4ab8-a295-1b6a6f8d190f" d="M1263.5,894.1c-2.59,3.08-24.08,27.72-59.17,26.5-32-1.11-51-23-54-26.5a51.13,51.13,0,0,0,21.5-25,50.41,50.41,0,0,0,2.73-26.72h65.35c-.79,2.87-5.33,20.55,5.4,36.57a41.44,41.44,0,0,0,5.07,6.16A44,44,0,0,0,1263.5,894.1Z" transform="translate(-925.5 -515)"/><path class="aa0e8b73-1c7b-4590-a00c-22bef206b6ed" d="M1250.38,885.11a120.73,120.73,0,0,1-75.82-42.73h65.35c-.79,2.87-5.33,20.55,5.4,36.57A41.44,41.44,0,0,0,1250.38,885.11Z" transform="translate(-925.5 -515)"/><path class="aa53ac38-4537-4ab8-a295-1b6a6f8d190f" d="M1276.5,763.93l-1.26,6.16c-1,4.91-2.26,11-3.74,17.84-4,18.75-6,28.13-7,30.47-8.12,19.11-34.22,32.2-58.64,31.87-24.68-.34-48-14.41-57.23-32.62-2.73-5.41-4.36-11.41-6.42-19a173.56,173.56,0,0,1-5.29-29.51q-.26-2.77-.39-5.16a188.2,188.2,0,0,0,12.66-29.33c2.28-6.83,4-13.26,5.36-19.29.8-3.53,1.48-6.92,2.09-10.18,4.3-23,5.14-39.55,18.61-50.8,2.73-2.29,8.77-7.18,15.94-6.06,9.83,1.54,14.74,13.25,15.44,15,3.52-9.37,10.45-15.71,17.9-16.08,7-.34,12.21,4.67,15,7.41,11.4,11.22,12.84,27,13.33,31.67a165.38,165.38,0,0,0,3.59,20.49c.82,3.49,1.79,7.22,2.95,11.17A366.26,366.26,0,0,0,1276.5,763.93Z" transform="translate(-925.5 -515)"/><path class="a88b0e85-e9d6-49fb-b173-8f36ec6c9857" d="M1276.5,763.93l-1.26,6.16a163.55,163.55,0,0,1-10.61-20.19c-7.63-17.39-11.29-34-14.3-48-4.12-19.17-4.25-26.16-11-36-3.42-5-9.07-13.21-16.74-12.74-6.59.41-12.76,7.15-15.5,16.75-.57-1.21-6.82-14.2-17.75-14.75a17.64,17.64,0,0,0-10.75,3.5c-13.78,9.58-14.79,32.39-16.85,46.66-2.25,15.69-8.18,37.77-24.84,63.83l-.39-5.16a188.2,188.2,0,0,0,12.66-29.33c2.28-6.83,4-13.26,5.36-19.29.8-3.53,1.48-6.92,2.09-10.18,4.3-23,5.14-39.55,18.61-50.8,2.73-2.29,8.77-7.18,15.94-6.06,9.83,1.54,14.74,13.25,15.44,15,3.52-9.37,10.45-15.71,17.9-16.08,7-.34,12.21,4.67,15,7.41,11.4,11.22,12.84,27,13.33,31.67a165.38,165.38,0,0,0,3.59,20.49c.82,3.49,1.79,7.22,2.95,11.17A366.26,366.26,0,0,0,1276.5,763.93Z" transform="translate(-925.5 -515)"/><path class="bb1d56ba-a20f-4499-8d3d-c8ee6ef9c719" d="M1204,749.88,1195.62,779a4,4,0,0,0,.72,3.58,13.15,13.15,0,0,0,10.78,5,13.39,13.39,0,0,0,9.71-5,3.94,3.94,0,0,0,.74-3.66q-4.3-14.49-8.62-29a2.62,2.62,0,0,0-2-2.5A2.69,2.69,0,0,0,1204,749.88Z" transform="translate(-925.5 -515)"/><path class="ff741881-175c-462e-aefa-98bf70f1da32" d="M1191,712.47a3.46,3.46,0,0,1-4.09,1.47,29.69,29.69,0,0,0-18.91-4,29.32,29.32,0,0,0-13.44,5.34c.8-3.53,1.48-6.92,2.09-10.18a31.34,31.34,0,0,1,10.72-3.16,32.79,32.79,0,0,1,22.25,5.86A3.49,3.49,0,0,1,1191,712.47Z" transform="translate(-925.5 -515)"/><path class="ff741881-175c-462e-aefa-98bf70f1da32" d="M1259.37,717.93a29.37,29.37,0,0,0-34.42-3,3.44,3.44,0,0,1-4.09-1.47,3.48,3.48,0,0,1,1.38-4.64,32.79,32.79,0,0,1,22.25-5.86,31.51,31.51,0,0,1,11.93,3.79C1257.24,710.25,1258.21,714,1259.37,717.93Z" transform="translate(-925.5 -515)"/><path class="adcee076-e150-4ed5-99a7-caddcd227bb7" d="M1150.33,737.94c3.86-9.7,14.11-14.82,23.17-12.34,7.47,2.06,13.08,9,13.83,17.34-.51-1.2-4.39-10-14-12.67C1165.15,728,1156.09,731,1150.33,737.94Z" transform="translate(-925.5 -515)"/><path class="adcee076-e150-4ed5-99a7-caddcd227bb7" d="M1263.5,737.94c-3.86-9.7-14.12-14.82-23.17-12.34-7.47,2.06-13.08,9-13.83,17.34.5-1.2,4.39-10,14-12.67C1248.68,728,1257.74,731,1263.5,737.94Z" transform="translate(-925.5 -515)"/><ellipse class="b5c88817-6866-47e8-9e8a-33c8828a04c7" cx="244.95" cy="231.16" rx="7.63" ry="11.2"/><path class="eb8644e5-e732-4605-8f7b-5c38df296817" d="M1174.56,741.32a1.56,1.56,0,1,1-1.55-1.55A1.56,1.56,0,0,1,1174.56,741.32Z" transform="translate(-925.5 -515)"/><ellipse class="b5c88817-6866-47e8-9e8a-33c8828a04c7" cx="317.25" cy="231.16" rx="7.63" ry="11.2"/><path class="eb8644e5-e732-4605-8f7b-5c38df296817" d="M1246.86,741.32a1.56,1.56,0,1,1-1.55-1.55A1.56,1.56,0,0,1,1246.86,741.32Z" transform="translate(-925.5 -515)"/><path class="bb1d56ba-a20f-4499-8d3d-c8ee6ef9c719" d="M1178.66,795.44c-.42.66,12.27,15.82,29.67,15.16,16.14-.6,27.2-14.46,26.83-15s-10.34,10.6-25.5,11.5C1192.07,808.15,1179.08,794.79,1178.66,795.44Z" transform="translate(-925.5 -515)"/></g></svg>