<svg width="24" height="24" fill="none" xmlns="http://www.w3.org/2000/svg"><path d="M15.415 3.839c-.705-3.785-6.124-3.785-6.83 0A1.474 1.474 0 0 1 6.646 4.96C3.013 3.677.312 8.378 3.23 10.878c.688.59.688 1.654 0 2.244-2.918 2.5-.217 7.201 3.416 5.918.852-.3 1.773.23 1.939 1.121.705 3.785 6.124 3.785 6.83 0a1.474 1.474 0 0 1 1.939-1.121c3.633 1.283 6.334-3.418 3.416-5.918a1.478 1.478 0 0 1 0-2.244c2.918-2.5.217-7.201-3.416-5.918-.852.3-1.773-.23-1.939-1.121Z" stroke="#212135" stroke-width="2" stroke-linejoin="round"/><circle r="3" transform="matrix(-1 0 0 1 12 12)" stroke="#212135" stroke-width="2"/></svg>