<svg width="133" height="225" fill="none" xmlns="http://www.w3.org/2000/svg"><g clip-path="url(#a)"><path fill="url(#b)" d="M0 0h133v225H0z"/><path fill="#fff" fill-opacity=".15" d="M0 0h133v225H0z"/><path fill-rule="evenodd" clip-rule="evenodd" d="M9 164c74.558 0 135-60.442 135-135 0-74.558-60.442-135-135-135-74.558 0-135 60.442-135 135 0 74.558 60.442 135 135 135Zm.5-35C65.005 129 110 84.005 110 28.5S65.005-72 9.5-72-91-27.005-91 28.5-46.005 129 9.5 129Z" fill="#fff" fill-opacity=".15"/><path fill-rule="evenodd" clip-rule="evenodd" d="M-2.5 127C44.72 127 83 88.72 83 41.5S44.72-44-2.5-44-88-5.72-88 41.5-49.72 127-2.5 127Zm.93-35.315c28.229 0 51.114-22.885 51.114-51.114 0-28.23-22.885-51.114-51.115-51.114S-52.685 12.34-52.685 40.57-29.8 91.684-1.571 91.684Z" fill="#fff" fill-opacity=".15"/></g><defs><linearGradient id="b" x1="0" y1="116" x2="133" y2="116.5" gradientUnits="userSpaceOnUse"><stop stop-color="#A74CF1"/><stop offset="1" stop-color="#6877FA"/></linearGradient><clipPath id="a"><path fill="#fff" d="M0 0h133v225H0z"/></clipPath></defs></svg>