<svg width="217" height="104" fill="none" xmlns="http://www.w3.org/2000/svg"><g clip-path="url(#a)"><path fill="#fff" d="M0 0h217v104H0z"/><path fill="url(#b)" d="M-1 0h218v104H-1z"/><circle cx="38" cy="86" r="70" fill="#fff" fill-opacity=".05"/><path fill-rule="evenodd" clip-rule="evenodd" d="M213.5 83C256.854 83 292 47.854 292 4.5S256.854-74 213.5-74 135-38.854 135 4.5 170.146 83 213.5 83Zm.5-20c32.033 0 58-25.968 58-58s-25.967-58-58-58-58 25.968-58 58 25.967 58 58 58Z" fill="#fff" fill-opacity=".06"/><path fill-rule="evenodd" clip-rule="evenodd" d="M214 41c19.882 0 36-16.118 36-36s-16.118-36-36-36-36 16.118-36 36 16.118 36 36 36Zm-.5-20c9.113 0 16.5-7.387 16.5-16.5S222.613-12 213.5-12 197-4.613 197 4.5 204.387 21 213.5 21Z" fill="#fff" fill-opacity=".06"/></g><defs><linearGradient id="b" x1="-1" y1="52" x2="217" y2="52" gradientUnits="userSpaceOnUse"><stop stop-color="#A74CF1"/><stop offset="1" stop-color="#6877FA"/></linearGradient><clipPath id="a"><path fill="#fff" d="M0 0h217v104H0z"/></clipPath></defs></svg>