<svg width="486" height="176" viewBox="0 0 486 176" fill="none" xmlns="http://www.w3.org/2000/svg">
<g clip-path="url(#clip0_935_2569)">
<rect width="486" height="176" fill="url(#paint0_linear_935_2569)"/>
<circle opacity="0.2" cx="470.5" cy="158.5" r="31.5" fill="white"/>
<path opacity="0.2" d="M387.5 102.5C387.5 106.366 384.366 109.5 380.5 109.5C376.634 109.5 373.5 106.366 373.5 102.5C373.5 98.634 376.634 95.5 380.5 95.5C384.366 95.5 387.5 98.634 387.5 102.5Z" fill="white"/>
<circle opacity="0.2" cx="269.5" cy="132.5" r="5.5" fill="white"/>
<circle opacity="0.2" cx="289.5" cy="58.5" r="5.5" fill="white"/>
<path opacity="0.2" d="M169 106C169 109.866 165.866 113 162 113C158.134 113 155 109.866 155 106C155 102.134 158.134 99 162 99C165.866 99 169 102.134 169 106Z" fill="white"/>
<path opacity="0.2" d="M85 36C85 43.1797 79.1797 49 72 49C64.8203 49 59 43.1797 59 36C59 28.8203 64.8203 23 72 23C79.1797 23 85 28.8203 85 36Z" fill="white"/>
<path opacity="0.2" d="M38.5 165.171C38.5 182.568 24.397 196.671 7 196.671C-10.397 196.671 -24.5 182.568 -24.5 165.171C-24.5 147.774 -10.397 133.671 7 133.671C24.397 133.671 38.5 147.774 38.5 165.171Z" fill="white"/>
</g>
<defs>
<linearGradient id="paint0_linear_935_2569" x1="486" y1="176" x2="-137.164" y2="42.8443" gradientUnits="userSpaceOnUse">
<stop stop-color="#92A3FD"/>
<stop offset="1" stop-color="#9DCEFF"/>
</linearGradient>
<clipPath id="clip0_935_2569">
<rect width="486" height="176" fill="white"/>
</clipPath>
</defs>
</svg>
