<svg id="Layer_5" data-name="Layer 5" xmlns="http://www.w3.org/2000/svg" viewBox="0 0 2000 1762.7"><defs><linearGradient id="Degradado_sin_nombre_84" x1="1000" y1="5.37" x2="1000" y2="1557.27" gradientUnits="userSpaceOnUse"><stop offset="0" stop-color="#ee9669"/><stop offset="1" stop-color="#eed76d"/></linearGradient><style>.cls-2{fill:#de654b;opacity:.2}</style></defs><path style="fill:url(#Degradado_sin_nombre_84)" d="M0 0h2000v1762.7H0z"/><path class="cls-2" d="m1925.37 554-123.44 19.52-147.59 23.33-6.78 1.07-63.85 10.08-28.51 4.5-84.2 13.36-8.59 1.36-37.87 6-2.83.45-34.24 5.41-1.63.26-12.91 2-2.9.46-5.29.83-342.22 54.11-208.83 33-88.27 14-191 30.19-94.54 14.94-12.28 2-4.92.77-25.11 4-27.26 4.32-17.05 2.69 21.56 1.48 25.47 1.75 9.47.65 13.44.93 18.32 1.26 2.18.15 14.14 1 179.85 12.36 57.31 3.83 11.34.78 6.13.42 40.4 2.74 44.13 3-44.13 5.09-40.41 4.67-89.35 10.31-51.62 6-61.91 7.15-11.87 1.37-13.3 1.54-23.83 2.75-1.15.13-3.52.41-9.45 1.09-4.95.57-21.33 2.46-3.94.46-12 1.38-44.93 5.19-6.42.74-43.54 5-14.28 1.69-40.31 4.66-1 .12-10.62 1.22-9.32 1.07-25.53 2.93-23.29 2.72V169.65L520 239l204.42 42.31L911 319.93l-133 18.74-427.67 60.24L275 409.52l70.69 6.19L817.55 457l256.26 22.44 294.29 25.77Z" transform="translate(-185 -169.65)"/><path class="cls-2" d="m0 0 1867.36 135.83L753 239.87l332.5 42.57L0 433.5V0z"/><path style="fill:#f9e593;opacity:.2" d="M2000 216.75v599.41l-53.24-2.25h-.01l-10.61-.44-4.86-.21-28.73-1.21-15.62-.66-50.5-2.13-4.34-.18-1.9-.08-16.3-.69-59.46-2.51-1.71-.07-48.22-2.03-17.21-.73-9.77-.41-2.13-.09-.57-.02-101.34-4.28-63.39-2.67-8.14-.34-.65-.03h-.01l-2.47-.11-22.56-.95-26.15-1.1-14.37-.61-100.26-4.22-5.73-.25-59.77-2.52-21.55-.91-66.38-2.8-7.88-.33-4.57-.19-125.7-5.3-18.86-.8-85.98-3.62-112.99-4.77-35.85-1.51-67.31-2.84-195.45-8.24-12.93-.55-9.62-.4-78.66-3.32 78.66-14.67 3.1-.58 19.45-3.63 84.95-15.84 51.66-9.64 10.35-1.93 5.95-1.11 19.83-3.7 11.21-2.09 42.82-7.99 25.53-4.76 28.39-5.3 1.69-.31 1.12-.21 3.17-.59 8.02-1.5 67.14-12.52-13.85-2.08-61.31-9.22-5.8-.87-69.42-10.43-26.91-4.05-25.63-3.85 28.79-5.24 7.24-1.31 1.74-.32.6-.11 56.54-10.28 44.41-8.08 22.18-4.03 229.29-41.7-239.69-34.73h-.01l-290.24-42.06L351 456.62l250.51-36.44 581.6-84.6h.01L2000 216.75z"/></svg>