<svg width="255" height="327" fill="none" xmlns="http://www.w3.org/2000/svg"><path d="M231.02 206.56c41.094-77.91 28.053-165.727-29.128-196.145-57.18-30.418-136.847 8.081-177.94 85.99C-17.14 174.316-4.1 262.133 53.08 292.55c57.181 30.419 136.847-8.081 177.94-85.99Z" fill="#97BEFC"/><path d="M98.297 327c31.238 0 56.561-.636 56.561-1.42 0-.783-25.323-1.419-56.561-1.419s-56.56.636-56.56 1.419c0 .784 25.322 1.42 56.56 1.42Z" fill="#3B2645"/><path d="M98.441 325.58c37.45 0 67.81-30.307 67.81-67.694 0-37.386-30.36-67.694-67.81-67.694s-67.81 30.308-67.81 67.694c0 37.387 30.36 67.694 67.81 67.694Z" fill="#FA9E97"/><path d="M86.587 305.188a67.783 67.783 0 0 1-15.95-1.883c-18.69-4.431-34.468-16.25-44.419-33.311-9.95-17.032-12.864-37.25-8.249-56.918s16.239-36.411 32.737-47.186c16.498-10.776 35.88-14.252 54.571-9.82 18.69 4.432 34.467 16.25 44.418 33.311 9.951 17.032 12.864 37.251 8.249 56.919s-16.267 36.41-32.737 47.186c-11.825 7.705-25.122 11.702-38.62 11.702Zm2.826-150.392c-32.679 0-62.733 23.665-70.924 58.424-4.587 19.524-1.673 39.568 8.19 56.485 9.865 16.916 25.527 28.647 44.073 33.05a68.508 68.508 0 0 0 15.835 1.854c13.383 0 26.564-3.94 38.303-11.616 16.354-10.688 27.891-27.315 32.506-46.838 4.586-19.523 1.673-39.568-8.191-56.484-9.865-16.916-25.526-28.648-44.072-33.051a68.094 68.094 0 0 0-15.72-1.824Z" fill="#fff"/><path d="M63.858 270.255c-6.316 0-12.085-1.593-17.017-4.837-10.24-6.72-15.604-19.61-15.056-36.324.548-16.685 6.865-35.165 17.825-52.052 10.96-16.888 25.237-30.183 40.236-37.425 14.998-7.241 28.929-7.531 39.168-.84 10.24 6.72 15.604 19.61 15.056 36.324-.548 16.684-6.864 35.165-17.824 52.052-10.961 16.888-25.238 30.183-40.236 37.425-7.788 3.794-15.287 5.677-22.152 5.677Zm-14.046-93.097.173.115c-10.932 16.83-17.22 35.252-17.767 51.821-.52 16.569 4.759 29.314 14.854 35.947 20.91 13.701 56.272-3.418 78.799-38.119 22.526-34.702 23.824-74.096 2.913-87.768-20.911-13.701-56.273 3.418-78.8 38.119l-.172-.115Z" fill="#fff"/><path d="M57.83 244.272c-4.153 0-7.557-1.245-9.547-3.852-2.653-3.418-2.567-8.632.26-14.657 2.798-5.996 7.903-12.079 14.45-17.177l.115.145-.115-.145c13.527-10.544 28.958-13.383 34.38-6.344 5.423 7.039-1.182 21.319-14.709 31.863-8.538 6.575-17.796 10.167-24.834 10.167Zm5.394-35.397c-6.49 5.041-11.566 11.095-14.335 17.033-2.74 5.88-2.856 10.949-.289 14.251 5.279 6.865 20.45 3.968 33.833-6.43 13.383-10.399 19.931-24.448 14.624-31.284-5.308-6.836-20.479-3.968-33.833 6.43Z" fill="#fff"/><path opacity=".3" d="M155.896 221.939a63.881 63.881 0 0 1 3.663 21.58c0 35.773-28.872 64.74-64.464 64.74-33.227 0-60.57-25.23-64.089-57.643a67.794 67.794 0 0 0-.375 7.27c0 37.367 30.372 67.694 67.81 67.694s67.81-30.298 67.81-67.665a67.192 67.192 0 0 0-10.355-35.976Z" fill="#543753"/><path d="M141.619 71.141s-4.99 3.215-9.72 11.007-9.778 15.12-9.778 15.12-1.846-15.786-.981-17.871c.866-2.086 3.981-6.692 4.702-8.256.721-1.564 4.153-3.794 4.182-4.693.029-.897-.346-3.707-.49-3.794-.144-.087-1.875.55-2.135 1.477-.202.666-.346 1.246-.346 1.246s-2.336 1.303-2.74 1.332c-.404.03-2.307-.985-2.336-1.158-.029-.174 1.586-3.94 2.077-4.143.49-.202 3.201 1.912 3.72 1.912.519 0 1.616-.695 1.673-1.1.058-.406-3.374-3.94-3.663-3.969-.288-.029-3.23-.55-3.634-.26-.404.29-2.596 2.2-2.596 2.2v-7.907c0-1.332-.288-5.446-.894-5.735a3.88 3.88 0 0 0-1.904-.203c-.288.087-.461 1.912-.461 1.912s-1.529-.232-1.933.087c-.403.318-1.24 12.774-1.24 12.89 0 .115-2.163-2.52-2.423-3.013-.259-.492-1.153-3.505-1.557-3.62-.404-.116-1.558-.203-1.702.086-.144.29.779 4.635.837 5.127.057.493 2.797 6.344 2.941 7.242.145.898.722 8.429.895 9.964.173 1.535-1.76 19.581-2.192 27.113-.433 7.531-.058 14.28.403 14.975.462.695 4.24 3.158 6.259 2.144 2.019-1.014 7.586-5.388 12.893-10.486 5.307-5.098 11.566-11.79 11.566-11.79l.577-27.836Z" fill="#FFEDE5"/><path d="M122.092 97.24s.519 4.055.721 7.705c0 0 1.125-3.447.577-9.617l-1.298 1.912Z" fill="#DE835C"/><path d="M112.805 65c-.029 0-.058 0-.087-.029a.142.142 0 0 1 0-.203c.866-.984 5.798-4.113 6-4.258a.152.152 0 0 1 .202.058.155.155 0 0 1-.058.203c-.058.03-5.105 3.244-5.942 4.2-.029.03-.086.03-.115.03ZM116.583 59.439s-.028 0 0 0c-.086 0-.144-.058-.144-.145s.346-7.792.26-9.182c-.087-1.304-.491-1.68-.491-1.68a.18.18 0 0 1-.028-.203.176.176 0 0 1 .201-.03c.058.03.491.464.577 1.884.087 1.42-.259 8.921-.259 9.24 0 .058-.058.116-.116.116ZM117.477 71.518c-.028 0-.028-.03 0 0-.115-.03-.144-.087-.144-.174.606-3.418 4.384-5.822 4.529-5.91a.15.15 0 0 1 .201.059.153.153 0 0 1-.057.203c-.029.029-3.836 2.433-4.413 5.735 0 .029-.058.087-.116.087Z" fill="#472938"/><path d="M144.821 323.119c.115.608 1.471 2.607 8.306 3.215 6.836.608 15.201-1.883 19.325-2.346 3.461-.377 7.874-1.68 9.201-2.115.231-.058.404-.29.404-.55 0-.406-.029-1.072-.058-1.883-5.595.087-13.498 2.172-22.988 3.476-7.153.985-11.969-.898-14.075-2.028a11.595 11.595 0 0 0-.115 2.231Z" fill="#3B2645"/><path d="M181.134 306.116c-2.51.231-3.548 2.317-4.759 3.012-1.212.695-4.788.985-4.471-3.563.317-4.548-3.173-5.909-3.173-5.909-.951.029-3.518 5.127-7.874 10.631-4.355 5.503-14.796 8.4-15.258 8.574-.259.087-.461 1.042-.605 2.027 2.105 1.101 6.922 3.013 14.075 2.028 9.46-1.304 17.392-3.389 22.988-3.476-.087-2.984-.26-8.082-.548-10.254-.173-.84-.26-1.941-.375-3.07Z" fill="#AB8DA8"/><path d="M171.904 305.594c-.288 4.548 3.259 4.258 4.471 3.563 1.211-.695 2.278-2.781 4.759-3.012-.231-2.926-.404-6.054-.404-6.054l-12.028-.406c.029 0 3.49 1.39 3.202 5.909Z" fill="#FFEDE5"/><path d="M158.694 316.833c5.653-.521 13.21-10.254 13.21-10.254a5.587 5.587 0 0 1 0-.985c.289-4.548-3.173-5.909-3.173-5.909-.951.029-3.518 5.127-7.874 10.631-1.673 2.143-4.297 3.881-6.864 5.214a6.345 6.345 0 0 0 4.701 1.303ZM124.631 321.381c.49 1.535 3.634 2.085 10.585 2.085 6.951 0 10.268-12.397 13.095-14.917 2.826-2.492 8.681-11.066 8.681-12.543 0-.434-.865-1.506-2.105-2.839-1.241 2.665-4.009 8.024-8.076 11.877-3.375 3.215-3.519 14.019-11.912 16.018-3.923.927-7.586-.116-10.355-1.477-.115.608-.058 1.216.087 1.796Z" fill="#3B2645"/><path d="M146.292 284.854c-2.971 3.187-2.019 7.068-2.164 8.632-.144 1.564-5.48 1.97-6.316 1.622-.837-.347-1.731-1.651-3.404-1.622-1.009.029-1.932.522-2.48 1.362-.433 5.532-1.212 12.107-1.558 14.714-.577 4.316-3.057 5.417-4.297 6.286-.866.579-1.442 2.288-1.558 3.766 2.769 1.361 6.432 2.404 10.355 1.477 8.422-1.97 8.537-12.803 11.912-16.018 4.067-3.853 6.836-9.183 8.076-11.876-3-3.245-8.192-7.908-8.566-8.343Z" fill="#AB8DA8"/><path d="M134.379 293.457c1.702-.029 2.567 1.275 3.404 1.622.836.348 6.172-.058 6.317-1.622.144-1.564-.808-5.445 2.163-8.632-.519-.637-2.308-3.968-2.308-3.968l-11.854 5.88c.202 1.39.058 4.519-.231 8.082a3.171 3.171 0 0 1 2.509-1.362Z" fill="#FFEDE5"/><path d="M133.11 312.923c4.211-1.536 4.673-17.844 4.673-17.844-.837-.347-1.731-1.651-3.404-1.622-1.009.029-1.932.522-2.48 1.362-.433 5.532-1.211 12.108-1.558 14.715a8.68 8.68 0 0 1-1.326 3.736c1.384.232 2.797.087 4.095-.347Z" fill="#3B2645"/><path d="M182.893 132.608s15.229 25.896 15.229 39.017c0 13.122-13.094 57.006-13.325 62.915-.231 5.909 4.413 18.828 2.942 31.863s-7.009 33.659-7.009 33.659-7.442 1.129-12.028-.406c0 0-.201-38.757-2.913-54.601-2.711-15.845-4.816-49.417-4.816-49.417s-27.834 30.212-28.728 35.223c-.894 5.011 4.211 8.314 6.634 23.434 2.423 15.12 5.105 26.591 5.105 26.591s-5.48 6.488-11.854 5.88c0 0-23.738-53.674-22.382-60.684 1.355-7.01 28.814-58.628 29.823-64.74 1.01-6.112 1.731-13.875 3-21.84l40.322-6.894Z" fill="#AB8DA8"/><path d="M164.03 150.016c9.633-1.622 17.277-7.415 21.92-11.876a153.594 153.594 0 0 0-3.057-5.504l-40.351 6.865a187.143 187.143 0 0 0-.779 5.359c3.721 2.839 11.278 7.01 22.267 5.156Z" fill="#3B2645"/><path opacity=".5" d="M161.001 195.638v-12.165s-3.634-7.242-3.98-13.296l.837 17.843-7.903 19.958 11.046-12.34Z" fill="#543753"/><path d="M142.571 123.107c.836 4.142 0 16.395 0 16.395s2.019 4.548 12.864 6.343c10.845 1.796 27.458-13.237 27.458-13.237-1.557-3.534-1.817-7.589-1.702-10.718-24.199-3.736-38.62 1.217-38.62 1.217Z" fill="#FFEDE5"/><path d="M181.826 129.364a28.308 28.308 0 0 1-.635-7.474 120.075 120.075 0 0 0-8.306-1.014l.663 5.852 8.278 2.636Z" fill="#DE835C"/><path d="M156.704 92.432c15.287-1.39 19.93-14.454 21.315-21.754l-4.096-1.159-19.959-2.027-5.855 1.506c-3.087 10.688-4.702 24.621 8.595 23.434ZM189.498 73.835l-6.115-1.68c-3.865 33.427 3.404 32.529 3.404 32.529l2.019-5.3.692-25.549Z" fill="#FFEDE5"/><path d="M181.711 116.85c5.162-4.634 5.076-12.166 5.076-12.166s-7.297.898-3.404-32.529l-5.364-1.477c-1.414 7.3-6.057 20.392-21.315 21.754-13.297 1.187-11.682-12.746-8.567-23.405l-6.028 1.564s-7.009 22.97-7.21 31.284c-.145 5.329 3.028 12.542 5.364 17.032 15.662-6.691 41.448-2.057 41.448-2.057Z" fill="#AB8DA8"/><path d="M181.191 121.89c.058-1.709.231-3.389.548-5.069 0 0-25.785-4.635-41.476 2.057a80.868 80.868 0 0 0 2.308 4.2s14.421-4.925 38.62-1.188Z" fill="#3B2645"/><path d="M183.383 72.126s2.827 15.816-7.556 34.412l-1.183 12.629 1.01 28.822s-4.615 1.245-7.067 1.245-5.884 1.13-5.884 1.13l-.49-4.664-2.596.058s-.75-9.472 2.48-17.234c3.231-7.763 4.788-12.456 5.307-20.451.52-7.994-1.269-18.712 4.644-35.02l11.335-.927Z" fill="#fff"/><path d="m188.835 99.383-1.731-6.575-.288 11.847 2.019-5.272ZM155.377 144.078c.303 0 .548-.376.548-.84 0-.464-.245-.84-.548-.84-.303 0-.548.376-.548.84 0 .464.245.84.548.84Z" fill="#DE835C"/><path d="M154.944 58.396s.116 11.934-6.287 27.808c-6.404 15.873-6.923 21.464-5.423 36.874 1.5 15.41-2.192 27.72-2.192 27.72s-17.075 3.563-23.853-5.677c0 0 8.364-19.349 12.114-42.464s12.806-32.124 12.806-32.124 1.731-4.982 5.653-4.46c0 .057 3.173-7.88 7.182-7.677Z" fill="#fff"/><path d="M133.601 135.475c-.087 0-.145-.058-.145-.145-1.153-21.55 5.077-41.132 8.423-51.646l.23-.696c.029-.087.116-.115.173-.087.087.03.116.116.087.174l-.231.695c-3.346 10.515-9.547 30.038-8.393 51.531 0 .116-.058.174-.144.174ZM143.609 78.672h-.029c-.086-.028-.115-.115-.086-.173 2.394-8.256 4.124-12.369 4.153-12.398.029-.087.115-.116.202-.087.087.03.115.116.087.203-.029.029-1.76 4.142-4.125 12.369-.087.029-.144.087-.202.087ZM133.11 96.487h-.029c-.086-.03-.115-.087-.115-.174 2.509-9.762 8.941-25.606 8.999-25.78.029-.087.115-.116.202-.087.086.03.115.116.086.203-.057.145-6.489 15.99-8.999 25.722 0 .058-.057.116-.144.116ZM162.242 145.874c-.087 0-.145-.058-.145-.144 0-.087-.057-9.762 1.817-14.252.029-.087.116-.116.202-.087.087.029.116.116.087.203-1.846 4.432-1.788 14.049-1.788 14.136-.029.086-.087.144-.173.144ZM165.241 144.223c-.086 0-.144-.058-.144-.145s-.317-8.168 1.413-14.251c1.731-6.025 2.192-16.308 2.192-16.395 0-.087.058-.145.145-.145.086 0 .144.058.144.145 0 .116-.462 10.399-2.192 16.482-1.731 6.025-1.414 14.077-1.414 14.135 0 .087-.057.174-.144.174ZM171.125 131.246c-.029 0-.029 0 0 0-.115-.029-.144-.087-.144-.174 1.125-5.909.231-18.075.231-18.219 0-.087.057-.145.144-.145.086 0 .144.058.144.145 0 .115.894 12.339-.231 18.277-.028.058-.086.116-.144.116ZM173.259 107.899c-.115-.029-.144-.086-.144-.173.029-.116 1.817-11.181 3.548-16.28.029-.086.115-.115.173-.086.086.029.115.116.086.174-1.701 5.069-3.518 16.105-3.518 16.221 0 .087-.058.144-.145.144ZM171.125 106.683c-.057 0-.115-.058-.144-.116 0-.058-.952-4.953.288-13.788 0-.087.087-.145.174-.116.086 0 .144.087.115.174-1.211 8.806-.289 13.643-.289 13.701 0 .058-.057.145-.144.145Z" fill="#472938"/><path d="m173.75 49.185.173 20.334h-20.161l1.932-18.133 18.056-2.201Z" fill="#FFEDE5"/><path d="M155.694 51.386s2.942 19.263 18.143 7.966l-.087-10.167-18.056 2.201ZM152.452 48.298c1.302-.372 1.757-2.794 1.015-5.41-.741-2.616-2.398-4.434-3.7-4.062-1.303.372-1.757 2.795-1.016 5.41.742 2.616 2.398 4.435 3.701 4.062Z" fill="#DE835C"/><path d="M173.779 51.097s-.058 4.953-.289 8.255c0 0-2.365 7.502-1.298 14.483 1.067 6.98.721 12.137-.952 14.628l1.875-.898s9.605.116 9.49-13.933c0 0 4.845-7.879-2.423-17.119-7.269-9.24-3.173-14.28-3.173-14.28s-3 1.506-3.23 8.864Z" fill="#3B2645"/><path d="M176.951 42.204s-2.942 1.535-3.201 8.892c0 0-.058 4.954-.289 8.256a88.223 88.223 0 0 0 2.942-9.385c-1.644-5.07.548-7.763.548-7.763Z" fill="#3B2645"/><path d="M178.16 43.804c.783-2.604.366-5.033-.93-5.426-1.296-.393-2.981 1.4-3.764 4.003-.782 2.603-.366 5.032.93 5.425 1.296.393 2.981-1.399 3.764-4.002Z" fill="#FFEDE5"/><path d="M150.791 29.343s-.519 15.062 1.471 21.377c1.99 6.315 6.951 10.312 10.21 10.312 3.26 0 9.605-2.375 12.086-12.513 2.48-10.139 2.192-22.855-8.451-26.186-10.643-3.331-15.316 3.65-15.316 7.01Z" fill="#FFEDE5"/><path d="M175.769 40.234s-.577-4.084-2.769-6.314c-2.192-2.23-6.692-3.737-5.855-7.3 0 0-2.884 1.71-8.076 1.71s-8.768 4.054-8.249 10.948l-.664-.463s-2.48-9.79.548-14.541c3.058-4.75 10.268-7.763 16.095-6.112 5.826 1.651 12.373 5.562 11.796 13.209a50.533 50.533 0 0 1-1.038 7.212c0-.029-1.673.232-1.788 1.651Z" fill="#3B2645"/><path d="M155.435 41.422a.859.859 0 0 1-.866-.811l-.028-.522c0-.463.346-.84.807-.868.462 0 .837.347.865.81l.029.522c0 .463-.346.869-.807.869ZM168.328 41.856a.81.81 0 0 1-.693-.955l.087-.522a.806.806 0 0 1 .952-.695.81.81 0 0 1 .692.956l-.087.521a.857.857 0 0 1-.951.695ZM152.435 37.888s.779-.869 2.596-.898c1.817-.029 2.394.145 2.509-.434.116-.58-3.778-2.057-5.105 1.332ZM171.385 37.627s-.865-.81-2.827-.724c-1.961.087-2.538.29-2.682-.26-.144-.55 3.98-2.318 5.509.984Z" fill="#472938"/><path d="m166.251 50.43-7.615-.26s.404 5.243 3.807 5.156c3.404-.087 3.808-4.896 3.808-4.896Z" fill="#fff"/><path d="M161.982 48.142c-.49 0-.952-.116-1.327-.29a1.16 1.16 0 0 1-.577-.666c-.173-.666.173-2.288.577-4.316l.144-.637c.664-3.273-1.124-4.171-1.211-4.2-.086-.03-.115-.145-.086-.232.028-.087.144-.116.23-.087.087.03 2.106 1.043 1.385 4.577l-.144.637c-.404 1.912-.722 3.592-.577 4.171.057.174.173.319.403.464.548.29 1.414.347 2.221.087a.196.196 0 0 1 .231.116c.029.086-.029.202-.115.231a5.245 5.245 0 0 1-1.154.145Z" fill="#472938"/><path d="M189.498 73.835s6.028.29 9.028 8.922c3 8.603 12.489 33.63 12.864 38.235.375 4.606-1.039 8.314-7.586 9.675-5.567 1.159-20.334-3.157-21.545-3.273-1.212-.116-4.644-.203-5.798-2.202-1.154-1.998-1.788-5.387-1.788-5.387s-3.029-1.159-3.548-1.159c-.519 0-4.182.232-4.528-.319-.346-.55-.346-1.593-.231-2.085 0 0-.634-1.159-.433-1.854 0 0-.663-1.68-.605-2.057.057-.376 1.846-1.477 2.221-1.564.375-.087 4.701-.261 4.701-.261s-1.298-1.593-1.529-1.651c-.23-.058-3.317.058-3.317.058l-.057.782s-.837-.724-.981-1.129c-.144-.406.115-1.593.462-1.738.346-.145 4.441-1.506 5.682-1.072 1.24.435 5.191 2.868 5.711 3.679.519.811 3.432 8.95 4.355 9.559.923.608 5.653 1.274 13.21-.348l-10.759-27.315 4.471-17.496Z" fill="#FFEDE5"/></svg>