<svg id="e495e1cf-8fdd-412c-8a7a-dc3939f860af" data-name="Layer 2" xmlns="http://www.w3.org/2000/svg" viewBox="0 0 1570 1118.85"><defs><style>.b4206fe3-9e55-4eef-ab12-817a6f41fc91{opacity:0.14;}.ebe5d1da-e755-486b-8351-2321fc9f4605{fill:#48dcfc;}.b9b21f37-e825-4745-af23-aca4b07e117a{fill:#1cd0a1;}.ec8cdbd5-11c6-4946-b09b-adce9357235b{fill:#10ac85;}.a7dfbca0-a5ea-455d-acf1-186b1b50c9ac{fill:#f9dad2;}.fc1fcdac-86c1-4e65-82b5-5b2cacdb0955{fill:#ff6b6b;}.bc3c9206-2b2f-4088-9a2e-373cf7a26a2e{fill:#2d4d66;}.aafaf3f0-d992-4de0-b19b-a53b24997a4e{opacity:0.18;}.a73efcff-78a9-4c78-bd2a-290b4d26be40{fill:#2e3436;}.bd72565a-2150-4c06-bd2a-c66bf25b1c89{fill:#341e97;}.b92e4a28-0a99-48c8-934e-1eed20b378ef{fill:#54a0ff;}.a3e3fcb0-fae6-4b6c-ad83-5133efb1dfc0{fill:#fff;}.abea5ff3-1dd9-409c-b84e-725961785985{opacity:0.04;}.a8b4e574-1a78-43d5-875e-6dcc0e86d04e{opacity:0.07;}.bf1bff05-5a4b-4fdf-a9e1-76a6c058824d{opacity:0.65;}.eff22685-7d32-43dc-934a-32afe57b0e85{opacity:0.16;}.beaed170-b221-495d-9855-1c860d13ca28{opacity:0.4;}.efd41052-a365-4ec4-a8df-707a005dc181{opacity:0.28;}.e5a3fb1e-ae0c-423b-93a1-dde65eedf248{opacity:0.24;}</style></defs><title>homeImage_1</title><g class="b4206fe3-9e55-4eef-ab12-817a6f41fc91"><path class="ebe5d1da-e755-486b-8351-2321fc9f4605" d="M356.9,378.85c13.92,90.3,234.4,163,416.14,115.81,16.4-4.25,230-62.34,239.48-194.33,3.79-52.62-24.74-118.78-74.59-139.37C870,133,829.44,217,692.56,237.52c-114.87,17.22-153-32-231.63,5.89C408.75,268.53,348.91,327.05,356.9,378.85Z" transform="translate(0 -0.03)"/></g><g class="b4206fe3-9e55-4eef-ab12-817a6f41fc91"><path class="ebe5d1da-e755-486b-8351-2321fc9f4605" d="M1369.78,1118.88l-1224.88-2C68.7,704.34,126.47,556.09,207.71,506.4c154-94.2,402.53,159.81,653.66,31.41,95.71-48.93,138.73-126.26,253.22-129.55,114.15-3.29,199.72,69.88,215.93,84.4C1464.45,612.64,1482,865,1369.78,1118.88Z" transform="translate(0 -0.03)"/></g><path class="b9b21f37-e825-4745-af23-aca4b07e117a" d="M1314.9,1089.12q6.54-35.07,14.36-69.83c7.36-32.74,16.69-67.29,39.76-89.13,27.84-26.35,69.55-28.16,97.23-54.72,14.39-13.8,23.62-33.09,30.85-52.66,20.77-56.23,27.51-118.82,19.26-178.93C1521.9,698.79,1542,751.73,1541.2,807c-1,68-36.59,134.06-89.91,167-20.72,12.81-44.12,21.16-61.57,39-23.52,24.1-34.7,63.93-64.14,77.73" transform="translate(0 -0.03)"/><path class="ec8cdbd5-11c6-4946-b09b-adce9357235b" d="M1329.54,1075.3c2.71-19.86,15-36.4,28.43-49.81,26.91-26.91,60.31-45.66,95.72-53.72,28.75-6.54,60.11-6.77,84.23-25.4,15.12-11.67,25.7-29.62,32.08-48.85-7.69,25.34-7.52,53.83-19.81,76.81-7.3,13.64-18.45,24.17-30,33.43a267.08,267.08,0,0,1-101,50.7c-17,4.31-34.65,6.92-50.43,15.25-19.06,10-33.94,27.62-48.35,44.79" transform="translate(0 -0.03)"/><path class="ec8cdbd5-11c6-4946-b09b-adce9357235b" d="M1341.07,1055.51c-2.71-46.55,2.71-95.58,26-134.35,14.5-24.17,35.17-43.12,49.66-67.3,21.61-36,27.82-83,16.46-124.47l-12.09,36.15c-3.44,10.29-6.92,20.68-12.24,29.92-11.39,19.8-30,32.6-46.14,47.78-26.18,24.68-46.52,57-58.43,92.86-12.13,36.47-15,79.28,2.64,112.86,10.26,19.57,26.48,34.28,43,47.54" transform="translate(0 -0.03)"/><path class="b9b21f37-e825-4745-af23-aca4b07e117a" d="M239.37,1074.55q-2.69-25-6.27-49.94c-3.38-23.45-8-48.28-23.09-64.91-18.15-20.08-47.4-23.65-65.43-43.86-9.37-10.5-14.8-24.59-18.82-38.76a264.21,264.21,0,0,1-3.72-127c-6.92,38.37-24,74.52-26.45,113.48C92.59,911.47,114,959.92,149.7,986c13.88,10.15,29.89,17.32,41.19,30.86,15.22,18.25,20.91,46.9,40.87,58.23" transform="translate(0 -0.03)"/><path class="ec8cdbd5-11c6-4946-b09b-adce9357235b" d="M0,863.19c5.68,25.86,3.3,54.26,13.76,78.12C20,955.48,30.27,966.84,41.09,977a267.22,267.22,0,0,0,96.72,58.4c16.64,5.62,34,9.6,49.09,19.13,18.22,11.5,31.69,30.18,44.71,48.42" transform="translate(0 -0.03)"/><path class="ec8cdbd5-11c6-4946-b09b-adce9357235b" d="M225.88,1059.15c-1.15-20-12.13-37.47-24.46-51.88-24.73-28.92-56.58-50.21-91.25-61-28.15-8.76-59.4-11.43-82-31.88C14,901.58,4.85,882.86,0,863.19" transform="translate(0 -0.03)"/><path class="ec8cdbd5-11c6-4946-b09b-adce9357235b" d="M212,1068c6.33-46.2,4.74-95.5-15.43-136-12.57-25.23-31.71-45.73-44.28-71C133.56,823.36,131,776,145.57,735.58l9.24,37c2.63,10.53,5.3,21.16,9.88,30.79C174.5,824,192.09,838.21,207,854.6c24.18,26.64,41.94,60.44,51,97.12,9.25,37.31,8.75,80.21-11.42,112.31-11.75,18.71-1.77,42.85-19.24,54.79" transform="translate(0 -0.03)"/><path class="a7dfbca0-a5ea-455d-acf1-186b1b50c9ac" d="M610.45,196.31c14-5.51,22,20,22,20-.42-12.73,4.68-18.67,6.37-11s3,24.19,3,24.19l60,107.81L788.3,379l-39.7,61.67h-.12v-.07l-.32-.2q-2.53-1.26-5.16-2.6-4.29-2.2-8.8-4.64l-.28-.16c-3.68-2-7.49-4.09-11.35-6.32-1.63-.92-3.26-1.89-4.91-2.84-6.59-3.88-36.25-20.66-58.32-71.33-2.77-6.37-36.14-113.84-36.14-113.84C600.73,220.39,595.05,202.39,610.45,196.31Z" transform="translate(0 -0.03)"/><path class="fc1fcdac-86c1-4e65-82b5-5b2cacdb0955" d="M748.67,440.79A429.4,429.4,0,0,1,664,390C674.74,361.22,710.54,336,710.54,336l69.27,35Z" transform="translate(0 -0.03)"/><polygon class="a7dfbca0-a5ea-455d-acf1-186b1b50c9ac" points="784.37 1054.55 782.89 1084.16 752.95 1085.42 750.51 1048.74 784.37 1054.55"/><polygon class="fc1fcdac-86c1-4e65-82b5-5b2cacdb0955" points="752.63 1076.54 707.47 1118.85 786.48 1118.1 783.77 1076.01 752.63 1076.54"/><polygon class="a7dfbca0-a5ea-455d-acf1-186b1b50c9ac" points="899.64 1049.33 899.6 1078.97 870.03 1084.74 863.73 1048.72 899.64 1049.33"/><polygon class="fc1fcdac-86c1-4e65-82b5-5b2cacdb0955" points="868.37 1076.6 820.87 1118.13 904.52 1118.31 899.64 1076.49 868.37 1076.6"/><path class="bc3c9206-2b2f-4088-9a2e-373cf7a26a2e" d="M811.57,716.72c-7.37,67.35-15.82,145.61-16.13,152.22-.54,11.74-4.71,190-4.71,190l-5.9,1.53a56.32,56.32,0,0,1-33.58-1.87l-7.23-2.72s-13.41-158.69-14.77-203c-.62-21.39-.1-234.27-.1-234.27l93.17-.18S817.27,664.21,811.57,716.72Z" transform="translate(0 -0.03)"/><path class="bc3c9206-2b2f-4088-9a2e-373cf7a26a2e" d="M904.56,1058.25c-1.8.77-3.63,1.49-5.46,2.07a59.74,59.74,0,0,1-39.31-.66l-2.35-.86s-38-221.23-55.41-351.74c0,0-37.84-181-16.5-87.34-6.17-46.29,9.07,6.47,9.74-3.11l74.91,5.52,22.79,2Z" transform="translate(0 -0.03)"/><g class="aafaf3f0-d992-4de0-b19b-a53b24997a4e"><polygon points="803.47 758.9 801.27 687.08 807.98 726.58 803.47 758.9"/></g><path class="a7dfbca0-a5ea-455d-acf1-186b1b50c9ac" d="M1019,190.42c-14-5.51-22,20-22,20,.41-12.73-4.68-18.66-6.37-11s-3,24.19-3,24.19l-60,107.81-86.43,41.66,39.65,61.77H881l.06-.07.32-.2q2.54-1.26,5.16-2.6,4.29-2.21,8.8-4.64l.28-.16c3.68-2,7.48-4.09,11.35-6.32,1.63-.91,3.26-1.89,4.91-2.84,6.59-3.88,36.25-20.66,58.32-71.33,2.72-6.34,36.08-113.81,36.08-113.81C1028.8,214.5,1034.45,196.5,1019,190.42Z" transform="translate(0 -0.03)"/><path class="fc1fcdac-86c1-4e65-82b5-5b2cacdb0955" d="M727.12,589.49c.16,4.65.34,9.06.56,13.08.93,19,2.08,30.91,2.08,30.91a77.89,77.89,0,0,0,17.38,4l1,.12c26.33,3.33,67.31,2,99.32.07,8.75-.54,16.87-1.14,23.77-1.69h0c3-.21,5.72-.43,8.2-.6C889.05,634.53,895,634,895,634a128.27,128.27,0,0,1-1.63-16.48c-.34-16-2.18-33.31-3.33-54.83h0q-.45-8.76-.75-18.45c0-2.71-.11-5.47-.16-8.3h0V535c-.07-4.72-.06-9.58,0-14.68,0-2.2.06-4.4.11-6.69q.26-13.1,1.24-28.11c.19-3.14.43-6.36.7-9.7.13-2.09.34-4.24.5-6.41.16-1.69.32-3.42.47-5.14.27-2.72.52-5.26.66-7.82h0c0-.66.07-1.34.12-2h0q.66-10.08.52-18.65a161,161,0,0,0-1.49-20.69,96.23,96.23,0,0,0-5.69-22.53,53.24,53.24,0,0,0-9-15.34c-.33-.38-.67-.75-1-1.11a35,35,0,0,0-11.26-8.21h-.05a.38.38,0,0,0-.15,0,30,30,0,0,0-6.85-2.15,21.5,21.5,0,0,0-5.37-.38l-6.95-.24-23.88-.83-14.78-.51-9-.31a33.11,33.11,0,0,0-9.51,1l-.48.11c-.84.21-1.72.46-2.64.74h0l-.39.12h-.06c-1.14.36-2.35.8-3.6,1.32h0c-1,.41-2,.86-3,1.38s-2.26,1.16-3.41,1.83a51.76,51.76,0,0,0-4.67,3.1h0a60.57,60.57,0,0,0-9.2,8.4c-.8.89-1.61,1.81-2.4,2.79A83,83,0,0,0,750,397.14c-.1.19-.21.38-.31.58-.65,1.18-1.28,2.43-1.88,3.69-1,2.07-2,4.26-2.94,6.57h0c-.45,1.08-.87,2.19-1.29,3.33a141.83,141.83,0,0,0-5.19,16.76c-.46,1.75-.89,3.56-1.3,5.4-.12.56-.24,1.13-.37,1.69-1.5,7.25-2.82,14.69-3.93,22.27-1.07,6.94-1.94,14-2.66,21.11l-.27,2.69c-1.26,12.5-2.08,25.06-2.62,37.35-.18,4.41-.33,8.77-.42,13C726.19,553,726.51,573,727.12,589.49Z" transform="translate(0 -0.03)"/><path class="a7dfbca0-a5ea-455d-acf1-186b1b50c9ac" d="M798,366.26l4.87-30,27.31,3-2.55,30.6a15,15,0,0,1-16.25,13.64l-.29,0h0A15,15,0,0,1,797.94,367C798,366.73,798,366.49,798,366.26Z" transform="translate(0 -0.03)"/><ellipse class="a7dfbca0-a5ea-455d-acf1-186b1b50c9ac" cx="818.13" cy="305.65" rx="49.62" ry="44.71" transform="translate(461.57 1102.88) rotate(-86.39)"/><g class="aafaf3f0-d992-4de0-b19b-a53b24997a4e"><path d="M799.1,359.73s13.09,2.92,21.53-4.61c0,0-13.73,1.47-20.19-3.65Z" transform="translate(0 -0.03)"/></g><path class="a73efcff-78a9-4c78-bd2a-290b4d26be40" d="M770.74,265.84S760.39,257,767,249.12s16.32-5.8,16.32-5.8,1.34-5.6,8.69-7.77,73.62-1.39,72.55,43.1c3.36,2.92,7.41,10.47,4.34,30,0,.13-.09.25-.13.38-7.69,25.57-19.52,34.18-25.08,33.53,4.37-10,13.26-30.44,6.3-31.85-2.74-.55-6,1.73-9,5-2.51,2.69-3.52-5.91-5.53-14.73h0s-9.58,2.53-11.37-11.51c0,0-34.36,5.31-54.36-6.13S770.74,265.84,770.74,265.84Z" transform="translate(0 -0.03)"/><ellipse class="a7dfbca0-a5ea-455d-acf1-186b1b50c9ac" cx="846.75" cy="317.42" rx="17.62" ry="14.15" transform="translate(476.65 1142.48) rotate(-86.39)"/><path class="fc1fcdac-86c1-4e65-82b5-5b2cacdb0955" d="M880.86,434.91a429.44,429.44,0,0,0,84.66-50.83C954.79,355.33,919,330.15,919,330.15l-69.27,35Z" transform="translate(0 -0.03)"/><rect class="fc1fcdac-86c1-4e65-82b5-5b2cacdb0955" x="1014.49" y="376.85" width="41.22" height="41.22"/><rect class="fc1fcdac-86c1-4e65-82b5-5b2cacdb0955" x="1110.67" y="337.6" width="27.48" height="27.48"/><rect class="fc1fcdac-86c1-4e65-82b5-5b2cacdb0955" x="1046.88" y="302.26" width="21.59" height="21.59"/><rect class="fc1fcdac-86c1-4e65-82b5-5b2cacdb0955" x="1091.04" y="427.89" width="33.37" height="33.37"/><rect class="fc1fcdac-86c1-4e65-82b5-5b2cacdb0955" x="213.61" y="312.08" width="41.22" height="41.22"/><rect class="fc1fcdac-86c1-4e65-82b5-5b2cacdb0955" x="309.79" y="272.82" width="27.48" height="27.48"/><rect class="fc1fcdac-86c1-4e65-82b5-5b2cacdb0955" x="246" y="237.49" width="21.59" height="21.59"/><rect class="fc1fcdac-86c1-4e65-82b5-5b2cacdb0955" x="290.16" y="363.11" width="33.37" height="33.37"/><rect class="fc1fcdac-86c1-4e65-82b5-5b2cacdb0955" x="1365.85" y="577.07" width="41.22" height="41.22"/><rect class="fc1fcdac-86c1-4e65-82b5-5b2cacdb0955" x="1462.04" y="537.82" width="27.48" height="27.48"/><rect class="fc1fcdac-86c1-4e65-82b5-5b2cacdb0955" x="1398.24" y="502.48" width="21.59" height="21.59"/><rect class="fc1fcdac-86c1-4e65-82b5-5b2cacdb0955" x="1442.41" y="628.11" width="33.37" height="33.37"/><rect class="bc3c9206-2b2f-4088-9a2e-373cf7a26a2e" x="482.53" y="196.26" width="657.59" height="17.67"/><rect class="bd72565a-2150-4c06-bd2a-c66bf25b1c89" x="439.35" y="105.97" width="54.96" height="200.22" rx="11.41"/><path class="bd72565a-2150-4c06-bd2a-c66bf25b1c89" d="M447.19,270.47H421.36a9.5,9.5,0,0,1-9.5-9.5h0V151.25a9.49,9.49,0,0,1,9.49-9.49h25.84Z" transform="translate(0 -0.03)"/><path class="bd72565a-2150-4c06-bd2a-c66bf25b1c89" d="M414.25,243.41h-11a9.5,9.5,0,0,1-9.5-9.5v-55.6a9.49,9.49,0,0,1,9.49-9.49h11Z" transform="translate(0 -0.03)"/><rect class="bd72565a-2150-4c06-bd2a-c66bf25b1c89" x="1133.8" y="105.97" width="54.96" height="200.22" rx="11.41"/><path class="bd72565a-2150-4c06-bd2a-c66bf25b1c89" d="M1180.91,270.47h25.83a9.5,9.5,0,0,0,9.5-9.5h0V151.25a9.49,9.49,0,0,0-9.49-9.49h-25.84Z" transform="translate(0 -0.03)"/><path class="bd72565a-2150-4c06-bd2a-c66bf25b1c89" d="M1213.86,243.41h11a9.5,9.5,0,0,0,9.5-9.5v-55.6a9.49,9.49,0,0,0-9.49-9.49h-11Z" transform="translate(0 -0.03)"/><rect class="bd72565a-2150-4c06-bd2a-c66bf25b1c89" x="1031.09" y="704.67" width="322.09" height="414.18"/><rect class="b92e4a28-0a99-48c8-934e-1eed20b378ef" x="989.86" y="704.67" width="301.49" height="414.18"/><rect class="a3e3fcb0-fae6-4b6c-ad83-5133efb1dfc0" x="1013.48" y="742.81" width="250.69" height="153.95"/><rect class="a3e3fcb0-fae6-4b6c-ad83-5133efb1dfc0" x="1013.48" y="934.01" width="250.69" height="153.95"/><rect class="b92e4a28-0a99-48c8-934e-1eed20b378ef" x="1098.86" y="735.55" width="67.21" height="21.8"/><rect class="b92e4a28-0a99-48c8-934e-1eed20b378ef" x="1098.86" y="922.66" width="67.21" height="21.8"/><path class="fc1fcdac-86c1-4e65-82b5-5b2cacdb0955" d="M1266.05,559.93a69,69,0,0,1-20.27,48.94l-96.72,96.71-.41-.41-.39.41-96.72-96.71a69.2,69.2,0,0,1,97.11-98.6A69.2,69.2,0,0,1,1266,560Z" transform="translate(0 -0.03)"/><g class="abea5ff3-1dd9-409c-b84e-725961785985"><path d="M1266.05,559.93a69,69,0,0,1-20.27,48.94l-96.72,96.71-.41-.41-.39.41-96.72-96.71a69.36,69.36,0,0,1-19.67-58.1c20.6,22.31,44.43,55.47,76.83,51.86,25.58-2.85,49-27.78,56.93-55,5.65-19.49,2.39-37-1.59-48.68a69.2,69.2,0,0,1,77.79,8.38c1.36,1.14,2.67,2.36,4,3.64A68.92,68.92,0,0,1,1266.05,559.93Z" transform="translate(0 -0.03)"/></g><g class="abea5ff3-1dd9-409c-b84e-725961785985"><path d="M1266.05,559.93a69,69,0,0,1-20.27,48.94l-96.72,96.71-.41-.41-.39.41-96.72-96.71a69.05,69.05,0,0,1-15.8-24.42c31.53,34.8,68,83.09,117.07,77.63,40.06-4.45,76.81-43.49,89.18-86.09,7.69-26.54,4.85-50.72-.16-68.63,1.36,1.14,2.67,2.36,4,3.64A68.94,68.94,0,0,1,1266.05,559.93Z" transform="translate(0 -0.03)"/></g><path class="a3e3fcb0-fae6-4b6c-ad83-5133efb1dfc0" d="M1135,618.84h-.12a2.22,2.22,0,0,1-2.11-2l-5.2-57.2-9,26.88a2.22,2.22,0,0,1-2.11,1.52h-37a2.23,2.23,0,0,1,0-4.46h35.39l11.82-35.47a2.23,2.23,0,0,1,4.34.5l4.78,52.5,3.14-15.74a2.24,2.24,0,0,1,2.19-1.79h29.09l5.74-23c.5-2,3.84-2,4.33,0l5.75,23h22.92a2.23,2.23,0,0,1,0,4.46h-24.67a2.23,2.23,0,0,1-2.16-1.69l-4-16-4,16a2.25,2.25,0,0,1-2.17,1.69h-29l-5.8,29A2.23,2.23,0,0,1,1135,618.84Z" transform="translate(0 -0.03)"/><g class="a8b4e574-1a78-43d5-875e-6dcc0e86d04e"><path class="a3e3fcb0-fae6-4b6c-ad83-5133efb1dfc0" d="M1063.56,563.37c9.34,23.5,42.32,30.92,62.81,17.66,13.32-8.61,21.85-26.28,17.67-43.18-5.29-21.36-29.26-35-51-29.44C1069.15,514.52,1055,541.91,1063.56,563.37Z" transform="translate(0 -0.03)"/></g><path class="fc1fcdac-86c1-4e65-82b5-5b2cacdb0955" d="M884.29,49a48.8,48.8,0,0,1-14.35,34.67L801.5,152.07l-.29-.29-.28.29L732.5,83.64a49,49,0,0,1,68.71-69.77,48.31,48.31,0,0,1,10.89-8A49,49,0,0,1,884.29,49Z" transform="translate(0 -0.03)"/><g class="abea5ff3-1dd9-409c-b84e-725961785985"><path d="M884.29,49a48.8,48.8,0,0,1-14.35,34.67L801.5,152.07l-.29-.29-.28.29L732.5,83.64a49,49,0,0,1-13.92-41.12C733.15,58.32,750,81.78,773,79.22c18.09-2,34.69-19.65,40.28-38.89A57.23,57.23,0,0,0,812.1,5.88a49,49,0,0,1,55,5.93,35.83,35.83,0,0,1,2.79,2.57A48.79,48.79,0,0,1,884.29,49Z" transform="translate(0 -0.03)"/></g><g class="abea5ff3-1dd9-409c-b84e-725961785985"><path d="M884.29,49a48.8,48.8,0,0,1-14.35,34.67L801.5,152.07l-.29-.29-.28.29L732.5,83.64a48.75,48.75,0,0,1-11.18-17.28c22.31,24.63,48.13,58.79,82.84,54.93,28.35-3.15,54.35-30.78,63.1-60.92a88.36,88.36,0,0,0-.11-48.56,35.83,35.83,0,0,1,2.79,2.57A48.79,48.79,0,0,1,884.29,49Z" transform="translate(0 -0.03)"/></g><path class="a3e3fcb0-fae6-4b6c-ad83-5133efb1dfc0" d="M791.52,90.64h-.07A1.58,1.58,0,0,1,790,89.21l-3.68-40.47-6.34,19a1.57,1.57,0,0,1-1.49,1.1h-26.2a1.58,1.58,0,1,1,0-3.16h25l8.36-25.1a1.58,1.58,0,0,1,3.08.36l3.37,37.14L794.29,67a1.58,1.58,0,0,1,1.55-1.27h20.61l4.06-16.25a1.64,1.64,0,0,1,2.11-1,1.68,1.68,0,0,1,1,1l4.07,16.21h16.22a1.58,1.58,0,0,1,0,3.16H826.45a1.55,1.55,0,0,1-1.53-1.2l-2.83-11.32-2.86,11.36a1.58,1.58,0,0,1-1.54,1.2H797.17l-4.11,20.55A1.56,1.56,0,0,1,791.52,90.64Z" transform="translate(0 -0.03)"/><g class="a8b4e574-1a78-43d5-875e-6dcc0e86d04e"><path class="a3e3fcb0-fae6-4b6c-ad83-5133efb1dfc0" d="M741,51.4c6.61,16.63,30,21.88,44.45,12.5,9.42-6.09,15.46-18.59,12.5-30.55-3.74-15.12-20.71-24.79-36.12-20.84C745,16.84,735,36.22,741,51.4Z" transform="translate(0 -0.03)"/></g><rect class="ebe5d1da-e755-486b-8351-2321fc9f4605" x="206.78" y="459.3" width="429.81" height="659.55"/><g class="bf1bff05-5a4b-4fdf-a9e1-76a6c058824d"><path class="a3e3fcb0-fae6-4b6c-ad83-5133efb1dfc0" d="M555.15,555.23v31.31A10.43,10.43,0,0,1,544.73,597h-2.22v8a11,11,0,0,1-11,11h-8.26v11.82A13.18,13.18,0,0,1,510.08,641H498a13.18,13.18,0,0,1-13.19-13.17V586.05H360.08v44.52a13.18,13.18,0,0,1-13.17,13.19h-12.1a13.18,13.18,0,0,1-13.19-13.17v-12h-8.24a11,11,0,0,1-11-11v-8h-2.22a10.43,10.43,0,0,1-10.44-10.44V557.87a10.43,10.43,0,0,1,10.42-10.44h2.24v-8a11,11,0,0,1,11-11h8.24V516.6a13.17,13.17,0,0,1,13.19-13h12.08a13.18,13.18,0,0,1,13.19,13.17h0v44.5H484.8V514.08A13.18,13.18,0,0,1,498,500.89h12.1a13.18,13.18,0,0,1,13.19,13.17v11.85h8.26a11,11,0,0,1,11,11h0v8h2.2A10.45,10.45,0,0,1,555.15,555.23Z" transform="translate(0 -0.03)"/></g><g class="eff22685-7d32-43dc-934a-32afe57b0e85"><polygon class="a3e3fcb0-fae6-4b6c-ad83-5133efb1dfc0" points="627.97 459.3 207.72 1118.85 206.78 1116.96 206.78 459.3 627.97 459.3"/></g><g class="beaed170-b221-495d-9855-1c860d13ca28"><rect class="a3e3fcb0-fae6-4b6c-ad83-5133efb1dfc0" x="264.64" y="726.26" width="308.18" height="21.59" rx="5.5"/></g><g class="efd41052-a365-4ec4-a8df-707a005dc181"><rect class="a3e3fcb0-fae6-4b6c-ad83-5133efb1dfc0" x="264.64" y="793" width="308.18" height="21.59" rx="5.5"/></g><g class="efd41052-a365-4ec4-a8df-707a005dc181"><rect class="a3e3fcb0-fae6-4b6c-ad83-5133efb1dfc0" x="264.64" y="869.55" width="308.18" height="21.59" rx="5.5"/></g><g class="e5a3fb1e-ae0c-423b-93a1-dde65eedf248"><rect class="a3e3fcb0-fae6-4b6c-ad83-5133efb1dfc0" x="264.64" y="944.15" width="308.18" height="21.59" rx="5.5"/></g><g class="e5a3fb1e-ae0c-423b-93a1-dde65eedf248"><rect class="a3e3fcb0-fae6-4b6c-ad83-5133efb1dfc0" x="264.64" y="1022.66" width="308.18" height="21.59" rx="5.5"/></g><rect class="bc3c9206-2b2f-4088-9a2e-373cf7a26a2e" x="337.27" y="423.97" width="170.78" height="58.89"/></svg>