<svg id="b5faaf74-60aa-4cfa-b004-8b00a22a6527" data-name="Layer 2" xmlns="http://www.w3.org/2000/svg" viewBox="0 0 1030.48 990.02"><defs><style>.be95bade-1848-4152-8bbc-8b70f85705b7{fill:#bcbcd3}.ebd24585-a4b1-4f26-829d-059c51e9dc82{fill:#ffcf4a}.b5bbec95-0b53-49ac-9101-cf3b75bef956{fill:#d86d68}.a24feb71-7d55-48ae-9372-081bc7cdfc1f{fill:#64e2e2}.e13fd9f1-f7ec-40e7-bbf5-4cb5d669dd17{fill:#472b59}.a5ee3ce2-3096-4e1e-9a6a-08a772f1e1e8{fill:#f48e82}.b51cebb7-82c2-4c13-a3f8-da11c59d11f5{fill:#643e75}.e5647406-89a6-4d1f-9e72-e75a7fa9e788{fill:#8c3838}.ed1b6d77-c804-41df-ae4a-145e85eb2d31{fill:#704c84}.ef7fb61d-7a84-4921-a87d-cd23e92e20bd{fill:#c24dd6}.bbdb9e17-4c33-4e39-a435-4a13758e5f1e{fill:#a842c1}.f2f29465-5021-45d2-91b4-5eb8a36a459e{fill:#4d434f}.e75f449b-e5a1-4653-8caf-c98aaa919d81{fill:#fff}.e56264ff-d19b-4315-82aa-94aca8ceffca{fill:#f4a19a}</style></defs><path class="be95bade-1848-4152-8bbc-8b70f85705b7" d="M80.83 405.68h648.25v22.21H80.83z"/><rect class="be95bade-1848-4152-8bbc-8b70f85705b7" x="42.41" y="319.65" width="38.41" height="194.27" rx="18.73"/><rect class="be95bade-1848-4152-8bbc-8b70f85705b7" x="4" y="340.26" width="38.41" height="153.03" rx="18.73"/><rect class="be95bade-1848-4152-8bbc-8b70f85705b7" x="760.22" y="340.26" width="38.41" height="153.03" rx="18.73"/><rect class="be95bade-1848-4152-8bbc-8b70f85705b7" x="721.81" y="319.65" width="38.41" height="194.27" rx="18.73"/><path class="be95bade-1848-4152-8bbc-8b70f85705b7" d="M117.7 388.01h38.74v602.01H117.7zM644.21 388.01h38.74v602.01h-38.74z"/><circle class="ebd24585-a4b1-4f26-829d-059c51e9dc82" cx="788.77" cy="739.96" r="241.69"/><circle class="ebd24585-a4b1-4f26-829d-059c51e9dc82" cx="788.77" cy="739.96" r="241.69"/><path d="M1003.23 663.69c0 133.49-108.2 241.7-241.69 241.7a241.59 241.59 0 0 1-210.75-123.34c19.91 113.43 118.9 199.62 238 199.62 133.48 0 241.69-108.21 241.69-241.69a240.55 240.55 0 0 0-30.93-118.36 242.22 242.22 0 0 1 3.68 42.07Z" transform="translate(0 -.01)" style="fill:#e0b13b"/><path d="M593.83 597.1a262.27 262.27 0 0 0 80.85 12.56c84.94 0 158.65-39.47 195.49-97.31a242 242 0 0 0-276.34 84.75Z" transform="translate(0 -.01)" style="fill:#ffd671"/><path class="b5bbec95-0b53-49ac-9101-cf3b75bef956" d="M588.48 223.68C556 234.06 650.41 415.35 658 440.57s48.6 146 66.51 171.42l24.57-6.79s-29.81-120-58.41-181.41-18.97-226.64-102.19-200.11Z" transform="translate(0 -.01)"/><path d="m588.23 536.7-92.69 71.92s163 86.61 235 86.61c-48.88 49.77-29.54 186.28-39.87 248h39.44c.86-76.31 84-245.23 73.74-273.53S697.89 558 588.23 536.7Z" transform="translate(0 -.01)" style="fill:#4f1e56"/><path d="M543.85 9c-24.54-12.25-64.51 5.26-84.53 30.94-19.19 24.62-2.77 52.09 21.77 64.33s55.74-.47 69.68-28.4S568.4 21.16 543.85 9Z" transform="translate(0 -.01)" style="fill:#59376b"/><circle class="a24feb71-7d55-48ae-9372-081bc7cdfc1f" cx="535.94" cy="47.23" r="25.15" transform="rotate(-16.81 535.866 47.227)"/><path class="e13fd9f1-f7ec-40e7-bbf5-4cb5d669dd17" d="M517.23 84s-5.39 68.34 63.35 67.72l10.65-94.88-37 5.74Z" transform="translate(0 -.01)"/><path class="b5bbec95-0b53-49ac-9101-cf3b75bef956" d="M616.23 161.84s-30.1-35.31-37.28-15.57-13.21 76.47-13.21 76.47l50.9 5.39s-6.88-35.91-.41-66.29Z" transform="translate(0 -.01)"/><path class="e13fd9f1-f7ec-40e7-bbf5-4cb5d669dd17" d="m651.67 40 4.7 43.87s10.36 2.33 16.76-8.09V57.27L662.4 37Z" transform="translate(0 -.01)"/><path class="a5ee3ce2-3096-4e1e-9a6a-08a772f1e1e8" d="M656.23 24.88 604 15.34l-37.16 29.12-4.4 73.83s0 43.88 81 53.24a16.4 16.4 0 0 0 17.26-10.42c9.72-25.83 12.15-58.9 6.07-75-7.07-18.54-2.05-44.11-10.54-61.23Z" transform="translate(0 -.01)"/><path class="b51cebb7-82c2-4c13-a3f8-da11c59d11f5" d="M606.85 2.28c-17.7-6-41.06 0-67 16.93s-50.47 56.52-17.71 68.19 89.27 6 103-68.19c0 0-.59-10.9-18.29-16.93Z" transform="translate(0 -.01)"/><path class="b51cebb7-82c2-4c13-a3f8-da11c59d11f5" d="M637 4.16c-38-8.28-50.09 0-50.09 0l38.25 15c31.42 35.42 49.12 30.15 48 56.52C692.34 42.2 675 12.45 637 4.16Z" transform="translate(0 -.01)"/><path class="a5ee3ce2-3096-4e1e-9a6a-08a772f1e1e8" d="M538.3 102.84c8.66 18.46 24.1 15.45 24.1 15.45L564 90.8c-18.17-19.97-34.36-6.41-25.7 12.04Z" transform="translate(0 -.01)"/><path d="M615.4 221.19c-34.68-8.18-76.48-12-88.7 40s14.79 183.29-47 232.16-84.24 15.44-94.53 104.83c-43.09 71.38-70.1 90.67-102.9 153.06C221.82 754.45 103.49 877.93 45 900.43l16 23.16S258.48 811 324.71 796.25C398.71 766 580 550.59 580 550.59s61.09-82.32 72-162.06l24-23.63a23.76 23.76 0 0 0 2.83-30.56c-16.6-23.88-47.12-70.34-63.43-113.15Z" transform="translate(0 -.01)" style="fill:#622968"/><path class="a24feb71-7d55-48ae-9372-081bc7cdfc1f" d="M615.4 221.19c-34.68-8.18-76.48-12-88.7 40s14.79 183.29-47 232.16a193.58 193.58 0 0 1-35 22.33c52.83 46 110.48 34.49 145.71 19.8 17.92-27.38 53.55-87.87 61.65-147l27-26.51a18.94 18.94 0 0 0 2.17-24.45c-16.1-22.67-48.75-71.52-65.83-116.33Z" transform="translate(0 -.01)"/><path d="m574.93 368.21 33.87 29.16-19.72 6.43 21.86 2.14s-6.46 101-57.89 140.54a171.14 171.14 0 0 0 37.41-11c17.92-27.38 53.55-87.87 61.65-147l28.36-28c-84.9 22.77-105.54 7.73-105.54 7.73Z" transform="translate(0 -.01)" style="fill:#4fc6c0"/><path class="e5647406-89a6-4d1f-9e72-e75a7fa9e788" d="M654.94 114.59a135.55 135.55 0 0 1-4.16-7 57.62 57.62 0 0 1-3.36-7.32 19.52 19.52 0 0 1-1.33-7.93 11.42 11.42 0 0 0-1.17 4.24 18.48 18.48 0 0 0 .1 4.27 31.07 31.07 0 0 0 2.37 8.07 50.15 50.15 0 0 0 4 7.43 59.68 59.68 0 0 0 4.49 6 17 17 0 0 1-2.08 1.65 26 26 0 0 1-3.57 2 33.86 33.86 0 0 1-4 1.63 37.65 37.65 0 0 1-4.31 1.19 22.22 22.22 0 0 0 4.54-.19 28.43 28.43 0 0 0 4.55-1 25.68 25.68 0 0 0 4.37-1.82 23.75 23.75 0 0 0 3.9-2.62l.92-.74-.69-1c-1.51-2.23-3.09-4.55-4.57-6.86ZM621.55 77.9c-.67.07-1.35.17-2 .28a59.25 59.25 0 0 0-8 1.79 43.23 43.23 0 0 0-7.66 3.13 26.63 26.63 0 0 0-6.3 4.82 26.57 26.57 0 0 1 6.87-3.57 38.49 38.49 0 0 1 7.36-1.6 48.27 48.27 0 0 1 7.31-.28 13.33 13.33 0 0 1 1.79.08c.59.08 1.18.08 1.77.14 1.14.11 2.38.26 3.35.45l1.79-5.71c-1.51 0-2.79.11-4.18.24-.74.06-1.42.13-2.1.23ZM656.59 76.54a23.64 23.64 0 0 0-4.45.08 7.14 7.14 0 0 0-1.12.14l-1.14.18a18.62 18.62 0 0 0-2.33.51l.78 3.64c.56-.29 1.26-.6 1.91-.86.33-.14.66-.27 1-.38l1-.36a26.36 26.36 0 0 1 4.1-1 15.84 15.84 0 0 1 4.07-.1 9.35 9.35 0 0 1 3.72 1.33 9.25 9.25 0 0 0-3.35-2.28 15.84 15.84 0 0 0-4.19-.9Z" transform="translate(0 -.01)"/><path d="M626.49 141.34c7.56 6.48 27.07 6.7 27.07 6.7l-1.56-7.72 5.39-3.21s-18.93 5.05-30.9 4.23Z" transform="translate(0 -.01)" style="fill:#840c0c"/><path class="ed1b6d77-c804-41df-ae4a-145e85eb2d31" d="M554 67.64c51.44.13 62.76-46.92 62.76-46.92C574.72 19.43 554 67.64 554 67.64ZM462.45 50.36s20.91-24.71 61.48-38.71c0 0-44.65-1.56-61.48 38.71Z" transform="translate(0 -.01)"/><path class="ef7fb61d-7a84-4921-a87d-cd23e92e20bd" d="M325.88 683.5c-9.29 12.41-18.23 24.78-27.34 39.42 0 0 84.43 25.43 117 4.11 16-15.13 32.43-31.51 48.36-48 .04.03-70.84 33.87-138.02 4.47Z" transform="translate(0 -.01)"/><path class="ef7fb61d-7a84-4921-a87d-cd23e92e20bd" d="M463.95 679.05z"/><path class="ef7fb61d-7a84-4921-a87d-cd23e92e20bd" d="m335.15 671.19-4.9 6.49c12.74 5.63 61.29 22.46 139.56-4.69l7.9-8.27s-84.98 30.11-142.56 6.47Z" transform="translate(0 -.01)"/><path class="a5ee3ce2-3096-4e1e-9a6a-08a772f1e1e8" d="M131.73 842.8C98.47 868.54 67.38 891.88 45 900.48l16.07 23.16s39.93-22.74 89.84-49.12c-16.91-4.91-19.18-31.72-19.18-31.72Z" transform="translate(0 -.01)"/><path class="a24feb71-7d55-48ae-9372-081bc7cdfc1f" d="m140.72 835.83-9.34 7.24c1.3 10.45 5.56 28.67 19.53 31.45l11.54-6.06c-3.81-2.8-19.79-5.69-21.73-32.63Z" transform="translate(0 -.01)"/><path class="b5bbec95-0b53-49ac-9101-cf3b75bef956" d="m615.4 221.19-11.4-5.53-12.64.7s44.92 86.7 47.45 95.07 15.7 2.55 14.73-2.84c-1.63-8.93-38.14-87.4-38.14-87.4Z" transform="translate(0 -.01)"/><path class="bbdb9e17-4c33-4e39-a435-4a13758e5f1e" d="M693.89 576.17s11.26 69.93 0 114c8.28 1.73 21.87 4.19 29 4.71 0-.1 14.84-35.65 0-101.36-9.14-5.91-18.83-11.76-29-17.35Z" transform="translate(0 -.01)"/><path class="b5bbec95-0b53-49ac-9101-cf3b75bef956" d="M722.87 616.18s31.15 12.58 31.54 11.41 5.89-13 5.89-13l-30-10.59c-6.21 9.1-7.43 12.18-7.43 12.18Z" transform="translate(0 -.01)"/><path class="b5bbec95-0b53-49ac-9101-cf3b75bef956" d="M720.89 646.63c3.24-3.85 10.61-30.1 10.61-30.1l-8.63-.35c-3.64 13.29-2.79 27.18-1.98 30.45Z" transform="translate(0 -.01)"/><path class="b5bbec95-0b53-49ac-9101-cf3b75bef956" d="M726.39 651.05c3.57-3.86 12.26-30.82 12.26-30.82l-8.57-1.93c-4.08 13.29-4.58 29.47-3.69 32.75Z" transform="translate(0 -.01)"/><path class="b5bbec95-0b53-49ac-9101-cf3b75bef956" d="M732.39 650.74c3.82-3.44 15.11-29.3 15.11-29.3l-7.91-2.84c-5.36 12.78-7.67 28.79-7.2 32.14ZM743 649.37c3.11-2.8 12.29-23.84 12.29-23.84l-6.44-2.31c-4.31 10.39-6.21 23.42-5.85 26.15Z" transform="translate(0 -.01)"/><path class="a5ee3ce2-3096-4e1e-9a6a-08a772f1e1e8" d="M556.51 220.74c-27.23 20.09 75.82 186.6 85.28 211.2S701 579.15 720.7 603.16l21.44-3.43s-36-127.76-69-186.93-50.07-241.16-116.63-192.06Z" transform="translate(0 -.01)"/><path class="a5ee3ce2-3096-4e1e-9a6a-08a772f1e1e8" d="m742.14 599.73-21.44 3.43c9.86 17.58 42.6 20.39 42.6 20.39l6.21 5.4s3.07-4.72-2.94-12.9-24.43-16.32-24.43-16.32Z" transform="translate(0 -.01)"/><path class="bbdb9e17-4c33-4e39-a435-4a13758e5f1e" d="M681.23 569.48c10.83 96.07-4.92 116.24-4.92 116.24l11 3C700.75 652 687 572.34 687 572.34Z" transform="translate(0 -.01)"/><path class="a5ee3ce2-3096-4e1e-9a6a-08a772f1e1e8" d="M695.47 830.54c-1.48 42.89-.2 85.22-4.78 112.71h39.44C730.45 915 742 874.14 756 832.39c-23.77 6.92-47.33 2.15-60.53-1.85Z" transform="translate(0 -.01)"/><path class="a24feb71-7d55-48ae-9372-081bc7cdfc1f" d="M696.35 811.27c-.37 6.42-.66 12.87-.88 19.31 10.37 4.26 34.78 9 60.5 1.81q2.84-8.49 5.77-17v-.11s-37.34 4.27-65.39-4.01Z" transform="translate(0 -.01)"/><path class="f2f29465-5021-45d2-91b4-5eb8a36a459e" d="M67.23 957.08a115.81 115.81 0 0 1-6.11-33.44l-16.07-23.16c-32.8 1.93-45 18.65-45 18.65S21.27 986 67.57 986h66.89c-2.63-17.35-61.15-10.92-67.23-28.92Z" transform="translate(0 -.01)"/><path class="ef7fb61d-7a84-4921-a87d-cd23e92e20bd" d="M128.3 978.73H72.67c-41.81 0-63.16-54.52-66.92-65.11A31.92 31.92 0 0 0 0 919.13S21.22 986 67.52 986h66.89c-.41-3-2.7-5.42-6.11-7.27Z" transform="translate(0 -.01)"/><path class="ef7fb61d-7a84-4921-a87d-cd23e92e20bd" d="M0 919.13a150.19 150.19 0 0 0 13.05 28.12c2.53-1.17 5.37-2.5 8.56-4 26.26-12.33 16.76-42.06 16.74-42.13C10.56 904.71 0 919.13 0 919.13ZM98 971s-7 1.23-5.57 15h42C133 976.57 115 974.16 98 971Z" transform="translate(0 -.01)"/><path class="ef7fb61d-7a84-4921-a87d-cd23e92e20bd" d="m52.64 930.65.34 6.92 11.77-2.1-.19-3.87-11.92-.95zM53.9 943.23l2.19 6.58 10.77-5.2-1.22-3.68-11.74 2.3zM57.04 955.28l3.98 5.68 8.83-8.07-2.23-3.17-10.58 5.56z"/><path class="f2f29465-5021-45d2-91b4-5eb8a36a459e" d="M730.13 943.25h-39.44c-16.08 28-10.93 42.77-10.93 42.77h160.13c-11.58-21.87-101.18-9.65-109.76-42.77Z" transform="translate(0 -.01)"/><path class="ef7fb61d-7a84-4921-a87d-cd23e92e20bd" d="M829.12 977.87H679.76a14.68 14.68 0 0 1-.56-2.79c-.73 7.22.56 10.94.56 10.94h160.13c-1.84-3.47-5.66-6.02-10.77-8.15Z" transform="translate(0 -.01)"/><path class="ef7fb61d-7a84-4921-a87d-cd23e92e20bd" d="m739.92 966.09 6.15 3.21 4.13-11.22-3.44-1.79-6.84 9.8zM730.14 957.16l4.68 5.12 7.73-9.12-2.62-2.87-9.79 6.87zM755.02 958.47l-2.25 11.75 6.92.42-.8-11.93-3.87-.24z"/><path class="ef7fb61d-7a84-4921-a87d-cd23e92e20bd" d="M686.68 950.81c-11.14 23.07-6.92 35.21-6.92 35.21h31.71c-.19-30.73-24.78-35.2-24.79-35.21ZM800.17 971.28s-5.5 4-5.11 14.74h44.83c-4.52-8.53-20.89-11.87-39.72-14.74Z" transform="translate(0 -.01)"/><path class="e75f449b-e5a1-4653-8caf-c98aaa919d81" d="M604.08 95.4s11.12 4.23 19.79 1.27c0 0 2.31-1.45 1.12-6.9.01 0-3.76-3.23-20.91 5.63Z" transform="translate(0 -.01)"/><path class="e5647406-89a6-4d1f-9e72-e75a7fa9e788" d="M617.92 88.51a52.19 52.19 0 0 0-6.54 3 19.6 19.6 0 0 1-6.58 2.12 13.07 13.07 0 0 1-6.8-1.26 13.47 13.47 0 0 0 6.84 1.84 20.16 20.16 0 0 0 7-1.63 50.86 50.86 0 0 1 6.56-2.38 20.89 20.89 0 0 1 3.34-.51 14.15 14.15 0 0 1 3.25.11l.15-2.3a18.66 18.66 0 0 0-7.22 1.01Z" transform="translate(0 -.01)"/><path class="e5647406-89a6-4d1f-9e72-e75a7fa9e788" d="M623.67 89.3a4.22 4.22 0 0 0-2.31 8 18.07 18.07 0 0 0 2.51-.63s2.31-1.45 1.12-6.9a3 3 0 0 0-1.32-.47Z" transform="translate(0 -.01)"/><path class="e75f449b-e5a1-4653-8caf-c98aaa919d81" d="M623.51 90.81a1 1 0 1 0 1 1 1 1 0 0 0-1-1ZM648.8 92.24c7.1 4.6 13.32 2.45 13.32 2.45 1.59-3 .17-7.68.17-7.68a22.51 22.51 0 0 0-13.49 5.23Z" transform="translate(0 -.01)"/><path class="e5647406-89a6-4d1f-9e72-e75a7fa9e788" d="M662.09 87.13h-.3a4.87 4.87 0 0 0-4.71 5 4.92 4.92 0 0 0 1.21 3 13.1 13.1 0 0 0 3.79-.43c1.56-2.85.4-7.24.3-7.63Z" transform="translate(0 -.01)"/><path class="e75f449b-e5a1-4653-8caf-c98aaa919d81" d="M661.16 88.5a1 1 0 1 0 1 1 1 1 0 0 0-1-1Z" transform="translate(0 -.01)"/><path class="e5647406-89a6-4d1f-9e72-e75a7fa9e788" d="M662 86.36c-.71.34-4-.24-7.17 1.07s-6 4.81-6 4.81c5.28-4.69 13-5.21 13.49-5.23s.88-1.75.88-1.75a3.94 3.94 0 0 1-1.2 1.1Z" transform="translate(0 -.01)"/><path class="e56264ff-d19b-4315-82aa-94aca8ceffca" d="M545.23 86.52c-2.56.31-4.21 4-3.69 8.24s3 7.41 5.58 7.09 4.21-4 3.69-8.24-3.06-7.41-5.58-7.09ZM585 220.25c-5.41-2.17-10.87-1.28-12.18 2s2 7.69 7.43 9.86 10.87 1.28 12.18-2-2.04-7.69-7.43-9.86Z" transform="translate(0 -.01)"/><path class="b5bbec95-0b53-49ac-9101-cf3b75bef956" d="M625.14 19.21s20.15 36.16 37.11 39.4l-.48-7.41s-14.72-9.42-36.63-31.99Z" transform="translate(0 -.01)"/></svg>