<svg id="b66636ef-72af-415e-9fe2-bf63e1202570" data-name="Layer 2" xmlns="http://www.w3.org/2000/svg" viewBox="0 0 483.75 711.9"><defs><style>.b3692f91-4c8a-4f67-ac21-2d6407a4ae1d{fill:#a1b9bf;}.aa0a396a-58f8-4759-8304-380e7dc656ef{fill:#90aaaf;}.b34d9d72-5a13-4f74-b5cb-c7814c3e361c{fill:#5a6367;}.b8ced95e-f63b-491c-830b-fcfbeeaf6861{fill:#4b5256;}.bdf54e5f-a87c-465d-978c-a9f5e0f1019e{fill:#393f42;}.ea75f8e1-03a0-40f2-982a-9be31cea4000{fill:#8b9aa0;}.ecb84cee-2afd-4c47-baef-72b2e90d4d77{fill:#a6b4bc;}.a59a7597-4aee-4fb1-b00c-4e9512be20e2{fill:#f6c19d;}.acef716f-3801-4a83-b358-80601a778c40{fill:#e5b08c;}.bf6557ed-fc84-45bf-8507-70359be13655{fill:#003444;}.b0800951-4507-47ae-817b-f28c0c3bf842{fill:#2c8da3;}.a99bff81-7962-4d4e-9a32-dbc72af1eda0{fill:#e5e3dc;}.ba84cc5c-b6bd-47fe-bd1b-d38b59f3a23e{fill:#41afd1;}.b264f11a-06a0-4113-9959-f2d82a2368c6{fill:#ddaa87;}.ad843d42-4f22-4e62-ba2e-36e3a68e687c{fill:#c17e63;}.aa23aa3f-d425-4f83-9b93-0b4e8cfb22d0{fill:#0e3441;}.e4d88604-9f49-45d9-847b-276d581633d2{fill:#cc5d30;}.bd4c7fd2-eded-43d6-ab4a-b8db7b9b16c2{fill:#aa2561;}.b5ba3d75-b755-44c8-9870-e3bfea463a73{fill:#fff;}.b0d82b1a-c591-4dce-b0bd-c134e43e7084{fill:#cc6297;}.fda89bef-50d6-4c60-8d14-b4d0c6306ebd{fill:#ec6523;}.b0aeb62c-5010-41ce-83ba-c2ad2631e0ad{fill:#004660;}.f606b5e8-dd31-4068-83b3-92d3825e5a9f{fill:#f3f2ec;}.e9b638fe-6873-410e-bde8-1f5bf2a2deca{fill:#0ab595;}.ac26bece-387c-4b53-9c03-8964dfd4ce6f{fill:#e44e4e;}.adce3346-3f15-47a7-8dd9-ad5b3c1c08ca{fill:#c9c690;}.ab922296-287c-4f55-84e5-3100b8191975{fill:#0b4861;}</style></defs><title>homeImage_3</title><path class="b3692f91-4c8a-4f67-ac21-2d6407a4ae1d" d="M56.35,553.94h337a15.37,15.37,0,0,1,15.37,15.37h0a15.37,15.37,0,0,1-15.37,15.37h-337A15.37,15.37,0,0,1,41,569.31h0A15.37,15.37,0,0,1,56.35,553.94Z" transform="translate(0 -0.01)"/><rect class="aa0a396a-58f8-4759-8304-380e7dc656ef" x="57.85" y="584.68" width="333.99" height="26.27"/><rect class="b3692f91-4c8a-4f67-ac21-2d6407a4ae1d" x="76.72" y="610.95" width="20.76" height="100.8"/><rect class="b3692f91-4c8a-4f67-ac21-2d6407a4ae1d" x="352.22" y="610.95" width="20.76" height="100.8"/><rect class="b34d9d72-5a13-4f74-b5cb-c7814c3e361c" x="308.56" y="617.09" width="90.16" height="94.65" rx="30.69"/><rect class="b8ced95e-f63b-491c-830b-fcfbeeaf6861" x="323.1" y="617.09" width="90.16" height="94.65" rx="30.69"/><rect class="bdf54e5f-a87c-465d-978c-a9f5e0f1019e" x="338.45" y="632.44" width="59.46" height="63.96" rx="15.35"/><path class="ea75f8e1-03a0-40f2-982a-9be31cea4000" d="M385.32,655.79H358.14a8.64,8.64,0,0,0,0,17.27h27.18a8.64,8.64,0,0,0,0-17.27Z" transform="translate(0 -0.01)"/><rect class="b34d9d72-5a13-4f74-b5cb-c7814c3e361c" x="379.05" y="617.09" width="90.16" height="94.65" rx="30.69"/><rect class="b8ced95e-f63b-491c-830b-fcfbeeaf6861" x="393.59" y="617.09" width="90.16" height="94.65" rx="30.69"/><rect class="bdf54e5f-a87c-465d-978c-a9f5e0f1019e" x="408.94" y="632.44" width="59.46" height="63.96" rx="15.35"/><path class="ecb84cee-2afd-4c47-baef-72b2e90d4d77" d="M442.63,664.43a8.58,8.58,0,0,0-4-7.24v-1.4H434a8.64,8.64,0,1,0-.59,17.27,5.81,5.81,0,0,0,.59,0h4.67v-1.4A8.59,8.59,0,0,0,442.63,664.43Z" transform="translate(0 -0.01)"/><circle class="ea75f8e1-03a0-40f2-982a-9be31cea4000" cx="438.67" cy="664.42" r="8.63"/><path class="a59a7597-4aee-4fb1-b00c-4e9512be20e2" d="M77.42,300.83a11,11,0,0,1-11-10.85L66,263a11,11,0,1,1,22-.35l.42,27A11,11,0,0,1,77.6,300.81h0Z" transform="translate(0 -0.01)"/><path class="a59a7597-4aee-4fb1-b00c-4e9512be20e2" d="M143.93,375.73a23.63,23.63,0,0,1-12.43-3.54L62.35,329.35a23.6,23.6,0,0,1,24.88-40.12l54.29,33.67,48.23-42.27a23.6,23.6,0,0,1,31.11,35.5h0l-61.37,53.79A23.6,23.6,0,0,1,143.93,375.73Z" transform="translate(0 -0.01)"/><path class="acef716f-3801-4a83-b358-80601a778c40" d="M217.07,698.22a22,22,0,0,1-22-22h0v-225a22,22,0,1,1,44.05,0v225a22,22,0,0,1-22,22Z" transform="translate(0 -0.01)"/><rect class="bf6557ed-fc84-45bf-8507-70359be13655" x="181.38" y="443.05" width="71.37" height="106.28"/><path class="b0800951-4507-47ae-817b-f28c0c3bf842" d="M242.47,665.39V711.9H133.2V697a31.61,31.61,0,0,1,31.6-31.62h77.67Z" transform="translate(0 -0.01)"/><path class="b0800951-4507-47ae-817b-f28c0c3bf842" d="M192.8,656.34h2.14V667.4h-8.55v-4.65A6.41,6.41,0,0,1,192.8,656.34Z" transform="translate(0 -0.01)"/><path class="a99bff81-7962-4d4e-9a32-dbc72af1eda0" d="M165.45,661.87a3.58,3.58,0,0,0-3.58,3.58h0v8.42a3.59,3.59,0,0,0,7.17.38,2.41,2.41,0,0,0,0-.38v-8.42a3.58,3.58,0,0,0-3.58-3.58Z" transform="translate(0 -0.01)"/><path class="a99bff81-7962-4d4e-9a32-dbc72af1eda0" d="M177.75,661.87a3.58,3.58,0,0,0-3.58,3.58h0v8.42a3.58,3.58,0,1,0,7.16,0v-8.44A3.58,3.58,0,0,0,177.75,661.87Z" transform="translate(0 -0.01)"/><rect class="bf6557ed-fc84-45bf-8507-70359be13655" x="133.2" y="701.66" width="109.27" height="10.24"/><path class="ba84cc5c-b6bd-47fe-bd1b-d38b59f3a23e" d="M313.07,306.18v106.6a59.85,59.85,0,0,1-59.84,59.83h-22.1a59.83,59.83,0,0,1-59.82-59.83V306.18a59.83,59.83,0,0,1,59.82-59.83h22.1A59.85,59.85,0,0,1,313.07,306.18Z" transform="translate(0 -0.01)"/><path class="b264f11a-06a0-4113-9959-f2d82a2368c6" d="M237.46,278.37a26.75,26.75,0,0,1-26.71-26.75V206.06a26.75,26.75,0,0,1,53.49-1c0,.34,0,.69,0,1v45.56a26.75,26.75,0,0,1-26.75,26.75Z" transform="translate(0 -0.01)"/><path class="ad843d42-4f22-4e62-ba2e-36e3a68e687c" d="M288.6,86V195.62h0a25.71,25.71,0,0,0,25.71-25.71h0V86Z" transform="translate(0 -0.01)"/><rect class="a59a7597-4aee-4fb1-b00c-4e9512be20e2" x="133.52" y="24.84" width="163.63" height="232.86" rx="81.81"/><path class="aa23aa3f-d425-4f83-9b93-0b4e8cfb22d0" d="M148.16,145.09a12.53,12.53,0,0,1,12.59,12.47v8.95a12.54,12.54,0,0,1-25.08,0v-8.88A12.54,12.54,0,0,1,148.16,145.09Z" transform="translate(0 -0.01)"/><path class="aa23aa3f-d425-4f83-9b93-0b4e8cfb22d0" d="M222.75,145.09a12.53,12.53,0,0,1,12.54,12.54v8.88a12.54,12.54,0,1,1-25.08,0v-8.88a12.53,12.53,0,0,1,12.52-12.54Z" transform="translate(0 -0.01)"/><path class="e4d88604-9f49-45d9-847b-276d581633d2" d="M247.06,134.73a4.72,4.72,0,0,1-2.6-.78c-16.32-10.81-32.16-3.61-36.42-.24a4.72,4.72,0,0,1-5.95-7.33l.09-.07c8.76-6.93,28.63-12.72,47.49-.24a4.72,4.72,0,0,1-2.61,8.66Z" transform="translate(0 -0.01)"/><path class="e4d88604-9f49-45d9-847b-276d581633d2" d="M130.82,134.5a4.72,4.72,0,0,1-1.91-9c15.92-7,32.72-3.75,40.12.15a4.72,4.72,0,0,1-4.4,8.35c-3.73-2-17.6-6.16-31.91.14A4.59,4.59,0,0,1,130.82,134.5Z" transform="translate(0 -0.01)"/><path class="bd4c7fd2-eded-43d6-ab4a-b8db7b9b16c2" d="M240.35,211.09a32.91,32.91,0,0,1-2.26,12,32.41,32.41,0,0,1-3.72,7,33.18,33.18,0,0,1-60.37-19Z" transform="translate(0 -0.01)"/><path class="b5ba3d75-b755-44c8-9870-e3bfea463a73" d="M240.35,211.09a32.91,32.91,0,0,1-2.26,12H176.27a33.13,33.13,0,0,1-2.27-12Z" transform="translate(0 -0.01)"/><path class="b0d82b1a-c591-4dce-b0bd-c134e43e7084" d="M234.37,230.1a33.15,33.15,0,0,1-42.81,10.24A47.41,47.41,0,0,1,234.37,230.1Z" transform="translate(0 -0.01)"/><path class="ad843d42-4f22-4e62-ba2e-36e3a68e687c" d="M269.2,86V141.5a10.39,10.39,0,0,0,10.39,10.39H308V86Z" transform="translate(0 -0.01)"/><path class="a59a7597-4aee-4fb1-b00c-4e9512be20e2" d="M283.39,124.91a27.54,27.54,0,1,1,0,54Z" transform="translate(0 -0.01)"/><path class="fda89bef-50d6-4c60-8d14-b4d0c6306ebd" d="M328.49,81.42l-45.1,13.5V36.18h18.09a27,27,0,0,1,27,27Z" transform="translate(0 -0.01)"/><path class="fda89bef-50d6-4c60-8d14-b4d0c6306ebd" d="M138.08,5.11H276A23.88,23.88,0,0,1,299.9,29V55.85H138.08V5.11Z" transform="translate(0 -0.01)"/><polygon class="fda89bef-50d6-4c60-8d14-b4d0c6306ebd" points="328.49 81.41 322.17 124.35 297.15 81.41 328.49 81.41"/><polygon class="fda89bef-50d6-4c60-8d14-b4d0c6306ebd" points="313.91 81.41 294.63 118.94 263.3 81.41 313.91 81.41"/><path class="fda89bef-50d6-4c60-8d14-b4d0c6306ebd" d="M173.09,81.81l-57.43,21.08,8.81-37.34L92.85,45.23s32.65-11,31.47-11S92.83,0,92.83,0L200.39,5.12l91.49,43.27L297.15,86l-23,.52-14.16,22L222.75,86l3.36,17.59Z" transform="translate(0 -0.01)"/><path class="b0aeb62c-5010-41ce-83ba-c2ad2631e0ad" d="M313.07,408.33v4.45a59.85,59.85,0,0,1-59.84,59.83h-22.1a59.83,59.83,0,0,1-59.82-59.83v-4.45Z" transform="translate(0 -0.01)"/><path class="a59a7597-4aee-4fb1-b00c-4e9512be20e2" d="M265.89,698.26a23.59,23.59,0,0,1-23.6-23.58V491.32a23.6,23.6,0,0,1,47.2,0V674.66a23.61,23.61,0,0,1-23.6,23.6Z" transform="translate(0 -0.01)"/><rect class="b0aeb62c-5010-41ce-83ba-c2ad2631e0ad" x="228.67" y="443.05" width="74.43" height="109.42"/><path class="ba84cc5c-b6bd-47fe-bd1b-d38b59f3a23e" d="M292.38,663.4v48.5h-114V696.37a33,33,0,0,1,33-33Z" transform="translate(0 -0.01)"/><path class="ba84cc5c-b6bd-47fe-bd1b-d38b59f3a23e" d="M240.58,654h2.23v11.5h-8.92v-4.85A6.69,6.69,0,0,1,240.58,654Z" transform="translate(0 -0.01)"/><path class="f606b5e8-dd31-4068-83b3-92d3825e5a9f" d="M212.07,659.73a3.73,3.73,0,0,0-3.74,3.72h0v8.79a3.74,3.74,0,0,0,7.47,0v-8.79A3.73,3.73,0,0,0,212.07,659.73Z" transform="translate(0 -0.01)"/><path class="f606b5e8-dd31-4068-83b3-92d3825e5a9f" d="M224.85,659.73a3.73,3.73,0,0,0-3.74,3.72h0v8.79a3.74,3.74,0,0,0,7.48,0v-8.79A3.75,3.75,0,0,0,224.85,659.73Z" transform="translate(0 -0.01)"/><polygon class="f606b5e8-dd31-4068-83b3-92d3825e5a9f" points="282.54 486.2 275.73 484.36 275.73 489.48 282.54 491.32 282.54 486.2"/><polygon class="f606b5e8-dd31-4068-83b3-92d3825e5a9f" points="275.73 499.71 275.73 552.47 282.54 552.47 282.54 501.55 275.73 499.71"/><polygon class="f606b5e8-dd31-4068-83b3-92d3825e5a9f" points="257.11 484.44 263.92 486.28 263.92 481.16 257.11 479.32 257.11 484.44"/><polygon class="f606b5e8-dd31-4068-83b3-92d3825e5a9f" points="282.54 475.96 282.54 443.21 275.73 443.21 275.73 474.12 282.54 475.96"/><polygon class="f606b5e8-dd31-4068-83b3-92d3825e5a9f" points="263.92 470.93 263.92 443.21 257.11 443.21 257.11 469.08 263.92 470.93"/><polygon class="f606b5e8-dd31-4068-83b3-92d3825e5a9f" points="257.11 494.67 257.11 552.47 263.92 552.47 263.92 496.52 257.11 494.67"/><rect class="b0aeb62c-5010-41ce-83ba-c2ad2631e0ad" x="178.43" y="701.22" width="113.94" height="10.52"/><path class="a59a7597-4aee-4fb1-b00c-4e9512be20e2" d="M295,452.57a23.61,23.61,0,0,1-18.09-38.75l41.42-49.49-55.87-55.69a23.6,23.6,0,1,1,33.33-33.43l71.18,71a23.59,23.59,0,0,1,1.44,31.86l-55.3,66.08A23.56,23.56,0,0,1,295,452.57Z" transform="translate(0 -0.01)"/><circle class="a59a7597-4aee-4fb1-b00c-4e9512be20e2" cx="283.75" cy="432.01" r="35.2"/><rect class="b0aeb62c-5010-41ce-83ba-c2ad2631e0ad" x="307.94" y="376.99" width="18.88" height="49.94" transform="translate(-194.39 381.97) rotate(-49.47)"/><rect class="b0aeb62c-5010-41ce-83ba-c2ad2631e0ad" x="39.54" y="248.87" width="11.62" height="11.62" transform="translate(-64.37 20.41) rotate(-15)"/><rect class="e9b638fe-6873-410e-bde8-1f5bf2a2deca" x="29.65" y="240.28" width="27" height="12.37" rx="4.09" transform="translate(-62.32 19.56) rotate(-15)"/><rect class="b0aeb62c-5010-41ce-83ba-c2ad2631e0ad" x="64.12" y="252.45" width="7.29" height="7.29" transform="translate(-195.49 226.61) rotate(-68.79)"/><rect class="ac26bece-387c-4b53-9c03-8964dfd4ce6f" x="65.84" y="244.37" width="7.76" height="13.52" rx="2.56" transform="translate(-189.62 225.26) rotate(-68.79)"/><rect class="b0aeb62c-5010-41ce-83ba-c2ad2631e0ad" x="24.53" y="264.71" width="7.31" height="7.31" transform="translate(-198.29 121.66) rotate(-51.07)"/><rect class="adce3346-3f15-47a7-8dd9-ad5b3c1c08ca" x="17.23" y="261.1" width="13.56" height="7.78" rx="2.57" transform="translate(-197.23 117.15) rotate(-51.07)"/><circle class="ac26bece-387c-4b53-9c03-8964dfd4ce6f" cx="54.99" cy="290.66" r="36.19"/><circle class="f606b5e8-dd31-4068-83b3-92d3825e5a9f" cx="54.98" cy="290.65" r="26.09"/><path class="ab922296-287c-4f55-84e5-3100b8191975" d="M55,293.8a3.53,3.53,0,0,1-.56-.05,3.15,3.15,0,0,1-2.54-3.66h0l3.49-19.36a3.14,3.14,0,0,1,6.19,1.11h0l-3.49,19.4A3.15,3.15,0,0,1,55,293.8Z" transform="translate(0 -0.01)"/><path class="a59a7597-4aee-4fb1-b00c-4e9512be20e2" d="M0,301.82l16.26,27.8a15.68,15.68,0,0,0,21.43,5.66l.06,0,7-3.91a15.67,15.67,0,0,0,5.62-21.44h0l-16.26-27.8a15.68,15.68,0,0,0-21.44-5.62l-7,3.92" transform="translate(0 -0.01)"/></svg>