<svg id="b66636ef-72af-415e-9fe2-bf63e1202570" data-name="Layer 2" xmlns="http://www.w3.org/2000/svg" viewBox="0 0 483.75 711.9"><defs><style>.b3692f91-4c8a-4f67-ac21-2d6407a4ae1d{fill:#a1b9bf}.b34d9d72-5a13-4f74-b5cb-c7814c3e361c{fill:#5a6367}.b8ced95e-f63b-491c-830b-fcfbeeaf6861{fill:#4b5256}.bdf54e5f-a87c-465d-978c-a9f5e0f1019e{fill:#393f42}.ea75f8e1-03a0-40f2-982a-9be31cea4000{fill:#8b9aa0}.a59a7597-4aee-4fb1-b00c-4e9512be20e2{fill:#f6c19d}.bf6557ed-fc84-45bf-8507-70359be13655{fill:#003444}.b0800951-4507-47ae-817b-f28c0c3bf842{fill:#2c8da3}.a99bff81-7962-4d4e-9a32-dbc72af1eda0{fill:#e5e3dc}.ba84cc5c-b6bd-47fe-bd1b-d38b59f3a23e{fill:#41afd1}.ad843d42-4f22-4e62-ba2e-36e3a68e687c{fill:#c17e63}.aa23aa3f-d425-4f83-9b93-0b4e8cfb22d0{fill:#0e3441}.e4d88604-9f49-45d9-847b-276d581633d2{fill:#cc5d30}.fda89bef-50d6-4c60-8d14-b4d0c6306ebd{fill:#ec6523}.b0aeb62c-5010-41ce-83ba-c2ad2631e0ad{fill:#004660}.f606b5e8-dd31-4068-83b3-92d3825e5a9f{fill:#f3f2ec}.ac26bece-387c-4b53-9c03-8964dfd4ce6f{fill:#e44e4e}</style></defs><path class="b3692f91-4c8a-4f67-ac21-2d6407a4ae1d" d="M56.35 553.94h337a15.37 15.37 0 0 1 15.37 15.37 15.37 15.37 0 0 1-15.37 15.37h-337A15.37 15.37 0 0 1 41 569.31a15.37 15.37 0 0 1 15.35-15.37Z" transform="translate(0 -.01)"/><path style="fill:#90aaaf" d="M57.85 584.68h333.99v26.27H57.85z"/><path class="b3692f91-4c8a-4f67-ac21-2d6407a4ae1d" d="M76.72 610.95h20.76v100.8H76.72zM352.22 610.95h20.76v100.8h-20.76z"/><rect class="b34d9d72-5a13-4f74-b5cb-c7814c3e361c" x="308.56" y="617.09" width="90.16" height="94.65" rx="30.69"/><rect class="b8ced95e-f63b-491c-830b-fcfbeeaf6861" x="323.1" y="617.09" width="90.16" height="94.65" rx="30.69"/><rect class="bdf54e5f-a87c-465d-978c-a9f5e0f1019e" x="338.45" y="632.44" width="59.46" height="63.96" rx="15.35"/><path class="ea75f8e1-03a0-40f2-982a-9be31cea4000" d="M385.32 655.79h-27.18a8.64 8.64 0 0 0 0 17.27h27.18a8.64 8.64 0 0 0 0-17.27Z" transform="translate(0 -.01)"/><rect class="b34d9d72-5a13-4f74-b5cb-c7814c3e361c" x="379.05" y="617.09" width="90.16" height="94.65" rx="30.69"/><rect class="b8ced95e-f63b-491c-830b-fcfbeeaf6861" x="393.59" y="617.09" width="90.16" height="94.65" rx="30.69"/><rect class="bdf54e5f-a87c-465d-978c-a9f5e0f1019e" x="408.94" y="632.44" width="59.46" height="63.96" rx="15.35"/><path d="M442.63 664.43a8.58 8.58 0 0 0-4-7.24v-1.4H434a8.64 8.64 0 1 0-.59 17.27 5.81 5.81 0 0 0 .59 0h4.67v-1.4a8.59 8.59 0 0 0 3.96-7.23Z" transform="translate(0 -.01)" style="fill:#a6b4bc"/><circle class="ea75f8e1-03a0-40f2-982a-9be31cea4000" cx="438.67" cy="664.42" r="8.63"/><path class="a59a7597-4aee-4fb1-b00c-4e9512be20e2" d="M77.42 300.83a11 11 0 0 1-11-10.85L66 263a11 11 0 1 1 22-.35l.42 27a11 11 0 0 1-10.82 11.16Z" transform="translate(0 -.01)"/><path class="a59a7597-4aee-4fb1-b00c-4e9512be20e2" d="M143.93 375.73a23.63 23.63 0 0 1-12.43-3.54l-69.15-42.84a23.6 23.6 0 0 1 24.88-40.12l54.29 33.67 48.23-42.27a23.6 23.6 0 0 1 31.11 35.5l-61.37 53.79a23.6 23.6 0 0 1-15.56 5.81Z" transform="translate(0 -.01)"/><path d="M217.07 698.22a22 22 0 0 1-22-22v-225a22 22 0 1 1 44.05 0v225a22 22 0 0 1-22 22Z" transform="translate(0 -.01)" style="fill:#e5b08c"/><path class="bf6557ed-fc84-45bf-8507-70359be13655" d="M181.38 443.05h71.37v106.28h-71.37z"/><path class="b0800951-4507-47ae-817b-f28c0c3bf842" d="M242.47 665.39v46.51H133.2V697a31.61 31.61 0 0 1 31.6-31.62h77.67Z" transform="translate(0 -.01)"/><path class="b0800951-4507-47ae-817b-f28c0c3bf842" d="M192.8 656.34h2.14v11.06h-8.55v-4.65a6.41 6.41 0 0 1 6.41-6.41Z" transform="translate(0 -.01)"/><path class="a99bff81-7962-4d4e-9a32-dbc72af1eda0" d="M165.45 661.87a3.58 3.58 0 0 0-3.58 3.58v8.42a3.59 3.59 0 0 0 7.17.38 2.41 2.41 0 0 0 0-.38v-8.42a3.58 3.58 0 0 0-3.58-3.58ZM177.75 661.87a3.58 3.58 0 0 0-3.58 3.58v8.42a3.58 3.58 0 1 0 7.16 0v-8.44a3.58 3.58 0 0 0-3.58-3.56Z" transform="translate(0 -.01)"/><path class="bf6557ed-fc84-45bf-8507-70359be13655" d="M133.2 701.66h109.27v10.24H133.2z"/><path class="ba84cc5c-b6bd-47fe-bd1b-d38b59f3a23e" d="M313.07 306.18v106.6a59.85 59.85 0 0 1-59.84 59.83h-22.1a59.83 59.83 0 0 1-59.82-59.83v-106.6a59.83 59.83 0 0 1 59.82-59.83h22.1a59.85 59.85 0 0 1 59.84 59.83Z" transform="translate(0 -.01)"/><path d="M237.46 278.37a26.75 26.75 0 0 1-26.71-26.75v-45.56a26.75 26.75 0 0 1 53.49-1v46.56a26.75 26.75 0 0 1-26.75 26.75Z" transform="translate(0 -.01)" style="fill:#ddaa87"/><path class="ad843d42-4f22-4e62-ba2e-36e3a68e687c" d="M288.6 86v109.62a25.71 25.71 0 0 0 25.71-25.71V86Z" transform="translate(0 -.01)"/><rect class="a59a7597-4aee-4fb1-b00c-4e9512be20e2" x="133.52" y="24.84" width="163.63" height="232.86" rx="81.81"/><path class="aa23aa3f-d425-4f83-9b93-0b4e8cfb22d0" d="M148.16 145.09a12.53 12.53 0 0 1 12.59 12.47v8.95a12.54 12.54 0 0 1-25.08 0v-8.88a12.54 12.54 0 0 1 12.49-12.54ZM222.75 145.09a12.53 12.53 0 0 1 12.54 12.54v8.88a12.54 12.54 0 1 1-25.08 0v-8.88a12.53 12.53 0 0 1 12.52-12.54Z" transform="translate(0 -.01)"/><path class="e4d88604-9f49-45d9-847b-276d581633d2" d="M247.06 134.73a4.72 4.72 0 0 1-2.6-.78c-16.32-10.81-32.16-3.61-36.42-.24a4.72 4.72 0 0 1-5.95-7.33l.09-.07c8.76-6.93 28.63-12.72 47.49-.24a4.72 4.72 0 0 1-2.61 8.66ZM130.82 134.5a4.72 4.72 0 0 1-1.91-9c15.92-7 32.72-3.75 40.12.15a4.72 4.72 0 0 1-4.4 8.35c-3.73-2-17.6-6.16-31.91.14a4.59 4.59 0 0 1-1.9.36Z" transform="translate(0 -.01)"/><path d="M240.35 211.09a32.91 32.91 0 0 1-2.26 12 32.41 32.41 0 0 1-3.72 7 33.18 33.18 0 0 1-60.37-19Z" transform="translate(0 -.01)" style="fill:#aa2561"/><path d="M240.35 211.09a32.91 32.91 0 0 1-2.26 12h-61.82a33.13 33.13 0 0 1-2.27-12Z" transform="translate(0 -.01)" style="fill:#fff"/><path d="M234.37 230.1a33.15 33.15 0 0 1-42.81 10.24 47.41 47.41 0 0 1 42.81-10.24Z" transform="translate(0 -.01)" style="fill:#cc6297"/><path class="ad843d42-4f22-4e62-ba2e-36e3a68e687c" d="M269.2 86v55.5a10.39 10.39 0 0 0 10.39 10.39H308V86Z" transform="translate(0 -.01)"/><path class="a59a7597-4aee-4fb1-b00c-4e9512be20e2" d="M283.39 124.91a27.54 27.54 0 1 1 0 54Z" transform="translate(0 -.01)"/><path class="fda89bef-50d6-4c60-8d14-b4d0c6306ebd" d="m328.49 81.42-45.1 13.5V36.18h18.09a27 27 0 0 1 27 27Z" transform="translate(0 -.01)"/><path class="fda89bef-50d6-4c60-8d14-b4d0c6306ebd" d="M138.08 5.11H276A23.88 23.88 0 0 1 299.9 29v26.85H138.08V5.11Z" transform="translate(0 -.01)"/><path class="fda89bef-50d6-4c60-8d14-b4d0c6306ebd" d="m328.49 81.41-6.32 42.94-25.02-42.94h31.34z"/><path class="fda89bef-50d6-4c60-8d14-b4d0c6306ebd" d="m313.91 81.41-19.28 37.53-31.33-37.53h50.61z"/><path class="fda89bef-50d6-4c60-8d14-b4d0c6306ebd" d="m173.09 81.81-57.43 21.08 8.81-37.34-31.62-20.32s32.65-11 31.47-11S92.83 0 92.83 0l107.56 5.12 91.49 43.27L297.15 86l-23 .52-14.16 22L222.75 86l3.36 17.59Z" transform="translate(0 -.01)"/><path class="b0aeb62c-5010-41ce-83ba-c2ad2631e0ad" d="M313.07 408.33v4.45a59.85 59.85 0 0 1-59.84 59.83h-22.1a59.83 59.83 0 0 1-59.82-59.83v-4.45Z" transform="translate(0 -.01)"/><path class="a59a7597-4aee-4fb1-b00c-4e9512be20e2" d="M265.89 698.26a23.59 23.59 0 0 1-23.6-23.58V491.32a23.6 23.6 0 0 1 47.2 0v183.34a23.61 23.61 0 0 1-23.6 23.6Z" transform="translate(0 -.01)"/><path class="b0aeb62c-5010-41ce-83ba-c2ad2631e0ad" d="M228.67 443.05h74.43v109.42h-74.43z"/><path class="ba84cc5c-b6bd-47fe-bd1b-d38b59f3a23e" d="M292.38 663.4v48.5h-114v-15.53a33 33 0 0 1 33-33Z" transform="translate(0 -.01)"/><path class="ba84cc5c-b6bd-47fe-bd1b-d38b59f3a23e" d="M240.58 654h2.23v11.5h-8.92v-4.85a6.69 6.69 0 0 1 6.69-6.65Z" transform="translate(0 -.01)"/><path class="f606b5e8-dd31-4068-83b3-92d3825e5a9f" d="M212.07 659.73a3.73 3.73 0 0 0-3.74 3.72v8.79a3.74 3.74 0 0 0 7.47 0v-8.79a3.73 3.73 0 0 0-3.73-3.72ZM224.85 659.73a3.73 3.73 0 0 0-3.74 3.72v8.79a3.74 3.74 0 0 0 7.48 0v-8.79a3.75 3.75 0 0 0-3.74-3.72Z" transform="translate(0 -.01)"/><path class="f606b5e8-dd31-4068-83b3-92d3825e5a9f" d="m282.54 486.2-6.81-1.84v5.12l6.81 1.84v-5.12zM275.73 499.71v52.76h6.81v-50.92l-6.81-1.84zM257.11 484.44l6.81 1.84v-5.12l-6.81-1.84v5.12zM282.54 475.96v-32.75h-6.81v30.91l6.81 1.84zM263.92 470.93v-27.72h-6.81v25.87l6.81 1.85zM257.11 494.67v57.8h6.81v-55.95l-6.81-1.85z"/><path class="b0aeb62c-5010-41ce-83ba-c2ad2631e0ad" d="M178.43 701.22h113.94v10.52H178.43z"/><path class="a59a7597-4aee-4fb1-b00c-4e9512be20e2" d="M295 452.57a23.61 23.61 0 0 1-18.09-38.75l41.42-49.49-55.87-55.69a23.6 23.6 0 1 1 33.33-33.43l71.18 71a23.59 23.59 0 0 1 1.44 31.86l-55.3 66.08a23.56 23.56 0 0 1-18.11 8.42Z" transform="translate(0 -.01)"/><circle class="a59a7597-4aee-4fb1-b00c-4e9512be20e2" cx="283.75" cy="432.01" r="35.2"/><path class="b0aeb62c-5010-41ce-83ba-c2ad2631e0ad" transform="rotate(-49.47 317.369 401.963)" d="M307.94 376.99h18.88v49.94h-18.88z"/><path class="b0aeb62c-5010-41ce-83ba-c2ad2631e0ad" transform="rotate(-15 45.33 254.674)" d="M39.54 248.87h11.62v11.62H39.54z"/><rect x="29.65" y="240.28" width="27" height="12.37" rx="4.09" transform="rotate(-15 43.126 246.464)" style="fill:#0ab595"/><path class="b0aeb62c-5010-41ce-83ba-c2ad2631e0ad" transform="rotate(-68.79 67.764 256.085)" d="M64.12 252.45h7.29v7.29h-7.29z"/><rect class="ac26bece-387c-4b53-9c03-8964dfd4ce6f" x="65.84" y="244.37" width="7.76" height="13.52" rx="2.56" transform="rotate(-68.79 69.713 251.122)"/><path class="b0aeb62c-5010-41ce-83ba-c2ad2631e0ad" transform="rotate(-51.07 28.188 268.365)" d="M24.53 264.71h7.31v7.31h-7.31z"/><rect x="17.23" y="261.1" width="13.56" height="7.78" rx="2.57" transform="rotate(-51.07 23.997 265.001)" style="fill:#c9c690"/><circle class="ac26bece-387c-4b53-9c03-8964dfd4ce6f" cx="54.99" cy="290.66" r="36.19"/><circle class="f606b5e8-dd31-4068-83b3-92d3825e5a9f" cx="54.98" cy="290.65" r="26.09"/><path d="M55 293.8a3.53 3.53 0 0 1-.56-.05 3.15 3.15 0 0 1-2.54-3.66l3.49-19.36a3.14 3.14 0 0 1 6.19 1.11l-3.49 19.4A3.15 3.15 0 0 1 55 293.8Z" transform="translate(0 -.01)" style="fill:#0b4861"/><path class="a59a7597-4aee-4fb1-b00c-4e9512be20e2" d="m0 301.82 16.26 27.8a15.68 15.68 0 0 0 21.43 5.66h.06l7-3.91a15.67 15.67 0 0 0 5.62-21.44l-16.26-27.8a15.68 15.68 0 0 0-21.44-5.62l-7 3.92" transform="translate(0 -.01)"/></svg>