<svg id="b5faaf74-60aa-4cfa-b004-8b00a22a6527" data-name="Layer 2" xmlns="http://www.w3.org/2000/svg" viewBox="0 0 1030.48 990.02"><defs><style>.be95bade-1848-4152-8bbc-8b70f85705b7{fill:#bcbcd3;}.ebd24585-a4b1-4f26-829d-059c51e9dc82{fill:#ffcf4a;}.e7696fd2-a6d7-40d4-b5a6-5da47c1b3531{fill:#e0b13b;}.e0c9fc30-9a7e-4454-8efe-b1ffb2113478{fill:#ffd671;}.b5bbec95-0b53-49ac-9101-cf3b75bef956{fill:#d86d68;}.b3246f8d-342b-4f71-9072-5839cc9fdc50{fill:#4f1e56;}.b1233a81-5835-4819-b2fe-1f4c662e21aa{fill:#59376b;}.a24feb71-7d55-48ae-9372-081bc7cdfc1f{fill:#64e2e2;}.e13fd9f1-f7ec-40e7-bbf5-4cb5d669dd17{fill:#472b59;}.a5ee3ce2-3096-4e1e-9a6a-08a772f1e1e8{fill:#f48e82;}.b51cebb7-82c2-4c13-a3f8-da11c59d11f5{fill:#643e75;}.bc8eacab-39e3-40aa-ac0f-29dc96747f4f{fill:#622968;}.b3002f8d-e218-4fb8-9a15-a3639ee83dc1{fill:#4fc6c0;}.e5647406-89a6-4d1f-9e72-e75a7fa9e788{fill:#8c3838;}.bcd012d3-c0d3-4192-85e5-5596ef09d7ae{fill:#840c0c;}.ed1b6d77-c804-41df-ae4a-145e85eb2d31{fill:#704c84;}.ef7fb61d-7a84-4921-a87d-cd23e92e20bd{fill:#c24dd6;}.bbdb9e17-4c33-4e39-a435-4a13758e5f1e{fill:#a842c1;}.f2f29465-5021-45d2-91b4-5eb8a36a459e{fill:#4d434f;}.e75f449b-e5a1-4653-8caf-c98aaa919d81{fill:#fff;}.e56264ff-d19b-4315-82aa-94aca8ceffca{fill:#f4a19a;}</style></defs><title>homeImage_4</title><rect class="be95bade-1848-4152-8bbc-8b70f85705b7" x="80.83" y="405.68" width="648.25" height="22.21"/><rect class="be95bade-1848-4152-8bbc-8b70f85705b7" x="42.41" y="319.65" width="38.41" height="194.27" rx="18.73"/><rect class="be95bade-1848-4152-8bbc-8b70f85705b7" x="4" y="340.26" width="38.41" height="153.03" rx="18.73"/><rect class="be95bade-1848-4152-8bbc-8b70f85705b7" x="760.22" y="340.26" width="38.41" height="153.03" rx="18.73"/><rect class="be95bade-1848-4152-8bbc-8b70f85705b7" x="721.81" y="319.65" width="38.41" height="194.27" rx="18.73"/><rect class="be95bade-1848-4152-8bbc-8b70f85705b7" x="117.7" y="388.01" width="38.74" height="602.01"/><rect class="be95bade-1848-4152-8bbc-8b70f85705b7" x="644.21" y="388.01" width="38.74" height="602.01"/><circle class="ebd24585-a4b1-4f26-829d-059c51e9dc82" cx="788.77" cy="739.96" r="241.69"/><circle class="ebd24585-a4b1-4f26-829d-059c51e9dc82" cx="788.77" cy="739.96" r="241.69"/><path class="e7696fd2-a6d7-40d4-b5a6-5da47c1b3531" d="M1003.23,663.69c0,133.49-108.2,241.7-241.69,241.7A241.59,241.59,0,0,1,550.79,782.05c19.91,113.43,118.9,199.62,238,199.62,133.48,0,241.69-108.21,241.69-241.69a240.55,240.55,0,0,0-30.93-118.36A242.22,242.22,0,0,1,1003.23,663.69Z" transform="translate(0 -0.01)"/><path class="e0c9fc30-9a7e-4454-8efe-b1ffb2113478" d="M593.83,597.1a262.27,262.27,0,0,0,80.85,12.56c84.94,0,158.65-39.47,195.49-97.31A242,242,0,0,0,593.83,597.1Z" transform="translate(0 -0.01)"/><path class="b5bbec95-0b53-49ac-9101-cf3b75bef956" d="M588.48,223.68C556,234.06,650.41,415.35,658,440.57s48.6,146,66.51,171.42l24.57-6.79s-29.81-120-58.41-181.41S671.7,197.15,588.48,223.68Z" transform="translate(0 -0.01)"/><path class="b3246f8d-342b-4f71-9072-5839cc9fdc50" d="M588.23,536.7l-92.69,71.92s163,86.61,235,86.61C681.66,745,701,881.51,690.67,943.23h39.44c.86-76.31,84-245.23,73.74-273.53S697.89,558,588.23,536.7Z" transform="translate(0 -0.01)"/><path class="b1233a81-5835-4819-b2fe-1f4c662e21aa" d="M543.85,9c-24.54-12.25-64.51,5.26-84.53,30.94-19.19,24.62-2.77,52.09,21.77,64.33s55.74-.47,69.68-28.4S568.4,21.16,543.85,9Z" transform="translate(0 -0.01)"/><circle class="a24feb71-7d55-48ae-9372-081bc7cdfc1f" cx="535.94" cy="47.23" r="25.15" transform="translate(9.24 156.99) rotate(-16.81)"/><path class="e13fd9f1-f7ec-40e7-bbf5-4cb5d669dd17" d="M517.23,84s-5.39,68.34,63.35,67.72l10.65-94.88-37,5.74Z" transform="translate(0 -0.01)"/><path class="b5bbec95-0b53-49ac-9101-cf3b75bef956" d="M616.23,161.84s-30.1-35.31-37.28-15.57-13.21,76.47-13.21,76.47l50.9,5.39S609.76,192.22,616.23,161.84Z" transform="translate(0 -0.01)"/><path class="e13fd9f1-f7ec-40e7-bbf5-4cb5d669dd17" d="M651.67,40l4.7,43.87s10.36,2.33,16.76-8.09V57.27L662.4,37Z" transform="translate(0 -0.01)"/><path class="a5ee3ce2-3096-4e1e-9a6a-08a772f1e1e8" d="M656.23,24.88,604,15.34,566.84,44.46l-4.4,73.83s0,43.88,81,53.24a16.4,16.4,0,0,0,17.26-10.42c9.72-25.83,12.15-58.9,6.07-75C659.7,67.57,664.72,42,656.23,24.88Z" transform="translate(0 -0.01)"/><path class="b51cebb7-82c2-4c13-a3f8-da11c59d11f5" d="M606.85,2.28c-17.7-6-41.06,0-67,16.93S489.38,75.73,522.14,87.4s89.27,6,103-68.19C625.14,19.21,624.55,8.31,606.85,2.28Z" transform="translate(0 -0.01)"/><path class="b51cebb7-82c2-4c13-a3f8-da11c59d11f5" d="M637,4.16c-38-8.28-50.09,0-50.09,0l38.25,15c31.42,35.42,49.12,30.15,48,56.52C692.34,42.2,675,12.45,637,4.16Z" transform="translate(0 -0.01)"/><path class="a5ee3ce2-3096-4e1e-9a6a-08a772f1e1e8" d="M538.3,102.84c8.66,18.46,24.1,15.45,24.1,15.45L564,90.8C545.83,70.83,529.64,84.39,538.3,102.84Z" transform="translate(0 -0.01)"/><path class="bc8eacab-39e3-40aa-ac0f-29dc96747f4f" d="M615.4,221.19c-34.68-8.18-76.48-12-88.7,40s14.79,183.29-47,232.16-84.24,15.44-94.53,104.83c-43.09,71.38-70.1,90.67-102.9,153.06C221.82,754.45,103.49,877.93,45,900.43L61,923.59S258.48,811,324.71,796.25C398.71,766,580,550.59,580,550.59s61.09-82.32,72-162.06l24-23.63a23.76,23.76,0,0,0,2.83-30.56C662.23,310.46,631.71,264,615.4,221.19Z" transform="translate(0 -0.01)"/><path class="a24feb71-7d55-48ae-9372-081bc7cdfc1f" d="M615.4,221.19c-34.68-8.18-76.48-12-88.7,40s14.79,183.29-47,232.16a193.58,193.58,0,0,1-35,22.33c52.83,46,110.48,34.49,145.71,19.8,17.92-27.38,53.55-87.87,61.65-147l27-26.51a18.94,18.94,0,0,0,2.17-24.45C665.13,314.85,632.48,266,615.4,221.19Z" transform="translate(0 -0.01)"/><path class="b3002f8d-e218-4fb8-9a15-a3639ee83dc1" d="M574.93,368.21l33.87,29.16-19.72,6.43,21.86,2.14s-6.46,101-57.89,140.54h0a171.14,171.14,0,0,0,37.41-11c17.92-27.38,53.55-87.87,61.65-147l28.36-28C595.57,383.25,574.93,368.21,574.93,368.21Z" transform="translate(0 -0.01)"/><path class="e5647406-89a6-4d1f-9e72-e75a7fa9e788" d="M654.94,114.59c-1.47-2.31-2.85-4.64-4.16-7a57.62,57.62,0,0,1-3.36-7.32,19.52,19.52,0,0,1-1.33-7.93,11.42,11.42,0,0,0-1.17,4.24,18.48,18.48,0,0,0,.1,4.27,31.07,31.07,0,0,0,2.37,8.07,50.15,50.15,0,0,0,4,7.43,59.68,59.68,0,0,0,4.49,6A17,17,0,0,1,653.8,124a26,26,0,0,1-3.57,2,33.86,33.86,0,0,1-4,1.63,37.65,37.65,0,0,1-4.31,1.19,22.22,22.22,0,0,0,4.54-.19,28.43,28.43,0,0,0,4.55-1,25.68,25.68,0,0,0,4.37-1.82,23.75,23.75,0,0,0,3.9-2.62l.92-.74-.69-1C658,119.22,656.42,116.9,654.94,114.59Z" transform="translate(0 -0.01)"/><path class="e5647406-89a6-4d1f-9e72-e75a7fa9e788" d="M621.55,77.9c-.67.07-1.35.17-2,.28a59.25,59.25,0,0,0-8,1.79,43.23,43.23,0,0,0-7.66,3.13,26.63,26.63,0,0,0-6.3,4.82,26.57,26.57,0,0,1,6.87-3.57,38.49,38.49,0,0,1,7.36-1.6,48.27,48.27,0,0,1,7.31-.28,13.33,13.33,0,0,1,1.79.08c.59.08,1.18.08,1.77.14,1.14.11,2.38.26,3.35.45l1.79-5.71c-1.51,0-2.79.11-4.18.24C622.91,77.73,622.23,77.8,621.55,77.9Z" transform="translate(0 -0.01)"/><path class="e5647406-89a6-4d1f-9e72-e75a7fa9e788" d="M656.59,76.54a23.64,23.64,0,0,0-4.45.08,7.14,7.14,0,0,0-1.12.14l-1.14.18a18.62,18.62,0,0,0-2.33.51l.78,3.64c.56-.29,1.26-.6,1.91-.86.33-.14.66-.27,1-.38l1-.36a26.36,26.36,0,0,1,4.1-1,15.84,15.84,0,0,1,4.07-.1,9.35,9.35,0,0,1,3.72,1.33,9.25,9.25,0,0,0-3.35-2.28A15.84,15.84,0,0,0,656.59,76.54Z" transform="translate(0 -0.01)"/><path class="bcd012d3-c0d3-4192-85e5-5596ef09d7ae" d="M626.49,141.34c7.56,6.48,27.07,6.7,27.07,6.7L652,140.32l5.39-3.21S638.46,142.16,626.49,141.34Z" transform="translate(0 -0.01)"/><path class="ed1b6d77-c804-41df-ae4a-145e85eb2d31" d="M554,67.64c51.44.13,62.76-46.92,62.76-46.92C574.72,19.43,554,67.64,554,67.64Z" transform="translate(0 -0.01)"/><path class="ed1b6d77-c804-41df-ae4a-145e85eb2d31" d="M462.45,50.36s20.91-24.71,61.48-38.71C523.93,11.65,479.28,10.09,462.45,50.36Z" transform="translate(0 -0.01)"/><path class="ef7fb61d-7a84-4921-a87d-cd23e92e20bd" d="M325.88,683.5c-9.29,12.41-18.23,24.78-27.34,39.42,0,0,84.43,25.43,117,4.11,16-15.13,32.43-31.51,48.36-48C463.94,679.06,393.06,712.9,325.88,683.5Z" transform="translate(0 -0.01)"/><polygon class="ef7fb61d-7a84-4921-a87d-cd23e92e20bd" points="463.95 679.05 463.95 679.05 463.95 679.05 463.95 679.05"/><path class="ef7fb61d-7a84-4921-a87d-cd23e92e20bd" d="M335.15,671.19l-4.9,6.49c12.74,5.63,61.29,22.46,139.56-4.69l7.9-8.27S392.73,694.83,335.15,671.19Z" transform="translate(0 -0.01)"/><path class="a5ee3ce2-3096-4e1e-9a6a-08a772f1e1e8" d="M131.73,842.8h0C98.47,868.54,67.38,891.88,45,900.48l16.07,23.16S101,900.9,150.91,874.52h0C134,869.61,131.73,842.8,131.73,842.8Z" transform="translate(0 -0.01)"/><path class="a24feb71-7d55-48ae-9372-081bc7cdfc1f" d="M140.72,835.83l-9.34,7.24c1.3,10.45,5.56,28.67,19.53,31.45h0l11.54-6.06C158.64,865.66,142.66,862.77,140.72,835.83Z" transform="translate(0 -0.01)"/><path class="b5bbec95-0b53-49ac-9101-cf3b75bef956" d="M615.4,221.19,604,215.66l-12.64.7s44.92,86.7,47.45,95.07,15.7,2.55,14.73-2.84C651.91,299.66,615.4,221.19,615.4,221.19Z" transform="translate(0 -0.01)"/><path class="bbdb9e17-4c33-4e39-a435-4a13758e5f1e" d="M693.89,576.17s11.26,69.93,0,114c8.28,1.73,21.87,4.19,29,4.71,0-.1,14.84-35.65,0-101.36C713.75,587.61,704.06,581.76,693.89,576.17Z" transform="translate(0 -0.01)"/><path class="b5bbec95-0b53-49ac-9101-cf3b75bef956" d="M722.87,616.18s31.15,12.58,31.54,11.41,5.89-13,5.89-13L730.3,604C724.09,613.1,722.87,616.18,722.87,616.18Z" transform="translate(0 -0.01)"/><path class="b5bbec95-0b53-49ac-9101-cf3b75bef956" d="M720.89,646.63c3.24-3.85,10.61-30.1,10.61-30.1l-8.63-.35C719.23,629.47,720.08,643.36,720.89,646.63Z" transform="translate(0 -0.01)"/><path class="b5bbec95-0b53-49ac-9101-cf3b75bef956" d="M726.39,651.05c3.57-3.86,12.26-30.82,12.26-30.82l-8.57-1.93C726,631.59,725.5,647.77,726.39,651.05Z" transform="translate(0 -0.01)"/><path class="b5bbec95-0b53-49ac-9101-cf3b75bef956" d="M732.39,650.74c3.82-3.44,15.11-29.3,15.11-29.3l-7.91-2.84C734.23,631.38,731.92,647.39,732.39,650.74Z" transform="translate(0 -0.01)"/><path class="b5bbec95-0b53-49ac-9101-cf3b75bef956" d="M743,649.37c3.11-2.8,12.29-23.84,12.29-23.84l-6.44-2.31C744.54,633.61,742.64,646.64,743,649.37Z" transform="translate(0 -0.01)"/><path class="a5ee3ce2-3096-4e1e-9a6a-08a772f1e1e8" d="M556.51,220.74c-27.23,20.09,75.82,186.6,85.28,211.2S701,579.15,720.7,603.16l21.44-3.43s-36-127.76-69-186.93S623.07,171.64,556.51,220.74Z" transform="translate(0 -0.01)"/><path class="a5ee3ce2-3096-4e1e-9a6a-08a772f1e1e8" d="M742.14,599.73l-21.44,3.43c9.86,17.58,42.6,20.39,42.6,20.39l6.21,5.4s3.07-4.72-2.94-12.9S742.14,599.73,742.14,599.73Z" transform="translate(0 -0.01)"/><path class="bbdb9e17-4c33-4e39-a435-4a13758e5f1e" d="M681.23,569.48c10.83,96.07-4.92,116.24-4.92,116.24l11,3C700.75,652,687,572.34,687,572.34Z" transform="translate(0 -0.01)"/><path class="a5ee3ce2-3096-4e1e-9a6a-08a772f1e1e8" d="M695.47,830.54c-1.48,42.89-.2,85.22-4.78,112.71h39.44C730.45,915,742,874.14,756,832.39,732.23,839.31,708.67,834.54,695.47,830.54Z" transform="translate(0 -0.01)"/><path class="a24feb71-7d55-48ae-9372-081bc7cdfc1f" d="M696.35,811.27c-.37,6.42-.66,12.87-.88,19.31,10.37,4.26,34.78,9,60.5,1.81h0q2.84-8.49,5.77-17v-.11S724.4,819.55,696.35,811.27Z" transform="translate(0 -0.01)"/><path class="f2f29465-5021-45d2-91b4-5eb8a36a459e" d="M67.23,957.08a115.81,115.81,0,0,1-6.11-33.44L45.05,900.48c-32.8,1.93-45,18.65-45,18.65S21.27,986,67.57,986h66.89C131.83,968.65,73.31,975.08,67.23,957.08Z" transform="translate(0 -0.01)"/><path class="ef7fb61d-7a84-4921-a87d-cd23e92e20bd" d="M128.3,978.73H72.67c-41.81,0-63.16-54.52-66.92-65.11A31.92,31.92,0,0,0,0,919.13S21.22,986,67.52,986h66.89C134,983,131.71,980.58,128.3,978.73Z" transform="translate(0 -0.01)"/><path class="ef7fb61d-7a84-4921-a87d-cd23e92e20bd" d="M0,919.13a150.19,150.19,0,0,0,13.05,28.12c2.53-1.17,5.37-2.5,8.56-4,26.26-12.33,16.76-42.06,16.74-42.13C10.56,904.71,0,919.13,0,919.13Z" transform="translate(0 -0.01)"/><path class="ef7fb61d-7a84-4921-a87d-cd23e92e20bd" d="M98,971s-7,1.23-5.57,15h42C133,976.57,115,974.16,98,971Z" transform="translate(0 -0.01)"/><polygon class="ef7fb61d-7a84-4921-a87d-cd23e92e20bd" points="52.64 930.65 52.98 937.57 64.75 935.47 64.56 931.6 52.64 930.65"/><polygon class="ef7fb61d-7a84-4921-a87d-cd23e92e20bd" points="53.9 943.23 56.09 949.81 66.86 944.61 65.64 940.93 53.9 943.23"/><polygon class="ef7fb61d-7a84-4921-a87d-cd23e92e20bd" points="57.04 955.28 61.02 960.96 69.85 952.89 67.62 949.72 57.04 955.28"/><path class="f2f29465-5021-45d2-91b4-5eb8a36a459e" d="M730.13,943.25H690.69c-16.08,28-10.93,42.77-10.93,42.77H839.89C828.31,964.15,738.71,976.37,730.13,943.25Z" transform="translate(0 -0.01)"/><path class="ef7fb61d-7a84-4921-a87d-cd23e92e20bd" d="M829.12,977.87H679.76a14.68,14.68,0,0,1-.56-2.79c-.73,7.22.56,10.94.56,10.94H839.89C838.05,982.55,834.23,980,829.12,977.87Z" transform="translate(0 -0.01)"/><polygon class="ef7fb61d-7a84-4921-a87d-cd23e92e20bd" points="739.92 966.09 746.07 969.3 750.2 958.08 746.76 956.29 739.92 966.09"/><polygon class="ef7fb61d-7a84-4921-a87d-cd23e92e20bd" points="730.14 957.16 734.82 962.28 742.55 953.16 739.93 950.29 730.14 957.16"/><polygon class="ef7fb61d-7a84-4921-a87d-cd23e92e20bd" points="755.02 958.47 752.77 970.22 759.69 970.64 758.89 958.71 755.02 958.47"/><path class="ef7fb61d-7a84-4921-a87d-cd23e92e20bd" d="M686.68,950.81c-11.14,23.07-6.92,35.21-6.92,35.21h31.71C711.28,955.29,686.69,950.82,686.68,950.81Z" transform="translate(0 -0.01)"/><path class="ef7fb61d-7a84-4921-a87d-cd23e92e20bd" d="M800.17,971.28h0s-5.5,4-5.11,14.74h44.83C835.37,977.49,819,974.15,800.17,971.28Z" transform="translate(0 -0.01)"/><path class="e75f449b-e5a1-4653-8caf-c98aaa919d81" d="M604.08,95.4s11.12,4.23,19.79,1.27c0,0,2.31-1.45,1.12-6.9C625,89.77,621.23,86.54,604.08,95.4Z" transform="translate(0 -0.01)"/><path class="e5647406-89a6-4d1f-9e72-e75a7fa9e788" d="M617.92,88.51a52.19,52.19,0,0,0-6.54,3,19.6,19.6,0,0,1-6.58,2.12,13.07,13.07,0,0,1-6.8-1.26,13.47,13.47,0,0,0,6.84,1.84,20.16,20.16,0,0,0,7-1.63,50.86,50.86,0,0,1,6.56-2.38,20.89,20.89,0,0,1,3.34-.51,14.15,14.15,0,0,1,3.25.11l.15-2.3A18.66,18.66,0,0,0,617.92,88.51Z" transform="translate(0 -0.01)"/><path class="e5647406-89a6-4d1f-9e72-e75a7fa9e788" d="M623.67,89.3a4.22,4.22,0,0,0-2.31,8,18.07,18.07,0,0,0,2.51-.63s2.31-1.45,1.12-6.9A3,3,0,0,0,623.67,89.3Z" transform="translate(0 -0.01)"/><path class="e75f449b-e5a1-4653-8caf-c98aaa919d81" d="M623.51,90.81a1,1,0,1,0,1,1A1,1,0,0,0,623.51,90.81Z" transform="translate(0 -0.01)"/><path class="e75f449b-e5a1-4653-8caf-c98aaa919d81" d="M648.8,92.24c7.1,4.6,13.32,2.45,13.32,2.45,1.59-3,.17-7.68.17-7.68A22.51,22.51,0,0,0,648.8,92.24Z" transform="translate(0 -0.01)"/><path class="e5647406-89a6-4d1f-9e72-e75a7fa9e788" d="M662.09,87.13h-.3a4.87,4.87,0,0,0-4.71,5,4.92,4.92,0,0,0,1.21,3,13.1,13.1,0,0,0,3.79-.43c1.56-2.85.4-7.24.3-7.63Z" transform="translate(0 -0.01)"/><path class="e75f449b-e5a1-4653-8caf-c98aaa919d81" d="M661.16,88.5a1,1,0,1,0,1,1A1,1,0,0,0,661.16,88.5Z" transform="translate(0 -0.01)"/><path class="e5647406-89a6-4d1f-9e72-e75a7fa9e788" d="M662,86.36c-.71.34-4-.24-7.17,1.07s-6,4.81-6,4.81c5.28-4.69,13-5.21,13.49-5.23s.88-1.75.88-1.75A3.94,3.94,0,0,1,662,86.36Z" transform="translate(0 -0.01)"/><path class="e56264ff-d19b-4315-82aa-94aca8ceffca" d="M545.23,86.52c-2.56.31-4.21,4-3.69,8.24s3,7.41,5.58,7.09,4.21-4,3.69-8.24S547.75,86.2,545.23,86.52Z" transform="translate(0 -0.01)"/><path class="e56264ff-d19b-4315-82aa-94aca8ceffca" d="M585,220.25c-5.41-2.17-10.87-1.28-12.18,2s2,7.69,7.43,9.86,10.87,1.28,12.18-2S590.39,222.42,585,220.25Z" transform="translate(0 -0.01)"/><path class="b5bbec95-0b53-49ac-9101-cf3b75bef956" d="M625.14,19.21s20.15,36.16,37.11,39.4l-.48-7.41S647.05,41.78,625.14,19.21Z" transform="translate(0 -0.01)"/></svg>