<svg id="fb40a719-a3e5-4503-9a0b-fde85c145b07" data-name="Layer 2" xmlns="http://www.w3.org/2000/svg" xmlns:xlink="http://www.w3.org/1999/xlink" viewBox="0 0 570 575.24"><defs><style>.ed2b80a5-b5eb-4ec3-a781-d2a4a0b9efc7{fill:none;}.fd5fa0a3-9d12-4ba6-bc88-923f90e8fe6f{fill:#efd7c7;}.b0b597bb-8182-423f-a3cf-b86dcbc0c022{clip-path:url(#f79f9c44-ebc4-41ca-94e4-bbf627b0a2b5);}.e48f1d16-408b-4252-a64c-a6622268fecb{fill:#513232;}.a81eb60f-bf7b-4913-b19e-1ac68977970c{fill:#a37f79;}.bf69fe39-e95e-4dc8-a12b-a2d8a788c905{fill:#fff;}.e96e28da-6e09-4132-9dc6-50b28e27c46f{fill:#110808;}.f7c80d4c-b3a4-47ec-8b10-10ce36c264f5{fill:#ea9466;}.a1b7bfb6-fb00-4ee5-a99e-657002e1b9c3{fill:#b96d52;}.a9859f76-0fae-4bdb-8f11-bc85ff78a2f4,.ec37d6d5-bdb2-4b07-b2c0-63b2aeffc17e,.ef1556fc-d97f-4f65-b878-8c5f0914da35{fill:#b76456;}.ef1556fc-d97f-4f65-b878-8c5f0914da35{opacity:0.57;}.a0957827-0b29-4cff-b65b-228d22297aaf{fill:#3f1f1c;}.b0ebaa94-0f73-4f57-89c0-9e6016b7c1c8{fill:#1e0f0f;}.a9859f76-0fae-4bdb-8f11-bc85ff78a2f4{opacity:0.64;}</style><clipPath id="f79f9c44-ebc4-41ca-94e4-bbf627b0a2b5" transform="translate(-934.5 -486.48)"><circle class="ed2b80a5-b5eb-4ec3-a781-d2a4a0b9efc7" cx="1218.5" cy="771.48" r="285"/></clipPath></defs><title>maleAvatarIcon</title><circle class="fd5fa0a3-9d12-4ba6-bc88-923f90e8fe6f" cx="285" cy="285" r="285"/><g class="b0b597bb-8182-423f-a3cf-b86dcbc0c022"><path class="e48f1d16-408b-4252-a64c-a6622268fecb" d="M1318.83,839.19l109.6,65.1A25.12,25.12,0,0,1,1439,916.7l9.85,25c-9.5,12.78-86.35,112.54-222,117-147.15,4.83-233.37-106.76-241-117l14.78-30.38a25.14,25.14,0,0,1,9.51-10.46l106.71-65.16Z" transform="translate(-934.5 -486.48)"/><path class="a81eb60f-bf7b-4913-b19e-1ac68977970c" d="M1163.9,811.49l-47.07,24.2a99.18,99.18,0,0,0,54.27,85q-5.47-19.5-10.94-39h118.53l-10.52,39c10.2-6.9,29.7-22.24,41.66-49a113.67,113.67,0,0,0,9-32.5l-41.95-25.07Z" transform="translate(-934.5 -486.48)"/><path class="bf69fe39-e95e-4dc8-a12b-a2d8a788c905" d="M1160.16,881.69h118.53l-10.52,39-12.67,3.66c3.5,24.45,6.31,50.73,8,78.67,1.08,17.93,1.62,35.2,1.72,51.74a163.87,163.87,0,0,1-93.83.19q4-65.62,8.11-131.26l-8.4-3Z" transform="translate(-934.5 -486.48)"/><path class="e96e28da-6e09-4132-9dc6-50b28e27c46f" d="M1432,906.94a302.4,302.4,0,0,0-44.68,94.41l-2.76,2A278,278,0,0,1,1429,904.66Z" transform="translate(-934.5 -486.48)"/><path class="e96e28da-6e09-4132-9dc6-50b28e27c46f" d="M1002.64,906.94a302.4,302.4,0,0,1,44.68,94.41l2.76,2a276.39,276.39,0,0,0-45-99.41Z" transform="translate(-934.5 -486.48)"/><path class="f7c80d4c-b3a4-47ec-8b10-10ce36c264f5" d="M1283.5,853.69q-2.41,14-4.81,28a141.61,141.61,0,0,1-31.53,10c-38.56,7.4-70.82-3.22-87-10q-2.33-13.83-4.66-27.67a248,248,0,0,0,9.35-53.71,244.35,244.35,0,0,0,.06-29.63q-.17-3.06-.41-6l79.41-.49,29.25-.18c0,.88,0,1.77.07,2.66s0,1.58.08,2.38c.4,12.28,1.29,25.34,2.86,39.09q.7,6.27,1.6,12.74,1.41,10,3.11,19.38Q1282.13,847.14,1283.5,853.69Z" transform="translate(-934.5 -486.48)"/><path class="a1b7bfb6-fb00-4ee5-a99e-657002e1b9c3" d="M1276.88,814.12c-4.47,2.17-13.68,3.31-28.06,3.31h0c-.06,0-46.14,2.38-83.91-46.75-2.62-3.41-5.21-7.14-5.21-7.14-1.71-2.47-3.22-4.77-4.54-6.85l88.75,7.51,29.32,2.48c0,.79,0,1.58.08,2.38C1273.86,784.43,1275.08,799.46,1276.88,814.12Z" transform="translate(-934.5 -486.48)"/><path class="e48f1d16-408b-4252-a64c-a6622268fecb" d="M1133.33,673.19l-17.19-30.6a18,18,0,0,1,.07-17.77l8.08-14.13c-1.91.48-4.54,1.11-7.71,1.75-6.54,1.31-7.18,1-7.5.75-2.72-2.14,1.93-13,5-18.5,4.34-7.86,15-22.47,43.21-33-3-.67-7.5-1.6-13-2.5-15.26-2.52-19.37-1.69-20-3.5-1.58-4.56,20.9-20,47-26.25a115.6,115.6,0,0,1,46.75-1.25,42.44,42.44,0,0,1-6-10.5c-1.67-4.25-2.57-6.52-1.75-8.25,2.7-5.7,22.25-1.58,23.75-1.25,9.68,2.1,27.48,8.2,46.46,29.5q3.32-16,5.6-15.88,2.92.18,4.17,26.88c20.47,4.15,25.48,7,25.37,9,0,.9-1.81,2-5.35,4a86.94,86.94,0,0,1-10,5q26.36,13.83,25,17.5-.87,2.35-13.25.5c4.26,3.91,11.14,11.48,13.25,22.5.48,2.53,1.83,11-7,32.83a189.88,189.88,0,0,1-18.45,34.54Z" transform="translate(-934.5 -486.48)"/><path class="f7c80d4c-b3a4-47ec-8b10-10ce36c264f5" d="M1299.84,674.56c2.23-1.49,8.39-5.15,14.81-3.35,9.83,2.76,13.19,16.34,13.21,23.62,0,15.49-15,30.79-37.55,38.4Q1295.07,703.91,1299.84,674.56Z" transform="translate(-934.5 -486.48)"/><path class="ef1556fc-d97f-4f65-b878-8c5f0914da35" d="M1316.13,686.43a5.35,5.35,0,0,0-4-1.47c-8,.91-10.61,27.48-11,31.86,1.63-.91,13.1-7.44,16.51-16.59a14.48,14.48,0,0,0,.94-8.87A12.84,12.84,0,0,0,1316.13,686.43Z" transform="translate(-934.5 -486.48)"/><path class="ec37d6d5-bdb2-4b07-b2c0-63b2aeffc17e" d="M1311.5,683.69c-5.33.08-8.93,12.39-9.51,14.47-2.75,9.85-1.42,18.64-.84,18.66s.51-7.08,3.72-17.92c3-10.2,5.63-12.75,7.89-13,1.64-.18,3.23.82,3.37.53S1313.88,683.65,1311.5,683.69Z" transform="translate(-934.5 -486.48)"/><path class="ec37d6d5-bdb2-4b07-b2c0-63b2aeffc17e" d="M1311,698.74c2.68,4.74-.25,10.85-.69,10.79s1.82-6-1.29-9.68c-1.75-2.09-4.79-3-4.6-4.63a1.31,1.31,0,0,1,.54-.94C1306.24,693.57,1309.51,696,1311,698.74Z" transform="translate(-934.5 -486.48)"/><path class="f7c80d4c-b3a4-47ec-8b10-10ce36c264f5" d="M1139.49,674.68c-2.21-1.53-8.31-5.28-14.76-3.59-9.87,2.6-13.45,16.13-13.58,23.41-.29,15.49,14.46,31,36.93,39Q1143.78,704.09,1139.49,674.68Z" transform="translate(-934.5 -486.48)"/><path class="ef1556fc-d97f-4f65-b878-8c5f0914da35" d="M1124.3,686.39a5.39,5.39,0,0,1,4-1.4c8,1,10.17,27.64,10.51,32-1.62-.93-13-7.64-16.24-16.85a14.51,14.51,0,0,1-.8-8.89A12.86,12.86,0,0,1,1124.3,686.39Z" transform="translate(-934.5 -486.48)"/><path class="ec37d6d5-bdb2-4b07-b2c0-63b2aeffc17e" d="M1129,683.73c5.33.17,8.73,12.53,9.28,14.62,2.59,9.89,1.12,18.66.54,18.67s-.4-7.08-3.43-18c-2.85-10.24-5.43-12.83-7.68-13.12-1.64-.21-3.25.77-3.38.47S1126.6,683.65,1129,683.73Z" transform="translate(-934.5 -486.48)"/><path class="ec37d6d5-bdb2-4b07-b2c0-63b2aeffc17e" d="M1129.19,698.79c-2.75,4.69.08,10.85.52,10.8s-1.72-6,1.44-9.66c1.79-2.06,4.84-2.88,4.67-4.56a1.28,1.28,0,0,0-.52-1C1134.07,693.69,1130.77,696.1,1129.19,698.79Z" transform="translate(-934.5 -486.48)"/><path class="f7c80d4c-b3a4-47ec-8b10-10ce36c264f5" d="M1304.58,643.69q-2.37,15.22-4.75,30.46-6.25,40.1-12.5,80.18a16.12,16.12,0,0,1-5.94,10.2A100.93,100.93,0,0,1,1228.16,786c-34.67,3.11-60.54-13.27-71.48-21.71a16.16,16.16,0,0,1-6-9.85q-4.1-22.28-7.83-45.49-2.89-18.12-5.38-35.78v-.07q-2.22-15.66-4.12-30.93a80.32,80.32,0,0,1,27.5-35.5,78.45,78.45,0,0,1,25.5-12l-7.21,8.72q-9.52,11.52-19,23a99.75,99.75,0,0,0,61-27h0a104.35,104.35,0,0,0,11.8-13.2,165,165,0,0,1-21.51,34.5,76.29,76.29,0,0,0,52.26-25.77c1.89-2.14,3.4-4.1,4.58-5.73a127.36,127.36,0,0,1,15.66,16.5A129.19,129.19,0,0,1,1304.58,643.69Z" transform="translate(-934.5 -486.48)"/><path class="a0957827-0b29-4cff-b65b-228d22297aaf" d="M1199.28,653a3.91,3.91,0,0,1,1.25,1,4.47,4.47,0,0,1,.55,4.78,4.62,4.62,0,0,1-.54.84,4.32,4.32,0,0,1-5.57.78,38.39,38.39,0,0,0-16-5.69c-11.72-1.24-21,3.8-21.59,2.36-.51-1.15,4.81-5.52,11.05-7.79C1181,644.66,1193.57,650,1199.28,653Z" transform="translate(-934.5 -486.48)"/><path class="a0957827-0b29-4cff-b65b-228d22297aaf" d="M1238.55,653a3.91,3.91,0,0,0-1.25,1,4.47,4.47,0,0,0-.55,4.78,4.62,4.62,0,0,0,.54.84,4.32,4.32,0,0,0,5.57.78,38.39,38.39,0,0,1,16.05-5.69c11.72-1.24,21,3.8,21.59,2.36.51-1.15-4.81-5.52-11-7.79C1256.86,644.66,1244.26,650,1238.55,653Z" transform="translate(-934.5 -486.48)"/><path class="a0957827-0b29-4cff-b65b-228d22297aaf" d="M1180.5,661.69c8.66-2.91,18,4.59,17.66,5.33s-8-4.29-16.83-1.67c-6.4,1.91-9.66,6.67-10.17,6.17S1174,663.86,1180.5,661.69Z" transform="translate(-934.5 -486.48)"/><path class="a0957827-0b29-4cff-b65b-228d22297aaf" d="M1258.77,661.69c-8.67-2.91-18,4.59-17.66,5.33s8-4.29,16.83-1.67c6.4,1.91,9.66,6.67,10.17,6.17S1265.26,663.86,1258.77,661.69Z" transform="translate(-934.5 -486.48)"/><ellipse class="b0ebaa94-0f73-4f57-89c0-9e6016b7c1c8" cx="253.33" cy="191.96" rx="6.67" ry="10.58"/><path class="bf69fe39-e95e-4dc8-a12b-a2d8a788c905" d="M1189.5,674.77a1.59,1.59,0,1,1-1.59-1.58A1.58,1.58,0,0,1,1189.5,674.77Z" transform="translate(-934.5 -486.48)"/><ellipse class="b0ebaa94-0f73-4f57-89c0-9e6016b7c1c8" cx="315.33" cy="191.96" rx="6.67" ry="10.58"/><path class="bf69fe39-e95e-4dc8-a12b-a2d8a788c905" d="M1251.41,674.77a1.58,1.58,0,1,1-1.58-1.58A1.58,1.58,0,0,1,1251.41,674.77Z" transform="translate(-934.5 -486.48)"/><path class="ec37d6d5-bdb2-4b07-b2c0-63b2aeffc17e" d="M1216.38,684.7l-11.44,30.52a1.79,1.79,0,0,0,.58,2.07,21.78,21.78,0,0,0,26.62,0,1.82,1.82,0,0,0,.56-2.15q-6.48-15.27-13-30.55A1.81,1.81,0,0,0,1216.38,684.7Z" transform="translate(-934.5 -486.48)"/><path class="ec37d6d5-bdb2-4b07-b2c0-63b2aeffc17e" d="M1253.2,713.81a3.19,3.19,0,1,1,5.22,3.63,51.91,51.91,0,0,1-20.59,16c-20.24,8.45-40.47.38-40.38-.5s22.14,6,41.25-5.38A47,47,0,0,0,1253.2,713.81Z" transform="translate(-934.5 -486.48)"/><path class="a9859f76-0fae-4bdb-8f11-bc85ff78a2f4" d="M1160.83,606.69a78.45,78.45,0,0,1,25.5-12l-7.21,8.72a70.58,70.58,0,0,0-14.79,7.53,74.25,74.25,0,0,0-26.25,31.75q-.32,15.25-.62,30.5v-.07q-2.22-15.66-4.12-30.93A80.32,80.32,0,0,1,1160.83,606.69Z" transform="translate(-934.5 -486.48)"/><path class="a9859f76-0fae-4bdb-8f11-bc85ff78a2f4" d="M1232.84,586.19a165,165,0,0,1-21.51,34.5,73.09,73.09,0,0,0,7-13.25,71.86,71.86,0,0,0,2.71-8h0A104.35,104.35,0,0,0,1232.84,586.19Z" transform="translate(-934.5 -486.48)"/><path class="a9859f76-0fae-4bdb-8f11-bc85ff78a2f4" d="M1304.58,643.69q-2.37,15.22-4.75,30.46-.39-15.46-.75-31a125.87,125.87,0,0,0-35.49-48.27c1.89-2.14,3.4-4.1,4.58-5.73a127.36,127.36,0,0,1,15.66,16.5A129.19,129.19,0,0,1,1304.58,643.69Z" transform="translate(-934.5 -486.48)"/></g></svg>