<svg width="184" height="291" fill="none" xmlns="http://www.w3.org/2000/svg"><path d="M95.826 120.128c-.18 3.567-.642 7.699-1.309 12.267-1.206 8.058-3.054 17.245-5.132 26.175-4.568 20.478-10.008 39.365-10.008 39.365a238.41 238.41 0 0 1-4.132 35.927 170.71 170.71 0 0 1-.719 3.849c-.77 4.132-1.59 8.11-2.36 11.779-2.849 13.037-5.44 22.454-5.44 22.454l-12.498-2.155a232.255 232.255 0 0 1-.796-20.196c0-3.952 0-7.699.257-11.343 0-1.899.205-3.746.334-5.517 1.462-21.607 5.132-35.927 5.132-38.775 0-14.448.95-27.048 2.104-37.8 3.234-29.64 8.956-45.088 8.956-45.088 8.084-18.58 20.196-17.296 24.2-3.619a39.317 39.317 0 0 1 1.41 12.677Z" fill="#FFEDE5"/><path d="M135.576 253.545c0 5.132-.308 10.547-.77 16.141l-12.498 2.387s-2.207-8.084-4.798-19.683c-.95-4.26-1.951-8.982-2.9-13.96-.257-1.411-.539-2.874-.796-4.311a240.532 240.532 0 0 1-4.157-36.184s-5.492-19.066-10.11-39.647c-2.002-8.828-3.85-17.964-5.133-25.945-.693-4.542-1.13-8.725-1.309-12.266a39.236 39.236 0 0 1 1.309-12.831c4.054-13.678 16.141-14.935 24.225 3.618 0 0 5.697 15.398 8.904 44.857a374.873 374.873 0 0 1 2.13 38.031c0 2.849 3.696 16.886 5.133 38.185 0 1.797.231 3.619.333 5.492.411 5.107.514 10.445.437 16.116Z" fill="#FFEDE5"/><path d="M134.986 232.04a202.706 202.706 0 0 1-21.197 2.079 240.51 240.51 0 0 1-4.132-36.184s-5.491-19.066-10.11-39.647c-2.002-8.828-3.85-17.964-5.133-25.945-1.206 8.058-3.054 17.245-5.132 26.176-4.465 20.529-9.906 39.416-9.906 39.416a238.41 238.41 0 0 1-4.131 35.927 596.162 596.162 0 0 1-21.223-1.36c1.463-21.607 5.133-35.927 5.133-38.775 0-14.448.95-27.048 2.104-37.8 3.233-29.64 8.956-45.088 8.956-45.088 8.083-18.58 20.196-17.296 24.2-3.619 3.079-10.444 10.854-13.652 17.963-6.312a33.63 33.63 0 0 1 6.261 9.931 128.017 128.017 0 0 1 3.952 14.396 272.96 272.96 0 0 1 5.055 30.589 374.857 374.857 0 0 1 2.13 38.031c.026 2.849 3.696 16.911 5.21 38.185Z" fill="#AB8DA8"/><path d="M122.694 125.363c-7.032-7.673-37.852-9.546-37.852-9.546l27.638-14.653a33.66 33.66 0 0 1 6.262 9.931 128.152 128.152 0 0 1 3.952 14.268Z" fill="#826B80"/><path d="M68.367 284.673c.014.128.014.257 0 .385-.41 5.774-5.132 4.901-12.112 5.132-5.569 0-8.546-3.105-8.212-6.467.11-1.018.48-1.99 1.078-2.823a26.424 26.424 0 0 0 3.438-8.083 5.904 5.904 0 0 1 2.079-3.285c4.388-3.541 8.597-.821 10.701 1.129a6.06 6.06 0 0 1 1.873 3.182 48.425 48.425 0 0 1 1.155 10.83ZM132.856 290.062c-7.16 0-12.036.821-12.164-5.389v-.539a44.22 44.22 0 0 1 1.129-10.111 6.745 6.745 0 0 1 2.104-3.644 7.704 7.704 0 0 1 9.906-1.463 6.878 6.878 0 0 1 2.771 4.029 25.45 25.45 0 0 0 3.388 7.699c.335.483.603 1.01.795 1.565 1.232 3.901-1.668 7.955-7.929 7.853ZM107.399 20.868a5.417 5.417 0 0 0 1.257-2.823c.073-1.659.375-3.3.898-4.876a10.69 10.69 0 0 0 1.13-2.232 2.57 2.57 0 0 0-.668-2.361c-.436-.436-1.052-.744-1.257-1.335a4.106 4.106 0 0 1 0-1.129 3.33 3.33 0 0 0-1.925-2.566 11.903 11.903 0 0 0-3.31-1.052 7.265 7.265 0 0 1-3.157-1.18A8.721 8.721 0 0 0 99.11.337a4.183 4.183 0 0 0-2.695-.205 22.403 22.403 0 0 0-4.952 1.463c-.573.3-1.187.517-1.822.641-.95 0-1.95-.18-2.9 0a5.133 5.133 0 0 0-3.182 2.926c-.173.397-.437.749-.77 1.026-.42.214-.87.361-1.334.436a3.875 3.875 0 0 0-2.361 2.746 10.262 10.262 0 0 0 0 3.85c.046 1.257.184 2.509.41 3.746 2.566 10.265 3.31 7.417 3.31 7.417l7.7-.796c3.49-.385 6.954-.796 10.418-1.283 1.386-.205 2.771-.488 4.157-.719a3.388 3.388 0 0 0 2.31-.718Z" fill="#3B2645"/><path d="M82.097 19.918a2.746 2.746 0 0 0-4.44 0c-2.13 2.746 1.796 7.699 4.696 7.853a65.16 65.16 0 0 0-.256-7.853Z" fill="#E0855C"/><path d="M124.413 49.558a156.599 156.599 0 0 0-6.749 22.274c-.205.976-.359 1.925-.539 2.849-.18.924-.257 1.617-.359 2.36-.103.745 0 1.053-.206 1.772-.795 7.698-2.284 29.075-2.566 32.719v.538c-19.94 6.134-41.059 1.258-41.059 1.258l-.154-1.129c-.462-3.542-4.773-41.419-4.927-42.933-.898-9.007-1.54-17.296-1.591-22.454 0-.77.667-1.206 1.668-1.488 1.617-.462 3.9-.54 5.697-.847a82.14 82.14 0 0 1 10.11-1.052h.822c.17-.01.342-.01.513 0h.616l.642-10.265h1a13.06 13.06 0 0 0 1.976.154 17.25 17.25 0 0 0 2.361-.128l1.104-.129c.539 0 1.026-.18 1.514-.308a16.146 16.146 0 0 0 2.31-.718c.23-.05.454-.127.667-.231h.205l.513-.231c.942-.41 1.852-.89 2.72-1.437l1.206-.821.206-.18c.163-.107.318-.227.462-.36l.282-.23v.693a57.654 57.654 0 0 0-.359 6.005v7.98h1.437a.152.152 0 0 1 .179 0c2.081.029 4.156.209 6.211.54a55.143 55.143 0 0 1 11.445 2.77c.564.232.975.437 1.334.617.359.18 1.489 1.95 1.309 2.412Z" fill="#FFEDE5"/><path d="M102.96 28.567a12.645 12.645 0 0 1-6.089 8.938 12.65 12.65 0 0 1-10.771.967l.334-5.312a20.708 20.708 0 0 0 16.526-4.593Z" fill="#E0855C"/><path d="M82.379 12.194c-1.438 1.591-1.463 5.133-1.463 8.853 0 11.523 3.541 15.013 9.443 15.398 5.903.385 12.01-2.002 12.831-12.831.488-5.364 1.001-10.265-1-12.575-2.9-3.156-15.449-3.695-19.811 1.155Z" fill="#FFEDE5"/><path d="M102.446 22.28s1.642-4.825 4.568-2.387c2.925 2.438-.796 9.777-5.133 9.366-.025 0-.769-5.312.565-6.98Z" fill="#FFEDE5"/><path d="M105.757 22.1a3.896 3.896 0 0 0-1.694 1.18 4.958 4.958 0 0 0-1.232 1.668c0 .18.206.282.334.18.128-.103.641-.796.975-1.155.228.271.519.482.847.616a.28.28 0 0 0 .339-.087.283.283 0 0 0-.005-.35 2.083 2.083 0 0 0-.693-.641c.472-.324.918-.685 1.334-1.078a.206.206 0 0 0 .02-.242.204.204 0 0 0-.225-.091Z" fill="#E0855C"/><path d="M85.972 20.611s-.976.385-.899-1.36c.077-1.745.822-1.411.822-1.411s.693 0 .615 1.36c-.077 1.36-.538 1.411-.538 1.411ZM96.057 20.303s-.975.385-.873-1.385c.103-1.771.796-1.386.796-1.386s.693 0 .641 1.36c-.05 1.36-.564 1.411-.564 1.411Z" fill="#3B2645"/><path d="M90.693 25.18c-.513 0-1.668.256-1.925-.283.069-1.227.284-2.442.642-3.618a47.44 47.44 0 0 0 1-4.8h-.18a55.899 55.899 0 0 0-2.103 8.752.232.232 0 0 0 .12.286.23.23 0 0 0 .11.021h2.207c.283.077.334-.333.129-.359Z" fill="#E0855C"/><path d="M87.948 15.3a11.046 11.046 0 0 0-1.848 0 9.91 9.91 0 0 0-1.925-.257.384.384 0 0 0-.282.641 4.543 4.543 0 0 0 4.157.565.487.487 0 0 0-.102-.95ZM98.776 13.94a7.698 7.698 0 0 1-2.797.923c-.641 0-1.411-.128-1.924.308a.308.308 0 0 0 0 .334c1 1.462 4.285-.257 5.132-1.284.026-.18-.23-.359-.41-.282Z" fill="#3B2645"/><path d="M94.465 28.181a11.546 11.546 0 0 0-3.26 0c-.743 0-1.796-.128-2.334.488.59.539 1.59.308 2.335.282 1.084.103 2.175.103 3.259 0a.385.385 0 1 0 0-.77Z" fill="#E0855C"/><path d="M182.332 161.803H2.313a1.667 1.667 0 0 1-1.18-2.847 1.668 1.668 0 0 1 1.18-.489h180.019a1.666 1.666 0 0 1 1.668 1.668 1.668 1.668 0 0 1-1.668 1.668Z" fill="#3B2645"/><path d="M8.01 168.732a2.849 2.849 0 0 1-2.848-2.848V154.31a2.849 2.849 0 0 1 5.697 0v11.522a2.819 2.819 0 0 1-1.742 2.686c-.351.145-.727.218-1.107.214Z" fill="#3B2645"/><path d="M13.707 178.817a2.85 2.85 0 0 1-2.848-2.848v-31.667a2.875 2.875 0 0 1 5.722 0v31.667a2.875 2.875 0 0 1-2.874 2.848Z" fill="#291B30"/><path d="M19.43 183.59a2.812 2.812 0 0 1-2.022-.826 2.835 2.835 0 0 1-.827-2.022v-40.264a2.849 2.849 0 0 1 5.697 0v40.264a2.849 2.849 0 0 1-2.848 2.848ZM174.145 168.732a2.847 2.847 0 0 0 2.849-2.848V154.31a2.846 2.846 0 0 0-2.849-2.848 2.85 2.85 0 0 0-2.848 2.848v11.522a2.844 2.844 0 0 0 1.746 2.678 2.84 2.84 0 0 0 1.102.222Z" fill="#3B2645"/><path d="M168.449 178.817a2.847 2.847 0 0 0 2.849-2.848v-31.667a2.878 2.878 0 0 0-2.862-2.603 2.876 2.876 0 0 0-2.861 2.603v31.667a2.874 2.874 0 0 0 2.874 2.848Z" fill="#291B30"/><path d="M162.726 183.59a2.81 2.81 0 0 0 1.094-.21 2.81 2.81 0 0 0 1.545-1.544c.142-.347.213-.719.21-1.094v-40.264a2.846 2.846 0 0 0-2.849-2.848 2.85 2.85 0 0 0-2.848 2.848v40.264a2.85 2.85 0 0 0 2.848 2.848Z" fill="#3B2645"/><path d="M77.4 66.187a51.579 51.579 0 0 1-4.337 10.547c-.744 1.54-3.747 8.058-3.875 8.314-4.67 10.24-11.266 25.354-11.856 27.151-1.462 5.799-4.593 39.545-4.619 39.545-3.208 4.824-9.315 2.566-9.315 2.566s0-1.026-.282-2.771c-.693-7.468-2.336-28.46-.437-40.88.54-3.439 2.566-11.779 5.133-21.197 2.053-7.698 2.95-15.012 5.389-22.505a62.027 62.027 0 0 1 9.161-17.964 11.728 11.728 0 0 1 5.671-3.567c.95 0 1.36 1.232 2.156 1.591a10.625 10.625 0 0 1 5.132 5.133A21.839 21.839 0 0 1 77.4 66.187Z" fill="#FFEDE5"/><path d="M42.782 157.774c0-1.129.231-2.284.257-3.413v-2.925a7.419 7.419 0 0 1 8.443-1.335c.618.452 1.186.968 1.693 1.54 1.027.975 2.207 1.745 3.182 2.772a4.615 4.615 0 0 1 1.386 3.823 5.136 5.136 0 0 0-3.182 1.591c-.95 1.181-.539 2.259-1 3.567-.463 1.309-1.592 1.437-2.567 1.591-3.285.488-7.98.642-8.263-3.592a24.632 24.632 0 0 1 .051-3.619ZM145.507 151.359c-.154 1.745-.283 2.771-.283 2.771s-6.107 2.336-9.341-2.566c0 0-3.13-33.643-4.696-39.442-.256-.975-2.258-5.723-4.773-11.471-2.515-5.748-10.598-23.327-10.855-23.917a50.156 50.156 0 0 1-4.337-10.547 21.84 21.84 0 0 1 1.976-14.268 10.83 10.83 0 0 1 5.133-5.133 5.13 5.13 0 0 1 2.566-.538c.281-.001.559.051.821.154.475.131.926.34 1.334.615.629.44 1.213.938 1.745 1.489a43.422 43.422 0 0 1 9.932 17.245c2.566 7.698 4.08 15.987 6.03 23.403 2.566 9.418 4.568 17.758 5.132 21.197 1.951 12.549.283 33.54-.384 41.008Z" fill="#FFEDE5"/><path d="M145.738 157.8c0-1.283-.154-2.566-.179-3.439v-2.925a7.368 7.368 0 0 0-8.418-1.334c-.62.457-1.196.972-1.719 1.539-1.001.975-2.207 1.745-3.156 2.772a4.535 4.535 0 0 0-1.386 3.823c1.176.31 2.326.714 3.439 1.206.949.976.231 1.848.231 2.977 0 1.566 1.077 2.105 2.566 2.361l2.874.513a7.28 7.28 0 0 0 4.568-.385c.207-.118.39-.275.539-.461.122-.188.209-.397.256-.616.491-1.971.622-4.014.385-6.031Z" fill="#FFEDE5"/><path d="m117.664 71.833 1.437 40.161c-23.712 9.264-49.348.615-49.348.615l-.565-38.492-.77-.231c-1.155-.36-2.386-.745-3.644-1.258-.718-.282-1.462-.564-2.207-.924a94.968 94.968 0 0 1-9.366-4.927 62.025 62.025 0 0 1 9.161-17.963 11.907 11.907 0 0 1 5.671-3.567c1.617-.436 3.9-.54 5.697-.847 3.346-.56 6.722-.91 10.111-1.052l9.315 23.096a200.76 200.76 0 0 0 10.496-23.276h.257a.152.152 0 0 1 .179 0c2.081.028 4.156.208 6.211.54a55.596 55.596 0 0 1 11.47 2.822c.476.131.926.34 1.335.616.628.439 1.212.937 1.745 1.488a43.42 43.42 0 0 1 9.931 17.245 95.92 95.92 0 0 1-9.469 3.747c-4.26 1.334-7.647 2.207-7.647 2.207Z" fill="#3B2645"/><path d="M69.188 60.85v13.267l-.77-.232c-1.154-.359-2.386-.744-3.644-1.257a122.076 122.076 0 0 0 4.414-11.779ZM62.645 275.819c-2.028-1.129-5.826-2.001-7.699-.436a.412.412 0 0 0 0 .411v.154c0 .205.282.256.436.179.154-.077 0 0 .18 0a2.983 2.983 0 0 1 1.463-.462c.663-.03 1.328.03 1.976.18a16.38 16.38 0 0 0 3.695.642.337.337 0 0 0 .308-.36.335.335 0 0 0-.36-.308ZM63.953 279.438a6.437 6.437 0 0 0-4.054-1.437 6.67 6.67 0 0 0-4.363.436c-.18.154-.282.539 0 .667a12.57 12.57 0 0 0 3.67.385c1.475.408 2.989.657 4.517.744a.457.457 0 0 0 .362-.326.46.46 0 0 0-.131-.469ZM133.035 274.434a7.696 7.696 0 0 0-8.751.924c-.256.333 0 .975.385.923 1.309 0 2.566-.77 3.849-.898 1.284-.128 2.695.359 4.029.205.514-.051.976-.667.488-1.154ZM134.113 277.795c-1.68-.4-3.418-.495-5.132-.282a4.317 4.317 0 0 0-3.388 1.027c-.359.461 0 1.334.642 1.103 2.566-.898 5.466.436 8.006-.488a.714.714 0 0 0 .43-.726.721.721 0 0 0-.558-.634Z" fill="#27192E"/><path d="M45.554 26.668c-8.648 1.59-17.63.256-26.047 3.49-.565.23-.54 1.18.154 1.129 5.132-.282 10.136-1.309 15.243-1.617 3.695-.23 8.032.565 11.394-1.257.975-.565.256-1.925-.744-1.745ZM48.684 14.632a108.736 108.736 0 0 0-13.036-5.671c-.77-.257-1.206.898-.54 1.309a117.761 117.761 0 0 0 12.473 6.235c1.257.54 2.386-1.257 1.103-1.873Z" fill="#F7F8F8"/></svg>