<svg width="29" height="56" fill="none" xmlns="http://www.w3.org/2000/svg"><path d="M27.58 55.697c-.425.044-.856.08-1.294.1l-24.754.02H1.326l-.433-.04a.374.374 0 0 1 0-.748l.438-.04H1.536l24.75.02c.434.02.864.053 1.295.1a.31.31 0 0 1 0 .588Z" fill="#C6C6C6"/><path d="M23.085 5.244s0 .161-.025.435c-.076 1.17-.337 4.464-.937 6.338-.169.523-.695 1.757-1.315 3.157-.909 2.1-2.019 4.512-2.44 5.578-.138.346-1.465-.31-1.819-.374-.893-.173-1.001-1.765-.712-3.105a4.3 4.3 0 0 1 .507-1.33l.076-.117.053-.077c.49-.716 1.29-1.64 2.01-2.481a11.758 11.758 0 0 0 1.412-1.89c.402-.857 1.694-5.985 1.694-5.985.607-.66 1.496-.149 1.496-.149Z" fill="#FFEDE5"/><path d="M23.253 4.69c-.044.193-.08.378-.108.526-.053.274-.077.455-.077.455-.45.47-1.327 0-1.327 0a2.062 2.062 0 0 1-.16-.254 2.159 2.159 0 0 1-.274-1.375c.064-.366.128-1.207.128-1.207h.161c.17 0 .221.523.233.769a.545.545 0 0 1 0 .1.334.334 0 0 1 .053-.12.506.506 0 0 1 .446-.181h.611a.628.628 0 0 1 .274.056c.03.012.058.032.08.056.27.274.033.889-.04 1.174Z" fill="#FFEDE5"/><path d="M23.253 4.69c-.044.193-.08.378-.108.526a1.208 1.208 0 0 0-.105-.136 1.93 1.93 0 0 0-.615-.403c-.258-.136-.966-.538-.748-.945a.313.313 0 0 1 .152-.12l.06-.02c.334-.05.67-.077 1.006-.08.109 0 .217-.037.326-.05.03.014.057.034.08.057.262.27.025.885-.048 1.17Z" fill="#E0855C"/><path d="M17.112 12.267c.132-.757.317-1.503.555-2.232a.49.49 0 0 0-.515-.66c-.172.03-.34.081-.499.153 0 0 .402-1.159-.165-1.54-.567-.383-1.407.35-1.733.896a.539.539 0 0 0-.169-.7c-.402-.257-2.2 1.726-1.846 3.355.354 1.628.503 1.17.503 1.17s3.756-.233 3.869-.442Z" fill="#3B2645"/><path d="M13.143 12.005a.43.43 0 0 0-.696 0c-.35.402.245 1.206.696 1.254a9.948 9.948 0 0 0 0-1.254Z" fill="#E0855C"/><path d="M19.63 16.871a23.5 23.5 0 0 0-1.263 3.901c-.024.129-.048.25-.068.366-.133.805-.535 4.77-.6 5.393v.08c-3.149.87-6.434 0-6.434 0v-.176c-.073-.772-.383-3.978-.568-6.749-.096-1.415-.156-2.714-.14-3.523 0-.297.691-.265 1.166-.334.57-.073 1.143-.113 1.717-.12h.177l.04-.463.033-.31.076-.828c.052 0 .105.02.157.024.1.019.203.03.306.033.124.01.25.01.374 0l.177-.02c.078-.008.156-.02.233-.037a4.47 4.47 0 0 0 .37-.1l.104-.036h.029l.08-.033a3.132 3.132 0 0 0 .627-.338l.037-.024.068-.052a.133.133 0 0 0 .048-.04v.113c-.036.26-.072.599-.088.936 0 .23-.024.459-.032.66v.591c.075-.004.15-.004.225 0a.024.024 0 0 1 .024 0c.328.016.654.053.977.113a6.562 6.562 0 0 1 2.108.768.165.165 0 0 1 .04.205Z" fill="#FFEDE5"/><path d="M16.368 13.449a1.974 1.974 0 0 1-2.686 1.468l.076-.829a3.218 3.218 0 0 0 2.61-.64Z" fill="#E0855C"/><path d="M13.243 10.798c-.233.238-.25.78-.27 1.376-.06 1.806.483 2.373 1.404 2.47.921.096 1.89-.254 2.088-1.931.1-.837.205-1.609-.097-1.975-.474-.539-2.437-.68-3.125.06Z" fill="#FFEDE5"/><path d="M16.316 12.472s.285-.748.728-.35c.442.398-.181 1.532-.849 1.443 0 0-.096-.836.12-1.093Z" fill="#FFEDE5"/><path d="M16.839 12.447a.684.684 0 0 0-.274.177.804.804 0 0 0-.197.254c0 .032.028.048.052.032.025-.016.101-.12.157-.177.034.044.079.08.129.104a.053.053 0 0 0 .05-.019.053.053 0 0 0 .006-.053.326.326 0 0 0-.108-.1c.075-.05.146-.105.213-.165a.032.032 0 0 0 .003-.036.032.032 0 0 0-.031-.017Z" fill="#E0855C"/><path d="M13.746 12.13s-.157.06-.133-.218c.024-.277.133-.213.133-.213s.109 0 .093.217c-.017.218-.093.214-.093.214ZM15.33 12.13s-.156.06-.132-.218c.024-.277.133-.213.133-.213s.108 0 .092.217c-.016.218-.092.214-.092.214Z" fill="#3B2645"/><path d="M14.45 12.87c-.076 0-.257.032-.298-.053.016-.192.055-.38.117-.563.074-.246.135-.495.18-.748 0 0 0-.02-.027 0a9.063 9.063 0 0 0-.374 1.343.042.042 0 0 0 0 .017c.001.006.004.011.007.016a.04.04 0 0 0 .029.016c.117 0 .23.024.346.024.056.016.068-.049.02-.053Z" fill="#E0855C"/><path d="M13.919 11.293c-.113-.06-.322-.072-.402.044a.033.033 0 0 0 0 .032.032.032 0 0 0 .028.016c.056 0 .104-.028.16-.032a.422.422 0 0 1 .174.028c.052.016.088-.064.04-.088ZM15.564 11.43c-.065-.161-.342-.177-.459-.077a.04.04 0 0 0 0 .073c.069.024.141 0 .213 0a.63.63 0 0 1 .17.052c.052.016.088-.02.076-.048Z" fill="#3B2645"/><path d="M14.047 13.428a1.7 1.7 0 0 0 1.006-.177.85.85 0 0 1-.495.463c-.35.104-.51-.286-.51-.286Z" fill="#fff"/><path d="M13.4 20.378c-.346.065-1.934.242-2.216 0a2.578 2.578 0 0 1-.495-.691 37.782 37.782 0 0 1-1.685-4.175c-.539-1.52-.997-2.936-1.17-3.475-.623-1.894-.865-5.192-.941-6.362-.02-.274-.028-.43-.028-.43s.88-.5 1.508.156c0 0 1.311 5.132 1.697 5.989a9.3 9.3 0 0 0 1.138 1.56c.744.893 1.661 1.939 2.224 2.739l.105.149.076.117c.355.642.566 1.354.62 2.087.104 1.11-.101 2.196-.833 2.336Z" fill="#FFEDE5"/><path d="M8.373 5.401a2.06 2.06 0 0 1-.161.254s-.873.482-1.32.02c0 0-.02-.125-.056-.318a16.883 16.883 0 0 0-.136-.668c-.049-.193-.362-.96-.201-1.098a.294.294 0 0 1 .128-.048l.54-.096c.309-.057.828-.141.952.249 0-.225 0-.756.234-.873h.169s.06.825.124 1.207A2.16 2.16 0 0 1 8.373 5.4ZM10.65 27.328s-1.666 4.492-1.734 12.99c0 .676-1.315 5.353-.805 11.888l1.96.37s1.897-6.901 1.982-11.61c0 0 2.413-8.358 2.578-12.203.165-3.844-2.393-5.091-3.982-1.435Z" fill="#FFEDE5"/><path d="M10.344 54.547a.32.32 0 0 1 0 .06c-.065.905-.805.764-1.899.78-.873 0-1.339-.486-1.287-1.013a.962.962 0 0 1 .17-.443c.29-.462.49-.975.59-1.512 1.078-1.295 2.176.149 2.176.149.164.647.247 1.312.25 1.979Z" fill="#3B2645"/><path d="M18.238 27.328s1.665 4.492 1.73 12.99c0 .676 1.319 5.353.804 11.888l-1.959.37s-1.894-6.901-1.982-11.61c0 0-2.413-8.358-2.578-12.203-.165-3.844 2.397-5.091 3.985-1.435Z" fill="#FFEDE5"/><path d="M20.45 55.387c-1.122 0-1.886.129-1.906-.84v-.085c0-.64.086-1.276.253-1.894 0 0 1.102-1.444 2.176-.149.1.538.302 1.051.595 1.512.053.076.095.159.125.246.205.595-.261 1.226-1.243 1.21Z" fill="#3B2645"/><path d="M20.808 15.174c-.909 2.1-2.015 4.513-2.441 5.578-.024.13-.049.25-.069.366-.132.805-.534 4.77-.599 5.394-1.09.333-3.306.727-6.435-.097-.072-.772-.382-3.977-.567-6.748a37.774 37.774 0 0 1-1.685-4.175c.752-.475 1.806-1.323 2.204-2.542.744.893 1.661 1.939 2.224 2.739h.08c0 .044 0 .097.025.149.1.77.336 1.516.696 2.204a.705.705 0 0 0 .514.362c.402 0 .784-.507 1.09-1.118.23-.468.424-.952.583-1.448l.028-.077a.025.025 0 0 1 .025 0c.49-.715 1.29-1.64 2.01-2.481.383.547 1.3 1.64 2.317 1.894Z" fill="#E8CEE5"/><path d="M20.056 36.485a6.23 6.23 0 0 1-3.435.68 3.572 3.572 0 0 1-1.206-.322l-.965-5.389-.937 5.39c-2.035.735-4.826-.608-4.826-.608.888-8.715 2.545-10.022 2.545-10.022 2.731.889 6.491.028 6.491.028 1.927 2.586 2.333 10.243 2.333 10.243Z" fill="#3B2645"/><path d="M6.873 5.337h-.037a16.995 16.995 0 0 0-.136-.668c-.049-.193-.358-.957-.201-1.098a.314.314 0 0 1 .128-.048l.54-.097c.227-.058.467-.058.695 0a.6.6 0 0 1 .346.576c0 .724-1.146 1.234-1.335 1.335Z" fill="#E0855C"/><path d="M28.45 3.792H.232a.265.265 0 0 1 0-.526h28.216a.265.265 0 0 1 0 .526Z" fill="#3B2645"/><path d="M1.13 4.878a.45.45 0 0 1-.45-.446V2.626a.45.45 0 1 1 .9 0v1.806a.447.447 0 0 1-.45.446Z" fill="#3B2645"/><path d="M2.022 6.455a.442.442 0 0 1-.442-.443V1.05a.446.446 0 1 1 .893 0v4.963a.446.446 0 0 1-.45.443Z" fill="#291B30"/><path d="M2.915 7.219a.446.446 0 0 1-.446-.446V.446a.446.446 0 1 1 .893 0v6.315a.446.446 0 0 1-.447.458ZM27.162 4.878a.446.446 0 0 0 .447-.446V2.626a.447.447 0 1 0-.893 0v1.806a.447.447 0 0 0 .446.446Z" fill="#3B2645"/><path d="M26.27 6.455a.446.446 0 0 0 .446-.443V1.05a.447.447 0 0 0-.893 0v4.963a.447.447 0 0 0 .447.443Z" fill="#291B30"/><path d="M25.377 7.219a.446.446 0 0 0 .446-.446V.446a.447.447 0 0 0-.893 0v6.315a.447.447 0 0 0 .447.458Z" fill="#3B2645"/><path d="M6.88 4.098c.017.04.042.076.073.105.048.031.104.05.161.052.179.017.36.008.535-.028a.684.684 0 0 0 .422-.225.571.571 0 0 0 .053-.563.97.97 0 0 0-.684-.567c-.25-.057-.88-.033-.981.277-.053.153.096.306.169.426.072.121.18.354.253.523ZM22.895 4.098a.253.253 0 0 1-.076.105.306.306 0 0 1-.16.052 1.814 1.814 0 0 1-.532-.028.704.704 0 0 1-.438-.225.562.562 0 0 1-.048-.563.969.969 0 0 1 .68-.567c.253-.057.884-.033.985.277.052.153-.097.306-.17.426-.072.121-.152.354-.24.523Z" fill="#FFEDE5"/><path d="M16.621 37.165a3.572 3.572 0 0 1-1.206-.322l-.965-5.389s1.206 1.725 2.171 5.711ZM10.336 54.607c-.065.905-.805.764-1.899.78-.872 0-1.339-.486-1.287-1.013.207.197.462.336.74.402.33.066.667.083 1.002.052.486-.035.969-.11 1.444-.22ZM20.45 55.387c-1.122 0-1.886.129-1.906-.84v-.085a2.252 2.252 0 0 0 2.152.278 5.06 5.06 0 0 0 .997-.563c.205.595-.261 1.226-1.243 1.21Z" fill="#291B30"/><path d="M9.756 53.067c-.305-.374-1.041-.35-1.427-.141a.121.121 0 0 0 .013.205.121.121 0 0 0 .08.012c.2-.062.412-.087.623-.072.203.05.401.117.595.197a.12.12 0 0 0 .116-.201ZM9.58 53.497a2.5 2.5 0 0 0-.733-.108 1.262 1.262 0 0 0-.647.092.072.072 0 0 0-.032.106.072.072 0 0 0 .032.027c.208.037.42.05.631.04.237 0 .463.068.7.084.16.017.169-.197.048-.24ZM20.66 52.95c-.154-.463-1.054-.221-1.372-.12-.129.036-.113.249.032.24.221 0 .439-.076.66-.092a.992.992 0 0 1 .346.032.57.57 0 0 0 .233.069.103.103 0 0 0 .081-.04.105.105 0 0 0 .02-.089ZM20.555 53.336c-.23-.209-.728-.14-1.006-.084-.136.028-.466.165-.285.35a.056.056 0 0 0 .068 0c.113-.109.402-.089.551-.093.207.032.417.032.624 0a.112.112 0 0 0 .048-.173Z" fill="#E8CEE5"/><path d="M13.13 22.293a.3.3 0 0 0 0 .064h.029l-.028-.064ZM17.317 18.13a9.956 9.956 0 0 1-.374-1.878.065.065 0 0 0-.019-.046.065.065 0 0 0-.09 0 .064.064 0 0 0-.02.046c-.14 1.162.35 2.582.962 3.56a.08.08 0 0 0 .145-.06c-.154-.556-.423-1.075-.604-1.622ZM12.89 16.035c-.33.518-.612 1.07-.942 1.608-.33.54-.716.998-1.005 1.537a.033.033 0 0 0 .006.046.033.033 0 0 0 .024.006.034.034 0 0 0 .022-.012 9.529 9.529 0 0 0 2.011-3.141c.02-.065-.08-.105-.117-.044Z" fill="#D6BED3"/></svg>