<svg width="273" height="400" fill="none" xmlns="http://www.w3.org/2000/svg"><path d="M132.226 387.537a86.039 86.039 0 0 1-18.318-1.939 72.691 72.691 0 0 1-29.015-13.054 72.51 72.51 0 0 1-20.634-24.181 128.35 128.35 0 0 1-8.79-27.695l-.431-1.816c-6.168-26.218-13.939-53.944-28.279-78.993-2.313-4.031-4.841-8.063-7.277-11.94a156.857 156.857 0 0 1-14.895-27.911c-6.168-16.771-5.027-33.45 3.392-44.436a15.135 15.135 0 0 1 9.837-6.616 9.001 9.001 0 0 1 6.846 2.031 6.654 6.654 0 0 1 2.498 4.832h-2.004a4.703 4.703 0 0 0-1.789-3.355 7.142 7.142 0 0 0-5.304-1.6 13.878 13.878 0 0 0-8.48 5.847C1.594 167.205.33 183.114 6.498 199.239A154.015 154.015 0 0 0 21.3 226.934c2.436 3.908 4.965 7.94 7.309 12.002 14.37 25.233 22.234 53.113 28.402 79.485l.431 1.816a125.538 125.538 0 0 0 8.635 27.234 70.388 70.388 0 0 0 20.058 23.493 70.578 70.578 0 0 0 28.204 12.665 95.014 95.014 0 0 0 60.967-8.247 63.125 63.125 0 0 0 20.045-14.125 74.517 74.517 0 0 0 13.168-23.572c5.15-13.478 9.252-27.695 12.952-41.389 5.705-20.433 11.595-41.574 21.587-60.715 3.084-5.6 6.168-11.109 9.437-16.432a172.955 172.955 0 0 0 15.419-30.25c3.546-10.032 3.7-18.463.493-24.618a15.976 15.976 0 0 0-4.582-5.215 16.021 16.021 0 0 0-6.365-2.786 10.622 10.622 0 0 0-9.252 2.185l-1.326-1.508a12.592 12.592 0 0 1 5.153-2.646c1.9-.471 3.885-.492 5.795-.062a18.13 18.13 0 0 1 7.202 3.24 18.077 18.077 0 0 1 5.133 5.992c3.485 6.77 3.33 15.571-.401 26.157a170.372 170.372 0 0 1-15.666 30.588c-3.084 5.323-6.476 10.801-9.251 16.34-9.869 18.956-15.728 40.004-21.402 60.314-3.855 13.787-7.833 28.034-13.045 41.574a76.158 76.158 0 0 1-13.507 24.218 65.39 65.39 0 0 1-20.692 14.587 102.335 102.335 0 0 1-43.976 10.278Z" fill="#AB8DA8"/><path d="M154.861 29.22a17.294 17.294 0 0 0 2.652-8.4 9.202 9.202 0 0 0-2.374-7.448c-.771-.738-1.727-1.323-2.436-2.123-.71-.8-1.049-1.631-1.635-2.4a6.778 6.778 0 0 0-5.396-2.647c-2.128 0-4.379.985-6.168 0-1.11-.554-1.85-1.662-3.084-2.277a5.561 5.561 0 0 0-3.762-.462 9.517 9.517 0 0 1-3.454.524c-1.665-.247-2.806-1.724-4.287-2.555a5.862 5.862 0 0 0-4.943-.181 5.86 5.86 0 0 0-3.321 3.659 4.73 4.73 0 0 0 0 2.37c.339 1.876 1.634 3.384 1.727 5.261.092 1.877-1.049 3.508 0 5.17 1.048 1.662 2.59 1.724 3.33 3.293.987 2.123 0 4.893.895 7.17.462 1.446.709 3.508 2.066 4.431 1.881 1.293 5.982.216 8.234 0l8.727-.708c3.855-.369 8.604 0 12.088-1.907a4.123 4.123 0 0 0 1.141-.77Z" fill="#3B2645"/><path d="M125.257 27.866a3.293 3.293 0 0 0-2.668-1.354 3.305 3.305 0 0 0-2.667 1.354c-2.683 3.078 1.85 9.232 5.335 9.601a75.757 75.757 0 0 0 0-9.6ZM168.585 79.41a146.275 146.275 0 0 1-3.269 15.387 33.136 33.136 0 0 0-.524 2.77c-.124.892-.247 1.569-.401 2.707v.677c0 .739-.216 1.508-.308 2.339l-3.886 36.158c-24.146 6.616-49.341 0-49.341 0v-1.354c-.401-4.093-1.635-17.11-2.868-31.788v-.308a6.37 6.37 0 0 0 0-.677 933.08 933.08 0 0 1-1.419-18.894c-.74-10.802-1.203-20.772-1.11-26.957 0-2.277 5.335-2.031 8.974-2.524a94.692 94.692 0 0 1 7.802-.738c2.375-.123 4.163-.185 5.366-.185h1.357s.308-3.539.308-3.57l.833-8.677c.405.104.817.176 1.233.215.764.143 1.537.225 2.313.246h2.868l1.326-.154h.771a26.512 26.512 0 0 0 2.467-.554c.771-.215 1.018-.307 1.511-.461a25.004 25.004 0 0 0 6.353-3.078l.278-.184.524-.4.37-.277v.8c-.247 2.031-.524 4.616-.648 7.17 0 1.785-.185 3.539-.246 5.047-.062 1.508-.556 3.693.524 4.462.385.216.801.371 1.233.461 1.693.267 3.406.38 5.119.339h1.573a33.97 33.97 0 0 1 3.947 0 6.894 6.894 0 0 1 4.935 2.062 8.699 8.699 0 0 1 1.48 3.877l.37 2.523c.587 4.491.649 9.035.185 13.54Z" fill="#FFEDE5"/><path d="M149.989 38.913a15.153 15.153 0 0 1-2.638 6.098 15.2 15.2 0 0 1-11.392 6.229 15.236 15.236 0 0 1-6.57-1.064l.586-6.37a24.692 24.692 0 0 0 20.014-4.893Z" fill="#E0855C" fill-opacity=".1"/><path d="M125.874 18.634c-1.789 1.847-1.943 5.97-2.067 10.525-.462 13.848 3.701 18.156 10.763 18.925 7.062.77 14.494-1.97 16.005-14.77.771-6.432 1.573-12.31-.771-15.11-3.361-4.124-18.503-5.232-23.93.43Z" fill="#FFEDE5"/><path d="M149.527 31.436s2.159-5.724 5.582-2.677c3.423 3.046-1.296 11.693-6.538 11.047.062 0-.648-6.4.956-8.37Z" fill="#FFEDE5"/><path d="M153.598 31.374c-.81.253-1.535.72-2.097 1.354a5.788 5.788 0 0 0-1.511 1.939c0 .215.216.37.37.215.434-.43.846-.881 1.233-1.354.282.31.63.552 1.018.708.308 0 .555-.277.432-.523a2.587 2.587 0 0 0-.833-.8c.576-.368 1.122-.78 1.635-1.231a.246.246 0 0 0-.247-.308Z" fill="#E0855C" fill-opacity=".1"/><path d="M129.882 28.85s-1.202.432-1.017-1.692c.185-2.123 1.017-1.63 1.017-1.63s.833 0 .71 1.661c-.124 1.662-.71 1.662-.71 1.662ZM142.002 28.85s-1.172.432-.987-1.692c.185-2.123.987-1.63.987-1.63s.833 0 .71 1.661c-.124 1.662-.71 1.662-.71 1.662ZM131.178 22.42a2.656 2.656 0 0 0-3.084.338.277.277 0 0 0 .247.4c.432 0 .802-.246 1.234-.277.452-.021.904.052 1.326.216.401.123.678-.493.277-.677ZM143.822 23.465c-.494-1.23-2.622-1.323-3.547-.584a.379.379 0 0 0-.144.292.368.368 0 0 0 .144.293c.554.046 1.111.046 1.666 0 .448.072.884.206 1.295.4a.355.355 0 0 0 .586-.4Z" fill="#3B2645"/><path d="M132.319 38.76a13.07 13.07 0 0 0 7.586-1.293 6.41 6.41 0 0 1-3.793 3.539c-2.683.738-3.793-2.247-3.793-2.247Z" fill="#fff"/><path d="M116.746 59.439c7.093 4.954 7.74 14.586 4.286 22.28-2.343 5.138-6.692 8.739-9.251 13.6a88.085 88.085 0 0 1-9.252 13.325c-7.648 9.694-14.925 18.464-17.732 21.787-9.652 11.509-29.944 26.711-37.252 32.004-1.666 1.231-2.653 1.908-2.653 1.908s-7-3.662-5.15-10.432c0 0 27.755-29.419 31.857-35.419 4.532-7.8 8.65-15.833 12.335-24.065A685.747 685.747 0 0 1 98.705 67.41c2.344-4.093 5.335-9.232 10.485-10.155a9.73 9.73 0 0 1 5.983 1.262c.546.27 1.071.578 1.573.923Z" fill="#FFEDE5"/><path d="M39.742 153.942c.76-.059 1.523-.059 2.283 0 0 0 6.66 3.692 5.52 8.493 0 0-.71.646-1.82 1.631s-2.313 2.154-3.762 3.631c-1.45 1.477-4.75 6.155-6.168 5.755a1.853 1.853 0 0 1-.832-.616l-2.868-3.077c-1.604-1.785-4.287-4.801-2.252-7.17-1.48.892-4.934 3.077-6.63 2.031l-.71-1.139s5.09-3.785 7.186-5.662a16.702 16.702 0 0 1 10.053-3.877Z" fill="#FFEDE5"/><path d="M125.164 106.583c-.01.164-.01.328 0 .492h.216l-.216-.492Z" fill="#D6BED3"/><path d="M235.874 399.077c-3.269.338-6.569.615-9.93.769L36.134 400h-1.573l-3.33-.308a2.86 2.86 0 1 1 0-5.724l3.361-.307h1.573l189.779.154c3.33 0 6.63.4 9.93.769.471.158.881.46 1.172.863a2.362 2.362 0 0 1 0 2.767 2.38 2.38 0 0 1-1.172.863Z" fill="#C6C6C6"/><path d="M136.606 206.317c-2.838 22.679-6.168 42.405-6.168 42.405.462 5.477.678 11.416.678 17.509 0 11.94-.801 24.618-1.819 35.789-1.295 14.248-3.084 26.372-3.855 32.465v.769c1.141 40.405-10.392 45.759-15.789 36.928-5.397-8.832 0-34.866 0-34.866a4.92 4.92 0 0 0 0-.708 295.536 295.536 0 0 1-4.533-36.588c-1.851-29.727 1.326-50.067.956-53.76-6.446-64.623 2.559-100.257 2.559-100.257a36.285 36.285 0 0 1 7.432-14.063c6.569-7.078 14.463-5.293 19.428 3.354.522.886.996 1.801 1.419 2.739a46.43 46.43 0 0 1 3.392 15.601c.494 13.386-1.388 34.035-3.7 52.683Z" fill="#F5A784"/><path d="M168.461 298.45a299.928 299.928 0 0 1-4.502 37.358l-.277 1.508s5.396 26.126 0 34.865c-5.397 8.74-16.807 3.631-15.79-36.373v-.523c-.863-5.785-2.59-18.31-3.947-33.142-1.048-11.263-1.85-23.88-1.85-35.82 0-6.154.246-12.063.709-17.571 0 0-3.423-19.725-6.168-42.374-2.313-18.679-4.225-39.327-3.423-52.59a46.428 46.428 0 0 1 3.423-15.602c.404-.967.878-1.903 1.419-2.8 5.705-9.878 15.203-10.74 22.203.4a43.752 43.752 0 0 1 4.688 10.339s9.005 35.543 2.559 100.258c-.462 3.631 2.591 23.264.956 52.067Z" fill="#F5A784"/><path d="M39.002 173.913a6.425 6.425 0 0 0 4.965 2.215 3.271 3.271 0 0 0 2.501-2.756 3.255 3.255 0 0 0-.095-1.306 6.16 6.16 0 0 0-1.696-2.431c-4.657-4.616-9.437-9.231-14.279-13.509a5.678 5.678 0 0 0-3.083-1.785c-1.11 0-2.184.392-3.031 1.108a4.676 4.676 0 0 0-1.595 2.8c0 1.97 1.696 2.708 3.084 3.816 4.379 3.878 8.758 7.94 13.23 11.848Z" fill="#3B2645"/><path d="M38.323 168.466c.192-.197.349-.426.463-.677a2.147 2.147 0 0 0-.401-1.846c-1.141-1.877-3.485-4.893-5.798-5.17a4.375 4.375 0 0 0-3.886 1.97 7.462 7.462 0 0 0-.863 6.893 8.928 8.928 0 0 0 3.917 4.862 3.886 3.886 0 0 0 5.027-1.908c.462-1.139.308-2.523 1.048-3.477.14-.233.306-.45.493-.647ZM156.342 59.439c-7.124 4.954-7.771 14.586-4.287 22.28 2.313 5.138 6.661 8.739 9.252 13.6a92.888 92.888 0 0 0 9.251 13.325c7.648 9.694 14.957 18.464 17.732 21.787 9.684 11.571 29.975 26.711 37.284 32.004l2.683 1.908s6.969-3.662 5.119-10.432c0 0-27.755-29.419-31.856-35.419a248.874 248.874 0 0 1-12.335-24.065c-4.749-9.231-9.653-18.125-14.803-27.018-2.343-4.093-5.304-9.232-10.485-10.155a9.76 9.76 0 0 0-5.982 1.262c-.547.268-1.072.577-1.573.923Z" fill="#FFEDE5"/><path d="M233.345 153.941a15.665 15.665 0 0 0-2.313 0s-6.661 3.693-5.52 8.494c0 0 .74.646 1.82 1.63a76.846 76.846 0 0 1 3.762 3.632c1.419 1.477 4.78 6.154 6.168 5.754.326-.13.613-.342.832-.615l2.837-3.078c1.635-1.784 4.287-4.8 2.283-7.17 1.449.893 4.903 3.078 6.63 2.031l.586-1.138s-5.089-3.785-7.216-5.662a16.583 16.583 0 0 0-9.869-3.878Z" fill="#FFEDE5"/><path d="M234.054 173.913a6.43 6.43 0 0 1-4.965 2.216 3.266 3.266 0 0 1-2.467-4.062 6.162 6.162 0 0 1 1.727-2.308 423.182 423.182 0 0 1 14.309-13.509 5.578 5.578 0 0 1 3.084-1.785 4.66 4.66 0 0 1 3.018 1.11 4.645 4.645 0 0 1 1.577 2.798c0 1.969-1.665 2.708-3.084 3.816-4.348 3.754-8.727 7.816-13.199 11.724Z" fill="#3B2645"/><path d="M234.764 168.466a1.993 1.993 0 0 1-.494-.677 2.283 2.283 0 0 1 .432-1.846c1.11-1.877 3.454-4.893 5.767-5.17a4.387 4.387 0 0 1 3.885 1.97 7.364 7.364 0 0 1 .771 6.893 8.68 8.68 0 0 1-3.916 4.862 3.89 3.89 0 0 1-5.027-1.908c-.432-1.139-.277-2.523-1.048-3.477l-.37-.647Z" fill="#FFEDE5"/><path d="M168.923 278.725v11.94c0 2.523-.185 5.139-.308 7.816a103.253 103.253 0 0 1-24.485 3.662c-.34-3.447-1.018-12.617-1.049-13.632 0-2.093-.463-8.001-.493-8.801-.185-4.493-.309-8.986-.309-13.386 0-5.724.216-11.325.648-16.525v-1.047c0-.338-3.423-19.694-6.168-42.373-.308 2.4-.617 4.8-.925 7.108-2.59 19.51-5.335 35.265-5.335 35.265.463 5.478.678 11.417.678 17.51 0 4.647 0 9.232-.339 14.094 0 .8-.617 11.078-.709 12.063a406.438 406.438 0 0 1-.771 9.632 289.237 289.237 0 0 1-12.798-.831c-3.33-.277-7.524-.462-11.595-1.046-.185-2.77-.309-5.416-.401-8.001V280.11c0-18.648 1.819-30.927 1.542-33.85-6.445-64.623 2.559-100.257 2.559-100.257a36.298 36.298 0 0 1 7.433-14.064 38.903 38.903 0 0 1 7.74 2.031 41.454 41.454 0 0 0 11.688 1.324h2.837c3.423 0 6.846-.4 10.238-.493h2.282a44.412 44.412 0 0 1 9.683.923 43.755 43.755 0 0 1 4.379 10.402 202.552 202.552 0 0 1 4.379 35.296 426.914 426.914 0 0 1-1.819 64.961c-.37 2.739 1.264 14.463 1.418 32.342Z" fill="#3B2645"/><path d="M125.257 335.254c.431 15.909-1.08 26.372-3.423 32.68-3.578 9.755-9.252 9.632-12.336 4.37a14.576 14.576 0 0 1-1.696-4.708c-2.251-10.986 1.696-30.157 1.696-30.157a4.648 4.648 0 0 0 0-.708 14.5 14.5 0 0 0 5.12 2.369c2.07.508 4.25.332 6.212-.5a9.856 9.856 0 0 0 4.673-4.116l-.246.77ZM165.532 366.735a15.797 15.797 0 0 1-1.85 5.569c-3.331 5.416-9.067 5.386-12.613-5.108-2.159-6.154-3.547-16.402-3.084-31.419a13.028 13.028 0 0 0 8.388 3.324 14.024 14.024 0 0 0 7.555-3.077c.057.48.057.965 0 1.446 0 0 3.516 18.156 1.604 29.265Z" fill="#AB8DA8"/><path d="M120.6 344.701a10.106 10.106 0 0 0-10.331 0 .457.457 0 0 0-.111.228.455.455 0 0 0 .181.453c.07.051.153.082.239.088 1.542 0 3.084-.646 4.533-.615a23.17 23.17 0 0 1 4.996.985.645.645 0 0 0 .674-.385.64.64 0 0 0 .035-.407.64.64 0 0 0-.216-.347ZM120.107 349.625a12.98 12.98 0 0 0-8.728-1.57c-1.017 0-1.048 1.693 0 1.601a15.85 15.85 0 0 1 4.349.184c1.326.246 2.528.8 3.854 1.077a.71.71 0 0 0 .525-1.292ZM160.937 344.701c-2.344-.8-7.432-1.108-9.252 1.046-.246.277 0 .862.34.831 1.449-.184 2.713-.769 4.225-.831 1.511-.061 3.083.339 4.502.247a.664.664 0 0 0 .485-.124.643.643 0 0 0 .255-.43.664.664 0 0 0-.124-.484.643.643 0 0 0-.431-.255ZM162.078 349.902c-2.56-1.139-8.943-1.97-10.239 1.477-.185.461.401.831.771.615a10.017 10.017 0 0 1 8.789-.461c.926.369 1.635-1.231.679-1.631Z" fill="#291B30"/><path d="M45.324 55.777c0-.185-.37-.185-.4 0-1.543 10.493-.648 21.54-.648 32.28 0 11.355-.37 22.803.308 34.127a.556.556 0 0 0 1.08 0c.647-11.324.277-22.772.277-34.127 0-10.493.894-21.695-.617-32.28ZM58.8 59.346a.676.676 0 0 0-.663-.533.68.68 0 0 0-.663.533c0 10.094-.647 20.372 0 30.435a.646.646 0 0 0 .648.646.648.648 0 0 0 .648-.646c.709-10.063.092-20.341.03-30.435ZM196.679 165.02a.437.437 0 0 0-.417-.317.432.432 0 0 0-.416.317 378.465 378.465 0 0 0-.524 39.697c0 13.232 0 26.433.493 39.665a.459.459 0 0 0 .447.344.462.462 0 0 0 .448-.344c.431-13.232.431-26.433.493-39.665a387.376 387.376 0 0 0-.524-39.697ZM220.455 87.627a242.133 242.133 0 0 0-1.727-26.342c0-.523-.833-.369-.863 0-.238 9.456.04 18.917.832 28.342.401 8.77.309 17.756 1.48 26.434 0 .8 1.357.554 1.388-.185.432-9.386-.555-18.956-1.11-28.25ZM226.622 92.52a.336.336 0 0 0-.323-.238.338.338 0 0 0-.324.238 318.391 318.391 0 0 0-.185 37.973.518.518 0 0 0 .096.449.527.527 0 0 0 .642.148.518.518 0 0 0 .283-.362.518.518 0 0 0-.003-.235c.693-12.65.632-25.33-.186-37.973Z" fill="#F7F8F8"/><path d="M135.68 213.456c.047-2.396.357-4.78.925-7.108-.308 2.4-.616 4.8-.925 7.108ZM169.233 181.421c-4.164-24.956-38.548-26.126-38.548-26.126-2.128-10.278 11.749-13.355 11.749-13.355l8.111-6.985a44.289 44.289 0 0 1 9.683.923 43.709 43.709 0 0 1 4.718 10.247 206.772 206.772 0 0 1 4.287 35.296Z" fill="#291B30"/><path d="M165.44 148.802c-27.755 13.017-57.915 1.077-57.915 1.077 2.19-6.154.555-37.542.401-43.512v-.308a5.88 5.88 0 0 0 0-.677c5.829-13.478 6.476-39.45 6.507-48.374 2.621-.4 5.366-.616 7.741-.739.925 9.97 4.224 35.542 13.414 34.435 9.19-1.108 13.569-23.88 15.173-33.85 1.69.283 3.405.396 5.119.338h1.573c-.802 13.633 6.784 42.282 7 43.082v.677c0 .738-.216 1.508-.308 2.339v.523c-1.943 17.356 1.295 44.989 1.295 44.989Z" fill="#AB8DA8"/></svg>