<svg width="36" height="53" viewBox="0 0 36 53" fill="none" xmlns="http://www.w3.org/2000/svg">
<path d="M17.3608 50.4272C16.562 50.4287 15.7653 50.3439 14.9845 50.1744C13.6198 49.8932 12.3342 49.3119 11.2205 48.4723C10.1067 47.6328 9.19251 46.556 8.54363 45.3194C8.02874 44.1628 7.64625 42.9513 7.40348 41.7083L7.34747 41.4715C6.54737 38.0529 5.53923 34.4378 3.67898 31.1717C3.37894 30.646 3.0509 30.1204 2.73485 29.6148C1.97025 28.4701 1.32288 27.2508 0.802596 25.9756C0.00248912 23.7888 0.150509 21.6141 1.24266 20.1817C1.38652 19.9591 1.57371 19.768 1.793 19.6197C2.01229 19.4715 2.25916 19.3692 2.51883 19.319C2.67705 19.2998 2.83752 19.3134 2.99028 19.359C3.14305 19.4045 3.28487 19.481 3.40694 19.5838C3.50217 19.66 3.58027 19.7555 3.63611 19.864C3.69196 19.9726 3.72429 20.0918 3.73099 20.2138H3.47095C3.46469 20.1287 3.44083 20.0459 3.40088 19.9706C3.36093 19.8953 3.30577 19.8291 3.23892 19.7764C3.14394 19.6973 3.03412 19.6381 2.91593 19.6022C2.79775 19.5664 2.6736 19.5547 2.55083 19.5678C2.10013 19.6708 1.70621 19.9438 1.45068 20.3301C0.414544 21.6983 0.250522 23.7728 1.05063 25.8753C1.56651 27.1414 2.20993 28.3514 2.97089 29.4864C3.28693 29.996 3.61497 30.5216 3.91901 31.0513C5.78326 34.3415 6.8034 37.9767 7.60351 41.4153L7.65951 41.6521C7.8972 42.8746 8.27301 44.0659 8.77966 45.2031C9.41022 46.4047 10.2989 47.451 11.3816 48.2663C12.4643 49.0816 13.714 49.6456 15.0405 49.9176C17.7227 50.4508 20.5056 50.0724 22.9496 48.8423C23.9281 48.4049 24.8116 47.7792 25.5499 47.0006C26.301 46.0889 26.8799 45.0473 27.2581 43.9271C27.9262 42.1697 28.4583 40.3159 28.9384 38.5304C29.6785 35.8662 30.4426 33.1096 31.7387 30.6139C32.1388 29.8837 32.5388 29.1654 32.9629 28.4713C33.7569 27.2255 34.4269 25.9044 34.9632 24.5271C35.4232 23.2191 35.4432 22.1196 35.0272 21.3172C34.8811 21.0496 34.6782 20.8174 34.4328 20.6371C34.1874 20.4569 33.9054 20.3329 33.607 20.2739C33.3986 20.2245 33.1816 20.2245 32.9733 20.274C32.765 20.3234 32.571 20.421 32.4068 20.5588L32.2348 20.3622C32.4278 20.1966 32.6567 20.0784 32.9032 20.0171C33.1498 19.9558 33.4072 19.9531 33.655 20.0091C33.9936 20.0792 34.3127 20.2235 34.5893 20.4316C34.8659 20.6396 35.0933 20.9064 35.2552 21.2128C35.7073 22.0956 35.6873 23.2431 35.2032 24.6234C34.6614 26.0181 33.9805 27.3543 33.1709 28.6117C32.7709 29.3059 32.3308 30.0201 31.9708 30.7423C30.6906 33.214 29.9305 35.9585 29.1944 38.6067C28.6943 40.4042 28.1783 42.262 27.5022 44.0274C27.1154 45.1786 26.5215 46.2489 25.7499 47.1852C24.9874 47.9886 24.0754 48.6347 23.0656 49.0871C21.2875 49.9552 19.3383 50.4131 17.3608 50.4272Z" fill="#AB8DA8"/>
<path d="M20.297 3.70678C20.5039 3.37748 20.6224 3.00015 20.6411 2.61139C20.6637 2.4368 20.6478 2.25936 20.5945 2.09159C20.5413 1.92382 20.4521 1.7698 20.333 1.64039C20.233 1.54409 20.109 1.46786 20.017 1.36353C19.925 1.25921 19.881 1.15088 19.805 1.05056C19.7226 0.942949 19.6165 0.855835 19.4951 0.79599C19.3737 0.736144 19.2402 0.705178 19.1049 0.705497C18.8288 0.705497 18.5368 0.833894 18.3048 0.705497C18.1607 0.633274 18.0647 0.488827 17.9047 0.408579C17.7541 0.331699 17.5813 0.310394 17.4166 0.348392C17.2728 0.398718 17.1209 0.421847 16.9686 0.416603C16.7526 0.384504 16.6045 0.191908 16.4125 0.0835731C16.3138 0.0329556 16.2052 0.0046074 16.0945 0.000516245C15.9837 -0.00357491 15.8733 0.01669 15.7712 0.0598901C15.669 0.10309 15.5775 0.16818 15.5031 0.250594C15.4287 0.333009 15.3731 0.430754 15.3404 0.536976C15.3143 0.6383 15.3143 0.744608 15.3404 0.845932C15.3844 1.09069 15.5524 1.2873 15.5644 1.53205C15.5764 1.77681 15.4284 1.98947 15.5644 2.20614C15.7004 2.42281 15.9004 2.43084 15.9965 2.63547C16.1245 2.91232 15.9965 3.27344 16.1125 3.57036C16.1725 3.75894 16.2045 4.02778 16.3805 4.14815C16.6245 4.31667 17.1566 4.17624 17.4486 4.14815L18.5808 4.05586C19.0809 4.00771 19.6969 4.05586 20.149 3.80709C20.2036 3.78219 20.2536 3.74829 20.297 3.70678Z" fill="#3B2645"/>
<path d="M16.4566 3.53013C16.4169 3.47542 16.3649 3.4309 16.3047 3.40021C16.2446 3.36952 16.1781 3.35352 16.1106 3.35352C16.0431 3.35352 15.9766 3.36952 15.9164 3.40021C15.8563 3.4309 15.8043 3.47542 15.7645 3.53013C15.4165 3.93137 16.0046 4.73386 16.4566 4.78201C16.4829 4.36513 16.4829 3.94701 16.4566 3.53013Z" fill="#E0855C"/>
<path d="M22.0773 10.2513C21.9719 10.9271 21.8303 11.5968 21.6533 12.2575C21.6253 12.3819 21.6013 12.5022 21.5853 12.6186C21.5693 12.735 21.5533 12.8232 21.5333 12.9717C21.5333 12.9998 21.5333 13.0319 21.5333 13.06C21.5333 13.1563 21.5053 13.2566 21.4933 13.3649L20.9892 18.0795C17.8568 18.9422 14.5883 18.0795 14.5883 18.0795C14.5883 18.0795 14.5883 18.0193 14.5883 17.9029C14.5363 17.3693 14.3763 15.672 14.2163 13.7581C14.2163 13.7581 14.2163 13.73 14.2163 13.718C14.2179 13.6886 14.2179 13.6591 14.2163 13.6297C14.1483 12.8272 14.0843 11.9766 14.0323 11.1661C13.9362 9.75775 13.8762 8.45772 13.8882 7.65123C13.8882 7.35431 14.5803 7.38641 15.0524 7.32221C15.4004 7.27406 15.7565 7.24196 16.0645 7.22591C16.3726 7.20986 16.6046 7.20184 16.7606 7.20184H16.9366C16.9366 7.20184 16.9767 6.74041 16.9767 6.7364L17.0847 5.6049C17.1372 5.61848 17.1907 5.62787 17.2447 5.63298C17.3437 5.65159 17.444 5.66233 17.5447 5.66508C17.6767 5.66508 17.8008 5.66508 17.9168 5.66508L18.0888 5.64502H18.1888C18.3008 5.62496 18.4088 5.60089 18.5089 5.5728C18.6089 5.54471 18.6409 5.53267 18.7049 5.51261C18.9971 5.41868 19.2746 5.28359 19.529 5.11137L19.565 5.0873L19.633 5.03514L19.681 4.99902C19.681 5.0552 19.681 5.07927 19.681 5.10335C19.649 5.36817 19.613 5.70521 19.597 6.03824C19.597 6.27096 19.573 6.49967 19.565 6.69627C19.557 6.89288 19.493 7.17776 19.633 7.27807C19.683 7.30623 19.7369 7.32653 19.793 7.33826C20.0126 7.37304 20.2349 7.38781 20.4571 7.3824C20.5251 7.3824 20.5931 7.3824 20.6611 7.3824C20.8317 7.37243 21.0027 7.37243 21.1732 7.3824C21.2924 7.38205 21.4104 7.40566 21.5204 7.45183C21.6303 7.49801 21.7299 7.56581 21.8133 7.65123C21.917 7.80177 21.9829 7.97522 22.0053 8.15679L22.0533 8.48581C22.1295 9.07138 22.1375 9.66384 22.0773 10.2513Z" fill="#FFEDE5"/>
<path d="M19.665 4.9707C19.6109 5.25785 19.4941 5.52941 19.3228 5.76585C19.1516 6.0023 18.9303 6.19775 18.6748 6.33817C18.4192 6.47859 18.1359 6.56048 17.845 6.57796C17.5542 6.59543 17.2631 6.54806 16.9927 6.43925L17.0687 5.60868C17.5217 5.69633 17.9883 5.6847 18.4365 5.57458C18.8846 5.46447 19.3037 5.25847 19.665 4.9707Z" fill="#E0855C"/>
<path d="M16.5367 2.32647C16.3047 2.56722 16.2847 3.10488 16.2687 3.69872C16.2087 5.5043 16.7488 6.06604 17.6649 6.16635C18.581 6.26666 19.5451 5.90956 19.7412 4.24039C19.8412 3.4018 19.9452 2.63543 19.6411 2.2703C19.2051 1.73264 17.2408 1.58819 16.5367 2.32647Z" fill="#FFEDE5"/>
<path d="M19.6053 3.99582C19.6053 3.99582 19.8853 3.24951 20.3294 3.64674C20.7735 4.04397 20.1614 5.17146 19.4813 5.0872C19.4893 5.0872 19.3973 4.25261 19.6053 3.99582Z" fill="#FFEDE5"/>
<path d="M20.1331 3.98781C20.0281 4.02071 19.934 4.08176 19.8611 4.16436C19.7784 4.23357 19.7116 4.31978 19.665 4.41714C19.665 4.44522 19.693 4.46528 19.713 4.44522C19.7694 4.38923 19.8228 4.3303 19.8731 4.26868C19.9096 4.30904 19.9547 4.34058 20.0051 4.36096C20.0451 4.36096 20.0771 4.32485 20.0611 4.29275C20.0334 4.25026 19.9965 4.2146 19.9531 4.18843C20.0278 4.14047 20.0986 4.08681 20.1651 4.02793C20.1663 4.02311 20.1665 4.01805 20.1654 4.01318C20.1644 4.0083 20.1622 4.00373 20.1591 3.99984C20.156 3.99595 20.152 3.99283 20.1475 3.99074C20.143 3.98865 20.1381 3.98765 20.1331 3.98781Z" fill="#E0855C"/>
<path d="M17.0569 3.65853C17.0569 3.65853 16.9009 3.71471 16.9249 3.43785C16.9489 3.161 17.0569 3.22519 17.0569 3.22519C17.0569 3.22519 17.1649 3.22519 17.1489 3.44186C17.1329 3.65853 17.0569 3.65853 17.0569 3.65853Z" fill="#3B2645"/>
<path d="M18.6291 3.65853C18.6291 3.65853 18.4771 3.71471 18.5011 3.43785C18.5251 3.161 18.6291 3.22519 18.6291 3.22519C18.6291 3.22519 18.7371 3.22519 18.7211 3.44186C18.7051 3.65853 18.6291 3.65853 18.6291 3.65853Z" fill="#3B2645"/>
<path d="M17.2246 2.82018C17.1617 2.78449 17.0893 2.76954 17.0175 2.77746C16.9457 2.78538 16.8782 2.81577 16.8246 2.86432C16.8218 2.86981 16.8206 2.8759 16.8208 2.88201C16.8211 2.88813 16.8229 2.89408 16.8261 2.8993C16.8293 2.90451 16.8338 2.90883 16.8391 2.91183C16.8445 2.91484 16.8505 2.91644 16.8566 2.91648C16.9126 2.91648 16.9606 2.88438 17.0166 2.88037C17.0752 2.87757 17.1338 2.88714 17.1886 2.90846C17.2406 2.92451 17.2766 2.84426 17.2246 2.82018Z" fill="#3B2645"/>
<path d="M18.865 2.95662C18.801 2.79613 18.5249 2.78409 18.4049 2.88039C18.3991 2.88489 18.3944 2.89066 18.3912 2.89727C18.3879 2.90388 18.3862 2.91114 18.3862 2.9185C18.3862 2.92587 18.3879 2.93313 18.3912 2.93974C18.3944 2.94635 18.3991 2.95212 18.4049 2.95662C18.4768 2.96263 18.5491 2.96263 18.6209 2.95662C18.6791 2.96602 18.7357 2.98358 18.789 3.00878C18.7959 3.01889 18.8065 3.02584 18.8185 3.0281C18.8305 3.03036 18.8429 3.02774 18.853 3.02082C18.863 3.0139 18.87 3.00325 18.8722 2.99121C18.8745 2.97918 18.8719 2.96673 18.865 2.95662Z" fill="#3B2645"/>
<path d="M17.373 4.95075C17.7105 4.99512 18.0535 4.93639 18.3572 4.78223C18.3118 4.88929 18.2445 4.98565 18.1598 5.06512C18.075 5.14458 17.9747 5.20539 17.8651 5.24365C17.5171 5.33995 17.373 4.95075 17.373 4.95075Z" fill="white"/>
<path d="M15.3525 7.64679C16.2726 8.29279 16.3566 9.54868 15.9086 10.5518C15.6045 11.2219 15.0404 11.6913 14.7084 12.3253C14.3624 12.9401 13.9606 13.5217 13.5082 14.0626C12.5161 15.3266 11.572 16.4701 11.2079 16.9034C9.95576 18.4041 7.32341 20.3862 6.37528 21.0763C6.15925 21.2368 6.03124 21.3251 6.03124 21.3251C6.03124 21.3251 5.12312 20.8476 5.36315 19.9649C5.36315 19.9649 8.96363 16.129 9.4957 15.3466C10.0837 14.3296 10.6178 13.2823 11.0959 12.2089C11.7093 11.0186 12.3481 9.84426 13.0122 8.68601C13.3162 8.15236 13.7043 7.48228 14.3724 7.36191C14.642 7.33152 14.9142 7.38922 15.1485 7.52642C15.2192 7.56161 15.2874 7.60184 15.3525 7.64679Z" fill="#FFEDE5"/>
<path d="M5.36325 19.9691C5.46179 19.9615 5.56076 19.9615 5.65929 19.9691C5.65929 19.9691 6.52341 20.4506 6.37539 21.0765C6.37539 21.0765 6.28338 21.1608 6.13936 21.2892C5.99534 21.4176 5.83932 21.57 5.65129 21.7626C5.46327 21.9552 5.03521 22.5651 4.85118 22.5129C4.80829 22.4971 4.77082 22.4692 4.74317 22.4327L4.37112 22.0315C4.16309 21.7987 3.81505 21.4055 4.07908 21.0966C3.88705 21.2129 3.43899 21.4978 3.21897 21.3614L3.12695 21.2129C3.12695 21.2129 3.78704 20.7194 4.05908 20.4746C4.42606 20.166 4.88473 19.9882 5.36325 19.9691Z" fill="#FFEDE5"/>
<path d="M16.4449 13.7939C16.4435 13.8153 16.4435 13.8368 16.4449 13.8581C16.4449 13.8581 16.4809 13.8581 16.4729 13.8581L16.4449 13.7939Z" fill="#D6BED3"/>
<path d="M30.8068 51.9323C30.3828 51.9764 29.9547 52.0125 29.5186 52.0326L4.89534 52.0526H4.81933H4.69131L4.25926 52.0125C4.16058 52.0125 4.06595 51.9732 3.99618 51.9032C3.9264 51.8332 3.88721 51.7383 3.88721 51.6394C3.88721 51.5404 3.9264 51.4455 3.99618 51.3755C4.06595 51.3055 4.16058 51.2662 4.25926 51.2662L4.69532 51.2261H4.81933H4.89934L29.5186 51.2461C29.9507 51.2461 30.3788 51.2983 30.8068 51.3464C30.868 51.367 30.9212 51.4064 30.9589 51.459C30.9966 51.5115 31.0169 51.5746 31.0169 51.6394C31.0169 51.7041 30.9966 51.7672 30.9589 51.8198C30.9212 51.8723 30.868 51.9117 30.8068 51.9323Z" fill="#C6C6C6"/>
<path d="M17.929 26.7984C17.561 29.7555 17.1289 32.3275 17.1289 32.3275C17.1889 33.0417 17.2169 33.8161 17.2169 34.6105C17.2169 36.1674 17.1129 37.8205 16.9809 39.277C16.8129 41.1347 16.5808 42.7156 16.4808 43.5101V43.6104C16.6289 48.8787 15.1327 49.5768 14.4326 48.4253C13.7325 47.2737 14.4326 43.8792 14.4326 43.8792C14.4348 43.8485 14.4348 43.8177 14.4326 43.7869C14.138 42.2105 13.9416 40.6171 13.8445 39.0162C13.6044 35.1402 14.0165 32.488 13.9685 32.0065C13.1324 23.5804 14.3005 18.934 14.3005 18.934C14.4829 18.2589 14.8122 17.6327 15.2647 17.1004C16.1168 16.1775 17.1409 16.4102 17.785 17.5377C17.8527 17.6533 17.9142 17.7726 17.969 17.8948C18.2315 18.5424 18.3804 19.2307 18.4091 19.9291C18.4731 21.6745 18.2291 24.3669 17.929 26.7984Z" fill="#FFEDE5"/>
<path d="M22.0616 38.8114C21.9685 40.4457 21.7735 42.0726 21.4775 43.6824L21.4415 43.879C21.4415 43.879 22.1416 47.2856 21.4415 48.4251C20.7414 49.5646 19.2612 48.8986 19.3932 43.6824C19.3932 43.6583 19.3932 43.6343 19.3932 43.6142C19.2812 42.8599 19.0572 41.2268 18.8811 39.2928C18.7451 37.8243 18.6411 36.1792 18.6411 34.6224C18.6411 33.8199 18.6731 33.0495 18.7331 32.3313C18.7331 32.3313 18.2891 29.7594 17.933 26.8062C17.633 24.3707 17.385 21.6783 17.489 19.949C17.5189 19.2503 17.6691 18.562 17.933 17.9147C17.9854 17.7887 18.0469 17.6666 18.117 17.5496C18.8571 16.2616 20.0893 16.1492 20.9974 17.6017C21.2576 18.0228 21.462 18.476 21.6055 18.9499C21.6055 18.9499 22.7737 23.5842 21.9376 32.0224C21.8775 32.4958 22.2736 35.0557 22.0616 38.8114Z" fill="#FFEDE5"/>
<path d="M5.26716 22.5734C5.34686 22.6659 5.44587 22.7398 5.55717 22.7897C5.66847 22.8396 5.78934 22.8644 5.91125 22.8623C5.96709 22.8492 6.01972 22.825 6.06595 22.791C6.11218 22.757 6.15105 22.7139 6.18022 22.6644C6.20939 22.6149 6.22824 22.56 6.23565 22.5029C6.24305 22.4459 6.23885 22.388 6.22329 22.3326C6.17677 22.2106 6.10124 22.1018 6.00326 22.0157C5.39918 21.4138 4.7791 20.8119 4.15101 20.2542C4.04605 20.1355 3.90578 20.0539 3.75096 20.0215C3.60698 20.0214 3.46764 20.0726 3.35776 20.1659C3.24787 20.2592 3.17456 20.3886 3.15088 20.5311C3.15088 20.7879 3.37091 20.8842 3.55093 21.0286C4.11901 21.5342 4.68708 22.0638 5.26716 22.5734Z" fill="#3B2645"/>
<path d="M5.17938 21.8627C5.20428 21.837 5.22458 21.8071 5.23939 21.7745C5.24953 21.733 5.25011 21.6898 5.2411 21.6481C5.23209 21.6063 5.21372 21.5672 5.18738 21.5337C5.03936 21.289 4.73532 20.8957 4.43528 20.8596C4.33622 20.8546 4.23757 20.8756 4.14913 20.9207C4.0607 20.9657 3.98557 21.0332 3.93121 21.1164C3.84144 21.246 3.78434 21.3954 3.76483 21.552C3.74532 21.7085 3.76398 21.8675 3.8192 22.0152C3.907 22.2809 4.08739 22.506 4.32727 22.6492C4.44697 22.7 4.58164 22.7026 4.70315 22.6562C4.82467 22.6098 4.92362 22.5182 4.97935 22.4004C5.03936 22.2519 5.01936 22.0714 5.11537 21.947C5.13358 21.9166 5.15504 21.8884 5.17938 21.8627Z" fill="#FFEDE5"/>
<path d="M20.489 7.64716C19.5649 8.29316 19.4809 9.54904 19.9329 10.5521C20.233 11.2222 20.7971 11.6917 21.1331 12.3256C21.4819 12.9387 21.8835 13.52 22.3333 14.063C23.3254 15.3269 24.2735 16.4705 24.6336 16.9038C25.8897 18.4125 28.5221 20.3866 29.4702 21.0767L29.8183 21.3255C29.8183 21.3255 30.7224 20.848 30.4824 19.9653C30.4824 19.9653 26.8819 16.1294 26.3498 15.347C25.7602 14.3309 25.226 13.2834 24.7496 12.2093C24.1335 11.0055 23.4974 9.84596 22.8293 8.68637C22.5253 8.15272 22.1412 7.48265 21.4692 7.36228C21.1996 7.33218 20.9274 7.38985 20.693 7.52679C20.6222 7.5618 20.554 7.60204 20.489 7.64716Z" fill="#FFEDE5"/>
<path d="M30.4785 19.969C30.3786 19.9615 30.2783 19.9615 30.1785 19.969C30.1785 19.969 29.3143 20.4505 29.4624 21.0765C29.4624 21.0765 29.5584 21.1607 29.6984 21.2891C29.8384 21.4175 30.0024 21.57 30.1865 21.7626C30.3705 21.9552 30.8065 22.5651 30.9866 22.5129C31.0289 22.4959 31.0661 22.4683 31.0946 22.4327L31.4626 22.0314C31.6747 21.7987 32.0187 21.4055 31.7587 21.0965C31.9467 21.2129 32.3948 21.4978 32.6188 21.3613L32.6948 21.2129C32.6948 21.2129 32.0347 20.7194 31.7587 20.4746C31.3987 20.1699 30.9489 19.9922 30.4785 19.969Z" fill="#FFEDE5"/>
<path d="M30.5704 22.5734C30.4907 22.666 30.3917 22.7398 30.2804 22.7898C30.1691 22.8397 30.0482 22.8645 29.9263 22.8623C29.8697 22.8502 29.8162 22.8266 29.7691 22.793C29.722 22.7594 29.6822 22.7165 29.6522 22.6668C29.6222 22.6172 29.6027 22.562 29.5948 22.5045C29.5869 22.4471 29.5908 22.3886 29.6063 22.3327C29.6561 22.216 29.7329 22.1129 29.8303 22.0318C30.4357 21.4299 31.0544 20.8428 31.6865 20.2703C31.7909 20.151 31.9315 20.0692 32.0866 20.0376C32.2301 20.0377 32.3689 20.089 32.4781 20.1824C32.5873 20.2757 32.6599 20.4051 32.6827 20.5472C32.6827 20.804 32.4666 20.9003 32.2826 21.0447C31.7185 21.5342 31.1505 22.0639 30.5704 22.5734Z" fill="#3B2645"/>
<path d="M30.6627 21.8627C30.6354 21.8382 30.6136 21.8081 30.5987 21.7745C30.5902 21.7326 30.5909 21.6895 30.6005 21.648C30.6102 21.6064 30.6287 21.5674 30.6547 21.5337C30.7987 21.289 31.1027 20.8957 31.4028 20.8596C31.5018 20.8546 31.6005 20.8756 31.6889 20.9207C31.7774 20.9657 31.8525 21.0332 31.9069 21.1164C31.9956 21.2466 32.0512 21.3966 32.0686 21.5533C32.086 21.71 32.0648 21.8686 32.0069 22.0152C31.9217 22.2824 31.7407 22.5083 31.4988 22.6492C31.3791 22.7 31.2444 22.7026 31.1229 22.6562C31.0014 22.6098 30.9024 22.5182 30.8467 22.4004C30.7907 22.2519 30.8107 22.0714 30.7107 21.947L30.6627 21.8627Z" fill="#FFEDE5"/>
<path d="M22.1215 36.2393V36.6405C22.1215 36.9094 22.1215 37.1862 22.1215 37.4711V37.7961C22.1215 38.1251 22.0975 38.4662 22.0815 38.8153C21.0457 39.1019 19.9792 39.2622 18.9051 39.2927C18.8611 38.8434 18.773 37.6477 18.769 37.5153C18.769 37.2424 18.709 36.472 18.705 36.3677C18.681 35.7819 18.665 35.1961 18.665 34.6223C18.665 33.876 18.693 33.1457 18.749 32.4676C18.749 32.4195 18.749 32.3754 18.749 32.3312C18.749 32.2871 18.305 29.7633 17.9489 26.8061C17.9089 27.1191 17.8689 27.4321 17.8289 27.733C17.4929 30.2769 17.1368 32.3312 17.1368 32.3312C17.1968 33.0454 17.2248 33.8198 17.2248 34.6143C17.2248 35.2202 17.2248 35.818 17.1808 36.452C17.1808 36.5563 17.1008 37.8964 17.0888 38.0248C17.0608 38.4542 17.0248 38.8755 16.9888 39.2807C16.4287 39.2566 15.8767 39.2205 15.3286 39.1724C14.8965 39.1363 14.3525 39.1122 13.8244 39.036C13.8004 38.6748 13.7844 38.3298 13.7724 37.9927C13.7724 37.9085 13.7724 37.8242 13.7724 37.7399C13.7724 37.3708 13.7724 37.0217 13.7724 36.6847V36.4199C13.7724 33.9883 14.0084 32.3874 13.9724 32.0062C13.1363 23.5801 14.3044 18.9338 14.3044 18.9338C14.4868 18.2586 14.8161 17.6324 15.2686 17.1001C15.6115 17.1534 15.948 17.2421 16.2727 17.3649C16.7673 17.4945 17.2779 17.5526 17.7889 17.5375H18.157C18.601 17.5375 19.0451 17.4853 19.4851 17.4733H19.7812C20.203 17.467 20.6243 17.5073 21.0374 17.5936C21.2842 18.0192 21.4752 18.4751 21.6054 18.9498C21.9286 20.4643 22.1187 22.0043 22.1735 23.5521C22.309 26.3774 22.2301 29.2089 21.9375 32.0223C21.8895 32.3794 22.1015 33.9081 22.1215 36.2393Z" fill="#3B2645"/>
<path d="M16.4568 43.6101C16.5129 45.6845 16.3168 47.0487 16.0128 47.8713C15.5487 49.1432 14.8126 49.1271 14.4126 48.441C14.3045 48.2506 14.2301 48.0429 14.1925 47.8271C13.9005 46.3947 14.4126 43.895 14.4126 43.895C14.4148 43.8642 14.4148 43.8334 14.4126 43.8027C14.6116 43.9483 14.8373 44.0533 15.0767 44.1116C15.3453 44.1778 15.6281 44.1549 15.8826 44.0464C16.1372 43.9379 16.3499 43.7496 16.4889 43.5098L16.4568 43.6101Z" fill="#AB8DA8"/>
<path d="M21.6814 47.7152C21.6473 47.9702 21.5658 48.2165 21.4414 48.4414C21.0093 49.1476 20.2652 49.1436 19.8051 47.7754C19.5251 46.9729 19.3451 45.6368 19.4051 43.6787C19.7047 43.9487 20.0906 44.1024 20.4932 44.1121C20.8524 44.0789 21.1936 43.9392 21.4734 43.7108C21.4808 43.7735 21.4808 43.8368 21.4734 43.8994C21.4734 43.8994 21.9294 46.2667 21.6814 47.7152Z" fill="#AB8DA8"/>
<path d="M15.8527 44.8419C15.6501 44.7207 15.4185 44.6567 15.1826 44.6567C14.9467 44.6567 14.7151 44.7207 14.5125 44.8419C14.505 44.8503 14.5 44.8606 14.498 44.8717C14.496 44.8827 14.4972 44.8942 14.5014 44.9046C14.5055 44.915 14.5125 44.9241 14.5216 44.9308C14.5306 44.9374 14.5413 44.9414 14.5525 44.9423C14.7525 44.9423 14.9526 44.858 15.1406 44.862C15.3607 44.8808 15.578 44.9238 15.7887 44.9904C15.8067 44.9927 15.825 44.989 15.8407 44.9799C15.8565 44.9709 15.8689 44.957 15.8761 44.9402C15.8834 44.9235 15.885 44.9049 15.8807 44.8872C15.8765 44.8694 15.8667 44.8536 15.8527 44.8419Z" fill="#291B30"/>
<path d="M15.7888 45.4841C15.4472 45.2844 15.0463 45.212 14.6567 45.2795C14.5247 45.2795 14.5207 45.5002 14.6567 45.4881C14.8449 45.47 15.0347 45.4781 15.2207 45.5122C15.3928 45.5443 15.5488 45.6165 15.7208 45.6526C15.742 45.6572 15.7641 45.6541 15.7832 45.6439C15.8023 45.6338 15.8173 45.6172 15.8254 45.597C15.8335 45.5769 15.8343 45.5545 15.8276 45.5339C15.8209 45.5132 15.8072 45.4956 15.7888 45.4841Z" fill="#291B30"/>
<path d="M21.0852 44.8422C20.7812 44.7379 20.1211 44.6978 19.885 44.9787C19.853 45.0148 19.885 45.091 19.929 45.087C20.1171 45.0629 20.2811 44.9867 20.4771 44.9787C20.6731 44.9706 20.8772 45.0228 21.0612 45.0108C21.0722 45.0123 21.0835 45.0117 21.0943 45.009C21.1051 45.0062 21.1152 45.0013 21.1241 44.9946C21.133 44.9879 21.1405 44.9795 21.1462 44.9699C21.1519 44.9602 21.1556 44.9496 21.1572 44.9385C21.1588 44.9275 21.1582 44.9162 21.1554 44.9054C21.1526 44.8945 21.1478 44.8844 21.1411 44.8754C21.1344 44.8665 21.126 44.8589 21.1164 44.8533C21.1068 44.8476 21.0962 44.8438 21.0852 44.8422Z" fill="#291B30"/>
<path d="M21.2331 45.5201C20.9011 45.3717 20.073 45.2634 19.905 45.7127C19.881 45.7729 19.957 45.8211 20.005 45.793C20.1778 45.6963 20.3705 45.6406 20.5681 45.6302C20.7657 45.6198 20.9631 45.6549 21.1451 45.7328C21.2651 45.7809 21.3572 45.5723 21.2331 45.5201Z" fill="#291B30"/>
<path d="M6.08745 7.16942C6.08745 7.14535 6.03944 7.14535 6.03544 7.16942C5.83541 8.53766 5.95143 9.97811 5.95143 11.3784C5.95143 12.859 5.90342 14.3516 5.99143 15.8282C5.99522 15.844 6.00418 15.858 6.01688 15.868C6.02958 15.8781 6.04528 15.8835 6.06144 15.8835C6.07761 15.8835 6.09331 15.8781 6.106 15.868C6.1187 15.858 6.12767 15.844 6.13145 15.8282C6.21546 14.3516 6.16746 12.859 6.16746 11.3784C6.16746 10.0102 6.28347 8.54969 6.08745 7.16942Z" fill="#F7F8F8"/>
<path d="M7.83534 7.63499C7.83108 7.61529 7.82022 7.59764 7.80457 7.58499C7.78892 7.57233 7.76943 7.56543 7.74933 7.56543C7.72922 7.56543 7.70973 7.57233 7.69408 7.58499C7.67843 7.59764 7.66758 7.61529 7.66331 7.63499C7.66331 8.95106 7.5793 10.2912 7.66331 11.6033C7.66331 11.6256 7.67217 11.647 7.68792 11.6629C7.70368 11.6787 7.72505 11.6875 7.74733 11.6875C7.76961 11.6875 7.79098 11.6787 7.80673 11.6629C7.82249 11.647 7.83134 11.6256 7.83134 11.6033C7.92335 10.2912 7.84334 8.95106 7.83534 7.63499Z" fill="#F7F8F8"/>
<path d="M25.7221 21.4134C25.7189 21.4015 25.7118 21.391 25.7021 21.3836C25.6923 21.3761 25.6804 21.3721 25.6681 21.3721C25.6559 21.3721 25.6439 21.3761 25.6342 21.3836C25.6244 21.391 25.6174 21.4015 25.6141 21.4134C25.5014 23.1363 25.4787 24.864 25.5461 26.5894C25.5461 28.3147 25.5461 30.036 25.6101 31.7614C25.6135 31.7742 25.621 31.7856 25.6315 31.7937C25.642 31.8018 25.6549 31.8062 25.6681 31.8062C25.6814 31.8062 25.6942 31.8018 25.7047 31.7937C25.7152 31.7856 25.7228 31.7742 25.7261 31.7614C25.7821 30.036 25.7821 28.3147 25.7901 26.5894C25.8555 24.864 25.8328 23.1364 25.7221 21.4134Z" fill="#F7F8F8"/>
<path d="M28.8062 11.3223C28.7937 10.1742 28.7189 9.02765 28.5822 7.8877C28.5822 7.81949 28.4741 7.83956 28.4701 7.8877C28.4393 9.12057 28.4753 10.3542 28.5782 11.5831C28.6302 12.7267 28.6182 13.8983 28.7702 15.0298C28.7702 15.1341 28.9462 15.102 28.9502 15.0057C29.0062 13.7819 28.8782 12.5341 28.8062 11.3223Z" fill="#F7F8F8"/>
<path d="M29.6065 11.9602C29.6037 11.9512 29.5982 11.9434 29.5906 11.9378C29.583 11.9322 29.5739 11.9292 29.5645 11.9292C29.5551 11.9292 29.546 11.9322 29.5385 11.9378C29.5309 11.9434 29.5253 11.9512 29.5225 11.9602C29.4165 13.6087 29.4085 15.262 29.4985 16.9115C29.496 16.9215 29.4959 16.932 29.498 16.9422C29.5002 16.9523 29.5046 16.9618 29.511 16.9699C29.5173 16.9781 29.5255 16.9847 29.5347 16.9892C29.544 16.9938 29.5542 16.9961 29.5645 16.9961C29.5748 16.9961 29.585 16.9938 29.5943 16.9892C29.6036 16.9847 29.6117 16.9781 29.6181 16.9699C29.6245 16.9618 29.6289 16.9523 29.631 16.9422C29.6332 16.932 29.633 16.9215 29.6305 16.9115C29.7205 15.262 29.7125 13.6087 29.6065 11.9602Z" fill="#F7F8F8"/>
<path d="M17.8091 27.7291C17.8152 27.4167 17.8554 27.1059 17.9291 26.8022C17.8891 27.1152 17.8491 27.4282 17.8091 27.7291Z" fill="#291B30"/>
<path d="M22.1613 23.5521C21.6212 20.298 17.1606 20.1455 17.1606 20.1455C16.8846 18.8054 18.6848 18.4041 18.6848 18.4041L19.737 17.4933C20.1588 17.487 20.5801 17.5274 20.9931 17.6137C21.2537 18.0307 21.4595 18.4798 21.6052 18.9498C21.9218 20.4651 22.1078 22.0048 22.1613 23.5521Z" fill="#291B30"/>
<path d="M21.6693 19.2992C18.0688 20.9965 14.1562 19.4396 14.1562 19.4396C14.4403 18.6372 14.2283 14.5445 14.2083 13.7661C14.2083 13.7661 14.2083 13.738 14.2083 13.726C14.2099 13.6966 14.2099 13.6671 14.2083 13.6377C14.9644 11.8803 15.0484 8.49378 15.0524 7.33018C15.3924 7.27802 15.7485 7.24994 16.0565 7.23389C16.1765 8.53391 16.6046 11.8682 17.7967 11.7238C18.9889 11.5793 19.557 8.61014 19.765 7.31012C19.9843 7.34702 20.2068 7.36181 20.4291 7.35426C20.4971 7.35426 20.5651 7.35426 20.6331 7.35426C20.5291 9.13176 21.5132 12.8673 21.5412 12.9716C21.5412 12.9997 21.5412 13.0318 21.5412 13.0599C21.5412 13.1562 21.5132 13.2565 21.5012 13.3649C21.5012 13.3649 21.5012 13.409 21.5012 13.4331C21.2492 15.6961 21.6693 19.2992 21.6693 19.2992Z" fill="#AB8DA8"/>
</svg>
