<svg width="230" height="265" fill="none" xmlns="http://www.w3.org/2000/svg"><path d="M229.217 210.273c-.189 3.539-.838 10.808-5.728 10.808h-.244a5.128 5.128 0 0 1-1.756-.487 4.94 4.94 0 0 1-.729-.405 8.73 8.73 0 0 1-3.135-7.836 10.367 10.367 0 0 0-.27-2.702 9.383 9.383 0 0 0-.324-1.243.825.825 0 0 1 0-.243 17.104 17.104 0 0 0-.595-1.216 4.741 4.741 0 0 0-.378-.621.237.237 0 0 0 0-.162 1.7 1.7 0 0 0-.27-.351 7.446 7.446 0 0 0-.973-1.081l-.162-.162c-.405-.352-.783-.703-1.162-1-1.432-1.216-2.702-2.054-2.539-3.594.216-3.62 2.701-8.295 6.133-7.268 0 0 .865-4.323-1.513-5.404-1.513-.756 0-1.162.918-1.243 1.568-.135 3.135.487 4.81.352.104-.096.212-.186.324-.271a7.127 7.127 0 0 1 2 0h.162a4.535 4.535 0 0 1 3.242 2.702c.467 1.375.705 2.817.703 4.269.27 5.864 1.81 11.241 1.486 17.158Z" fill="#3B2645"/><path d="M219.138 202.356c-.216.567-.675.811-1.162 1.135-.561.394-1.094.827-1.594 1.297a8.628 8.628 0 0 0-.783.945 7.497 7.497 0 0 0-.973-1.08l-.162-.162a7.85 7.85 0 0 1 .594-.73c.811-.892 2.405-2.54 3.702-2.135a.593.593 0 0 1 .378.73ZM220.381 205.49a23.91 23.91 0 0 1-3.431 2.702 18.012 18.012 0 0 0-.595-1.216 6.245 6.245 0 0 1 3.648-2.134.459.459 0 0 1 .378.648ZM229.216 210.273c-.189 3.539-.837 10.808-5.728 10.808h-.243a5.115 5.115 0 0 1-1.756-.487c7.214-2.702 5.62-12.213 4.944-18.913a53.29 53.29 0 0 0-2.513-15.537 4.49 4.49 0 0 1 3.108 2.702c.467 1.375.704 2.817.702 4.269.27 5.864 1.81 11.24 1.486 17.158Z" fill="#E8CEE5"/><path d="M83.825 66.69s-.73 3.216-1.946 8.107a208.06 208.06 0 0 1-9.889 30.559 36.106 36.106 0 0 1-4.242 7.43c-7.593 9.619-38.125-12.402-42.015-15.266a1.567 1.567 0 0 0-.892-.324c-2.162 0-10.808-.46-10.619-6.43.162-6.512 4.648-14.7 14.456-5.405 6.052 5.702 27.425 12.78 27.425 12.78l6.944-45.014a3.081 3.081 0 0 1 5.16-1.756c3.81 3.54 9.7 9.24 15.618 15.32Z" fill="#FFEDE5"/><path d="M81.852 74.689a208.05 208.05 0 0 1-9.863 30.667c-.135-12.97-.432-30.83-.432-30.83a11.052 11.052 0 0 1 10.295.163Z" fill="#E0855C"/><path d="M106.196 145.75c-5.647 3.999-11.942 7.863-18.21 11.673-3 1.81-5.864 3.62-8.566 5.404a262.296 262.296 0 0 0-22.967 17.13c3.162 3.783 6.458 12.483 9.43 22.372 5.972 19.887 10.808 44.663 10.808 44.663-5.404 4.945-9.97 2.702-9.97 2.702-4.242-8.105-13.375-25.641-21.075-41.772-7.215-14.996-13.159-28.965-12.564-33.396.594-4.431 12.266-17.238 24.317-29.559 13.51-13.51 27.344-26.534 27.344-26.534a88.821 88.821 0 0 1 17.482-14.482c6.457-3.81 13.509-5.998 18.913-2.432a16 16 0 0 1 5.918 7.89c.199.467.37.945.513 1.432 4.134 13.159-6.566 24.507-21.373 34.909Z" fill="#FFEDE5"/><path d="M215.599 199.33c-14.861.702-30.289 2.405-42.799 3.377-10.808.865-19.346 1.243-23.453 0-8.106-2.323-21.048-21.291-29.722-35.125-5.106-8.268-8.781-14.726-8.781-14.726s-2.134-2.702-4.728-7.106c-6.836-11.429-16.806-33.288 2.702-39.205 8.376-2.54 14.05-.649 18.562 4.296 6.052 6.62 10.024 18.697 15.671 33.153l15.537 38.611a60.883 60.883 0 0 1 13.915-1.27 230.39 230.39 0 0 1 44.042 5.998c4.647 5.782-.946 11.997-.946 11.997Z" fill="#FFEDE5"/><path d="M78.177 24.46c5.701-1.568 11.375-3.243 16.996-5.08 3.296-1.081 6.917-1.135 8.105-4.945a10.796 10.796 0 0 0-1.648-9.322A13.103 13.103 0 0 0 94.173.466a21.426 21.426 0 0 0-8.89 0 15.131 15.131 0 0 0-10.564 6.43 14.752 14.752 0 0 0-1.46 8.35 15.076 15.076 0 0 0 2.487 7.025c.189.297 1.459 2.89 2.107 2.702.19-.108.297-.487.324-.514Z" fill="#3B2645"/><path d="M76.664 19.947a2.89 2.89 0 0 0-4.566.973c-1.702 3.242 3.323 7.673 6.323 7.268a66.828 66.828 0 0 0-1.757-8.24Z" fill="#E0855C"/><path d="M126.11 42.698a170.19 170.19 0 0 0-2.837 27.262v2.46c.351 5.646 3.242 32.26 3.783 36.448v.541c-18.185 9.457-39.206 9.051-41.88 9.024h-.298a10.906 10.906 0 0 0-.351-1.134c-1.621-4.891-7.89-25.02-12.942-42.772 0-.27-.163-.514-.244-.81-2.702-9.133-6.511-16.213-7.538-21.427-.378-1.973 5.836-4.242 8.862-5.404.433-.19.892-.325 1.378-.487 2.378-.837 4.837-1.54 6.81-2.053l4.08-.946-1.27-10.808h1.08c.68-.029 1.356-.1 2.026-.216a19.405 19.405 0 0 0 2.46-.567l1.134-.352 1.486-.62c.792-.334 1.56-.722 2.297-1.163.166-.072.329-.153.486-.243a.161.161 0 0 0 .162 0l.514-.324a17.719 17.719 0 0 0 2.54-2.027c.432-.405.81-.756 1.107-1.08l.19-.217c.142-.129.268-.274.378-.432.104-.095.195-.204.27-.324v.756c0 1.784.378 4.026.756 6.269.217 1.54.46 3.053.703 4.377.432 2.27.784 3.918.784 3.918a13.07 13.07 0 0 1 1.486-.27H104.494a49.39 49.39 0 0 1 5.755-.514h2.351a43.23 43.23 0 0 1 12.591 2.08 1.163 1.163 0 0 1 .919 1.055Z" fill="#FFEDE5"/><path d="M100.036 24.919a13.347 13.347 0 0 1-15.618 13.51l-.648-5.593a21.614 21.614 0 0 0 16.266-7.917Z" fill="#E0855C"/><path d="M75.503 11.895c-1.19 1.919-.54 5.404.162 9.43 2.161 11.97 6.484 14.915 12.699 14.267 6.214-.649 12.051-4.324 10.997-15.618-.514-5.647-.892-10.808-3.405-12.834-3.755-2.918-16.833-1.08-20.453 4.755Z" fill="#FFEDE5"/><path d="M98.199 18.623s.783-5.404 4.269-3.35c3.485 2.053 1.027 10.294-3.567 10.808 0-.162-1.783-5.54-.702-7.458Z" fill="#FFEDE5"/><path d="M80.825 19.92s-.946.622-1.189-1.243c-.243-1.864.568-1.594.568-1.594s.702-.162.918 1.297c.216 1.46-.297 1.54-.297 1.54ZM91.228 17.704s-.946.595-1.19-1.242c-.242-1.838.568-1.595.568-1.595s.703-.162.919 1.297c.216 1.46-.297 1.54-.297 1.54Z" fill="#3B2645"/><path d="M86.526 23.784c-.513 0-1.648.594-2.026 0a15.373 15.373 0 0 1 0-3.864c.144-1.716.189-3.44.135-5.16h-.19a58.069 58.069 0 0 0-.62 9.537.244.244 0 0 0 .324.27c.756-.162 1.54-.162 2.296-.324.352-.054.352-.486.081-.46Z" fill="#E0855C"/><path d="M80.77 14.165c-.837-.216-2.215 0-2.701.865a.216.216 0 0 0 .27.297c.351 0 .648-.351 1-.46.392-.08.796-.08 1.189 0a.371.371 0 1 0 .243-.702ZM91.768 12.76a2.188 2.188 0 0 0-3.134.135.325.325 0 0 0 .243.486 8.67 8.67 0 0 0 1.405-.297 4.327 4.327 0 0 1 1.189 0c.216.135.46-.135.297-.324Z" fill="#3B2645"/><path d="M89.796 25.702c-1.162.595-1.783 1.486-3.161 1.73a4.053 4.053 0 0 1-2.054 0c-.378 0-.378-.19-.756-.162a.19.19 0 0 0-.163.243c.325 1.161 2.162.972 3.054.837a4.378 4.378 0 0 0 3.377-2.27c.081-.215-.108-.459-.297-.378Z" fill="#E0855C"/><path d="M147.32 154.315c-.811.595-1.567 1.162-2.351 1.675-.783.514-1.243.865-1.864 1.27a67.545 67.545 0 0 1-23.453 10.322c-5.134-8.268-8.808-14.726-8.808-14.726s-2.135-2.702-4.729-7.106c-5.647 3.999-11.942 7.863-18.21 11.673-3 1.81-5.864 3.62-8.566 5.403-2.567-1.54-4.89-3.08-6.998-4.566a77.408 77.408 0 0 1-14.915-13.294c13.51-13.509 27.344-26.533 27.344-26.533a88.842 88.842 0 0 1 17.481-14.482 48.244 48.244 0 0 1 18.914-2.432 15.995 15.995 0 0 1 5.89 7.89c.2.467.371.945.514 1.432 6.052 6.62 10.024 18.697 15.671 33.153 1.432 3.62 2.729 7.025 4.08 10.321Z" fill="#AB8DA8"/><path d="M76.638 246.992c-5.404 4.945-9.97 2.702-9.97 2.702-4.243-8.106-13.375-25.641-21.076-41.772a96.063 96.063 0 0 0 20.292-5.566c5.971 19.859 10.754 44.636 10.754 44.636Z" fill="#E8CEE5"/><path d="M79.474 250.613c.041.251.041.506 0 .757a4.865 4.865 0 0 1-1.756 3.026 14.558 14.558 0 0 1-3.864 1.999c-5.404 2.189-10.024 5.404-15.752 6.836-3.405.892-10.457 2.513-12.024-2.134a1.774 1.774 0 0 1 0-.244 5.398 5.398 0 0 1 0-1.432c.028-.401.091-.799.19-1.188.513-1.784 2.107-3.999 6.484-5.404.87-.267 1.706-.639 2.486-1.108.365-.203.717-.429 1.053-.676l.217-.189c.4-.317.77-.67 1.107-1.054l.352-.405.135-.162.378-.594a7.68 7.68 0 0 0 .568-1.027c.297-.622.513-1.135.702-1.594.675-1.73 1.135-3.135 2.702-3.513 3.513-.919 8.7 0 8.835 3.567 0 0 4.378-.514 4.729-3.135.243-1.675 1.135-.378 1.486.487.594 1.459.513 3.134 1.162 4.647 0 .216.189.378.27.595.324.59.552 1.229.675 1.891a.47.47 0 0 1-.135.054Z" fill="#3B2645"/><path d="M215.599 199.33c-14.861.702-30.289 2.405-42.799 3.377a53.441 53.441 0 0 0 1-13.509 31.56 31.56 0 0 0-1.135-7.944 230.311 230.311 0 0 1 44.042 5.998c4.485 5.863-1.108 12.078-1.108 12.078ZM60.263 255.017c-1.189-1.243-2.27-2.567-3.512-3.783l-.405-.378c.4-.317.77-.67 1.107-1.054.162.162.297.325.46.46a23.688 23.688 0 0 1 3.323 3.836c.405.622-.432 1.487-.973.919ZM63.425 251.423a.568.568 0 0 1-.757.73 23.28 23.28 0 0 1-3.35-2.702 9.713 9.713 0 0 0-1-.757c.215-.327.405-.67.567-1.026.401.156.775.375 1.108.648a8.538 8.538 0 0 1 3.432 3.107ZM79.448 251.37a4.865 4.865 0 0 1-1.757 3.026 14.56 14.56 0 0 1-3.864 1.999c-5.403 2.189-10.024 5.404-15.752 6.836-3.405.892-10.457 2.513-12.024-2.134a1.806 1.806 0 0 1 0-.244 5.406 5.406 0 0 1 0-1.432c6.782 4.567 13.294.406 20.184-1.81 5.025-1.648 10.105-2.621 13.213-6.241ZM144.97 155.99c-.622.46-1.243.865-1.865 1.27-6.592-15.86-12.564-32.18-21.318-46.77-.459-.757.594-1.568 1.135-.811 5.404 7.43 8.727 16.617 12.537 24.966 3.242 6.971 6.538 14.131 9.511 21.345Z" fill="#E8CEE5"/><path d="M106.197 145.75c-5.648 3.999-11.943 7.863-18.212 11.673-2.999 1.81-5.863 3.62-8.565 5.403-2.567-1.54-4.89-3.08-6.998-4.566 19.346-11.024 33.396-12.483 33.775-12.51Z" fill="#826B80"/><path d="M127.055 109.409c-18.184 9.457-39.205 9.105-41.88 9.024h-.297l-.351-1.053c-1.622-4.891-7.89-25.02-12.943-42.772 2.702-9.079 2.702-23.156 2.459-28.047 2.378-.837 4.836-1.54 6.809-2.053.135 4.755 1.405 16.617 10.538 16.941 10.807.379 12.888-14.915 13.266-21.615a49.368 49.368 0 0 1 5.755-.514h2.351c-.564 4.5-.409 9.06.459 13.51a40.205 40.205 0 0 0 10.106 19.832c.162 2.864.945 10.97 1.756 18.914.811 7.944 1.972 17.833 1.972 17.833Z" fill="#3B2645"/><path d="M123.353 72.662c0 2.702.919 10.808 1.73 18.914a64.387 64.387 0 0 1-11.889-38.638 40.212 40.212 0 0 0 10.132 19.724h.027Z" fill="#291B30"/><path d="M31.704 88.496c-1.054 3.81-2.945 7.241-4.08 10.97-.594 1.945 2.162 2.702 3.27 1.513a28.347 28.347 0 0 0 5.403-11.7c.676-2.837-3.81-3.593-4.593-.783ZM79.366 38.699c.648.892 1.324 1.702 2 2.54.257.287.492.595.702.918 4.107 5.729 4.81 12.321 6.863 18.67l.73-1.134c-.595-2.486-1.108-4.972-1.784-7.403a23.454 23.454 0 0 1 4.512-10.403 41.849 41.849 0 0 0 4.945-5.89 17.727 17.727 0 0 0 2.08-7.35 21.9 21.9 0 0 1 1.433-7.322c.099-.196.172-.405.216-.621a1.71 1.71 0 0 0-.703-1.432 1.188 1.188 0 0 0-.594-.27.566.566 0 0 0-.568.297c-.027.143-.027.29 0 .432a25.257 25.257 0 0 1-.27 4.728c-.162 1.649-.243 3.324-.432 5a16.725 16.725 0 0 1-5.053 10.077 20.183 20.183 0 0 0-5.944 11.51 29.427 29.427 0 0 0-2.702-6.511c-1.594-2.702-3.756-5.08-5.404-7.727a17.428 17.428 0 0 1-2.459-6.053 10.81 10.81 0 0 1-.46-3.053c0-1.027.487-3.08-.161-3.945-1-1.351-1.378.216-1.243 1.162.324 2.053.297 4.134.73 6.16a20.753 20.753 0 0 0 3.053 6.863l.513.757Z" fill="#AB8DA8"/><path d="M101.576 90.9c-1.675 1.946-1.351 5.404-1.297 7.674.266 1.979.383 3.975.351 5.971a5.867 5.867 0 0 1-2.188 4.486 4.497 4.497 0 0 1-1.676.405 3.7 3.7 0 0 1-1.54 0 4.053 4.053 0 0 1-1.783-1.459c-1.891-2.378-1.513-4.485-1.648-7.322a8.701 8.701 0 0 0-2.891-6.377c-4.945-5.188-2.351-9.619-.865-15.428 1.918-7.512 2.702-17.158-.594-24.318a106.729 106.729 0 0 1 1.162 14.077 63.202 63.202 0 0 1-3.054 14.996 11.132 11.132 0 0 0 0 8.538c.6.998 1.337 1.908 2.189 2.702 2.702 2.702 2.702 5.242 2.999 8.944.297 3.702 4.242 8.97 8.592 5.863a6.99 6.99 0 0 0 2.297-5.998c0-1.946-.405-3.864-.513-5.81a16.659 16.659 0 0 1 .216-4.917 2.48 2.48 0 0 1 .432-.892 2.702 2.702 0 0 1 1.567-.837c.306-.135.64-.19.973-.162a1.92 1.92 0 0 1 1.135.54c.75.884 1.36 1.877 1.81 2.945 0 .243.189.757.459.865.27.108.703-.135.622-.487-.676-2.701-3.594-7.62-6.755-3.999Z" fill="#AB8DA8"/><path d="m112.076 92.2-6.094 2.975a2.917 2.917 0 0 0-1.341 3.903l7.434 15.223a2.918 2.918 0 0 0 3.903 1.341l6.094-2.976a2.917 2.917 0 0 0 1.341-3.903l-7.434-15.222a2.918 2.918 0 0 0-3.903-1.342Z" fill="#E8CEE5"/><path d="M124.111 41.428a2.702 2.702 0 0 1 2.404.675c5.404 5.107 31.262 30.667 33.559 41.8 2.404 11.645-32.883 20.588-37.422 21.615a1.405 1.405 0 0 0-.784.486c-1.351 1.568-7.025 7.647-11.375 3.864-4.35-3.783-8.106-12.59 4.944-14.131 7.971-.946 26.506-12.402 26.506-12.402l-22.264-17.05s-7.241-22.29 4.432-24.857Z" fill="#FFEDE5"/><path d="M152.859 182.659c-10.619-.622-21.372 0-31.991 0s-21.4-.406-31.991.351a.247.247 0 0 0-.163.23.239.239 0 0 0 .163.229c10.592.757 21.372.298 31.991.325 10.619.027 21.372.594 31.991 0 .151 0 .295-.06.401-.167a.564.564 0 0 0 0-.802.567.567 0 0 0-.401-.166ZM229.433 139.833c-11.754-.622-23.615-.189-35.369-.189-11.753 0-23.696-.73-35.369.324a.432.432 0 0 0 0 .865c11.673 1.026 23.67.27 35.369.297 11.7.027 23.615.432 35.369-.162a.567.567 0 0 0 0-1.135ZM49.24 124.567c-7.971-.487-16.077-.135-24.075 0a210.662 210.662 0 0 0-24.102.378.245.245 0 0 0-.172.415.241.241 0 0 0 .172.071c8.021.573 16.067.699 24.102.379 8.106 0 16.212.351 24.074 0a.624.624 0 0 0 .622-.622.62.62 0 0 0-.622-.621ZM57.345 130.484a123.781 123.781 0 0 0-25.696.324v.271a125.672 125.672 0 0 0 25.696.297.46.46 0 0 0 0-.892ZM198.333 24.027c-11.132-.621-22.399-.189-33.558-.162-11.159.027-22.427-.378-33.559.405a.324.324 0 0 0 0 .649c11.132.783 22.427.405 33.559.432 11.132.027 22.426.46 33.558-.162a.597.597 0 0 0 .468-.58.595.595 0 0 0-.468-.582Z" fill="#F7F8F8"/></svg>