<svg xmlns="http://www.w3.org/2000/svg" viewBox="0 0 1658.37 1636.34"><defs><style>.b7adbe7d-e27d-44e8-adda-46aa8f0ba5db{fill:#d7f1ff;}.a46800d3-9fdc-4d5a-95d5-06f0547acf59{fill:#fff;}.ac76debe-1839-4883-9912-3a79fd12afb0{fill:#b2d7ff;}.bc1cff6a-6a15-4c28-88fa-6776bcb4fb9d{fill:#01bcff;}.b8000316-f418-4684-aba4-237452597d0f{fill:#0084ff;}.aa5a5e47-fb8e-41af-9c9d-d1c73af9509f{fill:#55b6ff;}.a5202de6-106e-4128-ab2b-b17f1799d1b2,.b6e44eb0-20af-49f1-95fa-dc084789b239{fill:#00bcff;}.a5202de6-106e-4128-ab2b-b17f1799d1b2{fill-opacity:1;}.bd7e22f7-9273-4316-87d8-4eed4f30c134{fill:#fc3e47;}.bb175a7b-b730-4fde-aa6b-32d7766d1621{fill:#000757;}.aaed95b6-eab3-4adb-bd10-422d56663b2d{fill:#000323;}.fcacad53-87c3-4b8e-8709-8dfc09770cd2{fill:#febc8f;}.ae6c63b3-0714-4485-8ded-828725c65f82{fill:#fe727c;}</style></defs><title>manWorkout</title><g id="f6fb6739-4898-4d20-acfe-3214c7edbd1f" data-name="Background"><path id="ee980e89-13e5-4e04-b2fa-785835e7ee1c" data-name="path17490" class="b7adbe7d-e27d-44e8-adda-46aa8f0ba5db" d="M409.66,1711.59l1368.48-35.72s153.08-350.11-70.94-500.4C1394,965.36,1547.79,804.32,1536.05,688.32c-25.52-252-109.06-524.09-571-505.6-672.67,26.94-600.72,586.81-480,815,94,177.72-59.49,313.33-198.31,341.09-182.79,36.56-154.83,380.07,123,372.82Z" transform="translate(-170.81 -181.83)"/><path id="a39b1046-6579-4f0e-92c8-3b1a2e48779a" data-name="path4903" class="a46800d3-9fdc-4d5a-95d5-06f0547acf59" d="M1232.26,213.83V469.39a18,18,0,0,0,18,18h82.24a18,18,0,0,0,18-18V274.28C1317.43,249.79,1278.39,229.26,1232.26,213.83ZM1365,285.49v183.9a18,18,0,0,0,18,18h82.24a18,18,0,0,0,18-18v-19c-25.7-62.74-63-119.71-118.27-164.89ZM1250.28,501.82a18,18,0,0,0-18,18V790a18,18,0,0,0,18,18h82.24a18,18,0,0,0,18-18V519.84a18,18,0,0,0-18-18Zm132.68,0a18,18,0,0,0-18,18V790a18,18,0,0,0,18,18h82.24a18,18,0,0,0,18-18V519.84a18,18,0,0,0-18-18Z" transform="translate(-170.81 -181.83)"/><path id="a9fd5806-6e33-4d0c-a18c-51ed017a91ca" data-name="rect4893" class="a46800d3-9fdc-4d5a-95d5-06f0547acf59" d="M709.4,228.21c-45.3,16.38-84.51,36.6-118.27,59.85V469.39a18,18,0,0,0,18,18h82.23a18,18,0,0,0,18-18Zm-132.68,70.2c-53,39.68-91.42,87.26-118.27,139.14v31.84a18,18,0,0,0,18,18H558.7a18,18,0,0,0,18-18ZM476.46,501.82a18,18,0,0,0-18,18V790a18,18,0,0,0,18,18H558.7a18,18,0,0,0,18-18V519.84a18,18,0,0,0-18-18Zm132.69,0a18,18,0,0,0-18,18V790a18,18,0,0,0,18,18h82.23a18,18,0,0,0,18-18V519.84a18,18,0,0,0-18-18Z" transform="translate(-170.81 -181.83)"/></g><g id="a9113cb0-fc1c-4d97-a732-d7becbe1b9de" data-name="Object"><path id="ab76a786-a4ad-43c0-88e7-fe7c20a042a4" data-name="path6507-9" class="ac76debe-1839-4883-9912-3a79fd12afb0" d="M1778.14,1675.87c0-28.44-355.83-15.95-794.77-15.95s-794.76-12.49-794.76,15.95,74.35,142.3,767.66,142.3C1645.4,1818.17,1778.13,1704.31,1778.14,1675.87Z" transform="translate(-170.81 -181.83)"/><g id="a930d534-3c24-4664-82ef-d15968aaf485" data-name="g4951"><path id="ac820cf0-a41b-49b5-8927-2c972e5a0ea8" data-name="rect4852" class="bc1cff6a-6a15-4c28-88fa-6776bcb4fb9d" d="M444.87,829.18h-.45a24.07,24.07,0,0,0-22.22,15.86l-14.8,40.88c-4.55,12.55-24.42,32-49.66,45.57s-55.4,21.86-71.84,21.86c-8,0-10.86-8.4-10.33-12.14,1.32-9.25,4.91-23.52,10.48-38.91l14.8-40.87a24.06,24.06,0,0,0-45.24-16.39l-14.8,40.88c-8.52,23.52-16.44,45.76-13.45,69.73,1.49,12,7.37,25.48,18.56,34.13a53.77,53.77,0,0,0,20.69,9.6l62.23,464.15a24.06,24.06,0,0,0,47.69-6.4L315,998.38c21.62-4.34,44.16-13,65.5-24.5,31.18-16.78,60.31-39,72.11-71.57l14.8-40.87a24.09,24.09,0,0,0-22.57-32.26Z" transform="translate(-170.81 -181.83)"/><path id="a4c47b55-98fa-4780-beae-cc1536b3d04a" data-name="rect4843" class="b8000316-f418-4684-aba4-237452597d0f" d="M718.55,1331.46,331.8,1426.83c-58.09,14.33-108,48.17-108,108v16.84a107.76,107.76,0,0,0,108,108H752.57C1013.45,1659.67,944.63,1275.71,718.55,1331.46Z" transform="translate(-170.81 -181.83)"/><path id="b3b42ddd-03dd-4443-9d5a-6914b813be6b" data-name="rect4837" class="bc1cff6a-6a15-4c28-88fa-6776bcb4fb9d" d="M872.5,1651.88H239.18a25.52,25.52,0,0,0,0,51H872.5a25.52,25.52,0,0,0,0-51Z" transform="translate(-170.81 -181.83)"/><path id="fb1a28fe-1adb-4571-9330-f238b4f96e0e" data-name="path4846" class="bc1cff6a-6a15-4c28-88fa-6776bcb4fb9d" d="M623.16,1500a110.58,110.58,0,1,0,110.57-110.58A110.57,110.57,0,0,0,623.16,1500Z" transform="translate(-170.81 -181.83)"/><path id="adeb9255-d6eb-4595-a333-acd0d5788293" data-name="rect4849" class="a46800d3-9fdc-4d5a-95d5-06f0547acf59" d="M723.4,1492H597.1a20.2,20.2,0,0,0,0,40.39H723.4a20.2,20.2,0,0,0,0-40.39Z" transform="translate(-170.81 -181.83)"/><path id="bbd9e9e4-5b2f-4fd5-8d4a-638eb13c416d" data-name="path4862" class="bc1cff6a-6a15-4c28-88fa-6776bcb4fb9d" d="M723.9,1107.6l.86,0,62.36,3.25a24.06,24.06,0,0,1-2.5,48l-62.36-3.25a24.06,24.06,0,0,1,1.64-48.09Z" transform="translate(-170.81 -181.83)"/><path id="a76349d8-318c-45fc-89da-694c4be849b6" data-name="path4860" class="b8000316-f418-4684-aba4-237452597d0f" d="M727.48,1032.48c0,.87,1.74,0,2.61.12a24.05,24.05,0,0,1,21.61,26.27l-28.77,295.65a24.05,24.05,0,1,1-47.88-4.65l28.77-295.66c1.18-12.22,23.66-34,23.66-21.73Z" transform="translate(-170.81 -181.83)"/><path id="e27d1565-b09f-41f9-bbdf-97e587993b0e" data-name="rect4857" class="aa5a5e47-fb8e-41af-9c9d-d1c73af9509f" d="M808.94,982.63l-164.11,24c-23.55,3.46-40.81,6.71-40.81,30.51s17,31.36,40.81,31.36H808.94a42.87,42.87,0,0,0,43-43c0-23.8-19.42-46.42-43-43Z" transform="translate(-170.81 -181.83)"/></g><path id="e4056398-c5ee-4f5f-bbf6-cebc6ecdb42f" data-name="path4653-1" class="b6e44eb0-20af-49f1-95fa-dc084789b239" d="M1389.46,1352.84a52.87,52.87,0,1,1-52.87-52.86A52.86,52.86,0,0,1,1389.46,1352.84Z" transform="translate(-170.81 -181.83)"/><path id="f5e9ee2c-889b-48b2-83ea-ebb1f4d97ebd" data-name="path4665-9" class="b6e44eb0-20af-49f1-95fa-dc084789b239" d="M1364.77,1482.61a52.86,52.86,0,1,1-52.86-52.86A52.86,52.86,0,0,1,1364.77,1482.61Z" transform="translate(-170.81 -181.83)"/><path id="bd41602b-842a-4100-8aab-dd70824324bc" data-name="path4643-3" class="b8000316-f418-4684-aba4-237452597d0f" d="M1377.85,1278.72,1302,1617.37l218.77,1.55L1580,1254.14H1408.36a31.08,31.08,0,0,0-30.51,24.58Z" transform="translate(-170.81 -181.83)"/><path id="ff0eb8a6-9b8d-4459-8276-917b0dc3afb2" data-name="path4641-9" class="a5202de6-106e-4128-ab2b-b17f1799d1b2" d="M1500.25,1254.14l-60.76,363.23,250.47,1.55-79.25-338.28c-3.92-18.06-13.58-26.13-30.71-26.5Z" transform="translate(-170.81 -181.83)"/><path id="a2279a8d-a826-465c-80d0-4e35b952a579" data-name="rect4638-8" class="b8000316-f418-4684-aba4-237452597d0f" d="M1293.43,1592.47h157.11c15.58,0,23.88,13.14,28.13,28.13l11.17,39.5c4.24,15-12.55,28.13-28.13,28.13H1282.26c-15.58,0-32.37-13.14-28.13-28.13l11.17-39.5C1269.54,1605.61,1277.85,1592.47,1293.43,1592.47Z" transform="translate(-170.81 -181.83)"/><path id="b63ff8d1-fedb-44ee-9dcf-5217e25ed497" data-name="rect4650-6" class="a46800d3-9fdc-4d5a-95d5-06f0547acf59" d="M1351.64,1334.85h96.66a18,18,0,1,1,0,36h-96.66a18,18,0,0,1,0-36Z" transform="translate(-170.81 -181.83)"/><path id="b46c08a5-3b37-43f6-94b4-972a66f97e12" data-name="path4648-0" class="a46800d3-9fdc-4d5a-95d5-06f0547acf59" d="M1537.88,1352.84A52.86,52.86,0,0,1,1485,1405.7h0a52.86,52.86,0,1,1,52.87-52.86Z" transform="translate(-170.81 -181.83)"/><path id="b9b5da96-b4e3-43a9-8747-ed3c4f7aac4c" data-name="path4645-5" class="b8000316-f418-4684-aba4-237452597d0f" d="M1549.05,1352.84a52.86,52.86,0,0,1-52.87,52.86h0a52.86,52.86,0,1,1,52.87-52.86Z" transform="translate(-170.81 -181.83)"/><path id="ab7c95d2-ae34-486e-8087-61b0128f0bf5" data-name="path4667-5" class="a46800d3-9fdc-4d5a-95d5-06f0547acf59" d="M1320.61,1464.63h96.66a18,18,0,0,1,0,36h-96.66a18,18,0,0,1,0-36Z" transform="translate(-170.81 -181.83)"/><path id="be15690f-5218-43f3-8d89-8a17d46c6f0d" data-name="path4669-2" class="a46800d3-9fdc-4d5a-95d5-06f0547acf59" d="M1506.84,1482.61a52.86,52.86,0,0,1-52.86,52.87h0a52.87,52.87,0,1,1,52.86-52.87Z" transform="translate(-170.81 -181.83)"/><path id="e98452fb-4d07-45db-89b2-a8e187d77653" data-name="path4671-8" class="b8000316-f418-4684-aba4-237452597d0f" d="M1518,1482.61a52.87,52.87,0,0,1-52.87,52.87h0a52.87,52.87,0,1,1,52.87-52.87Z" transform="translate(-170.81 -181.83)"/><path id="ba496b92-a2bf-4046-a4d0-c206b82a725b" data-name="path4673-6" class="a46800d3-9fdc-4d5a-95d5-06f0547acf59" d="M1525,1352.84c0,9.41-13.85,16.46-22.94,16.46a16.46,16.46,0,0,1,0-32.92C1511.1,1336.38,1525,1343.43,1525,1352.84Z" transform="translate(-170.81 -181.83)"/><path id="fc93965c-ccae-42a6-80b8-9b6cbfb51874" data-name="path4675-7" class="a46800d3-9fdc-4d5a-95d5-06f0547acf59" d="M1491.45,1482.61c0,9.41-13.85,16.46-22.94,16.46a16.46,16.46,0,1,1,0-32.91C1477.6,1466.16,1491.45,1473.2,1491.45,1482.61Z" transform="translate(-170.81 -181.83)"/><path id="f02b5d4a-5d2b-435d-aa7d-3d04b199d3af" data-name="path4677-9" class="a46800d3-9fdc-4d5a-95d5-06f0547acf59" d="M1691.63,1352.84a52.86,52.86,0,0,1-52.86,52.86h0a52.86,52.86,0,1,1,52.86-52.86Z" transform="translate(-170.81 -181.83)"/><path id="f2904f77-a4e1-4f04-bd68-a6d21042abff" data-name="path4679-2" class="b8000316-f418-4684-aba4-237452597d0f" d="M1702.8,1352.84a52.86,52.86,0,0,1-52.86,52.86h0a52.86,52.86,0,1,1,52.86-52.86Z" transform="translate(-170.81 -181.83)"/><path id="a98286f0-ace0-4468-9beb-d974cc2d8d82" data-name="path4681-5" class="a46800d3-9fdc-4d5a-95d5-06f0547acf59" d="M1678.7,1352.84c0,9.41-13.85,16.46-22.94,16.46a16.46,16.46,0,0,1,0-32.92C1664.85,1336.38,1678.7,1343.43,1678.7,1352.84Z" transform="translate(-170.81 -181.83)"/><path id="ba1d5e9e-a77c-4f36-b4ab-a342904377e3" data-name="path4683-4" class="a46800d3-9fdc-4d5a-95d5-06f0547acf59" d="M1710,1482.61a52.87,52.87,0,0,1-52.87,52.87h0a52.87,52.87,0,1,1,52.87-52.87Z" transform="translate(-170.81 -181.83)"/><path id="f0ebfd49-2559-4996-a858-0e4ce0acc1a7" data-name="path4685-9" class="b8000316-f418-4684-aba4-237452597d0f" d="M1721.14,1482.61a52.87,52.87,0,0,1-52.86,52.87h0a52.87,52.87,0,1,1,52.86-52.87Z" transform="translate(-170.81 -181.83)"/><path id="f1f654b6-a124-4ba9-b71c-b50e147b58dd" data-name="path4687-2" class="a46800d3-9fdc-4d5a-95d5-06f0547acf59" d="M1694.57,1482.61c0,9.41-13.85,16.46-22.94,16.46a16.46,16.46,0,1,1,0-32.91C1680.72,1466.16,1694.57,1473.2,1694.57,1482.61Z" transform="translate(-170.81 -181.83)"/><path id="ef5f4f5c-959f-4a0b-a64d-8382d5062cf2" data-name="path4821" class="bc1cff6a-6a15-4c28-88fa-6776bcb4fb9d" d="M1442.75,1592.47h260.38c15.58,0,23.89,13.14,28.13,28.13l11.17,39.5c4.24,15-12.55,28.13-28.13,28.13H1431.57c-15.58,0-32.37-13.14-28.12-28.13l11.17-39.5c4.24-15,12.54-28.13,28.13-28.13Z" transform="translate(-170.81 -181.83)"/><g id="b5c6dc20-f654-4757-9bce-d201a69fcc2c" data-name="g17485"><path id="f66984ad-1c46-4542-8f84-190d4c21fd71" data-name="path6816-1-9" class="bd7e22f7-9273-4316-87d8-4eed4f30c134" d="M1113.21,1656.47l-4.49,58.38,14.6,13.47h180.14s29.41-5.24,21-13.47c-4.53-4.41-14.66-11.29-28.82-15.08-40.57-10.88-117.9-43.3-117.9-43.3s-47-25.79-64.48,0Z" transform="translate(-170.81 -181.83)"/><path id="ba95031e-9f80-4b5b-9c3f-d1add22c6135" data-name="path6993-2" class="bb175a7b-b730-4fde-aa6b-32d7766d1621" d="M860.1,870.05s-65,244.39-112.5,382.62S639.79,1655.8,639.79,1655.8l64.85-.54,174.28-323.8,91.38-206L1075,1334.32l38.26,322.15h64.48s30.34-257.54,9.7-349.94-89.1-454.81-89.1-454.81Z" transform="translate(-170.81 -181.83)"/><path id="a0dab344-42b0-43cf-8709-c6adfbb4ce0f" data-name="path6836-9" class="bd7e22f7-9273-4316-87d8-4eed4f30c134" d="M1177.69,1656.47l8.29-24s13.82,5.53,10.6,16.58-11.52,18.89-11.52,18.89Z" transform="translate(-170.81 -181.83)"/><rect id="b52e7862-c1fb-4c21-ae0e-4962eb4323ce" data-name="rect6838-46" class="a46800d3-9fdc-4d5a-95d5-06f0547acf59" x="1196.68" y="1666" width="21.49" height="7.82" rx="3" transform="matrix(0.55, -0.84, 0.84, 0.55, -1022.13, 1577.8)"/><rect id="bdb00ac1-464c-42b9-98a7-552f78b15d2e" data-name="rect6840-0" class="a46800d3-9fdc-4d5a-95d5-06f0547acf59" x="1215.9" y="1673.82" width="21.49" height="7.82" rx="3" transform="translate(-1019.97 1598.23) rotate(-56.65)"/><rect id="a8c68c7e-2276-4122-bbb5-d564588d75f9" data-name="rect6842-9" class="a46800d3-9fdc-4d5a-95d5-06f0547acf59" x="1232.83" y="1680.01" width="21.49" height="7.82" rx="3" transform="translate(-1017.56 1614.3) rotate(-56.63)"/><path id="b8af44cf-4930-4741-bcac-22ef39ef9b8e" data-name="path6844-2" class="a46800d3-9fdc-4d5a-95d5-06f0547acf59" d="M1324.41,1714.85c5.73,7.3,2.5,13.47,2.5,13.47H1107.69l1-13.47Z" transform="translate(-170.81 -181.83)"/><path id="b50c4a2d-f2c1-4823-b17f-16d24e781948" data-name="path6977-3" class="bd7e22f7-9273-4316-87d8-4eed4f30c134" d="M640,1633c-4.58,0-7.75.35-7.75,1.41,0,3.38,7.56,21.35,7.56,21.35s-6.45,3.73-18.26,24.52c-4,7.13-19.09,26.16-21.75,33.43-5.1,14,4,14.57,4,14.57h108c7.34-27.23-7.14-73.06-7.14-73.06l-37.73.32c2.24-4,11.27-20.76,4.94-20.76-4.9,0-21.79-1.77-31.87-1.78Z" transform="translate(-170.81 -181.83)"/><path id="f7b9ecba-6249-4094-be68-1862f607fd53" data-name="path6981-2" class="a46800d3-9fdc-4d5a-95d5-06f0547acf59" d="M598.42,1719c-1.27,8.87,5.39,9.34,5.39,9.34h108a58.63,58.63,0,0,0,1.64-9.34Z" transform="translate(-170.81 -181.83)"/><path id="bf6f40bf-ef0a-433b-bd11-57004e120335" data-name="rect6987-7" class="a46800d3-9fdc-4d5a-95d5-06f0547acf59" d="M658.79,1670.59c.12-2.17-1.8-4-4.32-4.18l-12.59-.72c-2.53-.15-4.66,1.48-4.78,3.65s1.8,4,4.31,4.18l12.6.72C656.53,1674.39,658.66,1672.76,658.79,1670.59Z" transform="translate(-170.81 -181.83)"/><path id="ae88691a-3701-4863-9608-becaa87a0df4" data-name="rect6989-9" class="a46800d3-9fdc-4d5a-95d5-06f0547acf59" d="M649.49,1685.44c.13-2.17-1.8-4-4.32-4.18l-12.59-.73c-2.52-.15-4.65,1.48-4.78,3.65s1.8,4,4.32,4.18l12.59.73c2.52.15,4.65-1.48,4.78-3.65Z" transform="translate(-170.81 -181.83)"/><path id="f28a2c53-0f1f-4265-bcd7-99f40fc19ac0" data-name="rect6991-3" class="a46800d3-9fdc-4d5a-95d5-06f0547acf59" d="M644.71,1700.28c.13-2.17-1.8-4-4.32-4.18l-12.59-.72c-2.52-.15-4.65,1.48-4.78,3.65s1.8,4,4.32,4.18l12.59.72c2.52.15,4.65-1.48,4.78-3.65Z" transform="translate(-170.81 -181.83)"/><path id="e4ef8f93-3d1f-4d81-aa89-6955a89ba36f" data-name="path7386-9" class="aaed95b6-eab3-4adb-bd10-422d56663b2d" d="M1039.62,1081.75,970.3,1125.5l35.93,71.7C1016.08,1161,1039.62,1081.75,1039.62,1081.75Z" transform="translate(-170.81 -181.83)"/></g><path id="a30a3aed-f068-4eb8-a7b8-c22603548cdd" data-name="path5591" class="fcacad53-87c3-4b8e-8709-8dfc09770cd2" d="M811.79,543.35c-.45,16.33,4.92,54.06,10.46,84.59,4.78,26.4,9.27,46,15.24,58.39,3,6.17,5.5,12.47,8,18.76,1.87.48,36.7,4.66,50.53-12.07,61.11-73.93,10.58-227.1,9.64-230-73.09,25.94-92.46,52.08-93.88,80.38Z" transform="translate(-170.81 -181.83)"/><g id="f91728f1-a609-4a4d-aaa1-7c4341618b18" data-name="arm"><path id="b4ddf7ee-5df8-4aaa-94a7-da7f6a39026f" data-name="path3350" class="bb175a7b-b730-4fde-aa6b-32d7766d1621" d="M1313,353.76c0,39.8-27.26,72.07-60.88,72.07s-60.88-32.27-60.88-72.07,27.26-72.07,60.88-72.07S1313,314,1313,353.76Z" transform="translate(-170.81 -181.83)"/><path id="e61bcc1e-e16f-4841-b2b5-7d9972ca073b" data-name="path3352" class="b6e44eb0-20af-49f1-95fa-dc084789b239" d="M1327.05,361.78c0,39.8-27.26,72.07-60.88,72.07h0c-33.62,0-60.88-32.27-60.88-72.07s27.26-72.07,60.88-72.07,60.88,32.27,60.88,72.07Z" transform="translate(-170.81 -181.83)"/><path id="b4d52289-6e78-4bed-b1a3-81628874bc40" data-name="path3354" class="a46800d3-9fdc-4d5a-95d5-06f0547acf59" d="M1291.25,366.46c0,10.28-7,18.61-15.72,18.61h0c-8.69,0-15.72-8.33-15.72-18.61h0c0-10.28,7-18.61,15.72-18.61h0c8.68,0,15.72,8.33,15.72,18.61Z" transform="translate(-170.81 -181.83)"/><path id="adbf9c91-0e37-4c7d-ae09-c8eede361516" data-name="path5596" class="fcacad53-87c3-4b8e-8709-8dfc09770cd2" d="M1315.49,348.19c-11.94,0-24.3,4.29-25.81,11.62a88.83,88.83,0,0,0-1.74,9.81c-.3,2.85-1.46,4.38-5.74,6.51-8.5,4.24,2.43,28.7,5.43,37.87s22.56,23.43,24,29-65.55,144.62-65.55,144.62c-12,.56-100.33-63.73-128.37-83.12-24.94-17.26-42.41-29-71.82-36.61-24.14-6.27-71.84-20.69-101.71-11.32-41.54,13,73.71,136.07,73.71,136.08,58.47,6.76,212.65,80.84,224.83,85.58,56.46,22,65.15-27.75,65.15-27.75,6-57.89,39.85-192.92,46.36-228.95,6.57-36.4-8.35-59.16-20.15-68.34-4.43-3.44-11.44-5-18.6-5Z" transform="translate(-170.81 -181.83)"/><path id="fda37975-703a-44c1-90e1-d74eb22f5cdf" data-name="path5681" class="ae6c63b3-0714-4485-8ded-828725c65f82" d="M1235.74,583.62s14,12.48,12.67,26.65,11.73,7.82,12.11-10.81-24.78-15.84-24.78-15.84Z" transform="translate(-170.81 -181.83)"/><path id="aa81208d-804d-484d-8393-922228f7ee31" data-name="path3356" class="a46800d3-9fdc-4d5a-95d5-06f0547acf59" d="M1283,356l70.87,55.28L1342,427.06l-71.11-56Z" transform="translate(-170.81 -181.83)"/><path id="bd87cb21-a4c0-444b-b452-ed7be930e400" data-name="path3346" class="bb175a7b-b730-4fde-aa6b-32d7766d1621" d="M1444.35,466.49c0,39.8-27.26,72.07-60.88,72.07s-60.88-32.27-60.88-72.07,27.26-72.07,60.88-72.07S1444.35,426.69,1444.35,466.49Z" transform="translate(-170.81 -181.83)"/><path id="ba53a492-0e2d-41c4-9e5b-9f6e8c9a9579" data-name="path3343" class="b6e44eb0-20af-49f1-95fa-dc084789b239" d="M1458.38,474.51c0,39.8-27.26,72.07-60.88,72.07h0c-33.62,0-60.88-32.27-60.88-72.07s27.26-72.07,60.88-72.07,60.88,32.27,60.88,72.07Z" transform="translate(-170.81 -181.83)"/><path id="f040c2f9-c8df-4216-bb9e-3a7683c8f71e" data-name="path3348" class="a46800d3-9fdc-4d5a-95d5-06f0547acf59" d="M1422.58,479.19c0,10.28-7,18.61-15.72,18.61h0c-8.69,0-15.72-8.33-15.72-18.61h0c0-10.28,7-18.61,15.72-18.61h0c8.68,0,15.72,8.33,15.72,18.61Z" transform="translate(-170.81 -181.83)"/><path id="f15c442e-74f8-4829-ad82-4d3cd958d9d2" data-name="path3358" class="fcacad53-87c3-4b8e-8709-8dfc09770cd2" d="M1290.63,357.5a23.56,23.56,0,0,0-3.07,14.75c1.07,8.5,9.34,15,17,15.59s8.75,10.75,18.08,15.36,18.66,1.3,20.79-.12-52.81-45.58-52.81-45.58Z" transform="translate(-170.81 -181.83)"/><path id="e94de84c-56fe-4180-b8c8-6125a0628e59" data-name="path3360" class="fcacad53-87c3-4b8e-8709-8dfc09770cd2" d="M1280.12,378.27c5.32.71,15.83.59,26.11,9.57s2.36,10.87-2.13,10.87-24-20.44-24-20.44Z" transform="translate(-170.81 -181.83)"/></g><path id="f0b5e07c-1f39-4c63-9676-974e4f62e4bc" data-name="path5583" class="bd7e22f7-9273-4316-87d8-4eed4f30c134" d="M905.67,463c.72,2.27,33.52,174.59-25.84,185-33.86,9.29-50.41-1.48-57.58-20.07-2.39,5.31-7.54,9.85,3.61,23.52,2.63,12.28,32.56,95.27,35.65,106.83C873,801.16,827,860.81,853.53,870c9.8,3.39,22,5.38,35.72,7.43,45.11,6.76,107.2,14.68,200.59-.56,17.93-5.61,22.11-13.2,8.38-54.25,5.6-56.94,6.63-178.9,1.86-221.76-7.37-66.4-48.72-130.12-85.11-143.74s-87.53-1.8-87.53-1.8C927,454,911.69,455,905.67,463Z" transform="translate(-170.81 -181.83)"/><path id="af6bc172-a8b3-42fb-a8c0-4064427d2225" data-name="path6880-9" class="fcacad53-87c3-4b8e-8709-8dfc09770cd2" d="M954,367l-26.56,88.28s30.49,57.1,70.45,60.12c79.44,6-3.76-60-3.76-60l7.21-38.93Z" transform="translate(-170.81 -181.83)"/><path id="a7243b4f-1898-48f5-b9f8-b709c9839415" data-name="path6882-8" class="ae6c63b3-0714-4485-8ded-828725c65f82" d="M977.07,391.17l24.27,25.39-7.21,38.93C969.55,430,976.86,391.4,976.86,391.4l.21-.23Z" transform="translate(-170.81 -181.83)"/><path id="a8a75170-d082-4acd-b04d-6c35792dcca1" data-name="path6884-0" class="fcacad53-87c3-4b8e-8709-8dfc09770cd2" d="M934,277.37c-13.65,11.16-13.38,26.69-11.15,36.38L943,401.3c2.23,9.69,10.11,13.13,19.58,16.14l56.17,17.86c9.47,3,25.47-.78,26.39-16.81,2.37-41.42.45-76.88-15.92-114.74C997,229.05,954.11,261,934,277.37Z" transform="translate(-170.81 -181.83)"/><path id="ae8fdf0f-6284-4935-b80d-a55d040e320e" data-name="path5581" class="bb175a7b-b730-4fde-aa6b-32d7766d1621" d="M946.13,373.1s7-.78,7.66-12.24-7.52-31.56-12.13-36.45-8.1-5.43-10.14-10.76,10,3.22,25.43,2.87,41.91-3.3,65.49-6.92,3.74-42.61,1.57-50.53c-4.61-16.87-4.3-.23-19.72-15.38s-27-8.06-52.44,2.31c-16,6.49-40,3.73-55,10.94-8.9,4.29-.57,11.9-12.95,27.31-11.54,14.39-.43,26,7.42,39.63,3.5,6.06,24.78,37.36,28.92,48.37s2.09,25.73,5.18,35,12.47,13.38,12.47,13.38S947.9,399.18,946.13,373.1Z" transform="translate(-170.81 -181.83)"/><path id="b97ed54e-aaa2-4c05-821e-a5f0b10f2dfa" data-name="ellipse6894-8" class="fcacad53-87c3-4b8e-8709-8dfc09770cd2" d="M919.82,350.33c-7.59,6-6.76,19.68,1.84,30.54s21.72,14.79,29.3,8.78,6.76-19.68-1.84-30.53S927.4,344.33,919.82,350.33Z" transform="translate(-170.81 -181.83)"/><path id="bf24c56e-41a9-4ab5-875f-94abadb667af" data-name="path6896-6-0" class="ae6c63b3-0714-4485-8ded-828725c65f82" d="M930.27,361c3.3-1.24,7.82.62,10.87,4.48,3.61,4.55,4,10.27.77,12.79h0c-2,1.62-5.18,1.56-8.21-.16a5.22,5.22,0,0,0,1.4-.79c3.18-2.52,2.83-8.25-.77-12.79a14.13,14.13,0,0,0-4.06-3.53Z" transform="translate(-170.81 -181.83)"/><path id="fec0cbfd-68da-47af-9c70-b86973af8dad" data-name="path6886-2" class="ae6c63b3-0714-4485-8ded-828725c65f82" d="M1020.43,354s19.53,19.4,22.32,22.92-10.8,5.42-15.5,3.43-13.56-28.29-6.82-26.35Z" transform="translate(-170.81 -181.83)"/><path id="b7a2dbf0-4999-4576-9e79-9646f43df09a" data-name="path4955" class="a46800d3-9fdc-4d5a-95d5-06f0547acf59" d="M875.32,649.14c-2.47.57-4.85,1-7.13,1.39,0,1.08-.06,2.17-.08,3.27-.34,19.69,1.43,42.63,12.68,56.12,19.18,23,25.54,57.78,12.25,84.36-7.15,14.3-9.78,23.86-9.3,31.63s4.28,13.16,8.37,18.27c.95,1.2,1.14,3.41.21,7.36s-2.88,9-4.67,14.77A87.73,87.73,0,0,0,885,876.77l4.27.66,2.7.4a86.4,86.4,0,0,1,2.45-9.4c1.71-5.47,3.69-10.56,4.81-15.26s1.47-9.59-1.59-13.4c-3.93-4.92-6.47-8.54-6.83-14.3s1.69-14.25,8.58-28c14.77-29.55,7.76-67-13.15-92.05-8.8-10.57-11.37-32.4-11-51.47C875.21,652.3,875.26,650.71,875.32,649.14Z" transform="translate(-170.81 -181.83)"/><path id="f60b2528-51ac-40db-af60-a223eca6254c" data-name="path2868" class="ae6c63b3-0714-4485-8ded-828725c65f82" d="M831.86,645.46s34.64,4.35,47.5-21.37-5-48.57-5-48.57Z" transform="translate(-170.81 -181.83)"/><path id="f2be0da8-1838-4e4f-92e4-1e54b60cd4e9" data-name="path3340" class="fcacad53-87c3-4b8e-8709-8dfc09770cd2" d="M905.66,463s-61.23,3.58-96.88,55.93C764.36,584.1,756.92,595,722,651.65s-32.3,85.64-15.29,115.88S797.4,915,813.46,929.13s33.08,15.12,57.65,14.18,26.2-6.08,41.93,9.65c9.91,9.91,13.11,5.65,13.49-2.46,4.56,0,16.4-14.24,16.4-24.2a58.64,58.64,0,0,0-.67-8.09c1.6-4.38,5.79-15.87,7.76-22.15,2.36-7.56-6.15-26-12.76-29.77S856,882.83,847,878.1s-43.94-99.22-56.23-119.54-22.21-31.66-21.26-36.39,69-67.64,84.1-82.21c13.9-13.42,28.19-21.36,37.91-36.69,15.18-24-2.41-68.71-1.94-73.44S905.66,463,905.66,463Z" transform="translate(-170.81 -181.83)"/><path id="fb857007-03ed-4609-aa0b-8fe7724c03b5" data-name="path5908" class="a46800d3-9fdc-4d5a-95d5-06f0547acf59" d="M913.88,589.49c-1.73,15.78-5.14,30-11,40.6,13.37,8.84,30.93,18.81,53.79,30,77.63,38.17,121.76,33,146.45,16.55-.2-31.46-1.16-59.43-3-75.82-.33-2.94-.75-5.87-1.2-8.79-16.14,10.95-47.57,21-102.37,16C952,604.08,927.36,596.29,913.88,589.49Z" transform="translate(-170.81 -181.83)"/><path id="bf74a88e-459f-46c9-ba46-8a5bd261e280" data-name="path5910" class="a46800d3-9fdc-4d5a-95d5-06f0547acf59" d="M915.3,554.79c0,2.86.06,5.72,0,8.57,22.08,12.31,58.94,26.36,108.73,22.76,34.23-2.47,56-9.63,69.81-17.52q-1-3.78-2.19-7.5c-12.44,7.51-33.29,15-68.17,17.49C972.22,582.29,935.63,566.93,915.3,554.79Z" transform="translate(-170.81 -181.83)"/><path id="b4331ed7-e310-4529-a0cd-5160271a0261" data-name="path2870" class="ae6c63b3-0714-4485-8ded-828725c65f82" d="M770.75,724.28s-6.82-8.84-17.18-6.82-17.42,10.1-12.62,9.6,15.15-2.28,23.48,2.78,10.36,3.28,6.32-5.56Z" transform="translate(-170.81 -181.83)"/></g></svg>