<svg width="24" height="24" fill="none" xmlns="http://www.w3.org/2000/svg"><path d="M1 5.5c0 1.11.06 1.933.199 2.553.135.61.331.96.56 1.188.228.229.579.425 1.188.56C3.567 9.94 4.39 10 5.5 10c1.11 0 1.933-.06 2.553-.199.61-.135.96-.331 1.188-.56.229-.228.425-.579.56-1.188C9.94 7.433 10 6.61 10 5.5c0-1.11-.06-1.933-.199-2.553-.135-.61-.331-.96-.56-1.188-.228-.229-.579-.425-1.188-.56C7.433 1.06 6.61 1 5.5 1c-1.11 0-1.933.06-2.553.199-.61.135-.96.331-1.188.56-.229.228-.425.579-.56 1.188C1.06 3.567 1 4.39 1 5.5Zm0 13c0 1.11.06 1.933.199 2.553.135.61.331.96.56 1.188.228.229.579.425 1.188.56.62.138 1.444.199 2.553.199 1.11 0 1.933-.06 2.553-.199.61-.135.96-.331 1.188-.56.229-.228.425-.579.56-1.188.138-.62.199-1.444.199-2.553 0-1.11-.06-1.933-.199-2.553-.135-.61-.331-.96-.56-1.188-.228-.229-.579-.425-1.188-.56C7.433 14.06 6.61 14 5.5 14c-1.11 0-1.933.06-2.553.199-.61.135-.96.331-1.188.56-.229.228-.425.579-.56 1.188C1.06 16.567 1 17.39 1 18.5Zm13-13c0 1.11.06 1.933.199 2.553.135.61.331.96.56 1.188.228.229.579.425 1.188.56.62.138 1.444.199 2.553.199 1.11 0 1.933-.06 2.553-.199.61-.135.96-.331 1.188-.56.229-.228.425-.579.56-1.188C22.94 7.433 23 6.61 23 5.5c0-1.11-.06-1.933-.199-2.553-.135-.61-.331-.96-.56-1.188-.228-.229-.579-.425-1.188-.56C20.433 1.06 19.61 1 18.5 1c-1.11 0-1.933.06-2.553.199-.61.135-.96.331-1.188.56-.229.228-.425.579-.56 1.188C14.06 3.567 14 4.39 14 5.5Zm0 13c0 1.11.06 1.933.199 2.553.135.61.331.96.56 1.188.228.229.579.425 1.188.56.62.138 1.444.199 2.553.199 1.11 0 1.933-.06 2.553-.199.61-.135.96-.331 1.188-.56.229-.228.425-.579.56-1.188.138-.62.199-1.444.199-2.553 0-1.11-.06-1.933-.199-2.553-.135-.61-.331-.96-.56-1.188-.228-.229-.579-.425-1.188-.56C20.433 14.06 19.61 14 18.5 14c-1.11 0-1.933.06-2.553.199-.61.135-.96.331-1.188.56-.229.228-.425.579-.56 1.188-.138.62-.199 1.444-.199 2.553Z" stroke="#212135" stroke-width="2" stroke-linecap="round" stroke-linejoin="round"/></svg>