<svg width="119" height="100" fill="none" xmlns="http://www.w3.org/2000/svg"><path d="M1.136 79.531c1.227-5.217 13.21-5.124 18.708-1.863-3.469-1.227-9.089-5.715-4.545-8.743 2.894-1.957 7.317-.543 10.755 3.339a26.057 26.057 0 0 1-4.786-5.886c-2.09-3.044-2.53-8.898 2.454-11.305 4.21-2.05 10.603-.404 13.739 4.581a24.475 24.475 0 0 1 3.029 11.43c0-2.734.09-7.951 5.71-7.532 5.863.435 4.439 7.438 4.545 10.98 0 0-.227-10.157 6.18-13.977a10.682 10.682 0 0 1 4.742-1.634c1.683-.16 3.379.086 4.953.718a6.872 6.872 0 0 1 4.019 3.388 7.162 7.162 0 0 1 .525 5.308c-1.227 4.162-5.756 7.78-5.756 7.78a42.903 42.903 0 0 1 7.574-3.106c5.165-1.04 13.542-1.35 16.859 3.106 3.317 4.457-1.515 10.762-11.073 11.041-6.317.187-60.03.389-66.362.389-4.998-.016-12.542-2.563-11.27-8.014Z" fill="url(#a)"/><path d="M118.864 72.093c-1.152-5.529-12.436-5.45-17.617-1.988 3.272-1.32 8.513-6.072 4.302-9.317-2.711-2.066-6.877-.575-10.119 3.54a27.33 27.33 0 0 0 4.545-6.211c1.954-3.215 2.348-9.318-2.348-11.989-3.954-2.19-9.967-.435-12.936 4.86a28.737 28.737 0 0 0-2.803 12.145c0-2.904-.075-8.448-5.362-7.998-5.529.466-4.18 7.904-4.256 11.663 0 0 .197-10.871-5.832-14.784a9.061 9.061 0 0 0-4.418-1.73 8.993 8.993 0 0 0-4.67.751 7.567 7.567 0 0 0-3.857 3.784 7.848 7.848 0 0 0-.415 5.456c.939 4.348 5.27 8.075 5.27 8.075a38.811 38.811 0 0 0-7.179-3.26c-4.862-1.088-12.754-1.414-15.875 3.307-3.12 4.72 1.379 11.445 10.422 11.74 5.953.186 56.531.42 62.499.42 4.741.046 11.845-2.672 10.649-8.464Z" fill="url(#b)"/><path d="M64.938 1.574S71.512-.228 73.875 4.4a5.951 5.951 0 0 1-2.11 2.662 5.733 5.733 0 0 1-3.191 1.034s.47-5.544-3.636-6.522Z" fill="#069FAD"/><path d="M76.45 58.768c-6.133-.653-11.948-3.119-16.74-7.098-4.79-3.979-8.35-9.3-10.245-15.315a33.398 33.398 0 0 1-.43-18.566C50.65 11.689 53.96 6.2 58.56 1.993c-7.264.345-14.292 2.745-20.307 6.934-6.015 4.189-10.781 10.003-13.77 16.798a41.29 41.29 0 0 0-3.168 21.702c.919 7.395 3.817 14.385 8.373 20.195 4.555 5.81 10.591 10.214 17.438 12.724a38.467 38.467 0 0 0 21.354 1.493c7.117-1.532 13.68-5.055 18.963-10.177 5.284-5.122 9.08-11.643 10.97-18.842-6.357 4.687-14.178 6.804-21.963 5.948Z" fill="#FFB842"/><path d="M50.215 31.701a30.796 30.796 0 0 1-.864-11.647c.94-7.95 5.953-15.53 16.663-17.703a.53.53 0 0 0 .272-.197.552.552 0 0 0-.272-.844C46.806-4.637 27.75 10.768 21.737 25.303c5.923 10.669 26.22 8.432 28.478 6.398Z" fill="url(#c)"/><path d="M36.87 40.833h-.258a11.18 11.18 0 0 1-4.365-1.42 11.46 11.46 0 0 1-3.466-3.069.8.8 0 0 1-.16-.6.806.806 0 0 1 .903-.692c.21.029.4.142.53.314 0 0 2.802 3.712 6.619 3.836 2.363 0 4.695-1.242 6.922-3.882a.805.805 0 0 1 1.409.48.825.825 0 0 1-.197.591c-2.484 2.95-5.15 4.442-7.937 4.442Z" fill="#4F4840"/><path d="M37.385 40.273h-.924v4.721h.924v-4.72ZM38.517 39.982l-.903.202.978 4.613.903-.201-.978-4.614ZM39.875 39.587l-.88.289 1.402 4.497.88-.289-1.402-4.497ZM41.051 39.053l-.836.404 1.96 4.272.836-.403-1.96-4.273ZM42.163 38.355l-.78.508 2.47 3.985.78-.508-2.47-3.985ZM43.222 37.44l-.745.559 2.72 3.81.745-.56-2.72-3.81ZM44.2 36.607l-.699.621 3.018 3.566.698-.62-3.017-3.567ZM35.277 39.978 34.3 44.59l.903.201.978-4.613-.903-.201ZM33.924 39.569l-1.403 4.496.88.29 1.403-4.497-.88-.289ZM32.756 39.058l-1.96 4.273.837.403 1.959-4.273-.836-.403ZM31.628 38.35l-2.468 3.987.78.507 2.468-3.986-.78-.507ZM30.574 37.458l-2.72 3.809.745.56 2.72-3.81-.745-.56ZM29.603 36.606l-3.017 3.566.698.621 3.017-3.567-.698-.62ZM66.756 56.113a17.462 17.462 0 0 1-10.028 3.805c-3.393-.124-6.453-2.376-8.558-4.302a9.61 9.61 0 0 1-1.348 1.01c8.543 10.171 19.313 3.96 22.767.636a11 11 0 0 1-2.833-1.149Z" fill="#4F4840"/><path d="M45.459 57.744c-.416.002-.83-.06-1.227-.187a.605.605 0 0 1-.337-.339.635.635 0 0 1 .003-.484.63.63 0 0 1 .33-.348c.15-.067.32-.07.473-.009.106 0 2.62.948 4.711-3.028a.623.623 0 0 1 .369-.282.607.607 0 0 1 .457.055c.14.077.245.207.294.362a.652.652 0 0 1-.03.47c-1.68 3.215-3.756 3.79-5.043 3.79Z" fill="#4F4840"/><path d="M114.865 90.977c-1.257-5.933-13.724-5.824-19.435-2.144 3.606-1.397 9.392-6.49 4.757-9.938-3.03-2.221-7.574-.621-11.18 3.789a29.287 29.287 0 0 0 4.984-6.678c2.166-3.447 2.59-10.063-2.59-12.827-4.362-2.33-11.012-.45-14.269 5.202-3.12 5.42-3.03 12.983-3.03 12.983 0-3.106-.105-9.023-5.937-8.557-6.06.497-4.545 8.464-4.68 12.424 0 0 .226-11.539-6.439-15.825a10.282 10.282 0 0 0-4.905-1.856 10.207 10.207 0 0 0-5.168.816 8.034 8.034 0 0 0-4.22 4.012 8.341 8.341 0 0 0-.476 5.88c1.152 4.659 5.863 8.696 5.863 8.696a43.174 43.174 0 0 0-7.907-3.478C34.855 82.296 26.16 81.923 22.707 87c-3.454 5.078 1.514 12.237 11.512 12.548 6.559.217 62.378.45 68.952.45 5.196.062 12.951-2.826 11.694-9.022Z" fill="url(#d)"/><path d="m70.77 32.726-9.088.497-.091-1.74 5.74-8.37-5.543.31-.197-1.925 8.21-.434.09 1.692-5.755 8.401 6.543-.341.091 1.91ZM72.906 28.238l-.712-1.817 3.923-1.553.712 1.895-3.923 1.475ZM80.495 28.72l-.849-1.414.606-7.019-3.21 2.05-.864-1.444 5.347-3.401.863 1.428-.606 6.989L85.6 23.47l.878 1.46-5.983 3.788ZM86.736 20.287l-1.515-1.289 2.696-3.323 1.515 1.289-2.697 3.323ZM93.628 16.28l-1.515-.699-3.181-6.242-1.59 3.54-1.515-.714 2.666-5.854 1.514.714 3.227 6.212 1.878-4.209 1.515.73-3 6.522Z" fill="#4F4840"/><path d="m18.874 17.973-2.847-3.51-4.424.404 2.379-3.851-1.742-4.193 4.302 1.134 3.347-2.998.288 4.55 3.817 2.345-4.135 1.678-.985 4.441ZM98.581 37.928l-2.287-4.379-4.832-.559 3.363-3.587-.985-4.877 4.378 2.175 4.211-2.47-.652 4.939 3.59 3.354-4.786.885-2 4.52ZM77.95 47.464l-2.227-3.122-3.771.109 2.211-3.137-1.257-3.65 3.59 1.18 2.984-2.36.015 3.883 3.12 2.174-3.59 1.211-1.075 3.712Z" fill="#FFB842"/><defs><linearGradient id="a" x1="90.885" y1="87.545" x2="-24.609" y2="63.443" gradientUnits="userSpaceOnUse"><stop stop-color="#92A3FD"/><stop offset="1" stop-color="#9DCEFF"/></linearGradient><linearGradient id="b" x1="118.997" y1="80.557" x2="9.22" y2="60.206" gradientUnits="userSpaceOnUse"><stop stop-color="#92A3FD"/><stop offset="1" stop-color="#9DCEFF"/></linearGradient><linearGradient id="c" x1="66.39" y1="33.402" x2="7.154" y2="27.274" gradientUnits="userSpaceOnUse"><stop stop-color="#C58BF2"/><stop offset="1" stop-color="#EEA4CE"/></linearGradient><linearGradient id="d" x1="115.001" y1="100" x2="-5.795" y2="76.905" gradientUnits="userSpaceOnUse"><stop stop-color="#C58BF2"/><stop offset="1" stop-color="#EEA4CE"/></linearGradient></defs></svg>