<svg class="heart" width="30" height="22" fill="none" xmlns="http://www.w3.org/2000/svg"><path fill-rule="evenodd" clip-rule="evenodd" class="heart-fill" d="M10.2 0C5.736 0 2 3.396 2 7.726c0 .435.026.86.074 1.274h2.018A8.85 8.85 0 0 1 4 7.726C4 4.626 6.71 2 10.2 2c1.512 0 2.972.775 4.159 1.767l.641.537.642-.537C16.828 2.775 18.288 2 19.8 2 23.29 2 26 4.627 26 7.727c0 .435-.032.86-.092 1.273h2.018c.049-.414.074-.839.074-1.273C28 3.397 24.264 0 19.8 0c-1.853 0-3.509.794-4.8 1.732C13.709.794 12.053 0 10.2 0Zm16.456 13H24.33c-.701 1.062-1.575 2.018-2.528 2.87-2.327 2.083-5.004 3.432-6.34 4.03a1.125 1.125 0 0 1-.925 0c-1.337-.598-4.014-1.947-6.341-4.03-.953-.852-1.827-1.808-2.528-2.87H3.344c.91 1.712 2.183 3.166 3.52 4.36 2.547 2.28 5.435 3.73 6.857 4.366a3.125 3.125 0 0 0 2.558 0c1.422-.636 4.31-2.085 6.858-4.365 1.336-1.195 2.61-2.65 3.519-4.361Z" fill="#212135"/><path d="M1 11h8l2-4 4 7 4-5 2 2h8" class="heart-stroke" stroke="#212135" stroke-width="2" stroke-linecap="round" stroke-linejoin="round"/></svg>