<svg id="b77c1bc9-86a3-4433-a09e-cd4333e7b185" data-name="Layer 2" xmlns="http://www.w3.org/2000/svg" viewBox="0 0 133.46 189.57"><defs><style>.a06b6d53-7210-4e75-907c-e631df6c4763{fill:#7ccad8}.e6b572f4-5df8-4088-b5e9-3c18c5f5b172{fill:#ece676}.bfd643a0-9c97-4f3c-88aa-fe2120cee4b9{fill:#f8f4bb}.ac266fdc-9c34-495d-8904-f470b9e12b85{fill:#d1c954}.a55cf77f-e05e-4809-9e3a-f310ad334c04{fill:#404b75}</style></defs><path class="a06b6d53-7210-4e75-907c-e631df6c4763" d="M731.12 417.41a1.61 1.61 0 0 1-1.61-1.61v-11.13a1.61 1.61 0 1 1 3.22 0v11.13a1.61 1.61 0 0 1-1.61 1.61Z" transform="translate(-627.59 -403.06)"/><path class="a06b6d53-7210-4e75-907c-e631df6c4763" d="M736.68 411.85h-11.13a1.62 1.62 0 0 1 0-3.23h11.13a1.62 1.62 0 1 1 0 3.23Z" transform="translate(-627.59 -403.06)"/><path d="M633.89 474.33a6.3 6.3 0 1 1 6.3-6.3 6.31 6.31 0 0 1-6.3 6.3Zm0-9.38A3.08 3.08 0 1 0 637 468a3.08 3.08 0 0 0-3.11-3Z" transform="translate(-627.59 -403.06)" style="fill:#dd788c"/><path d="M759.43 486.22h-3.87a1.62 1.62 0 0 1 0-3.23h3.87a1.62 1.62 0 0 1 0 3.23Zm-9.35 0h-3.87a1.62 1.62 0 0 1 0-3.23h3.87a1.62 1.62 0 0 1 0 3.23Zm2.74 6.61a1.61 1.61 0 0 1-1.61-1.61v-3.87a1.61 1.61 0 1 1 3.22 0v3.87a1.61 1.61 0 0 1-1.61 1.61Zm0-9.35a1.61 1.61 0 0 1-1.61-1.61V478a1.61 1.61 0 1 1 3.22 0v3.87a1.61 1.61 0 0 1-1.61 1.61Z" transform="translate(-627.59 -403.06)" style="fill:#b7cf49"/><path class="e6b572f4-5df8-4088-b5e9-3c18c5f5b172" d="M650.29 591a11.72 11.72 0 0 1-11.72-11.72v-66.75H662v66.77a11.72 11.72 0 0 1-11.71 11.7Z" transform="translate(-627.59 -403.06)"/><path class="bfd643a0-9c97-4f3c-88aa-fe2120cee4b9" d="M645.8 579.3v-66.77h-7.23v66.77a11.72 11.72 0 0 0 11.72 11.7c-2.48 0-4.49-5.23-4.49-11.7Z" transform="translate(-627.59 -403.06)"/><path class="ac266fdc-9c34-495d-8904-f470b9e12b85" d="M654.78 512.53v66.77c0 6.47-2 11.72-4.49 11.72A11.72 11.72 0 0 0 662 579.3v-66.77Z" transform="translate(-627.59 -403.06)"/><path class="a55cf77f-e05e-4809-9e3a-f310ad334c04" d="M650.29 592.63A13.35 13.35 0 0 1 637 579.3v-66.77a1.62 1.62 0 0 1 1.61-1.62H662a1.63 1.63 0 0 1 1.62 1.62v66.77a13.35 13.35 0 0 1-13.33 13.33Zm-10.1-78.49v65.16a10.1 10.1 0 0 0 20.2 0v-65.16Z" transform="translate(-627.59 -403.06)"/><path class="a55cf77f-e05e-4809-9e3a-f310ad334c04" d="M669.62 514.14H631a1.62 1.62 0 0 1 0-3.23h38.66a1.62 1.62 0 0 1 0 3.23ZM639 544a1.58 1.58 0 0 1-1.07-.41 1.61 1.61 0 0 1-.13-2.28l4.64-5.18a1.61 1.61 0 0 1 2.4 2.15l-4.63 5.19a1.63 1.63 0 0 1-1.21.53Zm8.7-9.77a1.66 1.66 0 0 1-1.08-.41 1.61 1.61 0 0 1-.12-2.28l14.3-16a1.61 1.61 0 0 1 2.4 2.15l-14.3 16a1.6 1.6 0 0 1-1.2.54Zm-8.7 29a1.58 1.58 0 0 1-1.07-.41 1.6 1.6 0 0 1-.13-2.27l23-25.76a1.61 1.61 0 0 1 2.4 2.15l-23 25.76a1.63 1.63 0 0 1-1.2.53Zm0 19.25a1.62 1.62 0 0 1-1.2-2.69l15.12-16.9a1.61 1.61 0 0 1 2.41 2.15l-15.12 16.9a1.6 1.6 0 0 1-1.21.54Zm18.64-20.89a1.58 1.58 0 0 1-1.07-.41 1.61 1.61 0 0 1-.13-2.27l4.36-4.91a1.61 1.61 0 1 1 2.4 2.15l-4.35 4.87a1.63 1.63 0 0 1-1.21.57Z" transform="translate(-627.59 -403.06)"/><path class="e6b572f4-5df8-4088-b5e9-3c18c5f5b172" d="M737 591a11.72 11.72 0 0 1-11.72-11.72v-66.75h23.43v66.77A11.72 11.72 0 0 1 737 591Z" transform="translate(-627.59 -403.06)"/><path class="bfd643a0-9c97-4f3c-88aa-fe2120cee4b9" d="M732.49 579.3v-66.77h-7.23v66.77A11.72 11.72 0 0 0 737 591c-2.5 0-4.51-5.23-4.51-11.7Z" transform="translate(-627.59 -403.06)"/><path class="ac266fdc-9c34-495d-8904-f470b9e12b85" d="M741.47 512.53v66.77c0 6.47-2 11.72-4.49 11.72a11.72 11.72 0 0 0 11.71-11.72v-66.77Z" transform="translate(-627.59 -403.06)"/><path class="a55cf77f-e05e-4809-9e3a-f310ad334c04" d="M737 592.63a13.35 13.35 0 0 1-13.33-13.33v-66.77a1.62 1.62 0 0 1 1.61-1.62h23.43a1.63 1.63 0 0 1 1.62 1.62v66.77A13.35 13.35 0 0 1 737 592.63Zm-10.1-78.49v65.16a10.1 10.1 0 0 0 20.2 0v-65.16Z" transform="translate(-627.59 -403.06)"/><path class="a55cf77f-e05e-4809-9e3a-f310ad334c04" d="M756.31 514.14h-38.66a1.62 1.62 0 1 1 0-3.23h38.66a1.62 1.62 0 0 1 0 3.23ZM725.65 544a1.58 1.58 0 0 1-1.07-.41 1.61 1.61 0 0 1-.13-2.28l4.64-5.18a1.61 1.61 0 0 1 2.4 2.15l-4.63 5.19a1.63 1.63 0 0 1-1.21.53Zm8.74-9.77a1.66 1.66 0 0 1-1.08-.41 1.61 1.61 0 0 1-.12-2.28l14.3-16a1.61 1.61 0 0 1 2.4 2.15l-14.3 16a1.6 1.6 0 0 1-1.2.54Zm-8.74 29a1.58 1.58 0 0 1-1.07-.41 1.6 1.6 0 0 1-.13-2.27l23-25.76a1.61 1.61 0 0 1 2.4 2.15l-23 25.76a1.63 1.63 0 0 1-1.2.53Zm0 19.25a1.62 1.62 0 0 1-1.2-2.69l15.12-16.9A1.61 1.61 0 0 1 742 565l-15.12 16.9a1.6 1.6 0 0 1-1.23.58Zm18.68-20.89a1.58 1.58 0 0 1-1.07-.41 1.61 1.61 0 0 1-.13-2.27l4.36-4.87a1.61 1.61 0 1 1 2.4 2.15l-4.35 4.87a1.63 1.63 0 0 1-1.21.53Z" transform="translate(-627.59 -403.06)"/><path class="a55cf77f-e05e-4809-9e3a-f310ad334c04" d="M693.63 555.14a13.54 13.54 0 0 1-13.52-13.52V493a14 14 0 0 0-28 0v19.53a1.62 1.62 0 0 1-3.23 0V493a17.24 17.24 0 0 1 34.47 0v48.62a10.3 10.3 0 1 0 20.59 0v-58.43a23.05 23.05 0 0 0-23-23h-17.45a23.83 23.83 0 0 1 0-47.65H692a46.79 46.79 0 0 1 46.71 46.56l.06 16.75v36.71a1.62 1.62 0 0 1-3.23 0v-53.48A43.57 43.57 0 0 0 692 415.74h-28.51a20.6 20.6 0 1 0 0 41.19h17.41a26.29 26.29 0 0 1 26.26 26.26v58.43a13.54 13.54 0 0 1-13.53 13.52Z" transform="translate(-627.59 -403.06)"/><path d="M682.7 437.91h-6.86a1.61 1.61 0 0 1-1.61-1.61v-6.86a1.62 1.62 0 0 1 1.61-1.62h6.86a1.62 1.62 0 0 1 1.61 1.62v6.86a1.61 1.61 0 0 1-1.61 1.61Zm-5.25-3.23h3.64v-3.63h-3.64Z" transform="translate(-627.59 -403.06)" style="fill:#a0c5ea"/></svg>