<svg id="e5023ea9-5122-46db-b24b-a236aecd76f7" data-name="Warstwa 3" xmlns="http://www.w3.org/2000/svg" viewBox="0 0 541.07 541.07"><defs><style>.a4518d57-11cb-4a57-8459-9ffcc623c3cf{fill:#fff;}.ec98c857-443f-4933-9d6f-83f5aaafc66d{fill:#07cc66;}.a0780f7f-1bc9-4869-9526-9d434ceec19b{fill:#d94556;}.b7c1bac4-a136-4b3a-9a0c-7dfdd9ce87a6{fill:#c6f9de;}</style></defs><g id="f0ed6738-31e2-42e0-990b-e99e2dad11e0" data-name="892, Arrows, Direction, Network, Left"><rect class="a4518d57-11cb-4a57-8459-9ffcc623c3cf" width="541.07" height="541.07"/><path class="ec98c857-443f-4933-9d6f-83f5aaafc66d" d="M2377.07,1837a12.53,12.53,0,1,1-12.53,12.53A12.53,12.53,0,0,1,2377.07,1837Z" transform="translate(-1993.77 -1582.11)"/><path class="ec98c857-443f-4933-9d6f-83f5aaafc66d" d="M2211.06,1937.22a15.67,15.67,0,1,1-15.66,15.67A15.66,15.66,0,0,1,2211.06,1937.22Z" transform="translate(-1993.77 -1582.11)"/><path class="ec98c857-443f-4933-9d6f-83f5aaafc66d" d="M2176.61,1730.49a18.8,18.8,0,1,1-18.8,18.8A18.8,18.8,0,0,1,2176.61,1730.49Z" transform="translate(-1993.77 -1582.11)"/><polygon class="a0780f7f-1bc9-4869-9526-9d434ceec19b" points="358.24 173.44 308.13 273.67 358.24 373.9 170.31 273.67 358.24 173.44"/><path class="b7c1bac4-a136-4b3a-9a0c-7dfdd9ce87a6" d="M2370.48,1891.38a6.27,6.27,0,1,1-7.93-4A6.26,6.26,0,0,1,2370.48,1891.38Z" transform="translate(-1993.77 -1582.11)"/><path class="b7c1bac4-a136-4b3a-9a0c-7dfdd9ce87a6" d="M2282.78,1966.56a6.27,6.27,0,1,1-7.93-4A6.27,6.27,0,0,1,2282.78,1966.56Z" transform="translate(-1993.77 -1582.11)"/><path class="b7c1bac4-a136-4b3a-9a0c-7dfdd9ce87a6" d="M2257.72,1766.09a6.27,6.27,0,1,1-7.92-4A6.28,6.28,0,0,1,2257.72,1766.09Z" transform="translate(-1993.77 -1582.11)"/><path class="b7c1bac4-a136-4b3a-9a0c-7dfdd9ce87a6" d="M2170,1910.19a6.26,6.26,0,1,1-7.92-4A6.26,6.26,0,0,1,2170,1910.19Z" transform="translate(-1993.77 -1582.11)"/><path class="b7c1bac4-a136-4b3a-9a0c-7dfdd9ce87a6" d="M2151.23,1810a6.27,6.27,0,1,1-7.93-4A6.28,6.28,0,0,1,2151.23,1810Z" transform="translate(-1993.77 -1582.11)"/></g></svg>