<svg width="24" height="24" fill="none" xmlns="http://www.w3.org/2000/svg"><path d="M1 12c0 2.448.132 4.346.462 5.827.326 1.47.833 2.465 1.54 3.172.706.706 1.702 1.213 3.171 1.54 1.48.328 3.38.461 5.827.461 2.448 0 4.346-.133 5.827-.462 1.47-.326 2.465-.833 3.172-1.54.706-.706 1.213-1.702 1.54-3.171.328-1.48.461-3.38.461-5.827 0-2.448-.133-4.346-.462-5.827-.326-1.47-.833-2.465-1.54-3.172-.706-.706-1.702-1.213-3.171-1.54C16.347 1.133 14.447 1 12 1c-2.448 0-4.346.132-5.827.462-1.47.326-2.465.833-3.172 1.54-.706.706-1.213 1.702-1.54 3.171C1.133 7.653 1 9.553 1 12ZM12 7v10m5-6v6M7 13v4" stroke="#212135" stroke-width="2" stroke-linecap="round" stroke-linejoin="round"/></svg>