<svg id="f5d74632-6a2a-4ee2-b5df-2227b9bee093" data-name="Layer 2" xmlns="http://www.w3.org/2000/svg" viewBox="0 0 213.82 97.68"><defs><style>.bbb77704-42b0-4c62-b057-3bf87a7562ae{fill:#b7cf49}.f618dce6-9a40-432f-88e4-0215853cdf61{fill:#404b75}.baf02b35-998d-45f9-93eb-c84944af60fa{fill:#b0c2d5}.ad31a104-511c-46d8-8c37-6d77b2f34343{fill:#7f96a2}.bef19fdf-b0e1-4ec1-a829-1b49aa2f6f6a{fill:#deebf5}</style></defs><path class="bbb77704-42b0-4c62-b057-3bf87a7562ae" d="M664.28 465.72a1.61 1.61 0 0 1-1.61-1.61v-4.62a1.61 1.61 0 0 1 3.22 0v4.62a1.61 1.61 0 0 1-1.61 1.61ZM664.28 476.88a1.61 1.61 0 0 1-1.61-1.62v-4.61a1.61 1.61 0 1 1 3.22 0v4.61a1.61 1.61 0 0 1-1.61 1.62ZM672.17 469h-4.62a1.62 1.62 0 0 1 0-3.23h4.62a1.62 1.62 0 0 1 0 3.23ZM661 469h-4.62a1.62 1.62 0 0 1 0-3.23H661a1.62 1.62 0 0 1 0 3.23Z" transform="translate(-587.4 -449)"/><path d="M718.73 463.41a7.21 7.21 0 1 1 7.21-7.2 7.21 7.21 0 0 1-7.21 7.2Zm0-11.18a4 4 0 1 0 4 4 4 4 0 0 0-4-4Z" transform="translate(-587.4 -449)" style="fill:#dd788c"/><path style="fill:#ead9d8" d="M57.07 39.77h99.69v23.12H57.07z"/><path style="fill:#f8f0f1" d="M57.07 39.77h99.69v6.43H57.07z"/><path style="fill:#c0aeab" d="M57.07 53.43h99.69v9.46H57.07z"/><path class="f618dce6-9a40-432f-88e4-0215853cdf61" d="M745.77 513.51H642.86v-26.35h102.91Zm-99.68-3.23h96.46v-19.89h-96.46Z" transform="translate(-587.4 -449)"/><path class="baf02b35-998d-45f9-93eb-c84944af60fa" d="M195.12 31.29v40.08l17.09-2.09v-35.9l-17.09-2.09z"/><path class="f618dce6-9a40-432f-88e4-0215853cdf61" d="M782.53 522a1.61 1.61 0 0 1-1.62-1.61v-40.1a1.58 1.58 0 0 1 .55-1.2 1.61 1.61 0 0 1 1.26-.4l17.09 2.09a1.62 1.62 0 0 1 1.42 1.6v35.9a1.62 1.62 0 0 1-1.42 1.61L782.72 522Zm1.61-39.86v36.43l13.86-1.71v-33.05Z" transform="translate(-587.4 -449)"/><path class="baf02b35-998d-45f9-93eb-c84944af60fa" d="M156.76 23.37h46.91v55.92h-46.91z"/><path class="ad31a104-511c-46d8-8c37-6d77b2f34343" d="M156.76 96.07h40.85l6.06-16.78h-46.91v16.78z"/><path class="bef19fdf-b0e1-4ec1-a829-1b49aa2f6f6a" d="M156.76 6.59v16.78h46.91l-6.06-16.78h-40.85z"/><path class="f618dce6-9a40-432f-88e4-0215853cdf61" d="M744.16 529.91a1.62 1.62 0 0 1-1.61-1.62v-55.92a1.61 1.61 0 0 1 3.22 0v55.92a1.62 1.62 0 0 1-1.61 1.62ZM757.05 529.91h-3.57a1.62 1.62 0 0 1 0-3.23h3.57a1.62 1.62 0 1 1 0 3.23ZM791.07 529.91a1.62 1.62 0 0 1-1.61-1.62v-55.92a1.61 1.61 0 1 1 3.22 0v55.92a1.62 1.62 0 0 1-1.61 1.62Z" transform="translate(-587.4 -449)"/><path class="f618dce6-9a40-432f-88e4-0215853cdf61" d="M791.07 474h-9.16a1.62 1.62 0 1 1 0-3.23h6.86l-4.89-13.55h-38.11v13.55H772a1.62 1.62 0 1 1 0 3.23h-27.8a1.62 1.62 0 0 1-1.61-1.62V455.6a1.61 1.61 0 0 1 1.61-1.62H785a1.62 1.62 0 0 1 1.52 1.07l6.06 16.77a1.62 1.62 0 0 1-1.52 2.17ZM785 546.68h-40.84a1.61 1.61 0 0 1-1.61-1.61v-16.78a1.61 1.61 0 1 1 3.22 0v15.17h38.11l4.89-13.55h-23.33a1.62 1.62 0 0 1 0-3.23h25.63a1.62 1.62 0 0 1 1.52 2.16l-6.06 16.78a1.61 1.61 0 0 1-1.53 1.06Z" transform="translate(-587.4 -449)"/><path class="baf02b35-998d-45f9-93eb-c84944af60fa" d="M18.7 31.29v40.08L1.61 69.28v-35.9l17.09-2.09z"/><path class="f618dce6-9a40-432f-88e4-0215853cdf61" d="M606.1 522h-.19l-17.09-2.08a1.62 1.62 0 0 1-1.42-1.61v-35.9a1.62 1.62 0 0 1 1.42-1.6l17.09-2.09a1.61 1.61 0 0 1 1.26.4 1.58 1.58 0 0 1 .55 1.2v40.08a1.62 1.62 0 0 1-.55 1.21 1.59 1.59 0 0 1-1.07.39Zm-15.47-5.12 13.86 1.69v-36.45l-13.86 1.69Z" transform="translate(-587.4 -449)"/><path class="baf02b35-998d-45f9-93eb-c84944af60fa" d="M10.16 23.37h46.91v55.92H10.16z"/><path class="ad31a104-511c-46d8-8c37-6d77b2f34343" d="M57.07 96.07H16.21l-6.05-16.78h46.91v16.78z"/><path class="bef19fdf-b0e1-4ec1-a829-1b49aa2f6f6a" d="M57.07 6.59v16.78H10.16l6.05-16.78h40.86z"/><path class="f618dce6-9a40-432f-88e4-0215853cdf61" d="M644.47 529.91a1.62 1.62 0 0 1-1.61-1.62v-55.92a1.62 1.62 0 0 1 3.23 0v55.92a1.63 1.63 0 0 1-1.62 1.62ZM635.15 529.91h-3.57a1.62 1.62 0 0 1 0-3.23h3.57a1.62 1.62 0 0 1 0 3.23ZM597.56 529.91a1.62 1.62 0 0 1-1.61-1.62v-55.92a1.61 1.61 0 1 1 3.22 0v55.92a1.62 1.62 0 0 1-1.61 1.62Z" transform="translate(-587.4 -449)"/><path class="f618dce6-9a40-432f-88e4-0215853cdf61" d="M644.47 474h-27.8a1.62 1.62 0 1 1 0-3.23h26.19v-13.56h-38.11l-4.89 13.55h6.87a1.62 1.62 0 0 1 0 3.23h-9.17a1.62 1.62 0 0 1-1.52-2.17l6.06-16.77a1.62 1.62 0 0 1 1.52-1.07h40.85a1.62 1.62 0 0 1 1.62 1.62v16.77a1.63 1.63 0 0 1-1.62 1.63ZM644.47 546.68h-40.85a1.61 1.61 0 0 1-1.52-1.06l-6.1-16.78a1.62 1.62 0 0 1 1.52-2.16h25.63a1.62 1.62 0 0 1 0 3.23h-23.29l4.89 13.55h38.11v-15.17a1.62 1.62 0 0 1 3.23 0v16.78a1.62 1.62 0 0 1-1.62 1.61Z" transform="translate(-587.4 -449)"/></svg>